<?xml version="1.0" encoding="UTF-8"?>
<svg width="138px" height="59px" viewBox="0 0 138 59" version="1.1" xmlns="http://www.w3.org/2000/svg" xmlns:xlink="http://www.w3.org/1999/xlink">
    <title>Logo</title>
    <g id="Symbols" stroke="none" stroke-width="1" fill="none" fill-rule="evenodd">
        <g id="MENU-PRINCIPAL" transform="translate(-148.000000, -17.000000)" fill="#FFFFFF" fill-rule="nonzero">
            <g id="Logo" transform="translate(148.000000, 17.000000)">
                <path d="M19.8643682,59 C20.2372965,59 20.5357143,58.7050833 20.5357143,58.336391 C20.5357143,54.2809611 18.7205794,50.2501232 15.438422,47.0058537 C14.021094,45.60486 12.3800466,44.4988449 10.9130241,43.5403192 C10.5897903,43.3436461 10.1671049,43.4174217 9.96813876,43.7123384 C9.76923532,44.031847 9.84387111,44.4496612 10.1422263,44.6463342 C11.5594916,45.5802681 13.1508444,46.6371613 14.4687207,47.9397875 C17.5022175,50.9383241 19.1681435,54.6250616 19.1681435,58.336391 C19.1930221,58.6804914 19.4913772,59 19.8643682,59 Z" id="Path"></path>
                <path d="M10.5416278,15.5694444 C10.3173232,15.5694444 10.1179553,15.4705981 9.96839796,15.2729055 C9.76903004,14.9516395 9.84384012,14.5314649 10.142892,14.3337723 L10.2924493,14.234926 C12.1865702,12.9745267 13.9560704,11.7883088 15.3767082,10.1571891 C17.8191222,7.36457874 19.1898866,4.0035741 19.1898866,0.667259235 C19.1898866,0.296560698 19.4889385,0 19.8628004,0 C20.2366624,0 20.5357143,0.296560698 20.5357143,0.667259235 C20.5357143,4.32484637 19.065266,8.00717311 16.3985473,11.0468681 C14.8532889,12.8262883 12.9092946,14.1113525 11.0401105,15.3470247 L10.8905531,15.445871 C10.7908691,15.5199902 10.6662485,15.5694444 10.5416278,15.5694444 Z" id="Path"></path>
                <path d="M9.99724578,44.25 C9.87320396,44.25 9.72440379,44.199417 9.62512031,44.1236062 L9.47632014,44.0225039 C7.61575531,42.7333381 5.68082166,41.4188808 4.14278433,39.6242035 C1.46361849,36.5150689 0,32.7487375 0,29.0076976 C0,25.317177 1.43881013,21.6013648 4.06835923,18.5681047 C5.63120493,16.7481359 7.51653436,15.4589701 9.35227832,14.2203873 L9.62512031,14.0434105 C9.94766657,13.8412059 10.3693713,13.9170167 10.5678132,14.2203873 C10.7662551,14.5489857 10.691855,14.9786864 10.3941921,15.180891 L10.1212876,15.3578678 C8.28554365,16.6217421 6.54908316,17.8097419 5.08545217,19.4780891 C2.67916584,22.2585616 1.36439128,25.6204839 1.36439128,28.9824061 C1.36439128,32.3695561 2.7039742,35.8325806 5.15987101,38.6889276 C6.59866238,40.3572748 8.36000625,41.5705661 10.2205086,42.8597319 L10.3693713,42.9608342 C10.691855,43.1630388 10.7662551,43.5927395 10.5429923,43.9214016 C10.4189505,44.1488977 10.1956877,44.25 9.99724578,44.25 Z" id="Path"></path>
                <path d="M1.72228009,7.7982702 C2.8205452,9.92742211 4.39306044,11.90264 6.43981951,13.646989 C6.88910778,14.0317272 7.36337049,14.3908636 7.8376332,14.75 C8.08725177,14.5704641 8.33680744,14.3908636 8.58642602,14.2369942 L8.83604459,14.0573937 C8.910905,14.0061254 8.96085388,13.980459 9.03571429,13.929126 C9.01073985,13.8778578 8.98582832,13.8521913 8.96085388,13.8521913 C7.56304019,12.8517815 6.29006095,11.851307 5.19179584,10.5430291 C2.72070406,7.64433613 1.37283296,4.1556574 1.37283296,0.692606334 C1.37283296,0.307826115 1.07330325,0 0.673932406,0 C0.274565963,0 0,0.307826115 0,0.692606334 C0,3.43739108 0.773779835,6.20782935 2.24645393,8.74741177 C2.04676536,8.43954363 1.89700051,8.10607369 1.72228009,7.7982702 Z" id="Path"></path>
                <path d="M10.6785714,18.3548907 L10.6785714,23.4368394 C10.6785714,23.612982 10.48906,23.7638889 10.2678571,23.7638889 C10.0467339,23.7638889 9.85714286,23.612982 9.85714286,23.4368394 L9.85714286,18.3548907 C9.85714286,18.1787481 10.0467339,18.0277778 10.2678571,18.0277778 C10.48906,18.0529501 10.6785714,18.1787481 10.6785714,18.3548907 Z" id="Path"></path>
                <path d="M10.6785714,34.7437198 L10.6785714,39.8257247 C10.6785714,40.0018692 10.48906,40.1527778 10.2678571,40.1527778 C10.0467339,40.1527778 9.85714286,40.0018692 9.85714286,39.8257247 L9.85714286,34.7437198 C9.85714286,34.5675752 10.0467339,34.4166667 10.2678571,34.4166667 C10.48906,34.4417758 10.6785714,34.5675752 10.6785714,34.7437198 Z" id="Path"></path>
                <path d="M15.1135557,28.6805556 L20.2078729,28.6805556 C20.3843784,28.6805556 20.5357143,28.8696092 20.5357143,29.0902778 C20.5357143,29.3108669 20.3843784,29.5 20.2078729,29.5 L15.1135557,29.5 C14.9370501,29.5 14.7857143,29.3108669 14.7857143,29.0902778 C14.7857143,28.8381532 14.9370501,28.6805556 15.1135557,28.6805556 Z" id="Path"></path>
                <path d="M17.9800195,36.3461245 L14.4944338,32.8689674 C14.3725551,32.7473812 14.1775736,32.7473812 14.0556948,32.8689674 C13.933816,32.9905536 13.933816,33.1850671 14.0556948,33.3066533 L17.5412805,36.7838103 C17.6631592,36.9053966 17.8581407,36.9053966 17.9800195,36.7838103 C18.1018983,36.6622241 18.1018983,36.4677107 17.9800195,36.3461245 Z" id="Path"></path>
                <path d="M17.9800181,21.8343831 L14.4944418,25.3115885 C14.3725612,25.4331742 14.1775768,25.4331742 14.0556962,25.3115885 C13.9338156,25.1900027 13.9338156,24.99549 14.0556962,24.8739043 L17.5412725,21.3966989 C17.6631531,21.2751744 17.8581375,21.2751744 17.9800181,21.3966989 C18.1018987,21.5182847 18.1018987,21.7128586 17.9800181,21.8343831 Z" id="Path"></path>
                <path d="M5.25910328,47.5277778 L15.2766238,47.5277778 C15.454635,47.5277778 15.6071429,47.7168926 15.6071429,47.9375397 C15.6071429,48.1581074 15.454635,48.3472222 15.2766238,48.3472222 L5.25910328,48.3472222 C5.0811241,48.3472222 4.92857143,48.1581074 4.92857143,47.9375397 C4.92857143,47.7168926 5.0811241,47.5277778 5.25910328,47.5277778 Z" id="Path"></path>
                <path d="M2.78738708,51.625 L18.569762,51.625 C18.7437122,51.625 18.8928571,51.8141148 18.8928571,52.0346825 C18.8928571,52.2553297 18.7437122,52.4444444 18.569762,52.4444444 L2.78738708,52.4444444 C2.61341183,52.4444444 2.46428571,52.2553297 2.46428571,52.0346825 C2.48914111,51.8141148 2.61341183,51.625 2.78738708,51.625 Z" id="Path"></path>
                <path d="M1.15198804,55.7222222 L19.3837327,55.7222222 C19.5616981,55.7222222 19.7142857,55.9112759 19.7142857,56.1319444 C19.7142857,56.3525336 19.5616981,56.5416667 19.3837327,56.5416667 L1.15198804,56.5416667 C0.973996947,56.5416667 0.821428571,56.3525336 0.821428571,56.1319444 C0.846857702,55.9112759 0.973996947,55.7222222 1.15198804,55.7222222 Z" id="Path"></path>
                <path d="M5.25910328,10.6527778 L15.2766238,10.6527778 C15.454635,10.6527778 15.6071429,10.463663 15.6071429,10.2430158 C15.6071429,10.0224481 15.454635,9.83333333 15.2766238,9.83333333 L5.25910328,9.83333333 C5.0811241,9.83333333 4.92857143,10.0224481 4.92857143,10.2430158 C4.92857143,10.463663 5.0811241,10.6527778 5.25910328,10.6527778 Z" id="Path"></path>
                <path d="M1.96595924,7.375 L17.7483327,7.375 C17.922346,7.375 18.0714286,7.18587422 18.0714286,6.96529366 C18.0714286,6.74463368 17.922346,6.55555556 17.7483327,6.55555556 L1.96595924,6.55555556 C1.7919836,6.55555556 1.64285714,6.74463368 1.64285714,6.96529366 C1.64285714,7.21740842 1.7919836,7.375 1.96595924,7.375 Z" id="Path"></path>
                <path d="M1.15198804,3.27777778 L19.3837327,3.27777778 C19.5616981,3.27777778 19.7142857,3.08867399 19.7142857,2.86805158 C19.7142857,2.64743712 19.5616981,2.45833333 19.3837327,2.45833333 L1.15198804,2.45833333 C0.973996947,2.45833333 0.821428571,2.64743712 0.821428571,2.86805158 C0.821428571,3.12019261 0.973996947,3.27777778 1.15198804,3.27777778 Z" id="Path"></path>
                <path d="M13.9427115,39.3333333 L12.3214286,35.263192 C12.3214286,35.2360427 12.3214286,35.2361111 12.3214286,35.2361111 C12.3430573,35.2361111 12.3430573,35.2361111 12.3430573,35.2361111 L13.9642857,39.306184 C13.9642857,39.3333333 13.9642857,39.3333333 13.9642857,39.3333333 C13.9642857,39.3333333 13.9642857,39.3333333 13.9427115,39.3333333 Z" id="Path"></path>
                <path d="M19.6877734,33.5869949 L15.6336552,32.0076528 C15.6071429,32.0076528 15.6071429,31.982962 15.6071429,31.982962 C15.6071429,31.9583333 15.6336552,31.9583333 15.6336552,31.9583333 L19.6877734,33.5376755 C19.7142857,33.5376755 19.7142857,33.5623041 19.7142857,33.5623041 C19.7142857,33.5869949 19.7142857,33.6116858 19.6877734,33.5869949 Z" id="Path"></path>
                <path d="M19.6883421,25.4761406 L15.6331519,27.0416667 C15.6071429,27.0416667 15.6071429,27.0416667 15.6071429,27.0171918 C15.6071429,26.992717 15.6071429,26.992717 15.6331519,26.992717 L19.6883421,25.4027778 C19.7142857,25.4027778 19.7142857,25.4027778 19.7142857,25.427191 C19.7142857,25.4516658 19.6883421,25.4761406 19.6883421,25.4761406 Z" id="Path"></path>
                <path d="M13.9548218,19.7133365 L12.3586392,23.7438587 C12.3586392,23.7705656 12.337399,23.7705656 12.337399,23.7438587 C12.3161051,23.7438587 12.3161051,23.7171518 12.337399,23.7171518 L13.9335279,19.6866968 C13.9335279,19.6599899 13.9548218,19.6599899 13.9548218,19.6866968 C13.9548218,19.6866968 13.9761156,19.7133365 13.9548218,19.7133365 Z" id="Path"></path>
                <path d="M7.9013625,44.5784333 C7.83614107,44.6109653 7.77100179,44.6759472 7.70578036,44.7410111 C7.77100179,44.6759472 7.83614107,44.6109653 7.9013625,44.5784333 Z" id="Path"></path>
                <path d="M6.78656071,44.806034 C6.91692143,44.7084382 7.04728214,44.6109243 7.177725,44.5134104 C7.04728214,44.6109243 6.91692143,44.7084382 6.78656071,44.806034 Z" id="Path"></path>
                <path d="M5.93256661,45.6905014 C6.09552982,45.5604556 6.25849304,45.4304097 6.38886196,45.2678319 C6.22589875,45.3978778 6.09552982,45.5279236 5.93256661,45.6905014 Z" id="Path"></path>
                <path d="M8.93459643,45.251566 C8.73909643,45.3816118 8.51090357,45.5441896 8.31540357,45.7067674 C8.51090357,45.5441896 8.73909643,45.3816118 8.93459643,45.251566 Z" id="Path"></path>
                <path d="M5.94886786,45.6579694 C6.07922857,45.5279236 6.2422,45.4304097 6.37256071,45.3003639 C6.20958929,45.4304097 6.07922857,45.5279236 5.94886786,45.6579694 Z" id="Path"></path>
                <path d="M6.40517143,46.8904549 C6.2422,47.0530326 6.07922857,47.2156104 5.91625714,47.3456563 C6.07922857,47.1830785 6.2422,47.0205007 6.40517143,46.8904549 Z" id="Path"></path>
                <path d="M0,58.3389583 C0,54.3073096 1.9079541,50.3001702 5.3579541,47.0748636 C5.48863606,46.9526869 5.61931803,46.8305101 5.75,46.7083333 C5.61931803,46.8305101 5.46249835,46.9526869 5.33181639,47.0748636 C1.9079541,50.3001702 0,54.3073096 0,58.3389583 C0,58.7054886 0.313636064,58.9986759 0.705678674,58.9986759 C0.313636064,59.0231236 0,58.7054886 0,58.3389583 Z" id="Path"></path>
                <path d="M7.21029464,46.1035424 C7.04732321,46.2335882 6.9169625,46.363634 6.75399107,46.4936799 C6.9169625,46.363634 7.04732321,46.2335882 7.21029464,46.1035424 Z" id="Path"></path>
                <path d="M8.11320893,46.0710104 C7.91762679,46.2335882 7.68951607,46.396166 7.49393393,46.5262118 C7.68951607,46.396166 7.88501607,46.2335882 8.11320893,46.0710104 Z" id="Path"></path>
                <path d="M0,58.3097957 C0,58.693264 0.302028855,59 0.679562545,59 C1.05709941,59 1.35913143,58.693264 1.35913143,58.3097957 C1.35913143,54.4497285 3.04545894,50.6152388 6.11608828,47.4965308 C6.19159946,47.4198629 6.2419339,47.368708 6.31744508,47.2920401 C6.44331607,47.1642174 6.5691046,47.0363946 6.69495656,46.9341493 C6.79562545,46.8319039 6.89635777,46.755236 6.99702665,46.6785037 C7.12287861,46.5762584 7.2235475,46.4740131 7.34939946,46.3717677 C7.45006835,46.2950354 7.55073723,46.2183675 7.65140612,46.1161222 C7.80244116,45.9882994 7.95341277,45.8604767 8.12963089,45.7582313 C8.23029978,45.6815635 8.35615174,45.5793181 8.45682063,45.5025858 C8.60785567,45.374763 8.78401036,45.2725177 8.9350454,45.1446949 C8.96016505,45.1191819 9.01053121,45.0936045 9.03571429,45.0680271 C8.9350454,45.0169366 8.85949616,44.9402043 8.75882728,44.8891138 L8.60785567,44.7868685 C8.33096866,44.6078909 8.07926473,44.4289776 7.80244116,44.25 C7.752075,44.2755774 7.70177228,44.3266679 7.65140612,44.3522453 C7.52555415,44.4544907 7.39970219,44.531223 7.27385022,44.6334683 C7.17318134,44.7101362 7.07251246,44.7868685 6.97184357,44.8635364 C6.87117469,44.9402043 6.7705058,45.0424496 6.64465384,45.1191819 C6.54398495,45.2214273 6.41813299,45.2980952 6.31744508,45.4003405 C6.21676351,45.4770728 6.14125867,45.5537407 6.06575384,45.6304086 C5.93990821,45.7326539 5.81406259,45.8348992 5.71338737,45.962722 C5.66304658,46.0138769 5.58754175,46.0649673 5.53720096,46.1416996 C5.41135534,46.2695224 5.28550972,46.3973452 5.1596641,46.5251679 C1.83734352,49.8994571 0,54.0918377 0,58.3097957 Z" id="Path"></path>
                <path d="M12.3105995,24.6558048 L9.92408614,29.4802169 C9.92408614,29.5065944 9.89978218,29.5065944 9.87541685,29.4802169 C9.85105152,29.4802169 9.85105152,29.4538395 9.87541685,29.4274621 L12.2618689,24.6031164 C12.2618689,24.576739 12.2862342,24.576739 12.3105995,24.6031164 C12.3105995,24.6294274 12.3349649,24.6558048 12.3105995,24.6558048 Z" id="Path" stroke="#FFFFFF" stroke-width="0.5"></path>
                <path d="M13.1145166,31.9393137 L9.85714286,29.5254235 L9.85714286,29.5 L9.88548337,29.5 L13.1428571,31.9138902 L13.1428571,31.9393137 C13.1428571,31.9646732 13.1428571,31.9646732 13.1145166,31.9393137 Z" id="Path" stroke="#FFFFFF" stroke-width="0.5"></path>
                <path d="M29.1342367,17.9837636 C29.1342367,17.9837636 29.1342367,18.0431147 29.1342367,17.9837636 C29.1342367,18.0431147 29.1342367,18.0431147 29.1342367,18.0431147 C29.1342367,19.5268921 29.6708034,20.7733287 30.6843822,21.8416484 C31.6978972,22.9099682 33.0095049,23.3847769 34.5000319,23.3847769 C35.9904951,23.3847769 37.2425481,22.8506171 38.3156816,21.8416484 C39.3888151,20.8326798 39.8657633,19.5268921 39.8657633,18.0431147 C39.8657633,17.330838 40.2235383,17.0340825 40.8793422,17.0340825 C41.535146,17.0340825 41.8928571,17.3902526 41.8928571,18.0431147 C41.8928571,20.061052 41.1774348,21.7822973 39.8061448,23.2067237 C38.4349186,24.6312135 36.7059175,25.3434267 34.738506,25.4027778 L34.6788875,25.4027778 C34.6788875,25.4027778 34.6788875,25.4027778 34.619269,25.4027778 C34.5596504,25.4027778 34.619269,25.4027778 34.5596504,25.4027778 C34.5000319,25.4027778 34.5000319,25.4027778 34.5000319,25.4027778 C34.5000319,25.4027778 34.5000319,25.4027778 34.4404134,25.4027778 L34.3807949,25.4027778 C34.3807949,25.4027778 34.3807949,25.4027778 34.3211763,25.4027778 L34.2615578,25.4027778 L34.2019393,25.4027778 C34.2019393,25.4027778 34.2019393,25.4027778 34.1423207,25.4027778 C32.1748455,25.3434267 30.4458443,24.6312135 29.0746181,23.2067237 C27.703392,21.7822973 27.1071429,20.061052 27.1071429,18.0431147 L27.1071429,6.35069444 C27.1071429,4.62948087 27.703392,3.08632058 28.9553811,1.89927322 C30.2073702,0.71222587 31.6978972,0 33.4268346,0 L33.4864531,0 L35.5135469,0 C37.2425481,0 38.7330113,0.652874773 39.9850642,1.89927322 C41.2370533,3.14567167 41.8332386,4.62948087 41.8332386,6.35069444 C41.8332386,7.00355651 41.4755274,7.35966309 40.8197236,7.35966309 C40.1639198,7.35966309 39.8061448,7.00355651 39.8061448,6.35069444 C39.8061448,5.16364709 39.3291966,4.15465938 38.4945372,3.32373132 C37.6598778,2.4927969 36.646299,2.07733287 35.4539284,2.07733287 L33.4268346,2.07733287 C32.234464,2.07733287 31.220949,2.4927969 30.3266072,3.32373132 C29.4323293,4.15465938 29.0746181,5.16364709 29.0746181,6.35069444 L29.0746181,6.41004554 C29.0746181,8.36869528 29.0746181,10.2679304 29.0746181,12.2265801 C29.0746181,14.1852299 29.1342367,16.0844649 29.1342367,17.9837636 Z" id="Path"></path>
                <path d="M47.8409112,0 C48.4964947,0 48.8540508,0.35286997 48.8540508,0.999799297 L48.8540508,10.2920397 L59.5809274,10.2920397 L59.5809274,0.999799297 C59.5809274,0.294059358 59.9384836,0 60.5940032,0 C61.3091794,0 61.6071429,0.35286997 61.6071429,0.999799297 L61.6071429,23.5247423 C61.6071429,24.2304697 61.2495867,24.5245227 60.5940032,24.5245227 C59.9384836,24.5245227 59.5809274,24.171659 59.5809274,23.5247423 L59.5809274,12.2916635 L48.8540508,12.2916635 L48.8540508,23.5835529 C48.8540508,24.2892803 48.4964947,24.5833333 47.8409112,24.5833333 C47.1853916,24.5833333 46.8278354,24.2304697 46.8278354,23.5835529 C46.8278354,19.7019266 46.8278354,15.9967951 46.8278354,12.2916635 C46.8278354,8.58653198 46.8278354,4.88138156 46.8278354,0.999799297 C46.7682427,0.294059358 47.1257989,0 47.8409112,0 Z" id="Path"></path>
                <path d="M81.2623035,18.6433356 C81.3214286,18.7609568 81.3214286,18.878578 81.3214286,18.9373886 L81.3214286,23.5835529 C81.3214286,24.2304697 80.9654067,24.5833333 80.3118523,24.5833333 C79.6589337,24.5833333 79.3022761,24.2304697 79.3022761,23.5835529 L79.3022761,18.9961992 L79.2431511,18.9961992 C79.2431511,17.819987 78.8273684,16.8202066 77.9958031,15.9967951 C77.1648736,15.1734465 76.0961723,14.644151 74.9085851,14.644151 L68.5548667,14.644151 L68.5548667,23.5247423 C68.5548667,24.2304697 68.1982091,24.5245227 67.5452905,24.5245227 C66.8917361,24.5245227 66.5357143,24.171659 66.5357143,23.5247423 L66.5357143,13.585497 L66.5357143,0.999799297 C66.5357143,0.35286997 66.8917361,0 67.5452905,0 L73.8990089,0 L73.958134,0 L74.017259,0 L74.0770198,0 C76.0961723,0.0588118715 77.7586671,0.764556848 79.1833903,2.23484734 C80.6087491,3.70514413 81.3214286,5.35187275 81.3214286,7.35144616 C81.3214286,8.6453426 81.0245318,9.82155484 80.4307382,10.8802088 C79.8369446,11.9387998 79.0053793,12.820959 77.9958031,13.4678758 C78.9462543,13.9972342 79.7180588,14.7029616 80.3118523,15.6439314 C80.9056459,16.5849012 81.2025427,17.5259339 81.2623035,18.6433356 Z M68.5548667,12.5857166 L73.8990089,12.5857166 C75.3834928,12.5857166 76.630205,12.0564211 77.6397813,11.0566407 C78.6493575,10.0567973 79.1833903,8.76296382 79.1833903,7.29263555 C79.1833903,5.82237024 78.6493575,4.5873222 77.6397813,3.52870599 C76.630205,2.47009609 75.323732,1.99959859 73.8392481,1.99959859 L68.4951059,1.99959859 L68.4951059,12.5857166 L68.5548667,12.5857166 Z" id="Shape"></path>
                <path d="M87.2292775,1.90038324 C88.4804604,0.653256341 89.9695083,0.0593869921 91.6964213,0 L91.7563658,0 L93.7810884,0 L93.841033,0 C95.567946,0 97.0569939,0.653256341 98.3081768,1.90038324 C99.558722,3.14751014 100.154341,4.63218653 100.214286,6.35440606 L100.214286,18.0536598 C100.214286,19.8946191 99.6186665,21.5574847 98.3674836,22.9233577 C97.1169384,24.2892943 95.6278905,25.1206953 93.841033,25.3582384 L93.6025302,25.3582384 C93.0662179,25.4176242 92.5305432,25.4176242 92.0541754,25.3582384 L91.8749795,25.3582384 C90.088122,25.1206953 88.5397672,24.2892943 87.2885843,22.9233577 C86.0380391,21.5574847 85.4424199,19.8946191 85.4424199,18.0536598 C85.4424199,17.8161167 85.4424199,17.6379594 85.4424199,17.5191878 L85.4424199,6.35440606 C85.3231686,4.57280074 85.9787323,3.08812435 87.2292775,1.90038324 Z M98.1296186,6.35440606 C98.1296186,5.16666494 97.6526131,4.15708754 96.8191289,3.32567385 C95.9850069,2.4942538 94.9723268,2.07854695 93.7810884,2.07854695 L91.7563658,2.07854695 C90.5651275,2.07854695 89.5524473,2.4942538 88.6590186,3.32567385 C87.7655898,4.15708754 87.4078357,5.16666494 87.3485288,6.35440606 L87.3485288,6.47317762 C87.3485288,8.31420051 87.3485288,10.2145456 87.3485288,12.0555685 C87.3485288,13.8965278 87.3485288,15.7969365 87.3485288,17.6379594 L87.3485288,18.1130456 C87.3485288,19.4789187 87.7655898,20.6073121 88.6590186,21.6168705 C89.5524473,22.6264288 90.6244343,23.2202866 91.9349241,23.398444 L93.423972,23.398444 C94.7344617,23.2202866 95.8064487,22.6264288 96.6998775,21.6168705 C97.5933062,20.6073121 98.0103672,19.4195329 98.0103672,18.1130456 C98.0103672,16.1532512 98.0103672,14.1935203 98.0103672,12.2337258 C98.0103672,10.2739314 98.1296186,8.31420051 98.1296186,6.35440606 Z" id="Shape"></path>
                <path d="M104.321429,23.5811554 L104.321429,1.00219685 C104.321429,0.353716164 104.67745,0 105.331005,0 C105.449891,0 105.509016,0 105.627902,0.0589529043 C105.805913,0.117905809 105.983923,0.235811617 106.161934,0.353716164 L117.08799,12.6158975 L117.08799,1.00219685 C117.08799,0.353716164 117.444648,0 118.097567,0 C118.751121,0 119.107143,0.353716164 119.107143,1.00219685 C119.107143,5.71842288 119.107143,9.72720397 119.107143,12.9696074 C119.107143,16.2120108 119.107143,19.8081241 119.107143,23.5811554 C119.107143,24.2296235 118.751121,24.5833333 118.097567,24.5833333 C117.444648,24.5833333 117.08799,24.2296235 117.08799,23.5811554 L117.08799,15.6224944 L106.399706,3.5961259 L106.399706,23.5811554 C106.399706,24.2885751 106.043684,24.5833333 105.39013,24.5833333 C104.737211,24.5833333 104.321429,24.2885751 104.321429,23.5811554 Z" id="Path"></path>
                <path d="M125.014992,1.90038324 C126.266175,0.653256341 127.755223,0.0593869921 129.482136,0 L129.54208,0 L131.566803,0 L131.626747,0 C133.35366,0 134.842708,0.653256341 136.093891,1.90038324 C137.344436,3.14751014 137.940055,4.63218653 138,6.35440606 L138,18.0536598 C138,19.8946191 137.404381,21.5574847 136.153198,22.9233577 C134.902653,24.2892943 133.413605,25.1206953 131.626747,25.3582384 L131.388245,25.3582384 C130.85257,25.4176242 130.316258,25.4176242 129.83989,25.3582384 L129.660694,25.3582384 C127.873836,25.1206953 126.325481,24.2892943 125.074936,22.9233577 C123.823753,21.5574847 123.228134,19.8946191 123.228134,18.0536598 C123.228134,17.8161167 123.228134,17.6379594 123.228134,17.5191878 L123.228134,6.35440606 C123.108883,4.57280074 123.764447,3.08812435 125.014992,1.90038324 Z M135.915333,6.35440606 C135.915333,5.16666494 135.438327,4.15708754 134.604843,3.32567385 C133.770721,2.4942538 132.758041,2.07854695 131.566803,2.07854695 L129.54208,2.07854695 C128.350842,2.07854695 127.338162,2.4942538 126.444733,3.32567385 C125.551304,4.15708754 125.19355,5.16666494 125.134243,6.35440606 L125.134243,6.47317762 C125.134243,8.31420051 125.134243,10.2145456 125.134243,12.0555685 C125.134243,13.8965278 125.134243,15.7969365 125.134243,17.6379594 L125.134243,18.1130456 C125.134243,19.4789187 125.551304,20.6073121 126.444733,21.6168705 C127.338162,22.6264288 128.410149,23.2202866 129.720638,23.398444 L131.209686,23.398444 C132.520176,23.2202866 133.592163,22.6264288 134.485592,21.6168705 C135.379021,20.6073121 135.796082,19.4195329 135.796082,18.1130456 C135.796082,16.1532512 135.796082,14.1935203 135.796082,12.2337258 C135.796082,10.2739314 135.915333,8.31420051 135.915333,6.35440606 Z" id="Shape"></path>
                <path d="M28.1803402,34.4166667 L33.4268346,34.4166667 C33.5460716,34.4166667 33.6056902,34.4166667 33.724991,34.4753369 C35.4539284,34.5340071 36.8848369,35.1207096 38.0772075,36.2354441 C39.269578,37.3502415 39.8657633,38.7583273 39.8657633,40.4598271 C39.8657633,42.395945 39.0907225,44.0387746 37.5406407,45.2708496 L37.5406407,45.3881901 C38.8522483,45.9749553 39.8657633,46.8550089 40.7004866,48.0284137 C41.535146,49.2018814 41.8928571,50.5512969 41.8928571,52.0180529 C41.8928571,54.0129039 41.1774348,55.6557335 39.8061448,56.9464788 C38.4349186,58.2372241 36.7059175,58.9413298 34.738506,59 L34.6788875,59 C34.6788875,59 34.6788875,59 34.619269,59 C34.5596504,59 34.5596504,59 34.5596504,59 C34.5596504,59 34.5596504,59 34.5000319,59 L34.4404134,59 C34.4404134,59 34.4404134,59 34.3807949,59 C34.3211763,59 34.3807949,59 34.3211763,59 L32.5325566,59 L32.5325566,58.9413298 L28.1207217,58.9413298 C27.4649179,58.9413298 27.1071429,58.5893083 27.1071429,57.9438729 C27.1071429,54.0715742 27.1071429,50.3166159 27.1071429,46.6789982 C27.1071429,43.0413805 27.1071429,39.2863595 27.1071429,35.472731 C27.1071429,34.7100179 27.4649179,34.4166667 28.1803402,34.4166667 Z M29.4323293,36.4701251 L29.1342367,36.4701251 C29.1342367,37.8782737 29.1342367,39.2863595 29.1342367,40.5771676 C29.1342367,41.8679129 29.1342367,43.2760614 29.1342367,44.6841472 L33.4864531,44.6841472 C34.6788875,44.6841472 35.6924025,44.2734555 36.5866804,43.4520722 C37.4810222,42.630626 37.8387334,41.6332319 37.8387334,40.4011568 C37.8387334,39.2276892 37.4214037,38.2889654 36.5866804,37.5262522 C35.752021,36.7635391 34.6788875,36.4114548 33.4864531,36.4114548 L33.4268346,36.4114548 L29.4323293,36.4114548 L29.4323293,36.4701251 Z M34.2615578,46.6789982 L29.1342367,46.6789982 C29.1342367,48.4391054 29.1342367,50.1406052 29.1342367,51.8420422 C29.1342367,53.543542 29.1342367,55.244979 29.1342367,57.005149 L34.3807949,57.005149 L34.5000319,57.005149 C35.9904951,57.005149 37.2425481,56.5357871 38.3156816,55.5970632 C39.3888151,54.6582766 39.8657633,53.4848718 39.8657633,52.0180529 C39.8657633,50.5512969 39.3291966,49.3192219 38.3156816,48.2630947 C37.3021666,47.2070304 35.9904951,46.6789982 34.5000319,46.6789982 C34.4404134,46.6789982 34.3807949,46.6789982 34.2615578,46.620328 L34.2615578,46.6789982 Z" id="Shape"></path>
                <path d="M48.8566738,57.8984106 C48.8566738,58.5941513 48.4975129,58.8840432 47.8390512,58.8840432 C47.1805895,58.8840432 46.8214286,58.5361729 46.8214286,57.8984106 L46.8214286,46.8242901 L46.8214286,44.8529628 L46.8214286,40.6204784 C46.8214286,38.9391051 47.4200301,37.4316049 48.6770933,36.2720372 C49.9342206,35.1124073 51.4307245,34.4746451 53.166733,34.4166667 C53.166733,34.4166667 53.166733,34.4166667 53.2265932,34.4166667 L55.2618384,34.4166667 C56.9978469,34.4166667 58.4943508,35.0544289 59.7514781,36.2720372 C61.0085413,37.4895833 61.6071429,38.9391051 61.6071429,40.6204784 L61.6071429,58.0143674 C61.6071429,58.6521297 61.2479819,59 60.5895202,59 C59.9310586,59 59.5718976,58.6521297 59.5718976,58.0143674 L59.5718976,57.956389 L59.5718976,46.8242901 L48.7968136,46.8242901 L48.7968136,57.8984106 L48.8566738,57.8984106 Z M53.2265932,36.387994 C52.029326,36.387994 51.0117034,36.7938427 50.1138011,37.6055401 C49.2158347,38.4172375 48.8566738,39.4029322 48.8566738,40.5625 L48.8566738,44.7949844 L59.6317578,44.7949844 L59.6317578,40.5625 C59.6317578,39.4029322 59.2126726,38.4172375 58.3746305,37.6055401 C57.5365883,36.7938427 56.4591056,36.387994 55.2618384,36.387994 L53.2265932,36.387994 Z" id="Shape"></path>
                <path d="M67.8431753,51.5809858 C67.8431753,51.5809858 67.8431753,51.6403369 67.8431753,51.5809858 C67.8431753,51.6403369 67.8431753,51.6403369 67.8431753,51.6403369 C67.8431753,53.1241143 68.3757143,54.3705509 69.3812695,55.4388706 C70.3868247,56.5071904 71.687461,56.9819992 73.1660324,56.9819992 C74.6446039,56.9819992 75.8869838,56.4478393 76.9514286,55.4388706 C78.0158734,54.429902 78.4895228,53.1241143 78.4895228,51.6403369 C78.4895228,50.9281237 78.8441266,50.6313047 79.4944448,50.6313047 C80.1453961,50.6313047 80.5,50.9874748 80.5,51.6403369 C80.5,53.6582742 79.7901591,55.3795196 78.43,56.8039459 C77.0698409,58.2284357 75.3544448,58.9406489 73.4028571,59 L73.3439676,59 C73.3439676,59 73.3439676,59 73.2844448,59 C73.2255552,59 73.2844448,59 73.2255552,59 C73.1660324,59 73.1660324,59 73.1660324,59 C73.1660324,59 73.1660324,59 73.1071429,59 L73.0482533,59 C73.0482533,59 73.0482533,59 72.9887305,59 L72.9298409,59 L72.8703181,59 C72.8703181,59 72.8703181,59 72.8114286,59 C70.8598409,58.9406489 69.1444448,58.2284357 67.7842857,56.8039459 C66.4241266,55.3795196 65.7142857,53.6582742 65.7142857,51.6403369 L65.7142857,39.9479167 C65.7142857,38.2267349 66.3057143,36.6835428 67.547461,35.4965209 C68.7898409,34.3094354 70.2684124,33.6565733 71.9831753,33.5972222 L72.0426981,33.5972222 L74.0531753,33.5972222 C75.7685714,33.5972222 77.2471429,34.2500843 78.4895228,35.4965209 C79.7312695,36.7428939 80.3226981,38.2267349 80.3226981,39.9479167 C80.3226981,40.6007787 79.9680942,40.9568853 79.3171429,40.9568853 C78.6668247,40.9568853 78.3115876,40.6007787 78.3115876,39.9479167 C78.3115876,38.7608947 77.8385714,37.7518625 77.0109514,36.9209472 C76.1826981,36.0900318 75.4139676,35.6152231 74.2311104,35.6152231 L72.22,35.6152231 C71.0371429,35.6152231 70.0315876,36.0306807 69.1444448,36.8615961 C68.2573019,37.6925114 67.9026981,38.7015436 67.9026981,39.8885656 L67.9026981,39.9479167 C67.9026981,41.9065664 67.9026981,43.8058015 67.9026981,45.7644512 C67.9026981,47.7230374 67.8431753,49.6816872 67.8431753,51.5809858 Z" id="Path"></path>
                <path d="M86.442201,34.4166667 L99.2006562,34.4166667 C99.8568345,34.4166667 100.214286,34.7695302 100.214286,35.4164468 C100.214286,36.0633634 99.8568345,36.416227 99.2006562,36.416227 L93.8350581,36.416227 L93.8350581,58.0001569 C93.8350581,58.6471364 93.4776069,59 92.8214286,59 C92.1658886,59 91.807799,58.6471364 91.807799,58.0001569 L91.807799,36.416227 L86.442201,36.416227 C85.786661,36.416227 85.4285714,36.0633634 85.4285714,35.4164468 C85.4285714,34.7695302 85.786661,34.4166667 86.442201,34.4166667 Z" id="Path"></path>
                <path d="M118.083778,56.9907634 C118.746259,56.9907634 119.107143,57.3453234 119.107143,57.99535 C119.107143,58.7045333 118.746259,59 118.083778,59 C116.097626,59 114.111474,59 112.125322,59 C110.138526,59 108.152374,59 106.166222,59 C105.503741,59 105.142857,58.64544 105.142857,57.99535 C105.142857,54.0951267 105.142857,50.3721833 105.142857,46.7083333 C105.142857,43.0444833 105.142857,39.2623834 105.142857,35.4212534 C105.142857,34.7712267 105.503741,34.4166667 106.166222,34.4166667 C108.152374,34.4166667 110.138526,34.4166667 112.064745,34.4166667 C113.990965,34.4166667 116.037694,34.4166667 117.963913,34.4166667 C118.685682,34.4166667 118.986633,34.7712267 118.986633,35.4803467 C118.986633,36.1894667 118.625749,36.5440267 117.963913,36.5440267 L107.370028,36.5440267 L107.129009,36.5440267 L107.129009,44.75819 L115.917184,44.75819 C116.57902,44.75819 116.940549,45.11275 116.940549,45.7627767 C116.940549,46.4128667 116.57902,46.7674267 115.917184,46.7674267 L107.129009,46.7674267 L107.129009,57.10895 C108.934719,57.10895 110.740429,57.10895 112.546139,57.10895 C114.352493,57.10895 116.278068,56.9907634 118.083778,56.9907634 Z" id="Path"></path>
                <path d="M137.881114,53.0600038 C137.940875,53.177625 137.940875,53.2952461 137.940875,53.3540567 L137.940875,58.0001569 C137.940875,58.6471364 137.584217,59 136.931299,59 C136.277744,59 135.921722,58.6471364 135.921722,58.0001569 L135.921722,53.4128673 L135.862597,53.4128673 C135.862597,52.2366554 135.446815,51.2368123 134.615249,50.4134639 C133.783684,49.5901156 132.774744,49.1784414 131.587157,49.1196308 L125.233438,49.1196308 L125.233438,58.0001569 C125.233438,58.705947 124.876781,59 124.223862,59 C123.570308,59 123.214286,58.6471364 123.214286,58.0001569 L123.214286,48.0021665 L123.214286,35.4164468 C123.214286,34.7695302 123.570308,34.4166667 124.223862,34.4166667 L130.57758,34.4166667 L130.636705,34.4166667 L130.696466,34.4166667 L130.755591,34.4166667 C132.774744,34.4754773 134.437239,35.1812044 135.862597,36.6515323 C137.287321,38.1217973 138,39.7685569 138,41.7681172 C138,43.0620133 137.703103,44.2382253 137.10931,45.296816 C136.515516,46.3554698 135.683951,47.2376287 134.674375,47.8845453 C135.624826,48.4138407 136.39663,49.1196308 136.990424,50.0606003 C137.584217,51.0015699 137.821989,51.9425394 137.881114,53.0600038 Z M125.233438,47.0023863 L130.57758,47.0023863 C132.062064,47.0023863 133.308776,46.4730909 134.318353,45.4732478 C135.327929,44.4734677 135.862597,43.1796345 135.862597,41.7093066 C135.862597,40.2390417 135.327929,39.0039562 134.318353,37.9453655 C133.308776,36.8867747 132.002303,36.416227 130.51782,36.416227 L125.173677,36.416227 L125.173677,47.0023863 L125.233438,47.0023863 Z" id="Shape"></path>
            </g>
        </g>
    </g>
</svg>