<svg width="2412" height="1315" viewBox="0 0 2412 1315" fill="none" xmlns="http://www.w3.org/2000/svg">
<rect width="2412" height="1315" fill="white"/>
<circle cx="582.5" cy="226.5" r="91.5" fill="#C4C4C4"/>
<circle cx="829.5" cy="462.5" r="91.5" fill="#C4C4C4"/>
<path d="M1230.5 462.5C1230.5 511.641 1190.44 551.5 1141 551.5C1091.56 551.5 1051.5 511.641 1051.5 462.5C1051.5 413.359 1091.56 373.5 1141 373.5C1190.44 373.5 1230.5 413.359 1230.5 462.5Z" fill="#C4C4C4" stroke="black" stroke-width="5"/>
<circle cx="334.532" cy="462.93" r="91.6031" transform="rotate(90.1011 334.532 462.93)" fill="#C4C4C4"/>
<circle cx="333.984" cy="774.234" r="91.6031" transform="rotate(90.1011 333.984 774.234)" fill="#C4C4C4"/>
<circle cx="335.5" cy="462.5" r="91.5" fill="#C4C4C4"/>
<path d="M406.453 387.49C405.825 388.043 404.839 388.029 404.25 387.458L394.661 378.158C394.073 377.588 394.105 376.677 394.734 376.124C395.362 375.571 396.349 375.585 396.937 376.156L405.46 384.422L414.563 376.412C415.192 375.859 416.178 375.874 416.766 376.444C417.355 377.015 417.322 377.926 416.694 378.479L406.453 387.49ZM490.724 291.007C450.422 295.634 429.516 319.374 418.625 342.114C413.174 353.495 410.251 364.6 408.692 372.868C407.913 376.998 407.476 380.413 407.234 382.791C407.113 383.979 407.041 384.908 406.999 385.536C406.978 385.85 406.965 386.089 406.956 386.248C406.952 386.328 406.95 386.387 406.948 386.426C406.947 386.445 406.947 386.459 406.946 386.468C406.946 386.473 406.946 386.476 406.946 386.478C406.946 386.479 406.946 386.479 406.946 386.48C406.946 386.48 406.946 386.479 405.388 386.457C403.83 386.434 403.83 386.433 403.83 386.432C403.83 386.431 403.83 386.429 403.83 386.428C403.83 386.424 403.831 386.419 403.831 386.413C403.831 386.401 403.832 386.384 403.833 386.361C403.835 386.315 403.838 386.249 403.842 386.163C403.851 385.99 403.865 385.737 403.887 385.408C403.931 384.751 404.006 383.791 404.13 382.57C404.379 380.128 404.826 376.637 405.621 372.421C407.21 363.996 410.193 352.648 415.778 340.988C426.958 317.644 448.637 292.945 490.392 288.151L490.724 291.007Z" fill="black"/>
<path d="M282.108 684.066C282.001 684.897 281.251 685.537 280.432 685.497L267.09 684.844C266.271 684.804 265.694 684.098 265.801 683.268C265.908 682.438 266.658 681.797 267.477 681.837L279.336 682.418L280.884 670.392C280.991 669.562 281.741 668.921 282.56 668.961C283.379 669.001 283.956 669.707 283.849 670.537L282.108 684.066ZM281.693 555.963C254.48 586.049 254.454 617.681 261.289 641.95C264.71 654.098 269.847 664.368 274.134 671.606C276.277 675.223 278.203 678.076 279.591 680.022C280.285 680.994 280.844 681.739 281.227 682.239C281.419 682.488 281.567 682.677 281.666 682.801C281.715 682.864 281.752 682.91 281.777 682.94C281.789 682.955 281.798 682.967 281.803 682.973C281.806 682.977 281.808 682.979 281.809 682.981C281.81 682.982 281.81 682.982 281.811 682.982C281.811 682.982 281.81 682.982 280.625 683.994C279.44 685.005 279.44 685.005 279.439 685.004C279.438 685.003 279.437 685.002 279.436 685C279.434 684.998 279.431 684.994 279.427 684.989C279.419 684.98 279.408 684.966 279.394 684.948C279.366 684.913 279.324 684.861 279.271 684.794C279.163 684.658 279.007 684.459 278.806 684.197C278.405 683.675 277.827 682.905 277.114 681.905C275.689 679.907 273.719 676.99 271.533 673.299C267.164 665.922 261.911 655.429 258.407 642.985C251.39 618.071 251.364 585.207 279.558 554.038L281.693 555.963Z" fill="black"/>
<path d="M1044.35 468.706C1045.18 468.781 1045.84 469.51 1045.83 470.332L1045.61 483.737C1045.59 484.559 1044.91 485.165 1044.08 485.089C1043.25 485.013 1042.58 484.284 1042.6 483.462L1042.8 471.547L1030.76 470.447C1029.93 470.371 1029.27 469.643 1029.28 468.821C1029.3 467.998 1029.98 467.393 1030.81 467.469L1044.35 468.706ZM926.012 469.168C953.804 496.343 982.985 496.356 1005.37 489.539C1016.59 486.124 1026.08 480.995 1032.77 476.711C1036.11 474.571 1038.75 472.646 1040.55 471.26C1041.44 470.567 1042.13 470.009 1042.59 469.626C1042.82 469.435 1043 469.287 1043.11 469.188C1043.17 469.139 1043.21 469.102 1043.24 469.078C1043.26 469.066 1043.27 469.057 1043.27 469.051C1043.28 469.049 1043.28 469.047 1043.28 469.046C1043.28 469.045 1043.28 469.045 1043.28 469.044C1043.28 469.044 1043.28 469.045 1044.33 470.195C1045.37 471.345 1045.37 471.346 1045.37 471.347C1045.37 471.347 1045.37 471.348 1045.37 471.349C1045.36 471.352 1045.36 471.355 1045.36 471.359C1045.35 471.366 1045.33 471.378 1045.32 471.392C1045.29 471.421 1045.24 471.462 1045.17 471.516C1045.05 471.624 1044.86 471.78 1044.62 471.981C1044.14 472.383 1043.42 472.961 1042.5 473.675C1040.65 475.102 1037.95 477.074 1034.53 479.262C1027.7 483.635 1017.98 488.895 1006.45 492.406C983.341 499.441 952.859 499.454 923.987 471.222L926.012 469.168Z" fill="black"/>
<path d="M926.843 453.115C926.012 453.039 925.35 452.31 925.364 451.488L925.588 438.084C925.601 437.261 926.286 436.656 927.116 436.732C927.947 436.807 928.609 437.536 928.596 438.358L928.397 450.273L940.429 451.373C941.26 451.449 941.922 452.177 941.909 453C941.895 453.822 941.21 454.428 940.38 454.352L926.843 453.115ZM1045.18 452.652C1017.39 425.477 988.208 425.465 965.819 432.281C954.602 435.696 945.114 440.825 938.424 445.109C935.082 447.249 932.445 449.174 930.648 450.56C929.749 451.253 929.061 451.812 928.599 452.194C928.369 452.386 928.195 452.533 928.08 452.632C928.022 452.681 927.98 452.718 927.952 452.742C927.938 452.754 927.928 452.763 927.921 452.769C927.918 452.772 927.916 452.774 927.915 452.775C927.914 452.775 927.914 452.776 927.913 452.776C927.913 452.776 927.914 452.776 926.868 451.625C925.822 450.475 925.823 450.474 925.823 450.474C925.824 450.473 925.825 450.472 925.827 450.471C925.829 450.469 925.833 450.466 925.837 450.462C925.846 450.454 925.859 450.443 925.875 450.428C925.908 450.4 925.956 450.358 926.019 450.304C926.144 450.197 926.329 450.04 926.571 449.839C927.056 449.437 927.769 448.859 928.694 448.145C930.545 446.718 933.246 444.747 936.664 442.558C943.494 438.185 953.213 432.925 964.744 429.414C987.852 422.379 1018.33 422.367 1047.21 450.599L1045.18 452.652Z" fill="black"/>
<path d="M758.105 387.49C758.734 388.043 759.72 388.029 760.308 387.458L769.897 378.158C770.486 377.588 770.453 376.677 769.825 376.124C769.196 375.571 768.21 375.585 767.622 376.156L759.098 384.422L749.996 376.412C749.367 375.859 748.381 375.874 747.792 376.444C747.204 377.015 747.236 377.926 747.865 378.479L758.105 387.49ZM673.834 291.007C714.137 295.634 735.043 319.374 745.933 342.114C751.384 353.495 754.307 364.6 755.867 372.868C756.646 376.998 757.083 380.413 757.325 382.791C757.446 383.979 757.518 384.908 757.56 385.536C757.581 385.85 757.594 386.089 757.602 386.248C757.606 386.328 757.609 386.387 757.611 386.426C757.611 386.445 757.612 386.459 757.612 386.468C757.612 386.473 757.613 386.476 757.613 386.478C757.613 386.479 757.613 386.479 757.613 386.48C757.613 386.48 757.613 386.479 759.171 386.457C760.729 386.434 760.729 386.433 760.728 386.432C760.728 386.431 760.728 386.429 760.728 386.428C760.728 386.424 760.728 386.419 760.728 386.413C760.727 386.401 760.727 386.384 760.726 386.361C760.724 386.315 760.721 386.249 760.716 386.163C760.708 385.99 760.693 385.737 760.671 385.408C760.628 384.751 760.553 383.791 760.429 382.57C760.18 380.128 759.733 376.637 758.938 372.421C757.349 363.996 754.365 352.648 748.781 340.988C737.601 317.644 715.921 292.945 674.167 288.151L673.834 291.007Z" fill="black"/>
<path d="M443.744 806.681C443.291 807.375 443.487 808.304 444.181 808.756L455.489 816.131C456.183 816.583 457.112 816.388 457.564 815.694C458.017 815 457.821 814.071 457.127 813.618L447.076 807.063L453.631 797.012C454.083 796.318 453.888 795.388 453.194 794.936C452.5 794.483 451.571 794.679 451.118 795.373L443.744 806.681ZM445 743C444.829 744.49 444.829 744.49 444.829 744.49C444.829 744.49 444.829 744.49 444.829 744.49C444.83 744.49 444.832 744.491 444.834 744.491C444.838 744.491 444.845 744.492 444.855 744.493C444.874 744.495 444.903 744.499 444.942 744.504C445.02 744.513 445.138 744.528 445.293 744.549C445.603 744.589 446.061 744.652 446.646 744.74C447.817 744.916 449.493 745.192 451.507 745.589C455.539 746.385 460.897 747.664 466.239 749.598C471.598 751.538 476.845 754.104 480.727 757.428C484.59 760.736 487 764.697 487 769.5L490 769.5C490 763.553 486.973 758.827 482.679 755.15C478.405 751.49 472.777 748.774 467.261 746.777C461.728 744.774 456.211 743.459 452.087 742.646C450.023 742.238 448.301 741.955 447.092 741.773C446.488 741.683 446.011 741.617 445.684 741.574C445.52 741.553 445.394 741.537 445.308 741.526C445.265 741.521 445.232 741.517 445.209 741.514C445.197 741.513 445.188 741.512 445.182 741.511C445.179 741.511 445.177 741.51 445.175 741.51C445.174 741.51 445.173 741.51 445.173 741.51C445.172 741.51 445.171 741.51 445 743ZM487 769.5C487 779.609 481.257 787.712 472.98 793.858C464.697 800.009 454.039 804.064 444.691 806.032L445.309 808.968C454.96 806.936 466.051 802.741 474.769 796.267C483.493 789.788 490 780.891 490 769.5L487 769.5Z" fill="black"/>
<path d="M221.756 806.681C222.209 807.375 222.013 808.304 221.319 808.756L210.011 816.131C209.317 816.583 208.388 816.388 207.936 815.694C207.483 815 207.679 814.071 208.373 813.618L218.424 807.063L211.869 797.012C211.417 796.318 211.612 795.388 212.306 794.936C213 794.483 213.929 794.679 214.382 795.373L221.756 806.681ZM220.5 743C220.671 744.49 220.671 744.49 220.671 744.49C220.671 744.49 220.671 744.49 220.671 744.49C220.67 744.49 220.668 744.491 220.666 744.491C220.662 744.491 220.655 744.492 220.645 744.493C220.626 744.495 220.597 744.499 220.558 744.504C220.48 744.513 220.362 744.528 220.207 744.549C219.897 744.589 219.439 744.652 218.854 744.74C217.683 744.916 216.007 745.192 213.993 745.589C209.961 746.385 204.603 747.664 199.261 749.598C193.902 751.538 188.655 754.104 184.773 757.428C180.91 760.736 178.5 764.697 178.5 769.5L175.5 769.5C175.5 763.553 178.527 758.827 182.821 755.15C187.095 751.49 192.723 748.774 198.239 746.777C203.772 744.774 209.289 743.459 213.413 742.646C215.477 742.238 217.199 741.955 218.408 741.773C219.012 741.683 219.489 741.617 219.816 741.574C219.98 741.553 220.106 741.537 220.192 741.526C220.235 741.521 220.268 741.517 220.291 741.514C220.303 741.513 220.312 741.512 220.318 741.511C220.321 741.511 220.323 741.51 220.325 741.51C220.326 741.51 220.327 741.51 220.327 741.51C220.328 741.51 220.329 741.51 220.5 743ZM178.5 769.5C178.5 779.609 184.243 787.712 192.52 793.858C200.803 800.009 211.461 804.064 220.809 806.032L220.191 808.968C210.54 806.936 199.449 802.741 190.731 796.267C182.007 789.788 175.5 780.891 175.5 769.5L178.5 769.5Z" fill="black"/>
<path d="M221.756 494.681C222.209 495.375 222.013 496.304 221.319 496.756L210.011 504.131C209.317 504.583 208.388 504.388 207.936 503.694C207.483 503 207.679 502.071 208.373 501.618L218.424 495.063L211.869 485.012C211.417 484.318 211.612 483.388 212.306 482.936C213 482.483 213.929 482.679 214.382 483.373L221.756 494.681ZM220.5 431C220.671 432.49 220.671 432.49 220.671 432.49C220.671 432.49 220.671 432.49 220.671 432.49C220.67 432.49 220.668 432.491 220.666 432.491C220.662 432.491 220.655 432.492 220.645 432.493C220.626 432.495 220.597 432.499 220.558 432.504C220.48 432.513 220.362 432.528 220.207 432.549C219.897 432.589 219.439 432.652 218.854 432.74C217.683 432.916 216.007 433.192 213.993 433.589C209.961 434.385 204.603 435.664 199.261 437.598C193.902 439.538 188.655 442.104 184.773 445.428C180.91 448.736 178.5 452.697 178.5 457.5L175.5 457.5C175.5 451.553 178.527 446.827 182.821 443.15C187.095 439.49 192.723 436.774 198.239 434.777C203.772 432.774 209.289 431.459 213.413 430.646C215.477 430.238 217.199 429.955 218.408 429.773C219.012 429.683 219.489 429.617 219.816 429.574C219.98 429.553 220.106 429.537 220.192 429.526C220.235 429.521 220.268 429.517 220.291 429.514C220.303 429.513 220.312 429.512 220.318 429.511C220.321 429.511 220.323 429.51 220.325 429.51C220.326 429.51 220.327 429.51 220.327 429.51C220.328 429.51 220.329 429.51 220.5 431ZM178.5 457.5C178.5 467.609 184.243 475.712 192.52 481.858C200.803 488.009 211.461 492.064 220.809 494.032L220.191 496.968C210.54 494.936 199.449 490.741 190.731 484.267C182.007 477.788 175.5 468.891 175.5 457.5L178.5 457.5Z" fill="black"/>
<path d="M798.819 366.756C798.125 367.209 797.196 367.013 796.744 366.319L789.369 355.011C788.917 354.317 789.112 353.388 789.806 352.936C790.5 352.483 791.429 352.679 791.882 353.373L798.437 363.424L808.488 356.869C809.182 356.417 810.112 356.612 810.564 357.306C811.017 358 810.821 358.929 810.127 359.382L798.819 366.756ZM862.5 365.5C861.01 365.671 861.01 365.671 861.01 365.671C861.01 365.671 861.01 365.671 861.01 365.671C861.01 365.67 861.009 365.668 861.009 365.666C861.009 365.662 861.008 365.655 861.007 365.645C861.005 365.626 861.001 365.597 860.996 365.558C860.987 365.48 860.972 365.362 860.951 365.207C860.911 364.897 860.848 364.439 860.76 363.854C860.584 362.683 860.308 361.007 859.911 358.993C859.115 354.961 857.836 349.603 855.902 344.261C853.962 338.902 851.396 333.655 848.072 329.773C844.764 325.91 840.803 323.5 836 323.5L836 320.5C841.947 320.5 846.673 323.527 850.35 327.821C854.01 332.095 856.726 337.723 858.723 343.239C860.726 348.772 862.041 354.289 862.854 358.413C863.262 360.477 863.545 362.199 863.727 363.408C863.817 364.012 863.883 364.489 863.926 364.816C863.947 364.98 863.963 365.106 863.974 365.192C863.979 365.235 863.983 365.268 863.986 365.291C863.987 365.303 863.988 365.312 863.989 365.318C863.989 365.321 863.99 365.323 863.99 365.325C863.99 365.326 863.99 365.327 863.99 365.327C863.99 365.328 863.99 365.329 862.5 365.5ZM836 323.5C825.891 323.5 817.788 329.243 811.642 337.52C805.491 345.803 801.436 356.461 799.468 365.809L796.532 365.191C798.564 355.54 802.759 344.449 809.233 335.731C815.712 327.007 824.609 320.5 836 320.5L836 323.5Z" fill="black"/>
<path d="M585.908 225.268H571.868L568.844 232H566.072L577.592 206.8H580.22L591.74 232H588.932L585.908 225.268ZM584.936 223.108L578.888 209.572L572.84 223.108H584.936Z" fill="black"/>
<path d="M306.97 271.22H309.1V287H306.97V271.22ZM308.05 267.77C307.61 267.77 307.24 267.62 306.94 267.32C306.64 267.02 306.49 266.66 306.49 266.24C306.49 265.84 306.64 265.49 306.94 265.19C307.24 264.89 307.61 264.74 308.05 264.74C308.49 264.74 308.86 264.89 309.16 265.19C309.46 265.47 309.61 265.81 309.61 266.21C309.61 266.65 309.46 267.02 309.16 267.32C308.86 267.62 308.49 267.77 308.05 267.77ZM323.067 271.1C325.047 271.1 326.617 271.68 327.777 272.84C328.957 273.98 329.547 275.65 329.547 277.85V287H327.417V278.06C327.417 276.42 327.007 275.17 326.187 274.31C325.367 273.45 324.197 273.02 322.677 273.02C320.977 273.02 319.627 273.53 318.627 274.55C317.647 275.55 317.157 276.94 317.157 278.72V287H315.027V271.22H317.067V274.13C317.647 273.17 318.447 272.43 319.467 271.91C320.507 271.37 321.707 271.1 323.067 271.1ZM349.788 264.74V287H347.748V283.88C347.108 284.94 346.258 285.75 345.198 286.31C344.158 286.87 342.978 287.15 341.658 287.15C340.178 287.15 338.838 286.81 337.638 286.13C336.438 285.45 335.498 284.5 334.818 283.28C334.138 282.06 333.798 280.67 333.798 279.11C333.798 277.55 334.138 276.16 334.818 274.94C335.498 273.72 336.438 272.78 337.638 272.12C338.838 271.44 340.178 271.1 341.658 271.1C342.938 271.1 344.088 271.37 345.108 271.91C346.148 272.43 346.998 273.2 347.658 274.22V264.74H349.788ZM341.838 285.26C342.938 285.26 343.928 285.01 344.808 284.51C345.708 283.99 346.408 283.26 346.908 282.32C347.428 281.38 347.688 280.31 347.688 279.11C347.688 277.91 347.428 276.84 346.908 275.9C346.408 274.96 345.708 274.24 344.808 273.74C343.928 273.22 342.938 272.96 341.838 272.96C340.718 272.96 339.708 273.22 338.808 273.74C337.928 274.24 337.228 274.96 336.708 275.9C336.208 276.84 335.958 277.91 335.958 279.11C335.958 280.31 336.208 281.38 336.708 282.32C337.228 283.26 337.928 283.99 338.808 284.51C339.708 285.01 340.718 285.26 341.838 285.26ZM369.94 271.22V287H367.9V284.12C367.34 285.08 366.57 285.83 365.59 286.37C364.61 286.89 363.49 287.15 362.23 287.15C360.17 287.15 358.54 286.58 357.34 285.44C356.16 284.28 355.57 282.59 355.57 280.37V271.22H357.7V280.16C357.7 281.82 358.11 283.08 358.93 283.94C359.75 284.8 360.92 285.23 362.44 285.23C364.1 285.23 365.41 284.73 366.37 283.73C367.33 282.71 367.81 281.3 367.81 279.5V271.22H369.94ZM382.446 287.15C380.886 287.15 379.486 286.81 378.246 286.13C377.026 285.45 376.066 284.5 375.366 283.28C374.666 282.04 374.316 280.65 374.316 279.11C374.316 277.57 374.666 276.19 375.366 274.97C376.066 273.75 377.026 272.8 378.246 272.12C379.486 271.44 380.886 271.1 382.446 271.1C383.806 271.1 385.016 271.37 386.076 271.91C387.156 272.43 388.006 273.2 388.626 274.22L387.036 275.3C386.516 274.52 385.856 273.94 385.056 273.56C384.256 273.16 383.386 272.96 382.446 272.96C381.306 272.96 380.276 273.22 379.356 273.74C378.456 274.24 377.746 274.96 377.226 275.9C376.726 276.84 376.476 277.91 376.476 279.11C376.476 280.33 376.726 281.41 377.226 282.35C377.746 283.27 378.456 283.99 379.356 284.51C380.276 285.01 381.306 285.26 382.446 285.26C383.386 285.26 384.256 285.07 385.056 284.69C385.856 284.31 386.516 283.73 387.036 282.95L388.626 284.03C388.006 285.05 387.156 285.83 386.076 286.37C384.996 286.89 383.786 287.15 382.446 287.15ZM406.286 279.77H393.086C393.206 281.41 393.836 282.74 394.976 283.76C396.116 284.76 397.556 285.26 399.296 285.26C400.276 285.26 401.176 285.09 401.996 284.75C402.816 284.39 403.526 283.87 404.126 283.19L405.326 284.57C404.626 285.41 403.746 286.05 402.686 286.49C401.646 286.93 400.496 287.15 399.236 287.15C397.616 287.15 396.176 286.81 394.916 286.13C393.676 285.43 392.706 284.47 392.006 283.25C391.306 282.03 390.956 280.65 390.956 279.11C390.956 277.57 391.286 276.19 391.946 274.97C392.626 273.75 393.546 272.8 394.706 272.12C395.886 271.44 397.206 271.1 398.666 271.1C400.126 271.1 401.436 271.44 402.596 272.12C403.756 272.8 404.666 273.75 405.326 274.97C405.986 276.17 406.316 277.55 406.316 279.11L406.286 279.77ZM398.666 272.93C397.146 272.93 395.866 273.42 394.826 274.4C393.806 275.36 393.226 276.62 393.086 278.18H404.276C404.136 276.62 403.546 275.36 402.506 274.4C401.486 273.42 400.206 272.93 398.666 272.93ZM412.692 274.31C413.192 273.25 413.932 272.45 414.912 271.91C415.912 271.37 417.142 271.1 418.602 271.1V273.17L418.092 273.14C416.432 273.14 415.132 273.65 414.192 274.67C413.252 275.69 412.782 277.12 412.782 278.96V287H410.652V271.22H412.692V274.31ZM434.954 266V287H432.794V267.92H427.844V266H434.954Z" fill="black"/>
<path d="M694.9 336.08V338H680.17V336.47L688.9 327.92C690 326.84 690.74 325.91 691.12 325.13C691.52 324.33 691.72 323.53 691.72 322.73C691.72 321.49 691.29 320.53 690.43 319.85C689.59 319.15 688.38 318.8 686.8 318.8C684.34 318.8 682.43 319.58 681.07 321.14L679.54 319.82C680.36 318.86 681.4 318.12 682.66 317.6C683.94 317.08 685.38 316.82 686.98 316.82C689.12 316.82 690.81 317.33 692.05 318.35C693.31 319.35 693.94 320.73 693.94 322.49C693.94 323.57 693.7 324.61 693.22 325.61C692.74 326.61 691.83 327.76 690.49 329.06L683.35 336.08H694.9Z" fill="black"/>
<path d="M303.9 618.08V620H289.17V618.47L297.9 609.92C299 608.84 299.74 607.91 300.12 607.13C300.52 606.33 300.72 605.53 300.72 604.73C300.72 603.49 300.29 602.53 299.43 601.85C298.59 601.15 297.38 600.8 295.8 600.8C293.34 600.8 291.43 601.58 290.07 603.14L288.54 601.82C289.36 600.86 290.4 600.12 291.66 599.6C292.94 599.08 294.38 598.82 295.98 598.82C298.12 598.82 299.81 599.33 301.05 600.35C302.31 601.35 302.94 602.73 302.94 604.49C302.94 605.57 302.7 606.61 302.22 607.61C301.74 608.61 300.83 609.76 299.49 611.06L292.35 618.08H303.9Z" fill="black"/>
<path d="M523.9 737.08V739H509.17V737.47L517.9 728.92C519 727.84 519.74 726.91 520.12 726.13C520.52 725.33 520.72 724.53 520.72 723.73C520.72 722.49 520.29 721.53 519.43 720.85C518.59 720.15 517.38 719.8 515.8 719.8C513.34 719.8 511.43 720.58 510.07 722.14L508.54 720.82C509.36 719.86 510.4 719.12 511.66 718.6C512.94 718.08 514.38 717.82 515.98 717.82C518.12 717.82 519.81 718.33 521.05 719.35C522.31 720.35 522.94 721.73 522.94 723.49C522.94 724.57 522.7 725.61 522.22 726.61C521.74 727.61 520.83 728.76 519.49 730.06L512.35 737.08H523.9Z" fill="black"/>
<path d="M863.9 298.08V300H849.17V298.47L857.9 289.92C859 288.84 859.74 287.91 860.12 287.13C860.52 286.33 860.72 285.53 860.72 284.73C860.72 283.49 860.29 282.53 859.43 281.85C858.59 281.15 857.38 280.8 855.8 280.8C853.34 280.8 851.43 281.58 850.07 283.14L848.54 281.82C849.36 280.86 850.4 280.12 851.66 279.6C852.94 279.08 854.38 278.82 855.98 278.82C858.12 278.82 859.81 279.33 861.05 280.35C862.31 281.35 862.94 282.73 862.94 284.49C862.94 285.57 862.7 286.61 862.22 287.61C861.74 288.61 860.83 289.76 859.49 291.06L852.35 298.08H863.9Z" fill="black"/>
<path d="M990.38 524V545H988.22V525.92H983.27V524H990.38Z" fill="black"/>
<path d="M141.38 725V746H139.22V726.92H134.27V725H141.38Z" fill="black"/>
<path d="M141.38 422V443H139.22V423.92H134.27V422H141.38Z" fill="black"/>
<path d="M954.28 399.04C953.88 399.4 953.38 399.68 952.78 399.88C952.2 400.06 951.59 400.15 950.95 400.15C949.47 400.15 948.33 399.75 947.53 398.95C946.73 398.15 946.33 397.02 946.33 395.56V386.02H943.51V384.22H946.33V380.77H948.46V384.22H953.26V386.02H948.46V395.44C948.46 396.38 948.69 397.1 949.15 397.6C949.63 398.08 950.31 398.32 951.19 398.32C951.63 398.32 952.05 398.25 952.45 398.11C952.87 397.97 953.23 397.77 953.53 397.51L954.28 399.04ZM958.158 384.22H960.288V400H958.158V384.22ZM959.238 380.77C958.798 380.77 958.428 380.62 958.128 380.32C957.828 380.02 957.678 379.66 957.678 379.24C957.678 378.84 957.828 378.49 958.128 378.19C958.428 377.89 958.798 377.74 959.238 377.74C959.678 377.74 960.048 377.89 960.348 378.19C960.648 378.47 960.798 378.81 960.798 379.21C960.798 379.65 960.648 380.02 960.348 380.32C960.048 380.62 959.678 380.77 959.238 380.77ZM985.894 384.1C987.874 384.1 989.424 384.67 990.544 385.81C991.684 386.95 992.254 388.63 992.254 390.85V400H990.124V391.06C990.124 389.42 989.724 388.17 988.924 387.31C988.144 386.45 987.034 386.02 985.594 386.02C983.954 386.02 982.664 386.53 981.724 387.55C980.784 388.55 980.314 389.94 980.314 391.72V400H978.184V391.06C978.184 389.42 977.784 388.17 976.984 387.31C976.204 386.45 975.084 386.02 973.624 386.02C972.004 386.02 970.714 386.53 969.754 387.55C968.814 388.55 968.344 389.94 968.344 391.72V400H966.214V384.22H968.254V387.1C968.814 386.14 969.594 385.4 970.594 384.88C971.594 384.36 972.744 384.1 974.044 384.1C975.364 384.1 976.504 384.38 977.464 384.94C978.444 385.5 979.174 386.33 979.654 387.43C980.234 386.39 981.064 385.58 982.144 385C983.244 384.4 984.494 384.1 985.894 384.1ZM1011.83 392.77H998.629C998.749 394.41 999.379 395.74 1000.52 396.76C1001.66 397.76 1003.1 398.26 1004.84 398.26C1005.82 398.26 1006.72 398.09 1007.54 397.75C1008.36 397.39 1009.07 396.87 1009.67 396.19L1010.87 397.57C1010.17 398.41 1009.29 399.05 1008.23 399.49C1007.19 399.93 1006.04 400.15 1004.78 400.15C1003.16 400.15 1001.72 399.81 1000.46 399.13C999.219 398.43 998.249 397.47 997.549 396.25C996.849 395.03 996.499 393.65 996.499 392.11C996.499 390.57 996.829 389.19 997.489 387.97C998.169 386.75 999.089 385.8 1000.25 385.12C1001.43 384.44 1002.75 384.1 1004.21 384.1C1005.67 384.1 1006.98 384.44 1008.14 385.12C1009.3 385.8 1010.21 386.75 1010.87 387.97C1011.53 389.17 1011.86 390.55 1011.86 392.11L1011.83 392.77ZM1004.21 385.93C1002.69 385.93 1001.41 386.42 1000.37 387.4C999.349 388.36 998.769 389.62 998.629 391.18H1009.82C1009.68 389.62 1009.09 388.36 1008.05 387.4C1007.03 386.42 1005.75 385.93 1004.21 385.93Z" fill="black"/>
<path d="M339.41 462.004C341.066 462.364 342.338 463.084 343.226 464.164C344.138 465.22 344.594 466.588 344.594 468.268C344.594 470.428 343.79 472.096 342.182 473.272C340.598 474.424 338.246 475 335.126 475H323.534V449.8H334.406C337.214 449.8 339.386 450.364 340.922 451.492C342.482 452.62 343.262 454.216 343.262 456.28C343.262 457.672 342.914 458.86 342.218 459.844C341.546 460.804 340.61 461.524 339.41 462.004ZM326.198 451.996V461.14H334.226C336.266 461.14 337.838 460.756 338.942 459.988C340.046 459.196 340.598 458.056 340.598 456.568C340.598 455.08 340.046 453.952 338.942 453.184C337.838 452.392 336.266 451.996 334.226 451.996H326.198ZM335.09 472.804C337.346 472.804 339.05 472.42 340.202 471.652C341.354 470.884 341.93 469.684 341.93 468.052C341.93 464.908 339.65 463.336 335.09 463.336H326.198V472.804H335.09Z" fill="black"/>
<path d="M819.733 449.8H829.993C832.657 449.8 835.009 450.34 837.049 451.42C839.089 452.476 840.673 453.964 841.801 455.884C842.929 457.78 843.493 459.952 843.493 462.4C843.493 464.848 842.929 467.032 841.801 468.952C840.673 470.848 839.089 472.336 837.049 473.416C835.009 474.472 832.657 475 829.993 475H819.733V449.8ZM829.849 472.696C832.057 472.696 833.989 472.264 835.645 471.4C837.301 470.512 838.585 469.3 839.497 467.764C840.409 466.204 840.865 464.416 840.865 462.4C840.865 460.384 840.409 458.608 839.497 457.072C838.585 455.512 837.301 454.3 835.645 453.436C833.989 452.548 832.057 452.104 829.849 452.104H822.397V472.696H829.849Z" fill="black"/>
<path d="M1151.38 472.696V475H1133.56V449.8H1150.84V452.104H1136.23V461.068H1149.26V463.336H1136.23V472.696H1151.38Z" fill="black"/>
<path d="M335.611 783.216C333.115 783.216 330.859 782.664 328.843 781.56C326.851 780.456 325.279 778.932 324.127 776.988C322.999 775.02 322.435 772.824 322.435 770.4C322.435 767.976 322.999 765.792 324.127 763.848C325.279 761.88 326.863 760.344 328.879 759.24C330.895 758.136 333.151 757.584 335.647 757.584C337.519 757.584 339.247 757.896 340.831 758.52C342.415 759.144 343.759 760.056 344.863 761.256L343.171 762.948C341.203 760.956 338.719 759.96 335.719 759.96C333.727 759.96 331.915 760.416 330.283 761.328C328.651 762.24 327.367 763.488 326.431 765.072C325.519 766.656 325.062 768.432 325.062 770.4C325.062 772.368 325.519 774.144 326.431 775.728C327.367 777.312 328.651 778.56 330.283 779.472C331.915 780.384 333.727 780.84 335.719 780.84C338.743 780.84 341.227 779.832 343.171 777.816L344.863 779.508C343.759 780.708 342.403 781.632 340.795 782.28C339.211 782.904 337.483 783.216 335.611 783.216Z" fill="black"/>
<path d="M607.885 1001.38H540.883C536.547 1001.38 533 997.837 533 993.501V967.883C533 963.547 536.547 960 540.883 960H607.885C612.221 960 615.768 963.547 615.768 967.883V993.501C615.768 997.837 612.221 1001.38 607.885 1001.38Z" fill="#5ECE9C"/>
<path d="M545.056 1084.37H543.328V1079.46C543.952 1078.94 544.678 1078.55 545.506 1078.27C546.334 1077.99 547.198 1077.86 548.098 1077.86C549.37 1077.86 550.516 1078.13 551.536 1078.68C552.556 1079.25 553.36 1080.02 553.948 1080.99C554.524 1081.97 554.812 1083.08 554.812 1084.3C554.812 1085.52 554.524 1086.63 553.948 1087.61C553.36 1088.6 552.556 1089.36 551.536 1089.92C550.504 1090.47 549.346 1090.74 548.062 1090.74C547.054 1090.74 546.142 1090.58 545.326 1090.24C544.498 1089.92 543.796 1089.44 543.22 1088.8L544.336 1087.68C545.344 1088.66 546.562 1089.14 547.99 1089.14C548.95 1089.14 549.814 1088.93 550.582 1088.51C551.338 1088.1 551.932 1087.53 552.364 1086.78C552.796 1086.05 553.012 1085.22 553.012 1084.3C553.012 1083.39 552.796 1082.56 552.364 1081.82C551.932 1081.08 551.338 1080.51 550.582 1080.09C549.814 1079.67 548.956 1079.46 548.008 1079.46C546.88 1079.46 545.896 1079.73 545.056 1080.27V1084.37ZM538.081 1089.03V1084.64H531.763V1083.09H538.081V1078H539.881V1090.6H530.989V1089.03H538.081ZM523.542 1090.6C521.91 1090.6 520.626 1090.21 519.69 1089.43C518.754 1088.65 518.286 1087.58 518.286 1086.21C518.286 1084.84 518.754 1083.77 519.69 1082.99C520.626 1082.21 521.91 1081.82 523.542 1081.82H526.656V1078H528.456V1090.6H523.542ZM523.596 1083.38C522.456 1083.38 521.586 1083.62 520.986 1084.1C520.386 1084.59 520.086 1085.3 520.086 1086.21C520.086 1087.12 520.386 1087.82 520.986 1088.3C521.586 1088.79 522.456 1089.03 523.596 1089.03H526.656V1083.38H523.596Z" fill="black"/>
<path d="M253.36 988.44V991H233.56V963H252.76V965.56H236.52V975.52H251V978.04H236.52V988.44H253.36ZM270.438 969.8C273.078 969.8 275.171 970.573 276.718 972.12C278.291 973.64 279.078 975.867 279.078 978.8V991H276.238V979.08C276.238 976.893 275.691 975.227 274.598 974.08C273.504 972.933 271.944 972.36 269.918 972.36C267.651 972.36 265.851 973.04 264.518 974.4C263.211 975.733 262.558 977.587 262.558 979.96V991H259.718V969.96H262.438V973.84C263.211 972.56 264.278 971.573 265.638 970.88C267.024 970.16 268.624 969.8 270.438 969.8ZM304.078 969.96L294.718 991H291.798L282.478 969.96H285.438L293.318 987.88L301.278 969.96H304.078ZM308.077 969.96H310.917V991H308.077V969.96ZM309.517 965.36C308.931 965.36 308.437 965.16 308.037 964.76C307.637 964.36 307.437 963.88 307.437 963.32C307.437 962.787 307.637 962.32 308.037 961.92C308.437 961.52 308.931 961.32 309.517 961.32C310.104 961.32 310.597 961.52 310.997 961.92C311.397 962.293 311.597 962.747 311.597 963.28C311.597 963.867 311.397 964.36 310.997 964.76C310.597 965.16 310.104 965.36 309.517 965.36ZM321.539 974.08C322.206 972.667 323.193 971.6 324.499 970.88C325.833 970.16 327.473 969.8 329.419 969.8V972.56L328.739 972.52C326.526 972.52 324.793 973.2 323.539 974.56C322.286 975.92 321.659 977.827 321.659 980.28V991H318.819V969.96H321.539V974.08ZM342.966 991.2C340.94 991.2 339.113 990.747 337.486 989.84C335.86 988.907 334.58 987.627 333.646 986C332.713 984.373 332.246 982.533 332.246 980.48C332.246 978.427 332.713 976.587 333.646 974.96C334.58 973.333 335.86 972.067 337.486 971.16C339.113 970.253 340.94 969.8 342.966 969.8C344.993 969.8 346.82 970.253 348.446 971.16C350.073 972.067 351.34 973.333 352.246 974.96C353.18 976.587 353.646 978.427 353.646 980.48C353.646 982.533 353.18 984.373 352.246 986C351.34 987.627 350.073 988.907 348.446 989.84C346.82 990.747 344.993 991.2 342.966 991.2ZM342.966 988.68C344.46 988.68 345.793 988.347 346.966 987.68C348.166 986.987 349.1 986.013 349.766 984.76C350.433 983.507 350.766 982.08 350.766 980.48C350.766 978.88 350.433 977.453 349.766 976.2C349.1 974.947 348.166 973.987 346.966 973.32C345.793 972.627 344.46 972.28 342.966 972.28C341.473 972.28 340.126 972.627 338.926 973.32C337.753 973.987 336.82 974.947 336.126 976.2C335.46 977.453 335.126 978.88 335.126 980.48C335.126 982.08 335.46 983.507 336.126 984.76C336.82 986.013 337.753 986.987 338.926 987.68C340.126 988.347 341.473 988.68 342.966 988.68ZM370.164 969.8C372.804 969.8 374.898 970.573 376.444 972.12C378.018 973.64 378.804 975.867 378.804 978.8V991H375.964V979.08C375.964 976.893 375.418 975.227 374.324 974.08C373.231 972.933 371.671 972.36 369.644 972.36C367.378 972.36 365.578 973.04 364.244 974.4C362.938 975.733 362.284 977.587 362.284 979.96V991H359.444V969.96H362.164V973.84C362.938 972.56 364.004 971.573 365.364 970.88C366.751 970.16 368.351 969.8 370.164 969.8ZM412.755 969.8C415.395 969.8 417.461 970.56 418.955 972.08C420.475 973.6 421.235 975.84 421.235 978.8V991H418.395V979.08C418.395 976.893 417.861 975.227 416.795 974.08C415.755 972.933 414.275 972.36 412.355 972.36C410.168 972.36 408.448 973.04 407.195 974.4C405.941 975.733 405.315 977.587 405.315 979.96V991H402.475V979.08C402.475 976.893 401.941 975.227 400.875 974.08C399.835 972.933 398.341 972.36 396.395 972.36C394.235 972.36 392.515 973.04 391.235 974.4C389.981 975.733 389.355 977.587 389.355 979.96V991H386.515V969.96H389.235V973.8C389.981 972.52 391.021 971.533 392.355 970.84C393.688 970.147 395.221 969.8 396.955 969.8C398.715 969.8 400.235 970.173 401.515 970.92C402.821 971.667 403.795 972.773 404.435 974.24C405.208 972.853 406.315 971.773 407.755 971C409.221 970.2 410.888 969.8 412.755 969.8ZM447.335 981.36H429.735C429.895 983.547 430.735 985.32 432.255 986.68C433.775 988.013 435.695 988.68 438.015 988.68C439.321 988.68 440.521 988.453 441.615 988C442.708 987.52 443.655 986.827 444.455 985.92L446.055 987.76C445.121 988.88 443.948 989.733 442.535 990.32C441.148 990.907 439.615 991.2 437.935 991.2C435.775 991.2 433.855 990.747 432.175 989.84C430.521 988.907 429.228 987.627 428.295 986C427.361 984.373 426.895 982.533 426.895 980.48C426.895 978.427 427.335 976.587 428.215 974.96C429.121 973.333 430.348 972.067 431.895 971.16C433.468 970.253 435.228 969.8 437.175 969.8C439.121 969.8 440.868 970.253 442.415 971.16C443.961 972.067 445.175 973.333 446.055 974.96C446.935 976.56 447.375 978.4 447.375 980.48L447.335 981.36ZM437.175 972.24C435.148 972.24 433.441 972.893 432.055 974.2C430.695 975.48 429.921 977.16 429.735 979.24H444.655C444.468 977.16 443.681 975.48 442.295 974.2C440.935 972.893 439.228 972.24 437.175 972.24ZM463.875 969.8C466.515 969.8 468.609 970.573 470.155 972.12C471.729 973.64 472.515 975.867 472.515 978.8V991H469.675V979.08C469.675 976.893 469.129 975.227 468.035 974.08C466.942 972.933 465.382 972.36 463.355 972.36C461.089 972.36 459.289 973.04 457.955 974.4C456.649 975.733 455.995 977.587 455.995 979.96V991H453.155V969.96H455.875V973.84C456.649 972.56 457.715 971.573 459.075 970.88C460.462 970.16 462.062 969.8 463.875 969.8ZM491.306 989.72C490.772 990.2 490.106 990.573 489.306 990.84C488.532 991.08 487.719 991.2 486.866 991.2C484.892 991.2 483.372 990.667 482.306 989.6C481.239 988.533 480.706 987.027 480.706 985.08V972.36H476.946V969.96H480.706V965.36H483.546V969.96H489.946V972.36H483.546V984.92C483.546 986.173 483.852 987.133 484.466 987.8C485.106 988.44 486.012 988.76 487.186 988.76C487.772 988.76 488.332 988.667 488.866 988.48C489.426 988.293 489.906 988.027 490.306 987.68L491.306 989.72ZM496.756 974.16C496.169 974.16 495.662 973.947 495.236 973.52C494.836 973.093 494.636 972.573 494.636 971.96C494.636 971.347 494.836 970.84 495.236 970.44C495.662 970.013 496.169 969.8 496.756 969.8C497.342 969.8 497.849 970.013 498.276 970.44C498.702 970.84 498.916 971.347 498.916 971.96C498.916 972.573 498.702 973.093 498.276 973.52C497.849 973.947 497.342 974.16 496.756 974.16ZM496.756 991.2C496.169 991.2 495.662 990.987 495.236 990.56C494.836 990.133 494.636 989.613 494.636 989C494.636 988.387 494.836 987.88 495.236 987.48C495.662 987.053 496.169 986.84 496.756 986.84C497.342 986.84 497.849 987.053 498.276 987.48C498.702 987.88 498.916 988.387 498.916 989C498.916 989.613 498.702 990.133 498.276 990.56C497.849 990.987 497.342 991.2 496.756 991.2Z" fill="black"/>
<path d="M426 1123.91V1165.29L465.61 1144.6L426 1123.91Z" fill="#F6788E"/>
<path d="M429.562 1211.14C428.614 1211.14 427.696 1211 426.808 1210.71C425.932 1210.41 425.242 1210.03 424.738 1209.56L425.404 1208.16C425.884 1208.59 426.496 1208.94 427.24 1209.22C427.996 1209.48 428.77 1209.61 429.562 1209.61C430.606 1209.61 431.386 1209.44 431.902 1209.09C432.418 1208.73 432.676 1208.26 432.676 1207.67C432.676 1207.24 432.532 1206.89 432.244 1206.63C431.968 1206.35 431.62 1206.14 431.2 1206C430.792 1205.85 430.21 1205.69 429.454 1205.51C428.506 1205.28 427.738 1205.05 427.15 1204.83C426.574 1204.6 426.076 1204.25 425.656 1203.78C425.248 1203.3 425.044 1202.66 425.044 1201.86C425.044 1201.18 425.218 1200.58 425.566 1200.04C425.926 1199.5 426.466 1199.07 427.186 1198.74C427.906 1198.42 428.8 1198.26 429.868 1198.26C430.612 1198.26 431.344 1198.35 432.064 1198.54C432.784 1198.74 433.402 1199.01 433.918 1199.37L433.324 1200.81C432.796 1200.48 432.232 1200.22 431.632 1200.06C431.032 1199.88 430.444 1199.79 429.868 1199.79C428.848 1199.79 428.08 1199.97 427.564 1200.34C427.06 1200.72 426.808 1201.2 426.808 1201.78C426.808 1202.22 426.952 1202.57 427.24 1202.85C427.528 1203.11 427.882 1203.32 428.302 1203.48C428.734 1203.62 429.316 1203.78 430.048 1203.94C430.996 1204.17 431.758 1204.4 432.334 1204.63C432.91 1204.86 433.402 1205.2 433.81 1205.67C434.23 1206.14 434.44 1206.77 434.44 1207.56C434.44 1208.22 434.26 1208.83 433.9 1209.38C433.54 1209.92 432.994 1210.35 432.262 1210.68C431.53 1210.99 430.63 1211.14 429.562 1211.14ZM436.818 1201.46H438.546V1211H436.818V1201.46ZM437.682 1199.62C437.346 1199.62 437.064 1199.52 436.836 1199.3C436.62 1199.08 436.512 1198.82 436.512 1198.51C436.512 1198.2 436.62 1197.93 436.836 1197.72C437.064 1197.49 437.346 1197.37 437.682 1197.37C438.018 1197.37 438.294 1197.48 438.51 1197.7C438.738 1197.9 438.852 1198.16 438.852 1198.47C438.852 1198.8 438.738 1199.07 438.51 1199.3C438.294 1199.52 438.018 1199.62 437.682 1199.62ZM447.209 1210.44C446.957 1210.66 446.645 1210.83 446.273 1210.95C445.901 1211.05 445.517 1211.11 445.121 1211.11C444.161 1211.11 443.417 1210.85 442.889 1210.33C442.361 1209.82 442.097 1209.08 442.097 1208.12V1202.88H440.477V1201.46H442.097V1199.37H443.825V1201.46H446.561V1202.88H443.825V1208.05C443.825 1208.56 443.951 1208.96 444.203 1209.24C444.467 1209.51 444.839 1209.65 445.319 1209.65C445.847 1209.65 446.297 1209.5 446.669 1209.2L447.209 1210.44ZM457.604 1206.28C457.604 1206.42 457.592 1206.59 457.568 1206.81H449.828C449.936 1207.65 450.302 1208.32 450.926 1208.84C451.562 1209.34 452.348 1209.6 453.284 1209.6C454.424 1209.6 455.342 1209.21 456.038 1208.44L456.992 1209.56C456.56 1210.06 456.02 1210.45 455.372 1210.71C454.736 1210.98 454.022 1211.11 453.23 1211.11C452.222 1211.11 451.328 1210.9 450.548 1210.5C449.768 1210.08 449.162 1209.49 448.73 1208.75C448.31 1208.01 448.1 1207.17 448.1 1206.23C448.1 1205.31 448.304 1204.47 448.712 1203.73C449.132 1202.98 449.702 1202.41 450.422 1202C451.154 1201.58 451.976 1201.37 452.888 1201.37C453.8 1201.37 454.61 1201.58 455.318 1202C456.038 1202.41 456.596 1202.98 456.992 1203.73C457.4 1204.47 457.604 1205.32 457.604 1206.28ZM452.888 1202.83C452.06 1202.83 451.364 1203.08 450.8 1203.58C450.248 1204.09 449.924 1204.75 449.828 1205.56H455.948C455.852 1204.76 455.522 1204.11 454.958 1203.6C454.406 1203.09 453.716 1202.83 452.888 1202.83ZM472.919 1209.43V1211H463.865V1209.78L468.995 1204.83C469.619 1204.23 470.039 1203.71 470.255 1203.28C470.471 1202.83 470.579 1202.39 470.579 1201.95C470.579 1201.29 470.345 1200.78 469.877 1200.42C469.421 1200.04 468.761 1199.86 467.897 1199.86C466.505 1199.86 465.431 1200.31 464.675 1201.23L463.451 1200.16C463.943 1199.56 464.585 1199.1 465.377 1198.76C466.181 1198.42 467.075 1198.26 468.059 1198.26C469.379 1198.26 470.429 1198.57 471.209 1199.21C471.989 1199.83 472.379 1200.69 472.379 1201.77C472.379 1202.44 472.235 1203.07 471.947 1203.67C471.659 1204.27 471.113 1204.96 470.309 1205.73L466.457 1209.43H472.919Z" fill="black"/>
<path d="M383.967 1165.06H329.576V1110.87L383.967 1165.06Z" fill="#D0CECE"/>
<path d="M290.411 1134.52V1123.68H263.807C255.53 1123.68 249.027 1130.38 249.027 1138.46V1165.06H229.32V1135.5C229.32 1118.16 243.312 1103.97 260.851 1103.97H290.411V1093.13L310.118 1113.82L290.411 1134.52Z" fill="#474747"/>
<path d="M854.069 1165.29V1123.91L814.459 1144.6L854.069 1165.29Z" fill="#F6788E"/>
<path d="M1175.4 1125.68H1159.83V1118.39H1199.64V1125.68H1184.07V1165.29H1175.4V1125.68Z" fill="#474747"/>
<path d="M496.439 1123.71H563.442C567.777 1123.71 571.324 1127.26 571.324 1131.6V1157.21C571.324 1161.55 567.777 1165.1 563.442 1165.1H496.439C492.103 1165.1 488.556 1161.55 488.556 1157.21V1131.6C488.556 1127.26 492.103 1123.71 496.439 1123.71Z" fill="#A6D440"/>
<path d="M323.901 1211.14C322.629 1211.14 321.483 1210.87 320.463 1210.32C319.443 1209.75 318.639 1208.98 318.051 1207.99C317.475 1207.01 317.187 1205.91 317.187 1204.7C317.187 1203.49 317.475 1202.39 318.051 1201.41C318.639 1200.42 319.443 1199.65 320.463 1199.1C321.483 1198.54 322.629 1198.26 323.901 1198.26C325.161 1198.26 326.301 1198.54 327.321 1199.1C328.341 1199.65 329.139 1200.42 329.715 1201.41C330.291 1202.38 330.579 1203.48 330.579 1204.7C330.579 1205.92 330.291 1207.03 329.715 1208.01C329.139 1208.98 328.341 1209.75 327.321 1210.32C326.301 1210.87 325.161 1211.14 323.901 1211.14ZM323.901 1209.54C324.825 1209.54 325.653 1209.33 326.385 1208.91C327.129 1208.49 327.711 1207.92 328.131 1207.18C328.563 1206.44 328.779 1205.61 328.779 1204.7C328.779 1203.79 328.563 1202.97 328.131 1202.23C327.711 1201.49 327.129 1200.91 326.385 1200.49C325.653 1200.07 324.825 1199.86 323.901 1199.86C322.977 1199.86 322.137 1200.07 321.381 1200.49C320.637 1200.91 320.049 1201.49 319.617 1202.23C319.197 1202.97 318.987 1203.79 318.987 1204.7C318.987 1205.61 319.197 1206.44 319.617 1207.18C320.049 1207.92 320.637 1208.49 321.381 1208.91C322.137 1209.33 322.977 1209.54 323.901 1209.54ZM338.136 1201.37C339.06 1201.37 339.888 1201.57 340.62 1201.98C341.352 1202.39 341.922 1202.96 342.33 1203.69C342.75 1204.42 342.96 1205.27 342.96 1206.23C342.96 1207.19 342.75 1208.04 342.33 1208.79C341.922 1209.52 341.352 1210.09 340.62 1210.5C339.888 1210.9 339.06 1211.11 338.136 1211.11C337.452 1211.11 336.822 1210.98 336.246 1210.71C335.682 1210.45 335.202 1210.06 334.806 1209.56V1214.49H333.078V1201.46H334.734V1202.97C335.118 1202.44 335.604 1202.05 336.192 1201.78C336.78 1201.51 337.428 1201.37 338.136 1201.37ZM337.992 1209.6C338.604 1209.6 339.15 1209.46 339.63 1209.18C340.122 1208.89 340.506 1208.5 340.782 1207.99C341.07 1207.48 341.214 1206.89 341.214 1206.23C341.214 1205.57 341.07 1204.99 340.782 1204.48C340.506 1203.97 340.122 1203.57 339.63 1203.3C339.15 1203.02 338.604 1202.88 337.992 1202.88C337.392 1202.88 336.846 1203.03 336.354 1203.31C335.874 1203.59 335.49 1203.98 335.202 1204.48C334.926 1204.99 334.788 1205.57 334.788 1206.23C334.788 1206.89 334.926 1207.48 335.202 1207.99C335.478 1208.5 335.862 1208.89 336.354 1209.18C336.846 1209.46 337.392 1209.6 337.992 1209.6ZM353.97 1206.28C353.97 1206.42 353.958 1206.59 353.934 1206.81H346.194C346.302 1207.65 346.668 1208.32 347.292 1208.84C347.928 1209.34 348.714 1209.6 349.65 1209.6C350.79 1209.6 351.708 1209.21 352.404 1208.44L353.358 1209.56C352.926 1210.06 352.386 1210.45 351.738 1210.71C351.102 1210.98 350.388 1211.11 349.596 1211.11C348.588 1211.11 347.694 1210.9 346.914 1210.5C346.134 1210.08 345.528 1209.49 345.096 1208.75C344.676 1208.01 344.466 1207.17 344.466 1206.23C344.466 1205.31 344.67 1204.47 345.078 1203.73C345.498 1202.98 346.068 1202.41 346.788 1202C347.52 1201.58 348.342 1201.37 349.254 1201.37C350.166 1201.37 350.976 1201.58 351.684 1202C352.404 1202.41 352.962 1202.98 353.358 1203.73C353.766 1204.47 353.97 1205.32 353.97 1206.28ZM349.254 1202.83C348.426 1202.83 347.73 1203.08 347.166 1203.58C346.614 1204.09 346.29 1204.75 346.194 1205.56H352.314C352.218 1204.76 351.888 1204.11 351.324 1203.6C350.772 1203.09 350.082 1202.83 349.254 1202.83ZM358.025 1203.06C358.325 1202.51 358.769 1202.09 359.357 1201.8C359.945 1201.51 360.659 1201.37 361.499 1201.37V1203.04C361.403 1203.03 361.271 1203.03 361.103 1203.03C360.167 1203.03 359.429 1203.31 358.889 1203.87C358.361 1204.42 358.097 1205.22 358.097 1206.25V1211H356.369V1201.46H358.025V1203.06ZM367.086 1201.37C368.406 1201.37 369.414 1201.69 370.11 1202.34C370.818 1202.99 371.172 1203.96 371.172 1205.24V1211H369.534V1209.74C369.246 1210.18 368.832 1210.53 368.292 1210.77C367.764 1210.99 367.134 1211.11 366.402 1211.11C365.334 1211.11 364.476 1210.85 363.828 1210.33C363.192 1209.82 362.874 1209.14 362.874 1208.3C362.874 1207.46 363.18 1206.79 363.792 1206.28C364.404 1205.77 365.376 1205.51 366.708 1205.51H369.444V1205.17C369.444 1204.42 369.228 1203.85 368.796 1203.46C368.364 1203.06 367.728 1202.86 366.888 1202.86C366.324 1202.86 365.772 1202.96 365.232 1203.15C364.692 1203.33 364.236 1203.58 363.864 1203.89L363.144 1202.59C363.636 1202.2 364.224 1201.9 364.908 1201.69C365.592 1201.48 366.318 1201.37 367.086 1201.37ZM366.69 1209.78C367.35 1209.78 367.92 1209.63 368.4 1209.34C368.88 1209.04 369.228 1208.62 369.444 1208.08V1206.75H366.78C365.316 1206.75 364.584 1207.24 364.584 1208.23C364.584 1208.71 364.77 1209.09 365.142 1209.36C365.514 1209.64 366.03 1209.78 366.69 1209.78ZM379.733 1210.44C379.481 1210.66 379.169 1210.83 378.797 1210.95C378.425 1211.05 378.041 1211.11 377.645 1211.11C376.685 1211.11 375.941 1210.85 375.413 1210.33C374.885 1209.82 374.621 1209.08 374.621 1208.12V1202.88H373.001V1201.46H374.621V1199.37H376.349V1201.46H379.085V1202.88H376.349V1208.05C376.349 1208.56 376.475 1208.96 376.727 1209.24C376.991 1209.51 377.363 1209.65 377.843 1209.65C378.371 1209.65 378.821 1209.5 379.193 1209.2L379.733 1210.44ZM385.592 1211.11C384.644 1211.11 383.792 1210.9 383.036 1210.48C382.28 1210.06 381.686 1209.48 381.254 1208.75C380.834 1208.01 380.624 1207.17 380.624 1206.23C380.624 1205.29 380.834 1204.46 381.254 1203.73C381.686 1202.98 382.28 1202.41 383.036 1202C383.792 1201.58 384.644 1201.37 385.592 1201.37C386.54 1201.37 387.386 1201.58 388.13 1202C388.886 1202.41 389.474 1202.98 389.894 1203.73C390.326 1204.46 390.542 1205.29 390.542 1206.23C390.542 1207.17 390.326 1208.01 389.894 1208.75C389.474 1209.48 388.886 1210.06 388.13 1210.48C387.386 1210.9 386.54 1211.11 385.592 1211.11ZM385.592 1209.6C386.204 1209.6 386.75 1209.46 387.23 1209.18C387.722 1208.89 388.106 1208.5 388.382 1207.99C388.658 1207.48 388.796 1206.89 388.796 1206.23C388.796 1205.57 388.658 1204.99 388.382 1204.48C388.106 1203.97 387.722 1203.57 387.23 1203.3C386.75 1203.02 386.204 1202.88 385.592 1202.88C384.98 1202.88 384.428 1203.02 383.936 1203.3C383.456 1203.57 383.072 1203.97 382.784 1204.48C382.508 1204.99 382.37 1205.57 382.37 1206.23C382.37 1206.89 382.508 1207.48 382.784 1207.99C383.072 1208.5 383.456 1208.89 383.936 1209.18C384.428 1209.46 384.98 1209.6 385.592 1209.6ZM394.588 1203.06C394.888 1202.51 395.332 1202.09 395.92 1201.8C396.508 1201.51 397.222 1201.37 398.062 1201.37V1203.04C397.966 1203.03 397.834 1203.03 397.666 1203.03C396.73 1203.03 395.992 1203.31 395.452 1203.87C394.924 1204.42 394.66 1205.22 394.66 1206.25V1211H392.932V1201.46H394.588V1203.06ZM340.024 1233.11C339.244 1233.11 338.494 1233.01 337.774 1232.8C337.054 1232.59 336.49 1232.32 336.082 1231.99L336.802 1230.62C337.222 1230.92 337.732 1231.16 338.332 1231.34C338.932 1231.52 339.538 1231.61 340.15 1231.61C341.662 1231.61 342.418 1231.18 342.418 1230.32C342.418 1230.03 342.316 1229.8 342.112 1229.63C341.908 1229.47 341.65 1229.35 341.338 1229.27C341.038 1229.19 340.606 1229.1 340.042 1229C339.274 1228.88 338.644 1228.75 338.152 1228.59C337.672 1228.43 337.258 1228.17 336.91 1227.8C336.562 1227.43 336.388 1226.9 336.388 1226.23C336.388 1225.37 336.748 1224.68 337.468 1224.16C338.188 1223.63 339.154 1223.37 340.366 1223.37C341.002 1223.37 341.638 1223.45 342.274 1223.6C342.91 1223.76 343.432 1223.97 343.84 1224.23L343.102 1225.6C342.322 1225.1 341.404 1224.85 340.348 1224.85C339.616 1224.85 339.058 1224.97 338.674 1225.21C338.29 1225.45 338.098 1225.76 338.098 1226.16C338.098 1226.47 338.206 1226.72 338.422 1226.9C338.638 1227.08 338.902 1227.21 339.214 1227.29C339.538 1227.38 339.988 1227.47 340.564 1227.58C341.332 1227.71 341.95 1227.86 342.418 1228.01C342.898 1228.16 343.306 1228.41 343.642 1228.77C343.978 1229.13 344.146 1229.63 344.146 1230.28C344.146 1231.15 343.774 1231.84 343.03 1232.35C342.298 1232.86 341.296 1233.11 340.024 1233.11ZM346.306 1223.46H348.034V1233H346.306V1223.46ZM347.17 1221.62C346.834 1221.62 346.552 1221.52 346.324 1221.3C346.108 1221.08 346 1220.82 346 1220.51C346 1220.2 346.108 1219.93 346.324 1219.72C346.552 1219.49 346.834 1219.37 347.17 1219.37C347.506 1219.37 347.782 1219.48 347.998 1219.7C348.226 1219.9 348.34 1220.16 348.34 1220.47C348.34 1220.8 348.226 1221.07 347.998 1221.3C347.782 1221.52 347.506 1221.62 347.17 1221.62ZM356.697 1232.44C356.445 1232.66 356.133 1232.83 355.761 1232.95C355.389 1233.05 355.005 1233.11 354.609 1233.11C353.649 1233.11 352.905 1232.85 352.377 1232.33C351.849 1231.82 351.585 1231.08 351.585 1230.12V1224.88H349.965V1223.46H351.585V1221.37H353.313V1223.46H356.049V1224.88H353.313V1230.05C353.313 1230.56 353.439 1230.96 353.691 1231.24C353.955 1231.51 354.327 1231.65 354.807 1231.65C355.335 1231.65 355.785 1231.5 356.157 1231.2L356.697 1232.44ZM367.092 1228.28C367.092 1228.42 367.08 1228.59 367.056 1228.81H359.316C359.424 1229.65 359.79 1230.32 360.414 1230.84C361.05 1231.34 361.836 1231.6 362.772 1231.6C363.912 1231.6 364.83 1231.21 365.526 1230.44L366.48 1231.56C366.048 1232.06 365.508 1232.45 364.86 1232.71C364.224 1232.98 363.51 1233.11 362.718 1233.11C361.71 1233.11 360.816 1232.9 360.036 1232.5C359.256 1232.08 358.65 1231.49 358.218 1230.75C357.798 1230.01 357.588 1229.17 357.588 1228.23C357.588 1227.31 357.792 1226.47 358.2 1225.73C358.62 1224.98 359.19 1224.41 359.91 1224C360.642 1223.58 361.464 1223.37 362.376 1223.37C363.288 1223.37 364.098 1223.58 364.806 1224C365.526 1224.41 366.084 1224.98 366.48 1225.73C366.888 1226.47 367.092 1227.32 367.092 1228.28ZM362.376 1224.83C361.548 1224.83 360.852 1225.08 360.288 1225.58C359.736 1226.09 359.412 1226.75 359.316 1227.56H365.436C365.34 1226.76 365.01 1226.11 364.446 1225.6C363.894 1225.09 363.204 1224.83 362.376 1224.83ZM377.458 1220.4V1233H375.676V1221.97H372.832V1220.4H377.458Z" fill="black"/>
<path d="M198.909 1198.4C200.541 1198.4 201.825 1198.79 202.761 1199.57C203.697 1200.35 204.165 1201.42 204.165 1202.79C204.165 1204.16 203.697 1205.23 202.761 1206.01C201.825 1206.79 200.541 1207.18 198.909 1207.18H195.795V1211H193.995V1198.4H198.909ZM198.855 1205.62C199.995 1205.62 200.865 1205.38 201.465 1204.9C202.065 1204.41 202.365 1203.7 202.365 1202.79C202.365 1201.88 202.065 1201.18 201.465 1200.7C200.865 1200.21 199.995 1199.97 198.855 1199.97H195.795V1205.62H198.855ZM208.056 1203.06C208.356 1202.51 208.8 1202.09 209.388 1201.8C209.976 1201.51 210.69 1201.37 211.53 1201.37V1203.04C211.434 1203.03 211.302 1203.03 211.134 1203.03C210.198 1203.03 209.46 1203.31 208.92 1203.87C208.392 1204.42 208.128 1205.22 208.128 1206.25V1211H206.4V1201.46H208.056V1203.06ZM217.658 1211.11C216.71 1211.11 215.858 1210.9 215.102 1210.48C214.346 1210.06 213.752 1209.48 213.32 1208.75C212.9 1208.01 212.69 1207.17 212.69 1206.23C212.69 1205.29 212.9 1204.46 213.32 1203.73C213.752 1202.98 214.346 1202.41 215.102 1202C215.858 1201.58 216.71 1201.37 217.658 1201.37C218.606 1201.37 219.452 1201.58 220.196 1202C220.952 1202.41 221.54 1202.98 221.96 1203.73C222.392 1204.46 222.608 1205.29 222.608 1206.23C222.608 1207.17 222.392 1208.01 221.96 1208.75C221.54 1209.48 220.952 1210.06 220.196 1210.48C219.452 1210.9 218.606 1211.11 217.658 1211.11ZM217.658 1209.6C218.27 1209.6 218.816 1209.46 219.296 1209.18C219.788 1208.89 220.172 1208.5 220.448 1207.99C220.724 1207.48 220.862 1206.89 220.862 1206.23C220.862 1205.57 220.724 1204.99 220.448 1204.48C220.172 1203.97 219.788 1203.57 219.296 1203.3C218.816 1203.02 218.27 1202.88 217.658 1202.88C217.046 1202.88 216.494 1203.02 216.002 1203.3C215.522 1203.57 215.138 1203.97 214.85 1204.48C214.574 1204.99 214.436 1205.57 214.436 1206.23C214.436 1206.89 214.574 1207.48 214.85 1207.99C215.138 1208.5 215.522 1208.89 216.002 1209.18C216.494 1209.46 217.046 1209.6 217.658 1209.6ZM236.931 1201.37C238.131 1201.37 239.079 1201.72 239.775 1202.41C240.483 1203.11 240.837 1204.14 240.837 1205.51V1211H239.109V1205.71C239.109 1204.78 238.893 1204.09 238.461 1203.62C238.041 1203.15 237.435 1202.92 236.643 1202.92C235.767 1202.92 235.071 1203.19 234.555 1203.75C234.039 1204.29 233.781 1205.07 233.781 1206.09V1211H232.053V1205.71C232.053 1204.78 231.837 1204.09 231.405 1203.62C230.985 1203.15 230.379 1202.92 229.587 1202.92C228.711 1202.92 228.015 1203.19 227.499 1203.75C226.983 1204.29 226.725 1205.07 226.725 1206.09V1211H224.997V1201.46H226.653V1202.88C227.001 1202.39 227.457 1202.02 228.021 1201.77C228.585 1201.5 229.227 1201.37 229.947 1201.37C230.691 1201.37 231.351 1201.52 231.927 1201.82C232.503 1202.12 232.947 1202.56 233.259 1203.13C233.619 1202.58 234.117 1202.15 234.753 1201.84C235.401 1201.53 236.127 1201.37 236.931 1201.37ZM248.156 1211.11C247.208 1211.11 246.356 1210.9 245.6 1210.48C244.844 1210.06 244.25 1209.48 243.818 1208.75C243.398 1208.01 243.188 1207.17 243.188 1206.23C243.188 1205.29 243.398 1204.46 243.818 1203.73C244.25 1202.98 244.844 1202.41 245.6 1202C246.356 1201.58 247.208 1201.37 248.156 1201.37C249.104 1201.37 249.95 1201.58 250.694 1202C251.45 1202.41 252.038 1202.98 252.458 1203.73C252.89 1204.46 253.106 1205.29 253.106 1206.23C253.106 1207.17 252.89 1208.01 252.458 1208.75C252.038 1209.48 251.45 1210.06 250.694 1210.48C249.95 1210.9 249.104 1211.11 248.156 1211.11ZM248.156 1209.6C248.768 1209.6 249.314 1209.46 249.794 1209.18C250.286 1208.89 250.67 1208.5 250.946 1207.99C251.222 1207.48 251.36 1206.89 251.36 1206.23C251.36 1205.57 251.222 1204.99 250.946 1204.48C250.67 1203.97 250.286 1203.57 249.794 1203.3C249.314 1203.02 248.768 1202.88 248.156 1202.88C247.544 1202.88 246.992 1203.02 246.5 1203.3C246.02 1203.57 245.636 1203.97 245.348 1204.48C245.072 1204.99 244.934 1205.57 244.934 1206.23C244.934 1206.89 245.072 1207.48 245.348 1207.99C245.636 1208.5 246.02 1208.89 246.5 1209.18C246.992 1209.46 247.544 1209.6 248.156 1209.6ZM260.859 1210.44C260.607 1210.66 260.295 1210.83 259.923 1210.95C259.551 1211.05 259.167 1211.11 258.771 1211.11C257.811 1211.11 257.067 1210.85 256.539 1210.33C256.011 1209.82 255.747 1209.08 255.747 1208.12V1202.88H254.127V1201.46H255.747V1199.37H257.475V1201.46H260.211V1202.88H257.475V1208.05C257.475 1208.56 257.601 1208.96 257.853 1209.24C258.117 1209.51 258.489 1209.65 258.969 1209.65C259.497 1209.65 259.947 1209.5 260.319 1209.2L260.859 1210.44ZM271.254 1206.28C271.254 1206.42 271.242 1206.59 271.218 1206.81H263.478C263.586 1207.65 263.952 1208.32 264.576 1208.84C265.212 1209.34 265.998 1209.6 266.934 1209.6C268.074 1209.6 268.992 1209.21 269.688 1208.44L270.642 1209.56C270.21 1210.06 269.67 1210.45 269.022 1210.71C268.386 1210.98 267.672 1211.11 266.88 1211.11C265.872 1211.11 264.978 1210.9 264.198 1210.5C263.418 1210.08 262.812 1209.49 262.38 1208.75C261.96 1208.01 261.75 1207.17 261.75 1206.23C261.75 1205.31 261.954 1204.47 262.362 1203.73C262.782 1202.98 263.352 1202.41 264.072 1202C264.804 1201.58 265.626 1201.37 266.538 1201.37C267.45 1201.37 268.26 1201.58 268.968 1202C269.688 1202.41 270.246 1202.98 270.642 1203.73C271.05 1204.47 271.254 1205.32 271.254 1206.28ZM266.538 1202.83C265.71 1202.83 265.014 1203.08 264.45 1203.58C263.898 1204.09 263.574 1204.75 263.478 1205.56H269.598C269.502 1204.76 269.172 1204.11 268.608 1203.6C268.056 1203.09 267.366 1202.83 266.538 1202.83ZM275.31 1203.06C275.61 1202.51 276.054 1202.09 276.642 1201.8C277.23 1201.51 277.944 1201.37 278.784 1201.37V1203.04C278.688 1203.03 278.556 1203.03 278.388 1203.03C277.452 1203.03 276.714 1203.31 276.174 1203.87C275.646 1204.42 275.382 1205.22 275.382 1206.25V1211H273.654V1201.46H275.31V1203.06ZM289.002 1198.4V1211H287.22V1199.97H284.376V1198.4H289.002Z" fill="black"/>
<path d="M815.562 1211.14C814.614 1211.14 813.696 1211 812.808 1210.71C811.932 1210.41 811.242 1210.03 810.738 1209.56L811.404 1208.16C811.884 1208.59 812.496 1208.94 813.24 1209.22C813.996 1209.48 814.77 1209.61 815.562 1209.61C816.606 1209.61 817.386 1209.44 817.902 1209.09C818.418 1208.73 818.676 1208.26 818.676 1207.67C818.676 1207.24 818.532 1206.89 818.244 1206.63C817.968 1206.35 817.62 1206.14 817.2 1206C816.792 1205.85 816.21 1205.69 815.454 1205.51C814.506 1205.28 813.738 1205.05 813.15 1204.83C812.574 1204.6 812.076 1204.25 811.656 1203.78C811.248 1203.3 811.044 1202.66 811.044 1201.86C811.044 1201.18 811.218 1200.58 811.566 1200.04C811.926 1199.5 812.466 1199.07 813.186 1198.74C813.906 1198.42 814.8 1198.26 815.868 1198.26C816.612 1198.26 817.344 1198.35 818.064 1198.54C818.784 1198.74 819.402 1199.01 819.918 1199.37L819.324 1200.81C818.796 1200.48 818.232 1200.22 817.632 1200.06C817.032 1199.88 816.444 1199.79 815.868 1199.79C814.848 1199.79 814.08 1199.97 813.564 1200.34C813.06 1200.72 812.808 1201.2 812.808 1201.78C812.808 1202.22 812.952 1202.57 813.24 1202.85C813.528 1203.11 813.882 1203.32 814.302 1203.48C814.734 1203.62 815.316 1203.78 816.048 1203.94C816.996 1204.17 817.758 1204.4 818.334 1204.63C818.91 1204.86 819.402 1205.2 819.81 1205.67C820.23 1206.14 820.44 1206.77 820.44 1207.56C820.44 1208.22 820.26 1208.83 819.9 1209.38C819.54 1209.92 818.994 1210.35 818.262 1210.68C817.53 1210.99 816.63 1211.14 815.562 1211.14ZM822.818 1201.46H824.546V1211H822.818V1201.46ZM823.682 1199.62C823.346 1199.62 823.064 1199.52 822.836 1199.3C822.62 1199.08 822.512 1198.82 822.512 1198.51C822.512 1198.2 822.62 1197.93 822.836 1197.72C823.064 1197.49 823.346 1197.37 823.682 1197.37C824.018 1197.37 824.294 1197.48 824.51 1197.7C824.738 1197.9 824.852 1198.16 824.852 1198.47C824.852 1198.8 824.738 1199.07 824.51 1199.3C824.294 1199.52 824.018 1199.62 823.682 1199.62ZM833.209 1210.44C832.957 1210.66 832.645 1210.83 832.273 1210.95C831.901 1211.05 831.517 1211.11 831.121 1211.11C830.161 1211.11 829.417 1210.85 828.889 1210.33C828.361 1209.82 828.097 1209.08 828.097 1208.12V1202.88H826.477V1201.46H828.097V1199.37H829.825V1201.46H832.561V1202.88H829.825V1208.05C829.825 1208.56 829.951 1208.96 830.203 1209.24C830.467 1209.51 830.839 1209.65 831.319 1209.65C831.847 1209.65 832.297 1209.5 832.669 1209.2L833.209 1210.44ZM843.604 1206.28C843.604 1206.42 843.592 1206.59 843.568 1206.81H835.828C835.936 1207.65 836.302 1208.32 836.926 1208.84C837.562 1209.34 838.348 1209.6 839.284 1209.6C840.424 1209.6 841.342 1209.21 842.038 1208.44L842.992 1209.56C842.56 1210.06 842.02 1210.45 841.372 1210.71C840.736 1210.98 840.022 1211.11 839.23 1211.11C838.222 1211.11 837.328 1210.9 836.548 1210.5C835.768 1210.08 835.162 1209.49 834.73 1208.75C834.31 1208.01 834.1 1207.17 834.1 1206.23C834.1 1205.31 834.304 1204.47 834.712 1203.73C835.132 1202.98 835.702 1202.41 836.422 1202C837.154 1201.58 837.976 1201.37 838.888 1201.37C839.8 1201.37 840.61 1201.58 841.318 1202C842.038 1202.41 842.596 1202.98 842.992 1203.73C843.4 1204.47 843.604 1205.32 843.604 1206.28ZM838.888 1202.83C838.06 1202.83 837.364 1203.08 836.8 1203.58C836.248 1204.09 835.924 1204.75 835.828 1205.56H841.948C841.852 1204.76 841.522 1204.11 840.958 1203.6C840.406 1203.09 839.716 1202.83 838.888 1202.83ZM858.919 1209.43V1211H849.865V1209.78L854.995 1204.83C855.619 1204.23 856.039 1203.71 856.255 1203.28C856.471 1202.83 856.579 1202.39 856.579 1201.95C856.579 1201.29 856.345 1200.78 855.877 1200.42C855.421 1200.04 854.761 1199.86 853.897 1199.86C852.505 1199.86 851.431 1200.31 850.675 1201.23L849.451 1200.16C849.943 1199.56 850.585 1199.1 851.377 1198.76C852.181 1198.42 853.075 1198.26 854.059 1198.26C855.379 1198.26 856.429 1198.57 857.209 1199.21C857.989 1199.83 858.379 1200.69 858.379 1201.77C858.379 1202.44 858.235 1203.07 857.947 1203.67C857.659 1204.27 857.113 1204.96 856.309 1205.73L852.457 1209.43H858.919Z" fill="black"/>
<path d="M1009.41 1134.91V1124.07H982.807C974.53 1124.07 968.027 1130.77 968.027 1138.85V1165.45H948.32V1135.89C948.32 1118.55 962.312 1104.36 979.851 1104.36H1009.41V1093.52L1029.12 1114.22L1009.41 1134.91Z" fill="#474747"/>
<path d="M923.073 1198.4C924.705 1198.4 925.989 1198.79 926.925 1199.57C927.861 1200.35 928.329 1201.42 928.329 1202.79C928.329 1204.16 927.861 1205.23 926.925 1206.01C925.989 1206.79 924.705 1207.18 923.073 1207.18H919.959V1211H918.159V1198.4H923.073ZM923.019 1205.62C924.159 1205.62 925.029 1205.38 925.629 1204.9C926.229 1204.41 926.529 1203.7 926.529 1202.79C926.529 1201.88 926.229 1201.18 925.629 1200.7C925.029 1200.21 924.159 1199.97 923.019 1199.97H919.959V1205.62H923.019ZM932.219 1203.06C932.519 1202.51 932.963 1202.09 933.551 1201.8C934.139 1201.51 934.853 1201.37 935.693 1201.37V1203.04C935.597 1203.03 935.465 1203.03 935.297 1203.03C934.361 1203.03 933.623 1203.31 933.083 1203.87C932.555 1204.42 932.291 1205.22 932.291 1206.25V1211H930.563V1201.46H932.219V1203.06ZM941.821 1211.11C940.873 1211.11 940.021 1210.9 939.265 1210.48C938.509 1210.06 937.915 1209.48 937.483 1208.75C937.063 1208.01 936.853 1207.17 936.853 1206.23C936.853 1205.29 937.063 1204.46 937.483 1203.73C937.915 1202.98 938.509 1202.41 939.265 1202C940.021 1201.58 940.873 1201.37 941.821 1201.37C942.769 1201.37 943.615 1201.58 944.359 1202C945.115 1202.41 945.703 1202.98 946.123 1203.73C946.555 1204.46 946.771 1205.29 946.771 1206.23C946.771 1207.17 946.555 1208.01 946.123 1208.75C945.703 1209.48 945.115 1210.06 944.359 1210.48C943.615 1210.9 942.769 1211.11 941.821 1211.11ZM941.821 1209.6C942.433 1209.6 942.979 1209.46 943.459 1209.18C943.951 1208.89 944.335 1208.5 944.611 1207.99C944.887 1207.48 945.025 1206.89 945.025 1206.23C945.025 1205.57 944.887 1204.99 944.611 1204.48C944.335 1203.97 943.951 1203.57 943.459 1203.3C942.979 1203.02 942.433 1202.88 941.821 1202.88C941.209 1202.88 940.657 1203.02 940.165 1203.3C939.685 1203.57 939.301 1203.97 939.013 1204.48C938.737 1204.99 938.599 1205.57 938.599 1206.23C938.599 1206.89 938.737 1207.48 939.013 1207.99C939.301 1208.5 939.685 1208.89 940.165 1209.18C940.657 1209.46 941.209 1209.6 941.821 1209.6ZM961.094 1201.37C962.294 1201.37 963.242 1201.72 963.938 1202.41C964.646 1203.11 965 1204.14 965 1205.51V1211H963.272V1205.71C963.272 1204.78 963.056 1204.09 962.624 1203.62C962.204 1203.15 961.598 1202.92 960.806 1202.92C959.93 1202.92 959.234 1203.19 958.718 1203.75C958.202 1204.29 957.944 1205.07 957.944 1206.09V1211H956.216V1205.71C956.216 1204.78 956 1204.09 955.568 1203.62C955.148 1203.15 954.542 1202.92 953.75 1202.92C952.874 1202.92 952.178 1203.19 951.662 1203.75C951.146 1204.29 950.888 1205.07 950.888 1206.09V1211H949.16V1201.46H950.816V1202.88C951.164 1202.39 951.62 1202.02 952.184 1201.77C952.748 1201.5 953.39 1201.37 954.11 1201.37C954.854 1201.37 955.514 1201.52 956.09 1201.82C956.666 1202.12 957.11 1202.56 957.422 1203.13C957.782 1202.58 958.28 1202.15 958.916 1201.84C959.564 1201.53 960.29 1201.37 961.094 1201.37ZM972.319 1211.11C971.371 1211.11 970.519 1210.9 969.763 1210.48C969.007 1210.06 968.413 1209.48 967.981 1208.75C967.561 1208.01 967.351 1207.17 967.351 1206.23C967.351 1205.29 967.561 1204.46 967.981 1203.73C968.413 1202.98 969.007 1202.41 969.763 1202C970.519 1201.58 971.371 1201.37 972.319 1201.37C973.267 1201.37 974.113 1201.58 974.857 1202C975.613 1202.41 976.201 1202.98 976.621 1203.73C977.053 1204.46 977.269 1205.29 977.269 1206.23C977.269 1207.17 977.053 1208.01 976.621 1208.75C976.201 1209.48 975.613 1210.06 974.857 1210.48C974.113 1210.9 973.267 1211.11 972.319 1211.11ZM972.319 1209.6C972.931 1209.6 973.477 1209.46 973.957 1209.18C974.449 1208.89 974.833 1208.5 975.109 1207.99C975.385 1207.48 975.523 1206.89 975.523 1206.23C975.523 1205.57 975.385 1204.99 975.109 1204.48C974.833 1203.97 974.449 1203.57 973.957 1203.3C973.477 1203.02 972.931 1202.88 972.319 1202.88C971.707 1202.88 971.155 1203.02 970.663 1203.3C970.183 1203.57 969.799 1203.97 969.511 1204.48C969.235 1204.99 969.097 1205.57 969.097 1206.23C969.097 1206.89 969.235 1207.48 969.511 1207.99C969.799 1208.5 970.183 1208.89 970.663 1209.18C971.155 1209.46 971.707 1209.6 972.319 1209.6ZM985.023 1210.44C984.771 1210.66 984.459 1210.83 984.087 1210.95C983.715 1211.05 983.331 1211.11 982.935 1211.11C981.975 1211.11 981.231 1210.85 980.703 1210.33C980.175 1209.82 979.911 1209.08 979.911 1208.12V1202.88H978.291V1201.46H979.911V1199.37H981.639V1201.46H984.375V1202.88H981.639V1208.05C981.639 1208.56 981.765 1208.96 982.017 1209.24C982.281 1209.51 982.653 1209.65 983.133 1209.65C983.661 1209.65 984.111 1209.5 984.483 1209.2L985.023 1210.44ZM995.417 1206.28C995.417 1206.42 995.405 1206.59 995.381 1206.81H987.641C987.749 1207.65 988.115 1208.32 988.739 1208.84C989.375 1209.34 990.161 1209.6 991.097 1209.6C992.237 1209.6 993.155 1209.21 993.851 1208.44L994.805 1209.56C994.373 1210.06 993.833 1210.45 993.185 1210.71C992.549 1210.98 991.835 1211.11 991.043 1211.11C990.035 1211.11 989.141 1210.9 988.361 1210.5C987.581 1210.08 986.975 1209.49 986.543 1208.75C986.123 1208.01 985.913 1207.17 985.913 1206.23C985.913 1205.31 986.117 1204.47 986.525 1203.73C986.945 1202.98 987.515 1202.41 988.235 1202C988.967 1201.58 989.789 1201.37 990.701 1201.37C991.613 1201.37 992.423 1201.58 993.131 1202C993.851 1202.41 994.409 1202.98 994.805 1203.73C995.213 1204.47 995.417 1205.32 995.417 1206.28ZM990.701 1202.83C989.873 1202.83 989.177 1203.08 988.613 1203.58C988.061 1204.09 987.737 1204.75 987.641 1205.56H993.761C993.665 1204.76 993.335 1204.11 992.771 1203.6C992.219 1203.09 991.529 1202.83 990.701 1202.83ZM999.473 1203.06C999.773 1202.51 1000.22 1202.09 1000.8 1201.8C1001.39 1201.51 1002.11 1201.37 1002.95 1201.37V1203.04C1002.85 1203.03 1002.72 1203.03 1002.55 1203.03C1001.61 1203.03 1000.88 1203.31 1000.34 1203.87C999.809 1204.42 999.545 1205.22 999.545 1206.25V1211H997.817V1201.46H999.473V1203.06ZM1018.12 1209.43V1211H1009.06V1209.78L1014.19 1204.83C1014.82 1204.23 1015.24 1203.71 1015.45 1203.28C1015.67 1202.83 1015.78 1202.39 1015.78 1201.95C1015.78 1201.29 1015.54 1200.78 1015.07 1200.42C1014.62 1200.04 1013.96 1199.86 1013.09 1199.86C1011.7 1199.86 1010.63 1200.31 1009.87 1201.23L1008.65 1200.16C1009.14 1199.56 1009.78 1199.1 1010.57 1198.76C1011.38 1198.42 1012.27 1198.26 1013.26 1198.26C1014.58 1198.26 1015.63 1198.57 1016.41 1199.21C1017.19 1199.83 1017.58 1200.69 1017.58 1201.77C1017.58 1202.44 1017.43 1203.07 1017.14 1203.67C1016.86 1204.27 1016.31 1204.96 1015.51 1205.73L1011.65 1209.43H1018.12Z" fill="black"/>
<path d="M981.293 1083.47V1105.94C981.293 1109.29 978.668 1111.91 975.319 1111.91H951.474C948.125 1111.91 945.5 1109.29 945.5 1105.94V1083.47C945.5 1080.12 948.125 1077.5 951.474 1077.5H975.457C978.693 1077.67 981.293 1080.36 981.293 1083.47Z" stroke="#D198B8" stroke-width="5"/>
<path d="M1148.13 1144.57L1126.45 1165.26H1043.88V1123.88H1126.45L1148.13 1144.57Z" fill="#F0AE3E"/>
<path d="M1082.31 1211L1079.6 1207.13C1079.26 1207.15 1079 1207.17 1078.8 1207.17H1075.69V1211H1073.89V1198.4H1078.8C1080.44 1198.4 1081.72 1198.79 1082.66 1199.57C1083.59 1200.35 1084.06 1201.42 1084.06 1202.79C1084.06 1203.76 1083.82 1204.59 1083.34 1205.28C1082.86 1205.96 1082.18 1206.46 1081.29 1206.77L1084.28 1211H1082.31ZM1078.75 1205.64C1079.89 1205.64 1080.76 1205.39 1081.36 1204.9C1081.96 1204.41 1082.26 1203.7 1082.26 1202.79C1082.26 1201.88 1081.96 1201.18 1081.36 1200.7C1080.76 1200.21 1079.89 1199.97 1078.75 1199.97H1075.69V1205.64H1078.75ZM1095.34 1206.28C1095.34 1206.42 1095.33 1206.59 1095.3 1206.81H1087.56C1087.67 1207.65 1088.04 1208.32 1088.66 1208.84C1089.3 1209.34 1090.08 1209.6 1091.02 1209.6C1092.16 1209.6 1093.08 1209.21 1093.77 1208.44L1094.73 1209.56C1094.29 1210.06 1093.75 1210.45 1093.11 1210.71C1092.47 1210.98 1091.76 1211.11 1090.96 1211.11C1089.96 1211.11 1089.06 1210.9 1088.28 1210.5C1087.5 1210.08 1086.9 1209.49 1086.46 1208.75C1086.04 1208.01 1085.83 1207.17 1085.83 1206.23C1085.83 1205.31 1086.04 1204.47 1086.45 1203.73C1086.87 1202.98 1087.44 1202.41 1088.16 1202C1088.89 1201.58 1089.71 1201.37 1090.62 1201.37C1091.53 1201.37 1092.34 1201.58 1093.05 1202C1093.77 1202.41 1094.33 1202.98 1094.73 1203.73C1095.13 1204.47 1095.34 1205.32 1095.34 1206.28ZM1090.62 1202.83C1089.79 1202.83 1089.1 1203.08 1088.53 1203.58C1087.98 1204.09 1087.66 1204.75 1087.56 1205.56H1093.68C1093.59 1204.76 1093.26 1204.11 1092.69 1203.6C1092.14 1203.09 1091.45 1202.83 1090.62 1202.83ZM1101.9 1211.11C1100.92 1211.11 1100.05 1210.9 1099.29 1210.48C1098.53 1210.06 1097.94 1209.48 1097.5 1208.75C1097.07 1208.01 1096.86 1207.17 1096.86 1206.23C1096.86 1205.29 1097.07 1204.46 1097.5 1203.73C1097.94 1202.98 1098.53 1202.41 1099.29 1202C1100.05 1201.58 1100.92 1201.37 1101.9 1201.37C1102.76 1201.37 1103.53 1201.54 1104.2 1201.89C1104.88 1202.24 1105.41 1202.74 1105.78 1203.4L1104.47 1204.25C1104.17 1203.79 1103.8 1203.45 1103.35 1203.22C1102.91 1203 1102.42 1202.88 1101.88 1202.88C1101.25 1202.88 1100.69 1203.02 1100.19 1203.3C1099.69 1203.57 1099.3 1203.97 1099.02 1204.48C1098.74 1204.99 1098.6 1205.57 1098.6 1206.23C1098.6 1206.9 1098.74 1207.5 1099.02 1208.01C1099.3 1208.52 1099.69 1208.91 1100.19 1209.18C1100.69 1209.46 1101.25 1209.6 1101.88 1209.6C1102.42 1209.6 1102.91 1209.48 1103.35 1209.25C1103.8 1209.03 1104.17 1208.68 1104.47 1208.23L1105.78 1209.06C1105.41 1209.72 1104.88 1210.23 1104.2 1210.59C1103.53 1210.93 1102.76 1211.11 1101.9 1211.11ZM1120.94 1209.43V1211H1111.88V1209.78L1117.01 1204.83C1117.64 1204.23 1118.06 1203.71 1118.27 1203.28C1118.49 1202.83 1118.6 1202.39 1118.6 1201.95C1118.6 1201.29 1118.36 1200.78 1117.89 1200.42C1117.44 1200.04 1116.78 1199.86 1115.91 1199.86C1114.52 1199.86 1113.45 1200.31 1112.69 1201.23L1111.47 1200.16C1111.96 1199.56 1112.6 1199.1 1113.39 1198.76C1114.2 1198.42 1115.09 1198.26 1116.08 1198.26C1117.4 1198.26 1118.45 1198.57 1119.23 1199.21C1120.01 1199.83 1120.4 1200.69 1120.4 1201.77C1120.4 1202.44 1120.25 1203.07 1119.96 1203.67C1119.68 1204.27 1119.13 1204.96 1118.33 1205.73L1114.47 1209.43H1120.94Z" fill="black"/>
<path d="M262.293 1083.47V1105.94C262.293 1109.29 259.668 1111.91 256.319 1111.91H232.474C229.125 1111.91 226.5 1109.29 226.5 1105.94V1083.47C226.5 1080.12 229.125 1077.5 232.474 1077.5H256.457C259.693 1077.67 262.293 1080.36 262.293 1083.47Z" fill="#518195" stroke="#518195" stroke-width="5"/>
<path d="M888.193 1125.45H872.625V1118.16H912.432V1125.45H896.864V1165.06H888.193V1125.45Z" fill="#474747"/>
<path d="M668.885 1165.77H601.883C597.547 1165.77 594 1162.23 594 1157.89V1132.27C594 1127.94 597.547 1124.39 601.883 1124.39H668.885C673.221 1124.39 676.768 1127.94 676.768 1132.27V1157.89C676.768 1162.23 673.221 1165.77 668.885 1165.77Z" fill="#ECD24B"/>
<path d="M774.885 1165.77H707.883C703.547 1165.77 700 1162.23 700 1157.89V1132.27C700 1127.94 703.547 1124.39 707.883 1124.39H774.885C779.221 1124.39 782.768 1127.94 782.768 1132.27V1157.89C782.768 1162.23 779.221 1165.77 774.885 1165.77Z" fill="#5ECE9C"/>
<path d="M622.714 1206.64V1211H620.932V1206.61L615.928 1198.4H617.854L621.886 1205.04L625.936 1198.4H627.718L622.714 1206.64ZM631.133 1199.97V1204.36H637.451V1205.91H631.133V1211H629.333V1198.4H638.225V1199.97H631.133ZM645.673 1198.4C647.305 1198.4 648.589 1198.79 649.525 1199.57C650.461 1200.35 650.929 1201.42 650.929 1202.79C650.929 1204.16 650.461 1205.23 649.525 1206.01C648.589 1206.79 647.305 1207.18 645.673 1207.18H642.559V1211H640.759V1198.4H645.673ZM645.619 1205.62C646.759 1205.62 647.629 1205.38 648.229 1204.9C648.829 1204.41 649.129 1203.7 649.129 1202.79C649.129 1201.88 648.829 1201.18 648.229 1200.7C647.629 1200.21 646.759 1199.97 645.619 1199.97H642.559V1205.62H645.619Z" fill="black"/>
<path d="M706.314 1211L703.596 1207.13C703.26 1207.15 702.996 1207.17 702.804 1207.17H699.69V1211H697.89V1198.4H702.804C704.436 1198.4 705.72 1198.79 706.656 1199.57C707.592 1200.35 708.06 1201.42 708.06 1202.79C708.06 1203.76 707.82 1204.59 707.34 1205.28C706.86 1205.96 706.176 1206.46 705.288 1206.77L708.276 1211H706.314ZM702.75 1205.64C703.89 1205.64 704.76 1205.39 705.36 1204.9C705.96 1204.41 706.26 1203.7 706.26 1202.79C706.26 1201.88 705.96 1201.18 705.36 1200.7C704.76 1200.21 703.89 1199.97 702.75 1199.97H699.69V1205.64H702.75ZM719.338 1206.28C719.338 1206.42 719.326 1206.59 719.302 1206.81H711.562C711.67 1207.65 712.036 1208.32 712.66 1208.84C713.296 1209.34 714.082 1209.6 715.018 1209.6C716.158 1209.6 717.076 1209.21 717.772 1208.44L718.726 1209.56C718.294 1210.06 717.754 1210.45 717.106 1210.71C716.47 1210.98 715.756 1211.11 714.964 1211.11C713.956 1211.11 713.062 1210.9 712.282 1210.5C711.502 1210.08 710.896 1209.49 710.464 1208.75C710.044 1208.01 709.834 1207.17 709.834 1206.23C709.834 1205.31 710.038 1204.47 710.446 1203.73C710.866 1202.98 711.436 1202.41 712.156 1202C712.888 1201.58 713.71 1201.37 714.622 1201.37C715.534 1201.37 716.344 1201.58 717.052 1202C717.772 1202.41 718.33 1202.98 718.726 1203.73C719.134 1204.47 719.338 1205.32 719.338 1206.28ZM714.622 1202.83C713.794 1202.83 713.098 1203.08 712.534 1203.58C711.982 1204.09 711.658 1204.75 711.562 1205.56H717.682C717.586 1204.76 717.256 1204.11 716.692 1203.6C716.14 1203.09 715.45 1202.83 714.622 1202.83ZM726.796 1201.37C727.72 1201.37 728.548 1201.57 729.28 1201.98C730.012 1202.39 730.582 1202.96 730.99 1203.69C731.41 1204.42 731.62 1205.27 731.62 1206.23C731.62 1207.19 731.41 1208.04 730.99 1208.79C730.582 1209.52 730.012 1210.09 729.28 1210.5C728.548 1210.9 727.72 1211.11 726.796 1211.11C726.112 1211.11 725.482 1210.98 724.906 1210.71C724.342 1210.45 723.862 1210.06 723.466 1209.56V1214.49H721.738V1201.46H723.394V1202.97C723.778 1202.44 724.264 1202.05 724.852 1201.78C725.44 1201.51 726.088 1201.37 726.796 1201.37ZM726.652 1209.6C727.264 1209.6 727.81 1209.46 728.29 1209.18C728.782 1208.89 729.166 1208.5 729.442 1207.99C729.73 1207.48 729.874 1206.89 729.874 1206.23C729.874 1205.57 729.73 1204.99 729.442 1204.48C729.166 1203.97 728.782 1203.57 728.29 1203.3C727.81 1203.02 727.264 1202.88 726.652 1202.88C726.052 1202.88 725.506 1203.03 725.014 1203.31C724.534 1203.59 724.15 1203.98 723.862 1204.48C723.586 1204.99 723.448 1205.57 723.448 1206.23C723.448 1206.89 723.586 1207.48 723.862 1207.99C724.138 1208.5 724.522 1208.89 725.014 1209.18C725.506 1209.46 726.052 1209.6 726.652 1209.6ZM735.663 1203.06C735.963 1202.51 736.407 1202.09 736.995 1201.8C737.583 1201.51 738.297 1201.37 739.137 1201.37V1203.04C739.041 1203.03 738.909 1203.03 738.741 1203.03C737.805 1203.03 737.067 1203.31 736.527 1203.87C735.999 1204.42 735.735 1205.22 735.735 1206.25V1211H734.007V1201.46H735.663V1203.06ZM749.801 1206.28C749.801 1206.42 749.789 1206.59 749.765 1206.81H742.025C742.133 1207.65 742.499 1208.32 743.123 1208.84C743.759 1209.34 744.545 1209.6 745.481 1209.6C746.621 1209.6 747.539 1209.21 748.235 1208.44L749.189 1209.56C748.757 1210.06 748.217 1210.45 747.569 1210.71C746.933 1210.98 746.219 1211.11 745.427 1211.11C744.419 1211.11 743.525 1210.9 742.745 1210.5C741.965 1210.08 741.359 1209.49 740.927 1208.75C740.507 1208.01 740.297 1207.17 740.297 1206.23C740.297 1205.31 740.501 1204.47 740.909 1203.73C741.329 1202.98 741.899 1202.41 742.619 1202C743.351 1201.58 744.173 1201.37 745.085 1201.37C745.997 1201.37 746.807 1201.58 747.515 1202C748.235 1202.41 748.793 1202.98 749.189 1203.73C749.597 1204.47 749.801 1205.32 749.801 1206.28ZM745.085 1202.83C744.257 1202.83 743.561 1203.08 742.997 1203.58C742.445 1204.09 742.121 1204.75 742.025 1205.56H748.145C748.049 1204.76 747.719 1204.11 747.155 1203.6C746.603 1203.09 745.913 1202.83 745.085 1202.83ZM754.937 1211.11C754.157 1211.11 753.407 1211.01 752.687 1210.8C751.967 1210.59 751.403 1210.32 750.995 1209.99L751.715 1208.62C752.135 1208.92 752.645 1209.16 753.245 1209.34C753.845 1209.52 754.451 1209.61 755.062 1209.61C756.575 1209.61 757.331 1209.18 757.331 1208.32C757.331 1208.03 757.229 1207.8 757.025 1207.63C756.821 1207.47 756.563 1207.35 756.251 1207.27C755.951 1207.19 755.519 1207.1 754.955 1207C754.187 1206.88 753.557 1206.75 753.065 1206.59C752.585 1206.43 752.171 1206.17 751.823 1205.8C751.475 1205.43 751.301 1204.9 751.301 1204.23C751.301 1203.37 751.661 1202.68 752.381 1202.16C753.101 1201.63 754.067 1201.37 755.279 1201.37C755.915 1201.37 756.551 1201.45 757.187 1201.6C757.823 1201.76 758.345 1201.97 758.753 1202.23L758.015 1203.6C757.235 1203.1 756.317 1202.85 755.261 1202.85C754.529 1202.85 753.971 1202.97 753.587 1203.21C753.203 1203.45 753.011 1203.76 753.011 1204.16C753.011 1204.47 753.119 1204.72 753.335 1204.9C753.551 1205.08 753.815 1205.21 754.127 1205.29C754.451 1205.38 754.901 1205.47 755.477 1205.58C756.245 1205.71 756.863 1205.86 757.331 1206.01C757.811 1206.16 758.219 1206.41 758.555 1206.77C758.891 1207.13 759.059 1207.63 759.059 1208.28C759.059 1209.15 758.687 1209.84 757.943 1210.35C757.211 1210.86 756.209 1211.11 754.937 1211.11ZM763.954 1211.11C763.174 1211.11 762.424 1211.01 761.704 1210.8C760.984 1210.59 760.42 1210.32 760.012 1209.99L760.732 1208.62C761.152 1208.92 761.662 1209.16 762.262 1209.34C762.862 1209.52 763.468 1209.61 764.08 1209.61C765.592 1209.61 766.348 1209.18 766.348 1208.32C766.348 1208.03 766.246 1207.8 766.042 1207.63C765.838 1207.47 765.58 1207.35 765.268 1207.27C764.968 1207.19 764.536 1207.1 763.972 1207C763.204 1206.88 762.574 1206.75 762.082 1206.59C761.602 1206.43 761.188 1206.17 760.84 1205.8C760.492 1205.43 760.318 1204.9 760.318 1204.23C760.318 1203.37 760.678 1202.68 761.398 1202.16C762.118 1201.63 763.084 1201.37 764.296 1201.37C764.932 1201.37 765.568 1201.45 766.204 1201.6C766.84 1201.76 767.362 1201.97 767.77 1202.23L767.032 1203.6C766.252 1203.1 765.334 1202.85 764.278 1202.85C763.546 1202.85 762.988 1202.97 762.604 1203.21C762.22 1203.45 762.028 1203.76 762.028 1204.16C762.028 1204.47 762.136 1204.72 762.352 1204.9C762.568 1205.08 762.832 1205.21 763.144 1205.29C763.468 1205.38 763.918 1205.47 764.494 1205.58C765.262 1205.71 765.88 1205.86 766.348 1206.01C766.828 1206.16 767.236 1206.41 767.572 1206.77C767.908 1207.13 768.076 1207.63 768.076 1208.28C768.076 1209.15 767.704 1209.84 766.96 1210.35C766.228 1210.86 765.226 1211.11 763.954 1211.11ZM774.322 1211.11C773.374 1211.11 772.522 1210.9 771.766 1210.48C771.01 1210.06 770.416 1209.48 769.984 1208.75C769.564 1208.01 769.354 1207.17 769.354 1206.23C769.354 1205.29 769.564 1204.46 769.984 1203.73C770.416 1202.98 771.01 1202.41 771.766 1202C772.522 1201.58 773.374 1201.37 774.322 1201.37C775.27 1201.37 776.116 1201.58 776.86 1202C777.616 1202.41 778.204 1202.98 778.624 1203.73C779.056 1204.46 779.272 1205.29 779.272 1206.23C779.272 1207.17 779.056 1208.01 778.624 1208.75C778.204 1209.48 777.616 1210.06 776.86 1210.48C776.116 1210.9 775.27 1211.11 774.322 1211.11ZM774.322 1209.6C774.934 1209.6 775.48 1209.46 775.96 1209.18C776.452 1208.89 776.836 1208.5 777.112 1207.99C777.388 1207.48 777.526 1206.89 777.526 1206.23C777.526 1205.57 777.388 1204.99 777.112 1204.48C776.836 1203.97 776.452 1203.57 775.96 1203.3C775.48 1203.02 774.934 1202.88 774.322 1202.88C773.71 1202.88 773.158 1203.02 772.666 1203.3C772.186 1203.57 771.802 1203.97 771.514 1204.48C771.238 1204.99 771.1 1205.57 771.1 1206.23C771.1 1206.89 771.238 1207.48 771.514 1207.99C771.802 1208.5 772.186 1208.89 772.666 1209.18C773.158 1209.46 773.71 1209.6 774.322 1209.6ZM783.317 1203.06C783.617 1202.51 784.061 1202.09 784.649 1201.8C785.237 1201.51 785.951 1201.37 786.791 1201.37V1203.04C786.695 1203.03 786.563 1203.03 786.395 1203.03C785.459 1203.03 784.721 1203.31 784.181 1203.87C783.653 1204.42 783.389 1205.22 783.389 1206.25V1211H781.661V1201.46H783.317V1203.06Z" fill="black"/>
<rect x="163" y="1057" width="1553" height="226" fill="white" fill-opacity="0.8"/>
<path d="M378.738 1108.49V1129.97C378.738 1132.73 376.507 1134.96 373.749 1134.96H353.451C350.694 1134.96 348.463 1132.73 348.463 1129.97V1108.49C348.463 1105.73 350.694 1103.5 353.451 1103.5H373.749C376.353 1103.5 378.738 1105.77 378.738 1108.49Z" stroke="#5ECE9C" stroke-width="5"/>
</svg>
