<svg width="1800" height="1589" viewBox="0 0 1800 1589" fill="none" xmlns="http://www.w3.org/2000/svg">
<rect width="1800" height="1589" fill="white"/>
<path d="M775.885 1194.38H708.883C704.547 1194.38 701 1190.84 701 1186.5V1160.88C701 1156.55 704.547 1153 708.883 1153H775.885C780.221 1153 783.768 1156.55 783.768 1160.88V1186.5C783.768 1190.84 780.221 1194.38 775.885 1194.38Z" fill="#5ECE9C"/>
<circle cx="582.5" cy="226.5" r="91.5" fill="#C4C4C4"/>
<circle cx="829.5" cy="462.5" r="91.5" fill="#C4C4C4"/>
<path d="M1230.5 462.5C1230.5 511.641 1190.44 551.5 1141 551.5C1091.56 551.5 1051.5 511.641 1051.5 462.5C1051.5 413.359 1091.56 373.5 1141 373.5C1190.44 373.5 1230.5 413.359 1230.5 462.5Z" fill="#C4C4C4" stroke="black" stroke-width="5"/>
<circle cx="334.533" cy="462.93" r="91.6031" transform="rotate(90.1011 334.533 462.93)" fill="#C4C4C4"/>
<circle cx="333.984" cy="774.234" r="91.6031" transform="rotate(90.1011 333.984 774.234)" fill="#C4C4C4"/>
<circle cx="335.5" cy="462.5" r="91.5" fill="#C4C4C4"/>
<path d="M406.452 387.49C405.824 388.043 404.838 388.029 404.249 387.458L394.66 378.158C394.072 377.588 394.104 376.677 394.733 376.124C395.361 375.571 396.348 375.585 396.936 376.156L405.459 384.422L414.562 376.412C415.191 375.859 416.177 375.874 416.765 376.444C417.354 377.015 417.321 377.926 416.693 378.479L406.452 387.49ZM490.723 291.007C450.421 295.634 429.515 319.374 418.624 342.114C413.173 353.495 410.25 364.6 408.691 372.868C407.912 376.998 407.475 380.413 407.233 382.791C407.112 383.979 407.04 384.908 406.998 385.536C406.977 385.85 406.964 386.089 406.955 386.248C406.951 386.328 406.949 386.387 406.947 386.426C406.946 386.445 406.946 386.459 406.945 386.468C406.945 386.473 406.945 386.476 406.945 386.478C406.945 386.479 406.945 386.479 406.945 386.48C406.945 386.48 406.945 386.479 405.387 386.457C403.829 386.434 403.829 386.433 403.829 386.432C403.829 386.431 403.829 386.429 403.829 386.428C403.829 386.424 403.83 386.419 403.83 386.413C403.83 386.401 403.831 386.384 403.832 386.361C403.834 386.315 403.837 386.249 403.841 386.163C403.85 385.99 403.864 385.737 403.886 385.408C403.93 384.751 404.005 383.791 404.129 382.57C404.378 380.128 404.825 376.637 405.62 372.421C407.209 363.996 410.192 352.648 415.777 340.988C426.957 317.644 448.636 292.945 490.391 288.151L490.723 291.007Z" fill="black"/>
<path d="M282.108 684.066C282.001 684.897 281.251 685.537 280.432 685.497L267.09 684.844C266.271 684.804 265.694 684.098 265.801 683.268C265.908 682.438 266.658 681.797 267.477 681.837L279.336 682.418L280.884 670.392C280.991 669.562 281.741 668.921 282.56 668.961C283.379 669.001 283.956 669.707 283.849 670.537L282.108 684.066ZM281.693 555.963C254.48 586.049 254.454 617.681 261.289 641.95C264.71 654.098 269.847 664.368 274.134 671.606C276.277 675.223 278.203 678.076 279.591 680.022C280.285 680.994 280.844 681.739 281.227 682.239C281.419 682.488 281.567 682.677 281.666 682.801C281.715 682.864 281.752 682.91 281.777 682.94C281.789 682.955 281.798 682.967 281.803 682.973C281.806 682.977 281.808 682.979 281.809 682.981C281.81 682.982 281.81 682.982 281.811 682.982C281.811 682.982 281.81 682.982 280.625 683.994C279.44 685.005 279.44 685.005 279.439 685.004C279.438 685.003 279.437 685.002 279.436 685C279.434 684.998 279.431 684.994 279.427 684.989C279.419 684.98 279.408 684.966 279.394 684.948C279.366 684.913 279.324 684.861 279.271 684.794C279.163 684.658 279.007 684.459 278.806 684.197C278.405 683.675 277.827 682.905 277.114 681.905C275.689 679.907 273.719 676.99 271.533 673.299C267.164 665.922 261.911 655.429 258.407 642.985C251.39 618.071 251.364 585.207 279.558 554.038L281.693 555.963Z" fill="black"/>
<path d="M1044.35 468.706C1045.18 468.781 1045.84 469.51 1045.83 470.332L1045.61 483.737C1045.59 484.559 1044.91 485.165 1044.08 485.089C1043.25 485.013 1042.58 484.284 1042.6 483.462L1042.8 471.547L1030.76 470.447C1029.93 470.371 1029.27 469.643 1029.28 468.821C1029.3 467.998 1029.98 467.393 1030.81 467.469L1044.35 468.706ZM926.012 469.168C953.804 496.343 982.985 496.356 1005.37 489.539C1016.59 486.124 1026.08 480.995 1032.77 476.711C1036.11 474.571 1038.75 472.646 1040.55 471.26C1041.44 470.567 1042.13 470.009 1042.59 469.626C1042.82 469.435 1043 469.287 1043.11 469.188C1043.17 469.139 1043.21 469.102 1043.24 469.078C1043.26 469.066 1043.27 469.057 1043.27 469.051C1043.28 469.049 1043.28 469.047 1043.28 469.046C1043.28 469.045 1043.28 469.045 1043.28 469.044C1043.28 469.044 1043.28 469.045 1044.33 470.195C1045.37 471.345 1045.37 471.346 1045.37 471.347C1045.37 471.347 1045.37 471.348 1045.37 471.349C1045.36 471.352 1045.36 471.355 1045.36 471.359C1045.35 471.366 1045.33 471.378 1045.32 471.392C1045.29 471.421 1045.24 471.462 1045.17 471.516C1045.05 471.624 1044.86 471.78 1044.62 471.981C1044.14 472.383 1043.42 472.961 1042.5 473.675C1040.65 475.102 1037.95 477.074 1034.53 479.262C1027.7 483.635 1017.98 488.895 1006.45 492.406C983.341 499.441 952.859 499.454 923.987 471.222L926.012 469.168Z" fill="black"/>
<path d="M926.843 453.115C926.012 453.039 925.35 452.31 925.364 451.488L925.588 438.084C925.601 437.261 926.286 436.656 927.116 436.732C927.947 436.807 928.609 437.536 928.596 438.358L928.397 450.273L940.429 451.373C941.26 451.449 941.922 452.177 941.909 453C941.895 453.822 941.21 454.428 940.38 454.352L926.843 453.115ZM1045.18 452.652C1017.39 425.477 988.208 425.465 965.819 432.281C954.602 435.696 945.114 440.825 938.424 445.109C935.082 447.249 932.445 449.174 930.648 450.56C929.749 451.253 929.061 451.812 928.599 452.194C928.369 452.386 928.195 452.533 928.08 452.632C928.022 452.681 927.98 452.718 927.952 452.742C927.938 452.754 927.928 452.763 927.921 452.769C927.918 452.772 927.916 452.774 927.915 452.775C927.914 452.775 927.914 452.776 927.913 452.776C927.913 452.776 927.914 452.776 926.868 451.625C925.822 450.475 925.823 450.474 925.823 450.474C925.824 450.473 925.825 450.472 925.827 450.471C925.829 450.469 925.833 450.466 925.837 450.462C925.846 450.454 925.859 450.443 925.875 450.428C925.908 450.4 925.956 450.358 926.019 450.304C926.144 450.197 926.329 450.04 926.571 449.839C927.056 449.437 927.769 448.859 928.694 448.145C930.545 446.718 933.246 444.747 936.664 442.558C943.494 438.185 953.213 432.925 964.744 429.414C987.852 422.379 1018.33 422.367 1047.21 450.599L1045.18 452.652Z" fill="black"/>
<path d="M758.104 387.49C758.733 388.043 759.719 388.029 760.307 387.458L769.896 378.158C770.485 377.588 770.452 376.677 769.824 376.124C769.195 375.571 768.209 375.585 767.621 376.156L759.097 384.422L749.995 376.412C749.366 375.859 748.38 375.874 747.791 376.444C747.203 377.015 747.235 377.926 747.864 378.479L758.104 387.49ZM673.833 291.007C714.136 295.634 735.042 319.374 745.932 342.114C751.383 353.495 754.306 364.6 755.866 372.868C756.645 376.998 757.082 380.413 757.324 382.791C757.445 383.979 757.517 384.908 757.559 385.536C757.58 385.85 757.593 386.089 757.601 386.248C757.605 386.328 757.608 386.387 757.61 386.426C757.61 386.445 757.611 386.459 757.611 386.468C757.611 386.473 757.612 386.476 757.612 386.478C757.612 386.479 757.612 386.479 757.612 386.48C757.612 386.48 757.612 386.479 759.17 386.457C760.728 386.434 760.728 386.433 760.728 386.432C760.727 386.431 760.727 386.429 760.727 386.428C760.727 386.424 760.727 386.419 760.727 386.413C760.726 386.401 760.726 386.384 760.725 386.361C760.723 386.315 760.72 386.249 760.715 386.163C760.707 385.99 760.692 385.737 760.671 385.408C760.627 384.751 760.552 383.791 760.428 382.57C760.179 380.128 759.732 376.637 758.937 372.421C757.348 363.996 754.364 352.648 748.78 340.988C737.6 317.644 715.92 292.945 674.166 288.151L673.833 291.007Z" fill="black"/>
<path d="M443.744 806.681C443.291 807.375 443.487 808.304 444.181 808.756L455.489 816.131C456.183 816.583 457.112 816.388 457.564 815.694C458.017 815 457.821 814.071 457.127 813.618L447.076 807.063L453.631 797.012C454.083 796.318 453.888 795.388 453.194 794.936C452.5 794.483 451.571 794.679 451.118 795.373L443.744 806.681ZM445 743C444.829 744.49 444.829 744.49 444.829 744.49C444.829 744.49 444.829 744.49 444.829 744.49C444.83 744.49 444.832 744.491 444.834 744.491C444.838 744.491 444.845 744.492 444.855 744.493C444.874 744.495 444.903 744.499 444.942 744.504C445.02 744.513 445.138 744.528 445.293 744.549C445.603 744.589 446.061 744.652 446.646 744.74C447.817 744.916 449.493 745.192 451.507 745.589C455.539 746.385 460.897 747.664 466.239 749.598C471.598 751.538 476.845 754.104 480.727 757.428C484.59 760.736 487 764.697 487 769.5L490 769.5C490 763.553 486.973 758.827 482.679 755.15C478.405 751.49 472.777 748.774 467.261 746.777C461.728 744.774 456.211 743.459 452.087 742.646C450.023 742.238 448.301 741.955 447.092 741.773C446.488 741.683 446.011 741.617 445.684 741.574C445.52 741.553 445.394 741.537 445.308 741.526C445.265 741.521 445.232 741.517 445.209 741.514C445.197 741.513 445.188 741.512 445.182 741.511C445.179 741.511 445.177 741.51 445.175 741.51C445.174 741.51 445.173 741.51 445.173 741.51C445.172 741.51 445.171 741.51 445 743ZM487 769.5C487 779.609 481.257 787.712 472.98 793.858C464.697 800.009 454.039 804.064 444.691 806.032L445.309 808.968C454.96 806.936 466.051 802.741 474.769 796.267C483.493 789.788 490 780.891 490 769.5L487 769.5Z" fill="black"/>
<path d="M221.756 806.681C222.209 807.375 222.013 808.304 221.319 808.756L210.011 816.131C209.317 816.583 208.388 816.388 207.936 815.694C207.483 815 207.679 814.071 208.373 813.618L218.424 807.063L211.869 797.012C211.417 796.318 211.612 795.388 212.306 794.936C213 794.483 213.929 794.679 214.382 795.373L221.756 806.681ZM220.5 743C220.671 744.49 220.671 744.49 220.671 744.49C220.671 744.49 220.671 744.49 220.671 744.49C220.67 744.49 220.668 744.491 220.666 744.491C220.662 744.491 220.655 744.492 220.645 744.493C220.626 744.495 220.597 744.499 220.558 744.504C220.48 744.513 220.362 744.528 220.207 744.549C219.897 744.589 219.439 744.652 218.854 744.74C217.683 744.916 216.007 745.192 213.993 745.589C209.961 746.385 204.603 747.664 199.261 749.598C193.902 751.538 188.655 754.104 184.773 757.428C180.91 760.736 178.5 764.697 178.5 769.5L175.5 769.5C175.5 763.553 178.527 758.827 182.821 755.15C187.095 751.49 192.723 748.774 198.239 746.777C203.772 744.774 209.289 743.459 213.413 742.646C215.477 742.238 217.199 741.955 218.408 741.773C219.012 741.683 219.489 741.617 219.816 741.574C219.98 741.553 220.106 741.537 220.192 741.526C220.235 741.521 220.268 741.517 220.291 741.514C220.303 741.513 220.312 741.512 220.318 741.511C220.321 741.511 220.323 741.51 220.325 741.51C220.326 741.51 220.327 741.51 220.327 741.51C220.328 741.51 220.329 741.51 220.5 743ZM178.5 769.5C178.5 779.609 184.243 787.712 192.52 793.858C200.803 800.009 211.461 804.064 220.809 806.032L220.191 808.968C210.54 806.936 199.449 802.741 190.731 796.267C182.007 789.788 175.5 780.891 175.5 769.5L178.5 769.5Z" fill="black"/>
<path d="M221.756 494.681C222.209 495.375 222.013 496.304 221.319 496.756L210.011 504.131C209.317 504.583 208.388 504.388 207.936 503.694C207.483 503 207.679 502.071 208.373 501.618L218.424 495.063L211.869 485.012C211.417 484.318 211.612 483.388 212.306 482.936C213 482.483 213.929 482.679 214.382 483.373L221.756 494.681ZM220.5 431C220.671 432.49 220.671 432.49 220.671 432.49C220.671 432.49 220.671 432.49 220.671 432.49C220.67 432.49 220.668 432.491 220.666 432.491C220.662 432.491 220.655 432.492 220.645 432.493C220.626 432.495 220.597 432.499 220.558 432.504C220.48 432.513 220.362 432.528 220.207 432.549C219.897 432.589 219.439 432.652 218.854 432.74C217.683 432.916 216.007 433.192 213.993 433.589C209.961 434.385 204.603 435.664 199.261 437.598C193.902 439.538 188.655 442.104 184.773 445.428C180.91 448.736 178.5 452.697 178.5 457.5L175.5 457.5C175.5 451.553 178.527 446.827 182.821 443.15C187.095 439.49 192.723 436.774 198.239 434.777C203.772 432.774 209.289 431.459 213.413 430.646C215.477 430.238 217.199 429.955 218.408 429.773C219.012 429.683 219.489 429.617 219.816 429.574C219.98 429.553 220.106 429.537 220.192 429.526C220.235 429.521 220.268 429.517 220.291 429.514C220.303 429.513 220.312 429.512 220.318 429.511C220.321 429.511 220.323 429.51 220.325 429.51C220.326 429.51 220.327 429.51 220.327 429.51C220.328 429.51 220.329 429.51 220.5 431ZM178.5 457.5C178.5 467.609 184.243 475.712 192.52 481.858C200.803 488.009 211.461 492.064 220.809 494.032L220.191 496.968C210.54 494.936 199.449 490.741 190.731 484.267C182.007 477.788 175.5 468.891 175.5 457.5L178.5 457.5Z" fill="black"/>
<path d="M798.819 366.756C798.125 367.209 797.196 367.013 796.744 366.319L789.369 355.011C788.917 354.317 789.112 353.388 789.806 352.936C790.5 352.483 791.429 352.679 791.882 353.373L798.437 363.424L808.488 356.869C809.182 356.417 810.112 356.612 810.564 357.306C811.017 358 810.821 358.929 810.127 359.382L798.819 366.756ZM862.5 365.5C861.01 365.671 861.01 365.671 861.01 365.671C861.01 365.671 861.01 365.671 861.01 365.671C861.01 365.67 861.009 365.668 861.009 365.666C861.009 365.662 861.008 365.655 861.007 365.645C861.005 365.626 861.001 365.597 860.996 365.558C860.987 365.48 860.972 365.362 860.951 365.207C860.911 364.897 860.848 364.439 860.76 363.854C860.584 362.683 860.308 361.007 859.911 358.993C859.115 354.961 857.836 349.603 855.902 344.261C853.962 338.902 851.396 333.655 848.072 329.773C844.764 325.91 840.803 323.5 836 323.5L836 320.5C841.947 320.5 846.673 323.527 850.35 327.821C854.01 332.095 856.726 337.723 858.723 343.239C860.726 348.772 862.041 354.289 862.854 358.413C863.262 360.477 863.545 362.199 863.727 363.408C863.817 364.012 863.883 364.489 863.926 364.816C863.947 364.98 863.963 365.106 863.974 365.192C863.979 365.235 863.983 365.268 863.986 365.291C863.987 365.303 863.988 365.312 863.989 365.318C863.989 365.321 863.99 365.323 863.99 365.325C863.99 365.326 863.99 365.327 863.99 365.327C863.99 365.328 863.99 365.329 862.5 365.5ZM836 323.5C825.891 323.5 817.788 329.243 811.642 337.52C805.491 345.803 801.436 356.461 799.468 365.809L796.532 365.191C798.564 355.54 802.759 344.449 809.233 335.731C815.712 327.007 824.609 320.5 836 320.5L836 323.5Z" fill="black"/>
<path d="M585.908 225.268H571.868L568.844 232H566.072L577.592 206.8H580.22L591.74 232H588.932L585.908 225.268ZM584.936 223.108L578.888 209.572L572.84 223.108H584.936Z" fill="black"/>
<path d="M306.97 271.22H309.1V287H306.97V271.22ZM308.05 267.77C307.61 267.77 307.24 267.62 306.94 267.32C306.64 267.02 306.49 266.66 306.49 266.24C306.49 265.84 306.64 265.49 306.94 265.19C307.24 264.89 307.61 264.74 308.05 264.74C308.49 264.74 308.86 264.89 309.16 265.19C309.46 265.47 309.61 265.81 309.61 266.21C309.61 266.65 309.46 267.02 309.16 267.32C308.86 267.62 308.49 267.77 308.05 267.77ZM323.067 271.1C325.047 271.1 326.617 271.68 327.777 272.84C328.957 273.98 329.547 275.65 329.547 277.85V287H327.417V278.06C327.417 276.42 327.007 275.17 326.187 274.31C325.367 273.45 324.197 273.02 322.677 273.02C320.977 273.02 319.627 273.53 318.627 274.55C317.647 275.55 317.157 276.94 317.157 278.72V287H315.027V271.22H317.067V274.13C317.647 273.17 318.447 272.43 319.467 271.91C320.507 271.37 321.707 271.1 323.067 271.1ZM349.788 264.74V287H347.748V283.88C347.108 284.94 346.258 285.75 345.198 286.31C344.158 286.87 342.978 287.15 341.658 287.15C340.178 287.15 338.838 286.81 337.638 286.13C336.438 285.45 335.498 284.5 334.818 283.28C334.138 282.06 333.798 280.67 333.798 279.11C333.798 277.55 334.138 276.16 334.818 274.94C335.498 273.72 336.438 272.78 337.638 272.12C338.838 271.44 340.178 271.1 341.658 271.1C342.938 271.1 344.088 271.37 345.108 271.91C346.148 272.43 346.998 273.2 347.658 274.22V264.74H349.788ZM341.838 285.26C342.938 285.26 343.928 285.01 344.808 284.51C345.708 283.99 346.408 283.26 346.908 282.32C347.428 281.38 347.688 280.31 347.688 279.11C347.688 277.91 347.428 276.84 346.908 275.9C346.408 274.96 345.708 274.24 344.808 273.74C343.928 273.22 342.938 272.96 341.838 272.96C340.718 272.96 339.708 273.22 338.808 273.74C337.928 274.24 337.228 274.96 336.708 275.9C336.208 276.84 335.958 277.91 335.958 279.11C335.958 280.31 336.208 281.38 336.708 282.32C337.228 283.26 337.928 283.99 338.808 284.51C339.708 285.01 340.718 285.26 341.838 285.26ZM369.94 271.22V287H367.9V284.12C367.34 285.08 366.57 285.83 365.59 286.37C364.61 286.89 363.49 287.15 362.23 287.15C360.17 287.15 358.54 286.58 357.34 285.44C356.16 284.28 355.57 282.59 355.57 280.37V271.22H357.7V280.16C357.7 281.82 358.11 283.08 358.93 283.94C359.75 284.8 360.92 285.23 362.44 285.23C364.1 285.23 365.41 284.73 366.37 283.73C367.33 282.71 367.81 281.3 367.81 279.5V271.22H369.94ZM382.446 287.15C380.886 287.15 379.486 286.81 378.246 286.13C377.026 285.45 376.066 284.5 375.366 283.28C374.666 282.04 374.316 280.65 374.316 279.11C374.316 277.57 374.666 276.19 375.366 274.97C376.066 273.75 377.026 272.8 378.246 272.12C379.486 271.44 380.886 271.1 382.446 271.1C383.806 271.1 385.016 271.37 386.076 271.91C387.156 272.43 388.006 273.2 388.626 274.22L387.036 275.3C386.516 274.52 385.856 273.94 385.056 273.56C384.256 273.16 383.386 272.96 382.446 272.96C381.306 272.96 380.276 273.22 379.356 273.74C378.456 274.24 377.746 274.96 377.226 275.9C376.726 276.84 376.476 277.91 376.476 279.11C376.476 280.33 376.726 281.41 377.226 282.35C377.746 283.27 378.456 283.99 379.356 284.51C380.276 285.01 381.306 285.26 382.446 285.26C383.386 285.26 384.256 285.07 385.056 284.69C385.856 284.31 386.516 283.73 387.036 282.95L388.626 284.03C388.006 285.05 387.156 285.83 386.076 286.37C384.996 286.89 383.786 287.15 382.446 287.15ZM406.286 279.77H393.086C393.206 281.41 393.836 282.74 394.976 283.76C396.116 284.76 397.556 285.26 399.296 285.26C400.276 285.26 401.176 285.09 401.996 284.75C402.816 284.39 403.526 283.87 404.126 283.19L405.326 284.57C404.626 285.41 403.746 286.05 402.686 286.49C401.646 286.93 400.496 287.15 399.236 287.15C397.616 287.15 396.176 286.81 394.916 286.13C393.676 285.43 392.706 284.47 392.006 283.25C391.306 282.03 390.956 280.65 390.956 279.11C390.956 277.57 391.286 276.19 391.946 274.97C392.626 273.75 393.546 272.8 394.706 272.12C395.886 271.44 397.206 271.1 398.666 271.1C400.126 271.1 401.436 271.44 402.596 272.12C403.756 272.8 404.666 273.75 405.326 274.97C405.986 276.17 406.316 277.55 406.316 279.11L406.286 279.77ZM398.666 272.93C397.146 272.93 395.866 273.42 394.826 274.4C393.806 275.36 393.226 276.62 393.086 278.18H404.276C404.136 276.62 403.546 275.36 402.506 274.4C401.486 273.42 400.206 272.93 398.666 272.93ZM412.692 274.31C413.192 273.25 413.932 272.45 414.912 271.91C415.912 271.37 417.142 271.1 418.602 271.1V273.17L418.092 273.14C416.432 273.14 415.132 273.65 414.192 274.67C413.252 275.69 412.782 277.12 412.782 278.96V287H410.652V271.22H412.692V274.31ZM434.954 266V287H432.794V267.92H427.844V266H434.954Z" fill="black"/>
<path d="M694.9 336.08V338H680.17V336.47L688.9 327.92C690 326.84 690.74 325.91 691.12 325.13C691.52 324.33 691.72 323.53 691.72 322.73C691.72 321.49 691.29 320.53 690.43 319.85C689.59 319.15 688.38 318.8 686.8 318.8C684.34 318.8 682.43 319.58 681.07 321.14L679.54 319.82C680.36 318.86 681.4 318.12 682.66 317.6C683.94 317.08 685.38 316.82 686.98 316.82C689.12 316.82 690.81 317.33 692.05 318.35C693.31 319.35 693.94 320.73 693.94 322.49C693.94 323.57 693.7 324.61 693.22 325.61C692.74 326.61 691.83 327.76 690.49 329.06L683.35 336.08H694.9Z" fill="black"/>
<path d="M303.9 618.08V620H289.17V618.47L297.9 609.92C299 608.84 299.74 607.91 300.12 607.13C300.52 606.33 300.72 605.53 300.72 604.73C300.72 603.49 300.29 602.53 299.43 601.85C298.59 601.15 297.38 600.8 295.8 600.8C293.34 600.8 291.43 601.58 290.07 603.14L288.54 601.82C289.36 600.86 290.4 600.12 291.66 599.6C292.94 599.08 294.38 598.82 295.98 598.82C298.12 598.82 299.81 599.33 301.05 600.35C302.31 601.35 302.94 602.73 302.94 604.49C302.94 605.57 302.7 606.61 302.22 607.61C301.74 608.61 300.83 609.76 299.49 611.06L292.35 618.08H303.9Z" fill="black"/>
<path d="M523.9 737.08V739H509.17V737.47L517.9 728.92C519 727.84 519.74 726.91 520.12 726.13C520.52 725.33 520.72 724.53 520.72 723.73C520.72 722.49 520.29 721.53 519.43 720.85C518.59 720.15 517.38 719.8 515.8 719.8C513.34 719.8 511.43 720.58 510.07 722.14L508.54 720.82C509.36 719.86 510.4 719.12 511.66 718.6C512.94 718.08 514.38 717.82 515.98 717.82C518.12 717.82 519.81 718.33 521.05 719.35C522.31 720.35 522.94 721.73 522.94 723.49C522.94 724.57 522.7 725.61 522.22 726.61C521.74 727.61 520.83 728.76 519.49 730.06L512.35 737.08H523.9Z" fill="black"/>
<path d="M863.9 298.08V300H849.17V298.47L857.9 289.92C859 288.84 859.74 287.91 860.12 287.13C860.52 286.33 860.72 285.53 860.72 284.73C860.72 283.49 860.29 282.53 859.43 281.85C858.59 281.15 857.38 280.8 855.8 280.8C853.34 280.8 851.43 281.58 850.07 283.14L848.54 281.82C849.36 280.86 850.4 280.12 851.66 279.6C852.94 279.08 854.38 278.82 855.98 278.82C858.12 278.82 859.81 279.33 861.05 280.35C862.31 281.35 862.94 282.73 862.94 284.49C862.94 285.57 862.7 286.61 862.22 287.61C861.74 288.61 860.83 289.76 859.49 291.06L852.35 298.08H863.9Z" fill="black"/>
<path d="M990.38 524V545H988.22V525.92H983.27V524H990.38Z" fill="black"/>
<path d="M141.38 725V746H139.22V726.92H134.27V725H141.38Z" fill="black"/>
<path d="M141.38 422V443H139.22V423.92H134.27V422H141.38Z" fill="black"/>
<path d="M954.28 399.04C953.88 399.4 953.38 399.68 952.78 399.88C952.2 400.06 951.59 400.15 950.95 400.15C949.47 400.15 948.33 399.75 947.53 398.95C946.73 398.15 946.33 397.02 946.33 395.56V386.02H943.51V384.22H946.33V380.77H948.46V384.22H953.26V386.02H948.46V395.44C948.46 396.38 948.69 397.1 949.15 397.6C949.63 398.08 950.31 398.32 951.19 398.32C951.63 398.32 952.05 398.25 952.45 398.11C952.87 397.97 953.23 397.77 953.53 397.51L954.28 399.04ZM958.158 384.22H960.288V400H958.158V384.22ZM959.238 380.77C958.798 380.77 958.428 380.62 958.128 380.32C957.828 380.02 957.678 379.66 957.678 379.24C957.678 378.84 957.828 378.49 958.128 378.19C958.428 377.89 958.798 377.74 959.238 377.74C959.678 377.74 960.048 377.89 960.348 378.19C960.648 378.47 960.798 378.81 960.798 379.21C960.798 379.65 960.648 380.02 960.348 380.32C960.048 380.62 959.678 380.77 959.238 380.77ZM985.894 384.1C987.874 384.1 989.424 384.67 990.544 385.81C991.684 386.95 992.254 388.63 992.254 390.85V400H990.124V391.06C990.124 389.42 989.724 388.17 988.924 387.31C988.144 386.45 987.034 386.02 985.594 386.02C983.954 386.02 982.664 386.53 981.724 387.55C980.784 388.55 980.314 389.94 980.314 391.72V400H978.184V391.06C978.184 389.42 977.784 388.17 976.984 387.31C976.204 386.45 975.084 386.02 973.624 386.02C972.004 386.02 970.714 386.53 969.754 387.55C968.814 388.55 968.344 389.94 968.344 391.72V400H966.214V384.22H968.254V387.1C968.814 386.14 969.594 385.4 970.594 384.88C971.594 384.36 972.744 384.1 974.044 384.1C975.364 384.1 976.504 384.38 977.464 384.94C978.444 385.5 979.174 386.33 979.654 387.43C980.234 386.39 981.064 385.58 982.144 385C983.244 384.4 984.494 384.1 985.894 384.1ZM1011.83 392.77H998.629C998.749 394.41 999.379 395.74 1000.52 396.76C1001.66 397.76 1003.1 398.26 1004.84 398.26C1005.82 398.26 1006.72 398.09 1007.54 397.75C1008.36 397.39 1009.07 396.87 1009.67 396.19L1010.87 397.57C1010.17 398.41 1009.29 399.05 1008.23 399.49C1007.19 399.93 1006.04 400.15 1004.78 400.15C1003.16 400.15 1001.72 399.81 1000.46 399.13C999.219 398.43 998.249 397.47 997.549 396.25C996.849 395.03 996.499 393.65 996.499 392.11C996.499 390.57 996.829 389.19 997.489 387.97C998.169 386.75 999.089 385.8 1000.25 385.12C1001.43 384.44 1002.75 384.1 1004.21 384.1C1005.67 384.1 1006.98 384.44 1008.14 385.12C1009.3 385.8 1010.21 386.75 1010.87 387.97C1011.53 389.17 1011.86 390.55 1011.86 392.11L1011.83 392.77ZM1004.21 385.93C1002.69 385.93 1001.41 386.42 1000.37 387.4C999.349 388.36 998.769 389.62 998.629 391.18H1009.82C1009.68 389.62 1009.09 388.36 1008.05 387.4C1007.03 386.42 1005.75 385.93 1004.21 385.93Z" fill="black"/>
<path d="M339.41 462.004C341.066 462.364 342.338 463.084 343.226 464.164C344.138 465.22 344.594 466.588 344.594 468.268C344.594 470.428 343.79 472.096 342.182 473.272C340.598 474.424 338.246 475 335.126 475H323.534V449.8H334.406C337.214 449.8 339.386 450.364 340.922 451.492C342.482 452.62 343.262 454.216 343.262 456.28C343.262 457.672 342.914 458.86 342.218 459.844C341.546 460.804 340.61 461.524 339.41 462.004ZM326.198 451.996V461.14H334.226C336.266 461.14 337.838 460.756 338.942 459.988C340.046 459.196 340.598 458.056 340.598 456.568C340.598 455.08 340.046 453.952 338.942 453.184C337.838 452.392 336.266 451.996 334.226 451.996H326.198ZM335.09 472.804C337.346 472.804 339.05 472.42 340.202 471.652C341.354 470.884 341.93 469.684 341.93 468.052C341.93 464.908 339.65 463.336 335.09 463.336H326.198V472.804H335.09Z" fill="black"/>
<path d="M819.733 449.8H829.993C832.657 449.8 835.009 450.34 837.049 451.42C839.089 452.476 840.673 453.964 841.801 455.884C842.929 457.78 843.493 459.952 843.493 462.4C843.493 464.848 842.929 467.032 841.801 468.952C840.673 470.848 839.089 472.336 837.049 473.416C835.009 474.472 832.657 475 829.993 475H819.733V449.8ZM829.849 472.696C832.057 472.696 833.989 472.264 835.645 471.4C837.301 470.512 838.585 469.3 839.497 467.764C840.409 466.204 840.865 464.416 840.865 462.4C840.865 460.384 840.409 458.608 839.497 457.072C838.585 455.512 837.301 454.3 835.645 453.436C833.989 452.548 832.057 452.104 829.849 452.104H822.397V472.696H829.849Z" fill="black"/>
<path d="M1151.38 472.696V475H1133.56V449.8H1150.84V452.104H1136.23V461.068H1149.26V463.336H1136.23V472.696H1151.38Z" fill="black"/>
<path d="M335.611 783.216C333.115 783.216 330.859 782.664 328.843 781.56C326.851 780.456 325.279 778.932 324.127 776.988C322.999 775.02 322.435 772.824 322.435 770.4C322.435 767.976 322.999 765.792 324.127 763.848C325.279 761.88 326.863 760.344 328.879 759.24C330.895 758.136 333.151 757.584 335.647 757.584C337.519 757.584 339.247 757.896 340.831 758.52C342.415 759.144 343.759 760.056 344.863 761.256L343.171 762.948C341.203 760.956 338.719 759.96 335.719 759.96C333.727 759.96 331.915 760.416 330.283 761.328C328.651 762.24 327.367 763.488 326.431 765.072C325.519 766.656 325.062 768.432 325.062 770.4C325.062 772.368 325.519 774.144 326.431 775.728C327.367 777.312 328.651 778.56 330.283 779.472C331.915 780.384 333.727 780.84 335.719 780.84C338.743 780.84 341.227 779.832 343.171 777.816L344.863 779.508C343.759 780.708 342.403 781.632 340.795 782.28C339.211 782.904 337.483 783.216 335.611 783.216Z" fill="black"/>
<path d="M1148.13 1296.57L1126.45 1317.26H1043.88V1275.88H1126.45L1148.13 1296.57Z" fill="#F0AE3E"/>
<path d="M383.967 1317.06H329.576V1262.87L383.967 1317.06Z" fill="#D0CECE"/>
<path d="M378.738 1260.49V1281.97C378.738 1284.73 376.507 1286.96 373.749 1286.96H353.451C350.694 1286.96 348.463 1284.73 348.463 1281.97V1260.49C348.463 1257.73 350.694 1255.5 353.451 1255.5H373.749C376.353 1255.5 378.738 1257.77 378.738 1260.49Z" stroke="#5ECE9C" stroke-width="5"/>
<path d="M290.412 1286.52V1275.68H263.808C255.531 1275.68 249.028 1282.38 249.028 1290.46V1317.06H229.321V1287.5C229.321 1270.16 243.313 1255.97 260.852 1255.97H290.412V1245.13L310.119 1265.82L290.412 1286.52Z" fill="#474747"/>
<path d="M888.193 1277.45H872.625V1270.16H912.432V1277.45H896.864V1317.06H888.193V1277.45Z" fill="#474747"/>
<path d="M426 1275.91V1317.29L465.61 1296.6L426 1275.91Z" fill="#F6788E"/>
<path d="M854.069 1317.29V1275.91L814.459 1296.6L854.069 1317.29Z" fill="#F6788E"/>
<path d="M1175.4 1277.68H1159.83V1270.39H1199.64V1277.68H1184.07V1317.29H1175.4V1277.68Z" fill="#474747"/>
<path d="M1009.41 1286.91V1276.07H982.808C974.531 1276.07 968.028 1282.77 968.028 1290.85V1317.45H948.321V1287.89C948.321 1270.55 962.313 1256.36 979.852 1256.36H1009.41V1245.52L1029.12 1266.22L1009.41 1286.91Z" fill="#474747"/>
<path d="M668.885 1317.77H601.883C597.547 1317.77 594 1314.23 594 1309.89V1284.27C594 1279.94 597.547 1276.39 601.883 1276.39H668.885C673.221 1276.39 676.768 1279.94 676.768 1284.27V1309.89C676.768 1314.23 673.221 1317.77 668.885 1317.77Z" fill="#ECD24B"/>
<path d="M496.439 1275.71H563.442C567.777 1275.71 571.324 1279.26 571.324 1283.6V1309.21C571.324 1313.55 567.777 1317.1 563.442 1317.1H496.439C492.103 1317.1 488.556 1313.55 488.556 1309.21V1283.6C488.556 1279.26 492.103 1275.71 496.439 1275.71Z" fill="#A6D440"/>
<path d="M774.885 1317.77H707.883C703.547 1317.77 700 1314.23 700 1309.89V1284.27C700 1279.94 703.547 1276.39 707.883 1276.39H774.885C779.221 1276.39 782.768 1279.94 782.768 1284.27V1309.89C782.768 1314.23 779.221 1317.77 774.885 1317.77Z" fill="#5ECE9C"/>
<path d="M262.293 1235.47V1257.94C262.293 1261.29 259.668 1263.91 256.319 1263.91H232.474C229.125 1263.91 226.5 1261.29 226.5 1257.94V1235.47C226.5 1232.12 229.125 1229.5 232.474 1229.5H256.457C259.693 1229.67 262.293 1232.36 262.293 1235.47Z" stroke="#518195" stroke-width="5"/>
<path d="M981.293 1235.47V1257.94C981.293 1261.29 978.668 1263.91 975.319 1263.91H951.474C948.125 1263.91 945.5 1261.29 945.5 1257.94V1235.47C945.5 1232.12 948.125 1229.5 951.474 1229.5H975.457C978.693 1229.67 981.293 1232.36 981.293 1235.47Z" stroke="#D198B8" stroke-width="5"/>
<path d="M323.901 1363.14C322.629 1363.14 321.483 1362.87 320.463 1362.32C319.443 1361.75 318.639 1360.98 318.051 1359.99C317.475 1359.01 317.187 1357.91 317.187 1356.7C317.187 1355.49 317.475 1354.39 318.051 1353.41C318.639 1352.42 319.443 1351.65 320.463 1351.1C321.483 1350.54 322.629 1350.26 323.901 1350.26C325.161 1350.26 326.301 1350.54 327.321 1351.1C328.341 1351.65 329.139 1352.42 329.715 1353.41C330.291 1354.38 330.579 1355.48 330.579 1356.7C330.579 1357.92 330.291 1359.03 329.715 1360.01C329.139 1360.98 328.341 1361.75 327.321 1362.32C326.301 1362.87 325.161 1363.14 323.901 1363.14ZM323.901 1361.54C324.825 1361.54 325.653 1361.33 326.385 1360.91C327.129 1360.49 327.711 1359.92 328.131 1359.18C328.563 1358.44 328.779 1357.61 328.779 1356.7C328.779 1355.79 328.563 1354.97 328.131 1354.23C327.711 1353.49 327.129 1352.91 326.385 1352.49C325.653 1352.07 324.825 1351.86 323.901 1351.86C322.977 1351.86 322.137 1352.07 321.381 1352.49C320.637 1352.91 320.049 1353.49 319.617 1354.23C319.197 1354.97 318.987 1355.79 318.987 1356.7C318.987 1357.61 319.197 1358.44 319.617 1359.18C320.049 1359.92 320.637 1360.49 321.381 1360.91C322.137 1361.33 322.977 1361.54 323.901 1361.54ZM338.136 1353.37C339.06 1353.37 339.888 1353.57 340.62 1353.98C341.352 1354.39 341.922 1354.96 342.33 1355.69C342.75 1356.42 342.96 1357.27 342.96 1358.23C342.96 1359.19 342.75 1360.04 342.33 1360.79C341.922 1361.52 341.352 1362.09 340.62 1362.5C339.888 1362.9 339.06 1363.11 338.136 1363.11C337.452 1363.11 336.822 1362.98 336.246 1362.71C335.682 1362.45 335.202 1362.06 334.806 1361.56V1366.49H333.078V1353.46H334.734V1354.97C335.118 1354.44 335.604 1354.05 336.192 1353.78C336.78 1353.51 337.428 1353.37 338.136 1353.37ZM337.992 1361.6C338.604 1361.6 339.15 1361.46 339.63 1361.18C340.122 1360.89 340.506 1360.5 340.782 1359.99C341.07 1359.48 341.214 1358.89 341.214 1358.23C341.214 1357.57 341.07 1356.99 340.782 1356.48C340.506 1355.97 340.122 1355.57 339.63 1355.3C339.15 1355.02 338.604 1354.88 337.992 1354.88C337.392 1354.88 336.846 1355.03 336.354 1355.31C335.874 1355.59 335.49 1355.98 335.202 1356.48C334.926 1356.99 334.788 1357.57 334.788 1358.23C334.788 1358.89 334.926 1359.48 335.202 1359.99C335.478 1360.5 335.862 1360.89 336.354 1361.18C336.846 1361.46 337.392 1361.6 337.992 1361.6ZM353.97 1358.28C353.97 1358.42 353.958 1358.59 353.934 1358.81H346.194C346.302 1359.65 346.668 1360.32 347.292 1360.84C347.928 1361.34 348.714 1361.6 349.65 1361.6C350.79 1361.6 351.708 1361.21 352.404 1360.44L353.358 1361.56C352.926 1362.06 352.386 1362.45 351.738 1362.71C351.102 1362.98 350.388 1363.11 349.596 1363.11C348.588 1363.11 347.694 1362.9 346.914 1362.5C346.134 1362.08 345.528 1361.49 345.096 1360.75C344.676 1360.01 344.466 1359.17 344.466 1358.23C344.466 1357.31 344.67 1356.47 345.078 1355.73C345.498 1354.98 346.068 1354.41 346.788 1354C347.52 1353.58 348.342 1353.37 349.254 1353.37C350.166 1353.37 350.976 1353.58 351.684 1354C352.404 1354.41 352.962 1354.98 353.358 1355.73C353.766 1356.47 353.97 1357.32 353.97 1358.28ZM349.254 1354.83C348.426 1354.83 347.73 1355.08 347.166 1355.58C346.614 1356.09 346.29 1356.75 346.194 1357.56H352.314C352.218 1356.76 351.888 1356.11 351.324 1355.6C350.772 1355.09 350.082 1354.83 349.254 1354.83ZM358.025 1355.06C358.325 1354.51 358.769 1354.09 359.357 1353.8C359.945 1353.51 360.659 1353.37 361.499 1353.37V1355.04C361.403 1355.03 361.271 1355.03 361.103 1355.03C360.167 1355.03 359.429 1355.31 358.889 1355.87C358.361 1356.42 358.097 1357.22 358.097 1358.25V1363H356.369V1353.46H358.025V1355.06ZM367.086 1353.37C368.406 1353.37 369.414 1353.69 370.11 1354.34C370.818 1354.99 371.172 1355.96 371.172 1357.24V1363H369.534V1361.74C369.246 1362.18 368.832 1362.53 368.292 1362.77C367.764 1362.99 367.134 1363.11 366.402 1363.11C365.334 1363.11 364.476 1362.85 363.828 1362.33C363.192 1361.82 362.874 1361.14 362.874 1360.3C362.874 1359.46 363.18 1358.79 363.792 1358.28C364.404 1357.77 365.376 1357.51 366.708 1357.51H369.444V1357.17C369.444 1356.42 369.228 1355.85 368.796 1355.46C368.364 1355.06 367.728 1354.86 366.888 1354.86C366.324 1354.86 365.772 1354.96 365.232 1355.15C364.692 1355.33 364.236 1355.58 363.864 1355.89L363.144 1354.59C363.636 1354.2 364.224 1353.9 364.908 1353.69C365.592 1353.48 366.318 1353.37 367.086 1353.37ZM366.69 1361.78C367.35 1361.78 367.92 1361.63 368.4 1361.34C368.88 1361.04 369.228 1360.62 369.444 1360.08V1358.75H366.78C365.316 1358.75 364.584 1359.24 364.584 1360.23C364.584 1360.71 364.77 1361.09 365.142 1361.36C365.514 1361.64 366.03 1361.78 366.69 1361.78ZM379.733 1362.44C379.481 1362.66 379.169 1362.83 378.797 1362.95C378.425 1363.05 378.041 1363.11 377.645 1363.11C376.685 1363.11 375.941 1362.85 375.413 1362.33C374.885 1361.82 374.621 1361.08 374.621 1360.12V1354.88H373.001V1353.46H374.621V1351.37H376.349V1353.46H379.085V1354.88H376.349V1360.05C376.349 1360.56 376.475 1360.96 376.727 1361.24C376.991 1361.51 377.363 1361.65 377.843 1361.65C378.371 1361.65 378.821 1361.5 379.193 1361.2L379.733 1362.44ZM385.592 1363.11C384.644 1363.11 383.792 1362.9 383.036 1362.48C382.28 1362.06 381.686 1361.48 381.254 1360.75C380.834 1360.01 380.624 1359.17 380.624 1358.23C380.624 1357.29 380.834 1356.46 381.254 1355.73C381.686 1354.98 382.28 1354.41 383.036 1354C383.792 1353.58 384.644 1353.37 385.592 1353.37C386.54 1353.37 387.386 1353.58 388.13 1354C388.886 1354.41 389.474 1354.98 389.894 1355.73C390.326 1356.46 390.542 1357.29 390.542 1358.23C390.542 1359.17 390.326 1360.01 389.894 1360.75C389.474 1361.48 388.886 1362.06 388.13 1362.48C387.386 1362.9 386.54 1363.11 385.592 1363.11ZM385.592 1361.6C386.204 1361.6 386.75 1361.46 387.23 1361.18C387.722 1360.89 388.106 1360.5 388.382 1359.99C388.658 1359.48 388.796 1358.89 388.796 1358.23C388.796 1357.57 388.658 1356.99 388.382 1356.48C388.106 1355.97 387.722 1355.57 387.23 1355.3C386.75 1355.02 386.204 1354.88 385.592 1354.88C384.98 1354.88 384.428 1355.02 383.936 1355.3C383.456 1355.57 383.072 1355.97 382.784 1356.48C382.508 1356.99 382.37 1357.57 382.37 1358.23C382.37 1358.89 382.508 1359.48 382.784 1359.99C383.072 1360.5 383.456 1360.89 383.936 1361.18C384.428 1361.46 384.98 1361.6 385.592 1361.6ZM394.588 1355.06C394.888 1354.51 395.332 1354.09 395.92 1353.8C396.508 1353.51 397.222 1353.37 398.062 1353.37V1355.04C397.966 1355.03 397.834 1355.03 397.666 1355.03C396.73 1355.03 395.992 1355.31 395.452 1355.87C394.924 1356.42 394.66 1357.22 394.66 1358.25V1363H392.932V1353.46H394.588V1355.06ZM340.024 1385.11C339.244 1385.11 338.494 1385.01 337.774 1384.8C337.054 1384.59 336.49 1384.32 336.082 1383.99L336.802 1382.62C337.222 1382.92 337.732 1383.16 338.332 1383.34C338.932 1383.52 339.538 1383.61 340.15 1383.61C341.662 1383.61 342.418 1383.18 342.418 1382.32C342.418 1382.03 342.316 1381.8 342.112 1381.63C341.908 1381.47 341.65 1381.35 341.338 1381.27C341.038 1381.19 340.606 1381.1 340.042 1381C339.274 1380.88 338.644 1380.75 338.152 1380.59C337.672 1380.43 337.258 1380.17 336.91 1379.8C336.562 1379.43 336.388 1378.9 336.388 1378.23C336.388 1377.37 336.748 1376.68 337.468 1376.16C338.188 1375.63 339.154 1375.37 340.366 1375.37C341.002 1375.37 341.638 1375.45 342.274 1375.6C342.91 1375.76 343.432 1375.97 343.84 1376.23L343.102 1377.6C342.322 1377.1 341.404 1376.85 340.348 1376.85C339.616 1376.85 339.058 1376.97 338.674 1377.21C338.29 1377.45 338.098 1377.76 338.098 1378.16C338.098 1378.47 338.206 1378.72 338.422 1378.9C338.638 1379.08 338.902 1379.21 339.214 1379.29C339.538 1379.38 339.988 1379.47 340.564 1379.58C341.332 1379.71 341.95 1379.86 342.418 1380.01C342.898 1380.16 343.306 1380.41 343.642 1380.77C343.978 1381.13 344.146 1381.63 344.146 1382.28C344.146 1383.15 343.774 1383.84 343.03 1384.35C342.298 1384.86 341.296 1385.11 340.024 1385.11ZM346.306 1375.46H348.034V1385H346.306V1375.46ZM347.17 1373.62C346.834 1373.62 346.552 1373.52 346.324 1373.3C346.108 1373.08 346 1372.82 346 1372.51C346 1372.2 346.108 1371.93 346.324 1371.72C346.552 1371.49 346.834 1371.37 347.17 1371.37C347.506 1371.37 347.782 1371.48 347.998 1371.7C348.226 1371.9 348.34 1372.16 348.34 1372.47C348.34 1372.8 348.226 1373.07 347.998 1373.3C347.782 1373.52 347.506 1373.62 347.17 1373.62ZM356.697 1384.44C356.445 1384.66 356.133 1384.83 355.761 1384.95C355.389 1385.05 355.005 1385.11 354.609 1385.11C353.649 1385.11 352.905 1384.85 352.377 1384.33C351.849 1383.82 351.585 1383.08 351.585 1382.12V1376.88H349.965V1375.46H351.585V1373.37H353.313V1375.46H356.049V1376.88H353.313V1382.05C353.313 1382.56 353.439 1382.96 353.691 1383.24C353.955 1383.51 354.327 1383.65 354.807 1383.65C355.335 1383.65 355.785 1383.5 356.157 1383.2L356.697 1384.44ZM367.092 1380.28C367.092 1380.42 367.08 1380.59 367.056 1380.81H359.316C359.424 1381.65 359.79 1382.32 360.414 1382.84C361.05 1383.34 361.836 1383.6 362.772 1383.6C363.912 1383.6 364.83 1383.21 365.526 1382.44L366.48 1383.56C366.048 1384.06 365.508 1384.45 364.86 1384.71C364.224 1384.98 363.51 1385.11 362.718 1385.11C361.71 1385.11 360.816 1384.9 360.036 1384.5C359.256 1384.08 358.65 1383.49 358.218 1382.75C357.798 1382.01 357.588 1381.17 357.588 1380.23C357.588 1379.31 357.792 1378.47 358.2 1377.73C358.62 1376.98 359.19 1376.41 359.91 1376C360.642 1375.58 361.464 1375.37 362.376 1375.37C363.288 1375.37 364.098 1375.58 364.806 1376C365.526 1376.41 366.084 1376.98 366.48 1377.73C366.888 1378.47 367.092 1379.32 367.092 1380.28ZM362.376 1376.83C361.548 1376.83 360.852 1377.08 360.288 1377.58C359.736 1378.09 359.412 1378.75 359.316 1379.56H365.436C365.34 1378.76 365.01 1378.11 364.446 1377.6C363.894 1377.09 363.204 1376.83 362.376 1376.83ZM377.458 1372.4V1385H375.676V1373.97H372.832V1372.4H377.458Z" fill="black"/>
<path d="M198.909 1350.4C200.541 1350.4 201.825 1350.79 202.761 1351.57C203.697 1352.35 204.165 1353.42 204.165 1354.79C204.165 1356.16 203.697 1357.23 202.761 1358.01C201.825 1358.79 200.541 1359.18 198.909 1359.18H195.795V1363H193.995V1350.4H198.909ZM198.855 1357.62C199.995 1357.62 200.865 1357.38 201.465 1356.9C202.065 1356.41 202.365 1355.7 202.365 1354.79C202.365 1353.88 202.065 1353.18 201.465 1352.7C200.865 1352.21 199.995 1351.97 198.855 1351.97H195.795V1357.62H198.855ZM208.056 1355.06C208.356 1354.51 208.8 1354.09 209.388 1353.8C209.976 1353.51 210.69 1353.37 211.53 1353.37V1355.04C211.434 1355.03 211.302 1355.03 211.134 1355.03C210.198 1355.03 209.46 1355.31 208.92 1355.87C208.392 1356.42 208.128 1357.22 208.128 1358.25V1363H206.4V1353.46H208.056V1355.06ZM217.658 1363.11C216.71 1363.11 215.858 1362.9 215.102 1362.48C214.346 1362.06 213.752 1361.48 213.32 1360.75C212.9 1360.01 212.69 1359.17 212.69 1358.23C212.69 1357.29 212.9 1356.46 213.32 1355.73C213.752 1354.98 214.346 1354.41 215.102 1354C215.858 1353.58 216.71 1353.37 217.658 1353.37C218.606 1353.37 219.452 1353.58 220.196 1354C220.952 1354.41 221.54 1354.98 221.96 1355.73C222.392 1356.46 222.608 1357.29 222.608 1358.23C222.608 1359.17 222.392 1360.01 221.96 1360.75C221.54 1361.48 220.952 1362.06 220.196 1362.48C219.452 1362.9 218.606 1363.11 217.658 1363.11ZM217.658 1361.6C218.27 1361.6 218.816 1361.46 219.296 1361.18C219.788 1360.89 220.172 1360.5 220.448 1359.99C220.724 1359.48 220.862 1358.89 220.862 1358.23C220.862 1357.57 220.724 1356.99 220.448 1356.48C220.172 1355.97 219.788 1355.57 219.296 1355.3C218.816 1355.02 218.27 1354.88 217.658 1354.88C217.046 1354.88 216.494 1355.02 216.002 1355.3C215.522 1355.57 215.138 1355.97 214.85 1356.48C214.574 1356.99 214.436 1357.57 214.436 1358.23C214.436 1358.89 214.574 1359.48 214.85 1359.99C215.138 1360.5 215.522 1360.89 216.002 1361.18C216.494 1361.46 217.046 1361.6 217.658 1361.6ZM236.931 1353.37C238.131 1353.37 239.079 1353.72 239.775 1354.41C240.483 1355.11 240.837 1356.14 240.837 1357.51V1363H239.109V1357.71C239.109 1356.78 238.893 1356.09 238.461 1355.62C238.041 1355.15 237.435 1354.92 236.643 1354.92C235.767 1354.92 235.071 1355.19 234.555 1355.75C234.039 1356.29 233.781 1357.07 233.781 1358.09V1363H232.053V1357.71C232.053 1356.78 231.837 1356.09 231.405 1355.62C230.985 1355.15 230.379 1354.92 229.587 1354.92C228.711 1354.92 228.015 1355.19 227.499 1355.75C226.983 1356.29 226.725 1357.07 226.725 1358.09V1363H224.997V1353.46H226.653V1354.88C227.001 1354.39 227.457 1354.02 228.021 1353.77C228.585 1353.5 229.227 1353.37 229.947 1353.37C230.691 1353.37 231.351 1353.52 231.927 1353.82C232.503 1354.12 232.947 1354.56 233.259 1355.13C233.619 1354.58 234.117 1354.15 234.753 1353.84C235.401 1353.53 236.127 1353.37 236.931 1353.37ZM248.156 1363.11C247.208 1363.11 246.356 1362.9 245.6 1362.48C244.844 1362.06 244.25 1361.48 243.818 1360.75C243.398 1360.01 243.188 1359.17 243.188 1358.23C243.188 1357.29 243.398 1356.46 243.818 1355.73C244.25 1354.98 244.844 1354.41 245.6 1354C246.356 1353.58 247.208 1353.37 248.156 1353.37C249.104 1353.37 249.95 1353.58 250.694 1354C251.45 1354.41 252.038 1354.98 252.458 1355.73C252.89 1356.46 253.106 1357.29 253.106 1358.23C253.106 1359.17 252.89 1360.01 252.458 1360.75C252.038 1361.48 251.45 1362.06 250.694 1362.48C249.95 1362.9 249.104 1363.11 248.156 1363.11ZM248.156 1361.6C248.768 1361.6 249.314 1361.46 249.794 1361.18C250.286 1360.89 250.67 1360.5 250.946 1359.99C251.222 1359.48 251.36 1358.89 251.36 1358.23C251.36 1357.57 251.222 1356.99 250.946 1356.48C250.67 1355.97 250.286 1355.57 249.794 1355.3C249.314 1355.02 248.768 1354.88 248.156 1354.88C247.544 1354.88 246.992 1355.02 246.5 1355.3C246.02 1355.57 245.636 1355.97 245.348 1356.48C245.072 1356.99 244.934 1357.57 244.934 1358.23C244.934 1358.89 245.072 1359.48 245.348 1359.99C245.636 1360.5 246.02 1360.89 246.5 1361.18C246.992 1361.46 247.544 1361.6 248.156 1361.6ZM260.859 1362.44C260.607 1362.66 260.295 1362.83 259.923 1362.95C259.551 1363.05 259.167 1363.11 258.771 1363.11C257.811 1363.11 257.067 1362.85 256.539 1362.33C256.011 1361.82 255.747 1361.08 255.747 1360.12V1354.88H254.127V1353.46H255.747V1351.37H257.475V1353.46H260.211V1354.88H257.475V1360.05C257.475 1360.56 257.601 1360.96 257.853 1361.24C258.117 1361.51 258.489 1361.65 258.969 1361.65C259.497 1361.65 259.947 1361.5 260.319 1361.2L260.859 1362.44ZM271.254 1358.28C271.254 1358.42 271.242 1358.59 271.218 1358.81H263.478C263.586 1359.65 263.952 1360.32 264.576 1360.84C265.212 1361.34 265.998 1361.6 266.934 1361.6C268.074 1361.6 268.992 1361.21 269.688 1360.44L270.642 1361.56C270.21 1362.06 269.67 1362.45 269.022 1362.71C268.386 1362.98 267.672 1363.11 266.88 1363.11C265.872 1363.11 264.978 1362.9 264.198 1362.5C263.418 1362.08 262.812 1361.49 262.38 1360.75C261.96 1360.01 261.75 1359.17 261.75 1358.23C261.75 1357.31 261.954 1356.47 262.362 1355.73C262.782 1354.98 263.352 1354.41 264.072 1354C264.804 1353.58 265.626 1353.37 266.538 1353.37C267.45 1353.37 268.26 1353.58 268.968 1354C269.688 1354.41 270.246 1354.98 270.642 1355.73C271.05 1356.47 271.254 1357.32 271.254 1358.28ZM266.538 1354.83C265.71 1354.83 265.014 1355.08 264.45 1355.58C263.898 1356.09 263.574 1356.75 263.478 1357.56H269.598C269.502 1356.76 269.172 1356.11 268.608 1355.6C268.056 1355.09 267.366 1354.83 266.538 1354.83ZM275.31 1355.06C275.61 1354.51 276.054 1354.09 276.642 1353.8C277.23 1353.51 277.944 1353.37 278.784 1353.37V1355.04C278.688 1355.03 278.556 1355.03 278.388 1355.03C277.452 1355.03 276.714 1355.31 276.174 1355.87C275.646 1356.42 275.382 1357.22 275.382 1358.25V1363H273.654V1353.46H275.31V1355.06ZM289.002 1350.4V1363H287.22V1351.97H284.376V1350.4H289.002Z" fill="black"/>
<path d="M923.073 1350.4C924.705 1350.4 925.989 1350.79 926.925 1351.57C927.861 1352.35 928.329 1353.42 928.329 1354.79C928.329 1356.16 927.861 1357.23 926.925 1358.01C925.989 1358.79 924.705 1359.18 923.073 1359.18H919.959V1363H918.159V1350.4H923.073ZM923.019 1357.62C924.159 1357.62 925.029 1357.38 925.629 1356.9C926.229 1356.41 926.529 1355.7 926.529 1354.79C926.529 1353.88 926.229 1353.18 925.629 1352.7C925.029 1352.21 924.159 1351.97 923.019 1351.97H919.959V1357.62H923.019ZM932.219 1355.06C932.519 1354.51 932.963 1354.09 933.551 1353.8C934.139 1353.51 934.853 1353.37 935.693 1353.37V1355.04C935.597 1355.03 935.465 1355.03 935.297 1355.03C934.361 1355.03 933.623 1355.31 933.083 1355.87C932.555 1356.42 932.291 1357.22 932.291 1358.25V1363H930.563V1353.46H932.219V1355.06ZM941.821 1363.11C940.873 1363.11 940.021 1362.9 939.265 1362.48C938.509 1362.06 937.915 1361.48 937.483 1360.75C937.063 1360.01 936.853 1359.17 936.853 1358.23C936.853 1357.29 937.063 1356.46 937.483 1355.73C937.915 1354.98 938.509 1354.41 939.265 1354C940.021 1353.58 940.873 1353.37 941.821 1353.37C942.769 1353.37 943.615 1353.58 944.359 1354C945.115 1354.41 945.703 1354.98 946.123 1355.73C946.555 1356.46 946.771 1357.29 946.771 1358.23C946.771 1359.17 946.555 1360.01 946.123 1360.75C945.703 1361.48 945.115 1362.06 944.359 1362.48C943.615 1362.9 942.769 1363.11 941.821 1363.11ZM941.821 1361.6C942.433 1361.6 942.979 1361.46 943.459 1361.18C943.951 1360.89 944.335 1360.5 944.611 1359.99C944.887 1359.48 945.025 1358.89 945.025 1358.23C945.025 1357.57 944.887 1356.99 944.611 1356.48C944.335 1355.97 943.951 1355.57 943.459 1355.3C942.979 1355.02 942.433 1354.88 941.821 1354.88C941.209 1354.88 940.657 1355.02 940.165 1355.3C939.685 1355.57 939.301 1355.97 939.013 1356.48C938.737 1356.99 938.599 1357.57 938.599 1358.23C938.599 1358.89 938.737 1359.48 939.013 1359.99C939.301 1360.5 939.685 1360.89 940.165 1361.18C940.657 1361.46 941.209 1361.6 941.821 1361.6ZM961.094 1353.37C962.294 1353.37 963.242 1353.72 963.938 1354.41C964.646 1355.11 965 1356.14 965 1357.51V1363H963.272V1357.71C963.272 1356.78 963.056 1356.09 962.624 1355.62C962.204 1355.15 961.598 1354.92 960.806 1354.92C959.93 1354.92 959.234 1355.19 958.718 1355.75C958.202 1356.29 957.944 1357.07 957.944 1358.09V1363H956.216V1357.71C956.216 1356.78 956 1356.09 955.568 1355.62C955.148 1355.15 954.542 1354.92 953.75 1354.92C952.874 1354.92 952.178 1355.19 951.662 1355.75C951.146 1356.29 950.888 1357.07 950.888 1358.09V1363H949.16V1353.46H950.816V1354.88C951.164 1354.39 951.62 1354.02 952.184 1353.77C952.748 1353.5 953.39 1353.37 954.11 1353.37C954.854 1353.37 955.514 1353.52 956.09 1353.82C956.666 1354.12 957.11 1354.56 957.422 1355.13C957.782 1354.58 958.28 1354.15 958.916 1353.84C959.564 1353.53 960.29 1353.37 961.094 1353.37ZM972.319 1363.11C971.371 1363.11 970.519 1362.9 969.763 1362.48C969.007 1362.06 968.413 1361.48 967.981 1360.75C967.561 1360.01 967.351 1359.17 967.351 1358.23C967.351 1357.29 967.561 1356.46 967.981 1355.73C968.413 1354.98 969.007 1354.41 969.763 1354C970.519 1353.58 971.371 1353.37 972.319 1353.37C973.267 1353.37 974.113 1353.58 974.857 1354C975.613 1354.41 976.201 1354.98 976.621 1355.73C977.053 1356.46 977.269 1357.29 977.269 1358.23C977.269 1359.17 977.053 1360.01 976.621 1360.75C976.201 1361.48 975.613 1362.06 974.857 1362.48C974.113 1362.9 973.267 1363.11 972.319 1363.11ZM972.319 1361.6C972.931 1361.6 973.477 1361.46 973.957 1361.18C974.449 1360.89 974.833 1360.5 975.109 1359.99C975.385 1359.48 975.523 1358.89 975.523 1358.23C975.523 1357.57 975.385 1356.99 975.109 1356.48C974.833 1355.97 974.449 1355.57 973.957 1355.3C973.477 1355.02 972.931 1354.88 972.319 1354.88C971.707 1354.88 971.155 1355.02 970.663 1355.3C970.183 1355.57 969.799 1355.97 969.511 1356.48C969.235 1356.99 969.097 1357.57 969.097 1358.23C969.097 1358.89 969.235 1359.48 969.511 1359.99C969.799 1360.5 970.183 1360.89 970.663 1361.18C971.155 1361.46 971.707 1361.6 972.319 1361.6ZM985.023 1362.44C984.771 1362.66 984.459 1362.83 984.087 1362.95C983.715 1363.05 983.331 1363.11 982.935 1363.11C981.975 1363.11 981.231 1362.85 980.703 1362.33C980.175 1361.82 979.911 1361.08 979.911 1360.12V1354.88H978.291V1353.46H979.911V1351.37H981.639V1353.46H984.375V1354.88H981.639V1360.05C981.639 1360.56 981.765 1360.96 982.017 1361.24C982.281 1361.51 982.653 1361.65 983.133 1361.65C983.661 1361.65 984.111 1361.5 984.483 1361.2L985.023 1362.44ZM995.417 1358.28C995.417 1358.42 995.405 1358.59 995.381 1358.81H987.641C987.749 1359.65 988.115 1360.32 988.739 1360.84C989.375 1361.34 990.161 1361.6 991.097 1361.6C992.237 1361.6 993.155 1361.21 993.851 1360.44L994.805 1361.56C994.373 1362.06 993.833 1362.45 993.185 1362.71C992.549 1362.98 991.835 1363.11 991.043 1363.11C990.035 1363.11 989.141 1362.9 988.361 1362.5C987.581 1362.08 986.975 1361.49 986.543 1360.75C986.123 1360.01 985.913 1359.17 985.913 1358.23C985.913 1357.31 986.117 1356.47 986.525 1355.73C986.945 1354.98 987.515 1354.41 988.235 1354C988.967 1353.58 989.789 1353.37 990.701 1353.37C991.613 1353.37 992.423 1353.58 993.131 1354C993.851 1354.41 994.409 1354.98 994.805 1355.73C995.213 1356.47 995.417 1357.32 995.417 1358.28ZM990.701 1354.83C989.873 1354.83 989.177 1355.08 988.613 1355.58C988.061 1356.09 987.737 1356.75 987.641 1357.56H993.761C993.665 1356.76 993.335 1356.11 992.771 1355.6C992.219 1355.09 991.529 1354.83 990.701 1354.83ZM999.473 1355.06C999.773 1354.51 1000.22 1354.09 1000.8 1353.8C1001.39 1353.51 1002.11 1353.37 1002.95 1353.37V1355.04C1002.85 1355.03 1002.72 1355.03 1002.55 1355.03C1001.61 1355.03 1000.88 1355.31 1000.34 1355.87C999.809 1356.42 999.545 1357.22 999.545 1358.25V1363H997.817V1353.46H999.473V1355.06ZM1018.12 1361.43V1363H1009.06V1361.78L1014.19 1356.83C1014.82 1356.23 1015.24 1355.71 1015.45 1355.28C1015.67 1354.83 1015.78 1354.39 1015.78 1353.95C1015.78 1353.29 1015.54 1352.78 1015.07 1352.42C1014.62 1352.04 1013.96 1351.86 1013.09 1351.86C1011.7 1351.86 1010.63 1352.31 1009.87 1353.23L1008.65 1352.16C1009.14 1351.56 1009.78 1351.1 1010.57 1350.76C1011.38 1350.42 1012.27 1350.26 1013.26 1350.26C1014.58 1350.26 1015.63 1350.57 1016.41 1351.21C1017.19 1351.83 1017.58 1352.69 1017.58 1353.77C1017.58 1354.44 1017.43 1355.07 1017.14 1355.67C1016.86 1356.27 1016.31 1356.96 1015.51 1357.73L1011.65 1361.43H1018.12Z" fill="black"/>
<path d="M429.562 1363.14C428.614 1363.14 427.696 1363 426.808 1362.71C425.932 1362.41 425.242 1362.03 424.738 1361.56L425.404 1360.16C425.884 1360.59 426.496 1360.94 427.24 1361.22C427.996 1361.48 428.77 1361.61 429.562 1361.61C430.606 1361.61 431.386 1361.44 431.902 1361.09C432.418 1360.73 432.676 1360.26 432.676 1359.67C432.676 1359.24 432.532 1358.89 432.244 1358.63C431.968 1358.35 431.62 1358.14 431.2 1358C430.792 1357.85 430.21 1357.69 429.454 1357.51C428.506 1357.28 427.738 1357.05 427.15 1356.83C426.574 1356.6 426.076 1356.25 425.656 1355.78C425.248 1355.3 425.044 1354.66 425.044 1353.86C425.044 1353.18 425.218 1352.58 425.566 1352.04C425.926 1351.5 426.466 1351.07 427.186 1350.74C427.906 1350.42 428.8 1350.26 429.868 1350.26C430.612 1350.26 431.344 1350.35 432.064 1350.54C432.784 1350.74 433.402 1351.01 433.918 1351.37L433.324 1352.81C432.796 1352.48 432.232 1352.22 431.632 1352.06C431.032 1351.88 430.444 1351.79 429.868 1351.79C428.848 1351.79 428.08 1351.97 427.564 1352.34C427.06 1352.72 426.808 1353.2 426.808 1353.78C426.808 1354.22 426.952 1354.57 427.24 1354.85C427.528 1355.11 427.882 1355.32 428.302 1355.48C428.734 1355.62 429.316 1355.78 430.048 1355.94C430.996 1356.17 431.758 1356.4 432.334 1356.63C432.91 1356.86 433.402 1357.2 433.81 1357.67C434.23 1358.14 434.44 1358.77 434.44 1359.56C434.44 1360.22 434.26 1360.83 433.9 1361.38C433.54 1361.92 432.994 1362.35 432.262 1362.68C431.53 1362.99 430.63 1363.14 429.562 1363.14ZM436.818 1353.46H438.546V1363H436.818V1353.46ZM437.682 1351.62C437.346 1351.62 437.064 1351.52 436.836 1351.3C436.62 1351.08 436.512 1350.82 436.512 1350.51C436.512 1350.2 436.62 1349.93 436.836 1349.72C437.064 1349.49 437.346 1349.37 437.682 1349.37C438.018 1349.37 438.294 1349.48 438.51 1349.7C438.738 1349.9 438.852 1350.16 438.852 1350.47C438.852 1350.8 438.738 1351.07 438.51 1351.3C438.294 1351.52 438.018 1351.62 437.682 1351.62ZM447.209 1362.44C446.957 1362.66 446.645 1362.83 446.273 1362.95C445.901 1363.05 445.517 1363.11 445.121 1363.11C444.161 1363.11 443.417 1362.85 442.889 1362.33C442.361 1361.82 442.097 1361.08 442.097 1360.12V1354.88H440.477V1353.46H442.097V1351.37H443.825V1353.46H446.561V1354.88H443.825V1360.05C443.825 1360.56 443.951 1360.96 444.203 1361.24C444.467 1361.51 444.839 1361.65 445.319 1361.65C445.847 1361.65 446.297 1361.5 446.669 1361.2L447.209 1362.44ZM457.604 1358.28C457.604 1358.42 457.592 1358.59 457.568 1358.81H449.828C449.936 1359.65 450.302 1360.32 450.926 1360.84C451.562 1361.34 452.348 1361.6 453.284 1361.6C454.424 1361.6 455.342 1361.21 456.038 1360.44L456.992 1361.56C456.56 1362.06 456.02 1362.45 455.372 1362.71C454.736 1362.98 454.022 1363.11 453.23 1363.11C452.222 1363.11 451.328 1362.9 450.548 1362.5C449.768 1362.08 449.162 1361.49 448.73 1360.75C448.31 1360.01 448.1 1359.17 448.1 1358.23C448.1 1357.31 448.304 1356.47 448.712 1355.73C449.132 1354.98 449.702 1354.41 450.422 1354C451.154 1353.58 451.976 1353.37 452.888 1353.37C453.8 1353.37 454.61 1353.58 455.318 1354C456.038 1354.41 456.596 1354.98 456.992 1355.73C457.4 1356.47 457.604 1357.32 457.604 1358.28ZM452.888 1354.83C452.06 1354.83 451.364 1355.08 450.8 1355.58C450.248 1356.09 449.924 1356.75 449.828 1357.56H455.948C455.852 1356.76 455.522 1356.11 454.958 1355.6C454.406 1355.09 453.716 1354.83 452.888 1354.83ZM472.919 1361.43V1363H463.865V1361.78L468.995 1356.83C469.619 1356.23 470.039 1355.71 470.255 1355.28C470.471 1354.83 470.579 1354.39 470.579 1353.95C470.579 1353.29 470.345 1352.78 469.877 1352.42C469.421 1352.04 468.761 1351.86 467.897 1351.86C466.505 1351.86 465.431 1352.31 464.675 1353.23L463.451 1352.16C463.943 1351.56 464.585 1351.1 465.377 1350.76C466.181 1350.42 467.075 1350.26 468.059 1350.26C469.379 1350.26 470.429 1350.57 471.209 1351.21C471.989 1351.83 472.379 1352.69 472.379 1353.77C472.379 1354.44 472.235 1355.07 471.947 1355.67C471.659 1356.27 471.113 1356.96 470.309 1357.73L466.457 1361.43H472.919Z" fill="black"/>
<path d="M815.562 1363.14C814.614 1363.14 813.696 1363 812.808 1362.71C811.932 1362.41 811.242 1362.03 810.738 1361.56L811.404 1360.16C811.884 1360.59 812.496 1360.94 813.24 1361.22C813.996 1361.48 814.77 1361.61 815.562 1361.61C816.606 1361.61 817.386 1361.44 817.902 1361.09C818.418 1360.73 818.676 1360.26 818.676 1359.67C818.676 1359.24 818.532 1358.89 818.244 1358.63C817.968 1358.35 817.62 1358.14 817.2 1358C816.792 1357.85 816.21 1357.69 815.454 1357.51C814.506 1357.28 813.738 1357.05 813.15 1356.83C812.574 1356.6 812.076 1356.25 811.656 1355.78C811.248 1355.3 811.044 1354.66 811.044 1353.86C811.044 1353.18 811.218 1352.58 811.566 1352.04C811.926 1351.5 812.466 1351.07 813.186 1350.74C813.906 1350.42 814.8 1350.26 815.868 1350.26C816.612 1350.26 817.344 1350.35 818.064 1350.54C818.784 1350.74 819.402 1351.01 819.918 1351.37L819.324 1352.81C818.796 1352.48 818.232 1352.22 817.632 1352.06C817.032 1351.88 816.444 1351.79 815.868 1351.79C814.848 1351.79 814.08 1351.97 813.564 1352.34C813.06 1352.72 812.808 1353.2 812.808 1353.78C812.808 1354.22 812.952 1354.57 813.24 1354.85C813.528 1355.11 813.882 1355.32 814.302 1355.48C814.734 1355.62 815.316 1355.78 816.048 1355.94C816.996 1356.17 817.758 1356.4 818.334 1356.63C818.91 1356.86 819.402 1357.2 819.81 1357.67C820.23 1358.14 820.44 1358.77 820.44 1359.56C820.44 1360.22 820.26 1360.83 819.9 1361.38C819.54 1361.92 818.994 1362.35 818.262 1362.68C817.53 1362.99 816.63 1363.14 815.562 1363.14ZM822.818 1353.46H824.546V1363H822.818V1353.46ZM823.682 1351.62C823.346 1351.62 823.064 1351.52 822.836 1351.3C822.62 1351.08 822.512 1350.82 822.512 1350.51C822.512 1350.2 822.62 1349.93 822.836 1349.72C823.064 1349.49 823.346 1349.37 823.682 1349.37C824.018 1349.37 824.294 1349.48 824.51 1349.7C824.738 1349.9 824.852 1350.16 824.852 1350.47C824.852 1350.8 824.738 1351.07 824.51 1351.3C824.294 1351.52 824.018 1351.62 823.682 1351.62ZM833.209 1362.44C832.957 1362.66 832.645 1362.83 832.273 1362.95C831.901 1363.05 831.517 1363.11 831.121 1363.11C830.161 1363.11 829.417 1362.85 828.889 1362.33C828.361 1361.82 828.097 1361.08 828.097 1360.12V1354.88H826.477V1353.46H828.097V1351.37H829.825V1353.46H832.561V1354.88H829.825V1360.05C829.825 1360.56 829.951 1360.96 830.203 1361.24C830.467 1361.51 830.839 1361.65 831.319 1361.65C831.847 1361.65 832.297 1361.5 832.669 1361.2L833.209 1362.44ZM843.604 1358.28C843.604 1358.42 843.592 1358.59 843.568 1358.81H835.828C835.936 1359.65 836.302 1360.32 836.926 1360.84C837.562 1361.34 838.348 1361.6 839.284 1361.6C840.424 1361.6 841.342 1361.21 842.038 1360.44L842.992 1361.56C842.56 1362.06 842.02 1362.45 841.372 1362.71C840.736 1362.98 840.022 1363.11 839.23 1363.11C838.222 1363.11 837.328 1362.9 836.548 1362.5C835.768 1362.08 835.162 1361.49 834.73 1360.75C834.31 1360.01 834.1 1359.17 834.1 1358.23C834.1 1357.31 834.304 1356.47 834.712 1355.73C835.132 1354.98 835.702 1354.41 836.422 1354C837.154 1353.58 837.976 1353.37 838.888 1353.37C839.8 1353.37 840.61 1353.58 841.318 1354C842.038 1354.41 842.596 1354.98 842.992 1355.73C843.4 1356.47 843.604 1357.32 843.604 1358.28ZM838.888 1354.83C838.06 1354.83 837.364 1355.08 836.8 1355.58C836.248 1356.09 835.924 1356.75 835.828 1357.56H841.948C841.852 1356.76 841.522 1356.11 840.958 1355.6C840.406 1355.09 839.716 1354.83 838.888 1354.83ZM858.919 1361.43V1363H849.865V1361.78L854.995 1356.83C855.619 1356.23 856.039 1355.71 856.255 1355.28C856.471 1354.83 856.579 1354.39 856.579 1353.95C856.579 1353.29 856.345 1352.78 855.877 1352.42C855.421 1352.04 854.761 1351.86 853.897 1351.86C852.505 1351.86 851.431 1352.31 850.675 1353.23L849.451 1352.16C849.943 1351.56 850.585 1351.1 851.377 1350.76C852.181 1350.42 853.075 1350.26 854.059 1350.26C855.379 1350.26 856.429 1350.57 857.209 1351.21C857.989 1351.83 858.379 1352.69 858.379 1353.77C858.379 1354.44 858.235 1355.07 857.947 1355.67C857.659 1356.27 857.113 1356.96 856.309 1357.73L852.457 1361.43H858.919Z" fill="black"/>
<path d="M1082.31 1363L1079.6 1359.13C1079.26 1359.15 1079 1359.17 1078.8 1359.17H1075.69V1363H1073.89V1350.4H1078.8C1080.44 1350.4 1081.72 1350.79 1082.66 1351.57C1083.59 1352.35 1084.06 1353.42 1084.06 1354.79C1084.06 1355.76 1083.82 1356.59 1083.34 1357.28C1082.86 1357.96 1082.18 1358.46 1081.29 1358.77L1084.28 1363H1082.31ZM1078.75 1357.64C1079.89 1357.64 1080.76 1357.39 1081.36 1356.9C1081.96 1356.41 1082.26 1355.7 1082.26 1354.79C1082.26 1353.88 1081.96 1353.18 1081.36 1352.7C1080.76 1352.21 1079.89 1351.97 1078.75 1351.97H1075.69V1357.64H1078.75ZM1095.34 1358.28C1095.34 1358.42 1095.33 1358.59 1095.3 1358.81H1087.56C1087.67 1359.65 1088.04 1360.32 1088.66 1360.84C1089.3 1361.34 1090.08 1361.6 1091.02 1361.6C1092.16 1361.6 1093.08 1361.21 1093.77 1360.44L1094.73 1361.56C1094.29 1362.06 1093.75 1362.45 1093.11 1362.71C1092.47 1362.98 1091.76 1363.11 1090.96 1363.11C1089.96 1363.11 1089.06 1362.9 1088.28 1362.5C1087.5 1362.08 1086.9 1361.49 1086.46 1360.75C1086.04 1360.01 1085.83 1359.17 1085.83 1358.23C1085.83 1357.31 1086.04 1356.47 1086.45 1355.73C1086.87 1354.98 1087.44 1354.41 1088.16 1354C1088.89 1353.58 1089.71 1353.37 1090.62 1353.37C1091.53 1353.37 1092.34 1353.58 1093.05 1354C1093.77 1354.41 1094.33 1354.98 1094.73 1355.73C1095.13 1356.47 1095.34 1357.32 1095.34 1358.28ZM1090.62 1354.83C1089.79 1354.83 1089.1 1355.08 1088.53 1355.58C1087.98 1356.09 1087.66 1356.75 1087.56 1357.56H1093.68C1093.59 1356.76 1093.26 1356.11 1092.69 1355.6C1092.14 1355.09 1091.45 1354.83 1090.62 1354.83ZM1101.9 1363.11C1100.92 1363.11 1100.05 1362.9 1099.29 1362.48C1098.53 1362.06 1097.94 1361.48 1097.5 1360.75C1097.07 1360.01 1096.86 1359.17 1096.86 1358.23C1096.86 1357.29 1097.07 1356.46 1097.5 1355.73C1097.94 1354.98 1098.53 1354.41 1099.29 1354C1100.05 1353.58 1100.92 1353.37 1101.9 1353.37C1102.76 1353.37 1103.53 1353.54 1104.2 1353.89C1104.88 1354.24 1105.41 1354.74 1105.78 1355.4L1104.47 1356.25C1104.17 1355.79 1103.8 1355.45 1103.35 1355.22C1102.91 1355 1102.42 1354.88 1101.88 1354.88C1101.25 1354.88 1100.69 1355.02 1100.19 1355.3C1099.69 1355.57 1099.3 1355.97 1099.02 1356.48C1098.74 1356.99 1098.6 1357.57 1098.6 1358.23C1098.6 1358.9 1098.74 1359.5 1099.02 1360.01C1099.3 1360.52 1099.69 1360.91 1100.19 1361.18C1100.69 1361.46 1101.25 1361.6 1101.88 1361.6C1102.42 1361.6 1102.91 1361.48 1103.35 1361.25C1103.8 1361.03 1104.17 1360.68 1104.47 1360.23L1105.78 1361.06C1105.41 1361.72 1104.88 1362.23 1104.2 1362.59C1103.53 1362.93 1102.76 1363.11 1101.9 1363.11ZM1120.94 1361.43V1363H1111.88V1361.78L1117.01 1356.83C1117.64 1356.23 1118.06 1355.71 1118.27 1355.28C1118.49 1354.83 1118.6 1354.39 1118.6 1353.95C1118.6 1353.29 1118.36 1352.78 1117.89 1352.42C1117.44 1352.04 1116.78 1351.86 1115.91 1351.86C1114.52 1351.86 1113.45 1352.31 1112.69 1353.23L1111.47 1352.16C1111.96 1351.56 1112.6 1351.1 1113.39 1350.76C1114.2 1350.42 1115.09 1350.26 1116.08 1350.26C1117.4 1350.26 1118.45 1350.57 1119.23 1351.21C1120.01 1351.83 1120.4 1352.69 1120.4 1353.77C1120.4 1354.44 1120.25 1355.07 1119.96 1355.67C1119.68 1356.27 1119.13 1356.96 1118.33 1357.73L1114.47 1361.43H1120.94Z" fill="black"/>
<path d="M545.056 1236.37H543.328V1231.46C543.952 1230.94 544.678 1230.55 545.506 1230.27C546.334 1229.99 547.198 1229.86 548.098 1229.86C549.37 1229.86 550.516 1230.13 551.536 1230.68C552.556 1231.25 553.36 1232.02 553.948 1232.99C554.524 1233.97 554.812 1235.08 554.812 1236.3C554.812 1237.52 554.524 1238.63 553.948 1239.61C553.36 1240.6 552.556 1241.36 551.536 1241.92C550.504 1242.47 549.346 1242.74 548.062 1242.74C547.054 1242.74 546.142 1242.58 545.326 1242.24C544.498 1241.92 543.796 1241.44 543.22 1240.8L544.336 1239.68C545.344 1240.66 546.562 1241.14 547.99 1241.14C548.95 1241.14 549.814 1240.93 550.582 1240.51C551.338 1240.1 551.932 1239.53 552.364 1238.78C552.796 1238.05 553.012 1237.22 553.012 1236.3C553.012 1235.39 552.796 1234.56 552.364 1233.82C551.932 1233.08 551.338 1232.51 550.582 1232.09C549.814 1231.67 548.956 1231.46 548.008 1231.46C546.88 1231.46 545.896 1231.73 545.056 1232.27V1236.37ZM538.081 1241.03V1236.64H531.763V1235.09H538.081V1230H539.881V1242.6H530.989V1241.03H538.081ZM523.542 1242.6C521.91 1242.6 520.626 1242.21 519.69 1241.43C518.754 1240.65 518.286 1239.58 518.286 1238.21C518.286 1236.84 518.754 1235.77 519.69 1234.99C520.626 1234.21 521.91 1233.82 523.542 1233.82H526.656V1230H528.456V1242.6H523.542ZM523.596 1235.38C522.456 1235.38 521.586 1235.62 520.986 1236.1C520.386 1236.59 520.086 1237.3 520.086 1238.21C520.086 1239.12 520.386 1239.82 520.986 1240.3C521.586 1240.79 522.456 1241.03 523.596 1241.03H526.656V1235.38H523.596Z" fill="black"/>
<path d="M622.714 1358.64V1363H620.932V1358.61L615.928 1350.4H617.854L621.886 1357.04L625.936 1350.4H627.718L622.714 1358.64ZM631.133 1351.97V1356.36H637.451V1357.91H631.133V1363H629.333V1350.4H638.225V1351.97H631.133ZM645.673 1350.4C647.305 1350.4 648.589 1350.79 649.525 1351.57C650.461 1352.35 650.929 1353.42 650.929 1354.79C650.929 1356.16 650.461 1357.23 649.525 1358.01C648.589 1358.79 647.305 1359.18 645.673 1359.18H642.559V1363H640.759V1350.4H645.673ZM645.619 1357.62C646.759 1357.62 647.629 1357.38 648.229 1356.9C648.829 1356.41 649.129 1355.7 649.129 1354.79C649.129 1353.88 648.829 1353.18 648.229 1352.7C647.629 1352.21 646.759 1351.97 645.619 1351.97H642.559V1357.62H645.619Z" fill="black"/>
<path d="M706.314 1363L703.596 1359.13C703.26 1359.15 702.996 1359.17 702.804 1359.17H699.69V1363H697.89V1350.4H702.804C704.436 1350.4 705.72 1350.79 706.656 1351.57C707.592 1352.35 708.06 1353.42 708.06 1354.79C708.06 1355.76 707.82 1356.59 707.34 1357.28C706.86 1357.96 706.176 1358.46 705.288 1358.77L708.276 1363H706.314ZM702.75 1357.64C703.89 1357.64 704.76 1357.39 705.36 1356.9C705.96 1356.41 706.26 1355.7 706.26 1354.79C706.26 1353.88 705.96 1353.18 705.36 1352.7C704.76 1352.21 703.89 1351.97 702.75 1351.97H699.69V1357.64H702.75ZM719.338 1358.28C719.338 1358.42 719.326 1358.59 719.302 1358.81H711.562C711.67 1359.65 712.036 1360.32 712.66 1360.84C713.296 1361.34 714.082 1361.6 715.018 1361.6C716.158 1361.6 717.076 1361.21 717.772 1360.44L718.726 1361.56C718.294 1362.06 717.754 1362.45 717.106 1362.71C716.47 1362.98 715.756 1363.11 714.964 1363.11C713.956 1363.11 713.062 1362.9 712.282 1362.5C711.502 1362.08 710.896 1361.49 710.464 1360.75C710.044 1360.01 709.834 1359.17 709.834 1358.23C709.834 1357.31 710.038 1356.47 710.446 1355.73C710.866 1354.98 711.436 1354.41 712.156 1354C712.888 1353.58 713.71 1353.37 714.622 1353.37C715.534 1353.37 716.344 1353.58 717.052 1354C717.772 1354.41 718.33 1354.98 718.726 1355.73C719.134 1356.47 719.338 1357.32 719.338 1358.28ZM714.622 1354.83C713.794 1354.83 713.098 1355.08 712.534 1355.58C711.982 1356.09 711.658 1356.75 711.562 1357.56H717.682C717.586 1356.76 717.256 1356.11 716.692 1355.6C716.14 1355.09 715.45 1354.83 714.622 1354.83ZM726.796 1353.37C727.72 1353.37 728.548 1353.57 729.28 1353.98C730.012 1354.39 730.582 1354.96 730.99 1355.69C731.41 1356.42 731.62 1357.27 731.62 1358.23C731.62 1359.19 731.41 1360.04 730.99 1360.79C730.582 1361.52 730.012 1362.09 729.28 1362.5C728.548 1362.9 727.72 1363.11 726.796 1363.11C726.112 1363.11 725.482 1362.98 724.906 1362.71C724.342 1362.45 723.862 1362.06 723.466 1361.56V1366.49H721.738V1353.46H723.394V1354.97C723.778 1354.44 724.264 1354.05 724.852 1353.78C725.44 1353.51 726.088 1353.37 726.796 1353.37ZM726.652 1361.6C727.264 1361.6 727.81 1361.46 728.29 1361.18C728.782 1360.89 729.166 1360.5 729.442 1359.99C729.73 1359.48 729.874 1358.89 729.874 1358.23C729.874 1357.57 729.73 1356.99 729.442 1356.48C729.166 1355.97 728.782 1355.57 728.29 1355.3C727.81 1355.02 727.264 1354.88 726.652 1354.88C726.052 1354.88 725.506 1355.03 725.014 1355.31C724.534 1355.59 724.15 1355.98 723.862 1356.48C723.586 1356.99 723.448 1357.57 723.448 1358.23C723.448 1358.89 723.586 1359.48 723.862 1359.99C724.138 1360.5 724.522 1360.89 725.014 1361.18C725.506 1361.46 726.052 1361.6 726.652 1361.6ZM735.663 1355.06C735.963 1354.51 736.407 1354.09 736.995 1353.8C737.583 1353.51 738.297 1353.37 739.137 1353.37V1355.04C739.041 1355.03 738.909 1355.03 738.741 1355.03C737.805 1355.03 737.067 1355.31 736.527 1355.87C735.999 1356.42 735.735 1357.22 735.735 1358.25V1363H734.007V1353.46H735.663V1355.06ZM749.801 1358.28C749.801 1358.42 749.789 1358.59 749.765 1358.81H742.025C742.133 1359.65 742.499 1360.32 743.123 1360.84C743.759 1361.34 744.545 1361.6 745.481 1361.6C746.621 1361.6 747.539 1361.21 748.235 1360.44L749.189 1361.56C748.757 1362.06 748.217 1362.45 747.569 1362.71C746.933 1362.98 746.219 1363.11 745.427 1363.11C744.419 1363.11 743.525 1362.9 742.745 1362.5C741.965 1362.08 741.359 1361.49 740.927 1360.75C740.507 1360.01 740.297 1359.17 740.297 1358.23C740.297 1357.31 740.501 1356.47 740.909 1355.73C741.329 1354.98 741.899 1354.41 742.619 1354C743.351 1353.58 744.173 1353.37 745.085 1353.37C745.997 1353.37 746.807 1353.58 747.515 1354C748.235 1354.41 748.793 1354.98 749.189 1355.73C749.597 1356.47 749.801 1357.32 749.801 1358.28ZM745.085 1354.83C744.257 1354.83 743.561 1355.08 742.997 1355.58C742.445 1356.09 742.121 1356.75 742.025 1357.56H748.145C748.049 1356.76 747.719 1356.11 747.155 1355.6C746.603 1355.09 745.913 1354.83 745.085 1354.83ZM754.937 1363.11C754.157 1363.11 753.407 1363.01 752.687 1362.8C751.967 1362.59 751.403 1362.32 750.995 1361.99L751.715 1360.62C752.135 1360.92 752.645 1361.16 753.245 1361.34C753.845 1361.52 754.451 1361.61 755.062 1361.61C756.575 1361.61 757.331 1361.18 757.331 1360.32C757.331 1360.03 757.229 1359.8 757.025 1359.63C756.821 1359.47 756.563 1359.35 756.251 1359.27C755.951 1359.19 755.519 1359.1 754.955 1359C754.187 1358.88 753.557 1358.75 753.065 1358.59C752.585 1358.43 752.171 1358.17 751.823 1357.8C751.475 1357.43 751.301 1356.9 751.301 1356.23C751.301 1355.37 751.661 1354.68 752.381 1354.16C753.101 1353.63 754.067 1353.37 755.279 1353.37C755.915 1353.37 756.551 1353.45 757.187 1353.6C757.823 1353.76 758.345 1353.97 758.753 1354.23L758.015 1355.6C757.235 1355.1 756.317 1354.85 755.261 1354.85C754.529 1354.85 753.971 1354.97 753.587 1355.21C753.203 1355.45 753.011 1355.76 753.011 1356.16C753.011 1356.47 753.119 1356.72 753.335 1356.9C753.551 1357.08 753.815 1357.21 754.127 1357.29C754.451 1357.38 754.901 1357.47 755.477 1357.58C756.245 1357.71 756.863 1357.86 757.331 1358.01C757.811 1358.16 758.219 1358.41 758.555 1358.77C758.891 1359.13 759.059 1359.63 759.059 1360.28C759.059 1361.15 758.687 1361.84 757.943 1362.35C757.211 1362.86 756.209 1363.11 754.937 1363.11ZM763.954 1363.11C763.174 1363.11 762.424 1363.01 761.704 1362.8C760.984 1362.59 760.42 1362.32 760.012 1361.99L760.732 1360.62C761.152 1360.92 761.662 1361.16 762.262 1361.34C762.862 1361.52 763.468 1361.61 764.08 1361.61C765.592 1361.61 766.348 1361.18 766.348 1360.32C766.348 1360.03 766.246 1359.8 766.042 1359.63C765.838 1359.47 765.58 1359.35 765.268 1359.27C764.968 1359.19 764.536 1359.1 763.972 1359C763.204 1358.88 762.574 1358.75 762.082 1358.59C761.602 1358.43 761.188 1358.17 760.84 1357.8C760.492 1357.43 760.318 1356.9 760.318 1356.23C760.318 1355.37 760.678 1354.68 761.398 1354.16C762.118 1353.63 763.084 1353.37 764.296 1353.37C764.932 1353.37 765.568 1353.45 766.204 1353.6C766.84 1353.76 767.362 1353.97 767.77 1354.23L767.032 1355.6C766.252 1355.1 765.334 1354.85 764.278 1354.85C763.546 1354.85 762.988 1354.97 762.604 1355.21C762.22 1355.45 762.028 1355.76 762.028 1356.16C762.028 1356.47 762.136 1356.72 762.352 1356.9C762.568 1357.08 762.832 1357.21 763.144 1357.29C763.468 1357.38 763.918 1357.47 764.494 1357.58C765.262 1357.71 765.88 1357.86 766.348 1358.01C766.828 1358.16 767.236 1358.41 767.572 1358.77C767.908 1359.13 768.076 1359.63 768.076 1360.28C768.076 1361.15 767.704 1361.84 766.96 1362.35C766.228 1362.86 765.226 1363.11 763.954 1363.11ZM774.322 1363.11C773.374 1363.11 772.522 1362.9 771.766 1362.48C771.01 1362.06 770.416 1361.48 769.984 1360.75C769.564 1360.01 769.354 1359.17 769.354 1358.23C769.354 1357.29 769.564 1356.46 769.984 1355.73C770.416 1354.98 771.01 1354.41 771.766 1354C772.522 1353.58 773.374 1353.37 774.322 1353.37C775.27 1353.37 776.116 1353.58 776.86 1354C777.616 1354.41 778.204 1354.98 778.624 1355.73C779.056 1356.46 779.272 1357.29 779.272 1358.23C779.272 1359.17 779.056 1360.01 778.624 1360.75C778.204 1361.48 777.616 1362.06 776.86 1362.48C776.116 1362.9 775.27 1363.11 774.322 1363.11ZM774.322 1361.6C774.934 1361.6 775.48 1361.46 775.96 1361.18C776.452 1360.89 776.836 1360.5 777.112 1359.99C777.388 1359.48 777.526 1358.89 777.526 1358.23C777.526 1357.57 777.388 1356.99 777.112 1356.48C776.836 1355.97 776.452 1355.57 775.96 1355.3C775.48 1355.02 774.934 1354.88 774.322 1354.88C773.71 1354.88 773.158 1355.02 772.666 1355.3C772.186 1355.57 771.802 1355.97 771.514 1356.48C771.238 1356.99 771.1 1357.57 771.1 1358.23C771.1 1358.89 771.238 1359.48 771.514 1359.99C771.802 1360.5 772.186 1360.89 772.666 1361.18C773.158 1361.46 773.71 1361.6 774.322 1361.6ZM783.317 1355.06C783.617 1354.51 784.061 1354.09 784.649 1353.8C785.237 1353.51 785.951 1353.37 786.791 1353.37V1355.04C786.695 1355.03 786.563 1355.03 786.395 1355.03C785.459 1355.03 784.721 1355.31 784.181 1355.87C783.653 1356.42 783.389 1357.22 783.389 1358.25V1363H781.661V1353.46H783.317V1355.06Z" fill="black"/>
</svg>
