<svg width="1800" height="1589" viewBox="0 0 1800 1589" fill="none" xmlns="http://www.w3.org/2000/svg">
<rect width="1800" height="1589" fill="white"/>
<circle cx="582.5" cy="226.5" r="91.5" fill="#C4C4C4"/>
<circle cx="829.5" cy="462.5" r="91.5" fill="#C4C4C4"/>
<ellipse cx="1141" cy="462.5" rx="92" ry="91.5" fill="#C4C4C4"/>
<circle cx="334.533" cy="462.93" r="91.6031" transform="rotate(90.1011 334.533 462.93)" fill="#C4C4C4"/>
<circle cx="333.984" cy="774.234" r="91.6031" transform="rotate(90.1011 333.984 774.234)" fill="#C4C4C4"/>
<circle cx="335.5" cy="462.5" r="89" fill="#C4C4C4" stroke="black" stroke-width="5"/>
<path d="M406.452 387.49C405.824 388.043 404.838 388.029 404.249 387.458L394.66 378.158C394.072 377.588 394.104 376.677 394.733 376.124C395.361 375.571 396.348 375.585 396.936 376.156L405.459 384.422L414.562 376.412C415.191 375.859 416.177 375.874 416.765 376.444C417.354 377.015 417.321 377.926 416.693 378.479L406.452 387.49ZM490.723 291.007C450.421 295.634 429.515 319.374 418.624 342.114C413.173 353.495 410.25 364.6 408.691 372.868C407.912 376.998 407.475 380.413 407.233 382.791C407.112 383.979 407.04 384.908 406.998 385.536C406.977 385.85 406.964 386.089 406.955 386.248C406.951 386.328 406.949 386.387 406.947 386.426C406.946 386.445 406.946 386.459 406.945 386.468C406.945 386.473 406.945 386.476 406.945 386.478C406.945 386.479 406.945 386.479 406.945 386.48C406.945 386.48 406.945 386.479 405.387 386.457C403.829 386.434 403.829 386.433 403.829 386.432C403.829 386.431 403.829 386.429 403.829 386.428C403.829 386.424 403.83 386.419 403.83 386.413C403.83 386.401 403.831 386.384 403.832 386.361C403.834 386.315 403.837 386.249 403.841 386.163C403.85 385.99 403.864 385.737 403.886 385.408C403.93 384.751 404.005 383.791 404.129 382.57C404.378 380.128 404.825 376.637 405.62 372.421C407.209 363.996 410.192 352.648 415.777 340.988C426.957 317.644 448.636 292.945 490.391 288.151L490.723 291.007Z" fill="black"/>
<path d="M282.108 684.066C282.001 684.897 281.251 685.537 280.432 685.497L267.09 684.844C266.271 684.804 265.694 684.098 265.801 683.268C265.908 682.438 266.658 681.797 267.477 681.837L279.336 682.418L280.884 670.392C280.991 669.562 281.741 668.921 282.56 668.961C283.379 669.001 283.956 669.707 283.849 670.537L282.108 684.066ZM281.693 555.963C254.48 586.049 254.454 617.681 261.289 641.95C264.71 654.098 269.847 664.368 274.134 671.606C276.277 675.223 278.203 678.076 279.591 680.022C280.285 680.994 280.844 681.739 281.227 682.239C281.419 682.488 281.567 682.677 281.666 682.801C281.715 682.864 281.752 682.91 281.777 682.94C281.789 682.955 281.798 682.967 281.803 682.973C281.806 682.977 281.808 682.979 281.809 682.981C281.81 682.982 281.81 682.982 281.811 682.982C281.811 682.982 281.81 682.982 280.625 683.994C279.44 685.005 279.44 685.005 279.439 685.004C279.438 685.003 279.437 685.002 279.436 685C279.434 684.998 279.431 684.994 279.427 684.989C279.419 684.98 279.408 684.966 279.394 684.948C279.366 684.913 279.324 684.861 279.271 684.794C279.163 684.658 279.007 684.459 278.806 684.197C278.405 683.675 277.827 682.905 277.114 681.905C275.689 679.907 273.719 676.99 271.533 673.299C267.164 665.922 261.911 655.429 258.407 642.985C251.39 618.071 251.364 585.207 279.558 554.038L281.693 555.963Z" fill="black"/>
<path d="M1044.35 468.706C1045.18 468.781 1045.84 469.51 1045.83 470.332L1045.61 483.737C1045.59 484.559 1044.91 485.165 1044.08 485.089C1043.25 485.013 1042.58 484.284 1042.6 483.462L1042.8 471.547L1030.76 470.447C1029.93 470.371 1029.27 469.643 1029.28 468.821C1029.3 467.998 1029.98 467.393 1030.81 467.469L1044.35 468.706ZM926.012 469.168C953.804 496.343 982.985 496.356 1005.37 489.539C1016.59 486.124 1026.08 480.995 1032.77 476.711C1036.11 474.571 1038.75 472.646 1040.55 471.26C1041.44 470.567 1042.13 470.009 1042.59 469.626C1042.82 469.435 1043 469.287 1043.11 469.188C1043.17 469.139 1043.21 469.102 1043.24 469.078C1043.26 469.066 1043.27 469.057 1043.27 469.051C1043.28 469.049 1043.28 469.047 1043.28 469.046C1043.28 469.045 1043.28 469.045 1043.28 469.044C1043.28 469.044 1043.28 469.045 1044.33 470.195C1045.37 471.345 1045.37 471.346 1045.37 471.347C1045.37 471.347 1045.37 471.348 1045.37 471.349C1045.36 471.352 1045.36 471.355 1045.36 471.359C1045.35 471.366 1045.33 471.378 1045.32 471.392C1045.29 471.421 1045.24 471.462 1045.17 471.516C1045.05 471.624 1044.86 471.78 1044.62 471.981C1044.14 472.383 1043.42 472.961 1042.5 473.675C1040.65 475.102 1037.95 477.074 1034.53 479.262C1027.7 483.635 1017.98 488.895 1006.45 492.406C983.341 499.441 952.859 499.454 923.987 471.222L926.012 469.168Z" fill="black"/>
<path d="M926.843 453.115C926.012 453.039 925.35 452.31 925.364 451.488L925.588 438.084C925.601 437.261 926.286 436.656 927.116 436.732C927.947 436.807 928.609 437.536 928.596 438.358L928.397 450.273L940.429 451.373C941.26 451.449 941.922 452.177 941.909 453C941.895 453.822 941.21 454.428 940.38 454.352L926.843 453.115ZM1045.18 452.652C1017.39 425.477 988.208 425.465 965.819 432.281C954.602 435.696 945.114 440.825 938.424 445.109C935.082 447.249 932.445 449.174 930.648 450.56C929.749 451.253 929.061 451.812 928.599 452.194C928.369 452.386 928.195 452.533 928.08 452.632C928.022 452.681 927.98 452.718 927.952 452.742C927.938 452.754 927.928 452.763 927.921 452.769C927.918 452.772 927.916 452.774 927.915 452.775C927.914 452.775 927.914 452.776 927.913 452.776C927.913 452.776 927.914 452.776 926.868 451.625C925.822 450.475 925.823 450.474 925.823 450.474C925.824 450.473 925.825 450.472 925.827 450.471C925.829 450.469 925.833 450.466 925.837 450.462C925.846 450.454 925.859 450.443 925.875 450.428C925.908 450.4 925.956 450.358 926.019 450.304C926.144 450.197 926.329 450.04 926.571 449.839C927.056 449.437 927.769 448.859 928.694 448.145C930.545 446.718 933.246 444.747 936.664 442.558C943.494 438.185 953.213 432.925 964.744 429.414C987.852 422.379 1018.33 422.367 1047.21 450.599L1045.18 452.652Z" fill="black"/>
<path d="M758.104 387.49C758.733 388.043 759.719 388.029 760.307 387.458L769.896 378.158C770.485 377.588 770.452 376.677 769.824 376.124C769.195 375.571 768.209 375.585 767.621 376.156L759.097 384.422L749.995 376.412C749.366 375.859 748.38 375.874 747.791 376.444C747.203 377.015 747.235 377.926 747.864 378.479L758.104 387.49ZM673.833 291.007C714.136 295.634 735.042 319.374 745.932 342.114C751.383 353.495 754.306 364.6 755.866 372.868C756.645 376.998 757.082 380.413 757.324 382.791C757.445 383.979 757.517 384.908 757.559 385.536C757.58 385.85 757.593 386.089 757.601 386.248C757.605 386.328 757.608 386.387 757.61 386.426C757.61 386.445 757.611 386.459 757.611 386.468C757.611 386.473 757.612 386.476 757.612 386.478C757.612 386.479 757.612 386.479 757.612 386.48C757.612 386.48 757.612 386.479 759.17 386.457C760.728 386.434 760.728 386.433 760.728 386.432C760.727 386.431 760.727 386.429 760.727 386.428C760.727 386.424 760.727 386.419 760.727 386.413C760.726 386.401 760.726 386.384 760.725 386.361C760.723 386.315 760.72 386.249 760.715 386.163C760.707 385.99 760.692 385.737 760.671 385.408C760.627 384.751 760.552 383.791 760.428 382.57C760.179 380.128 759.732 376.637 758.937 372.421C757.348 363.996 754.364 352.648 748.78 340.988C737.6 317.644 715.92 292.945 674.166 288.151L673.833 291.007Z" fill="black"/>
<path d="M443.744 806.681C443.291 807.375 443.487 808.304 444.181 808.756L455.489 816.131C456.183 816.583 457.112 816.388 457.564 815.694C458.017 815 457.821 814.071 457.127 813.618L447.076 807.063L453.631 797.012C454.083 796.318 453.888 795.388 453.194 794.936C452.5 794.483 451.571 794.679 451.118 795.373L443.744 806.681ZM445 743C444.829 744.49 444.829 744.49 444.829 744.49C444.829 744.49 444.829 744.49 444.829 744.49C444.83 744.49 444.832 744.491 444.834 744.491C444.838 744.491 444.845 744.492 444.855 744.493C444.874 744.495 444.903 744.499 444.942 744.504C445.02 744.513 445.138 744.528 445.293 744.549C445.603 744.589 446.061 744.652 446.646 744.74C447.817 744.916 449.493 745.192 451.507 745.589C455.539 746.385 460.897 747.664 466.239 749.598C471.598 751.538 476.845 754.104 480.727 757.428C484.59 760.736 487 764.697 487 769.5L490 769.5C490 763.553 486.973 758.827 482.679 755.15C478.405 751.49 472.777 748.774 467.261 746.777C461.728 744.774 456.211 743.459 452.087 742.646C450.023 742.238 448.301 741.955 447.092 741.773C446.488 741.683 446.011 741.617 445.684 741.574C445.52 741.553 445.394 741.537 445.308 741.526C445.265 741.521 445.232 741.517 445.209 741.514C445.197 741.513 445.188 741.512 445.182 741.511C445.179 741.511 445.177 741.51 445.175 741.51C445.174 741.51 445.173 741.51 445.173 741.51C445.172 741.51 445.171 741.51 445 743ZM487 769.5C487 779.609 481.257 787.712 472.98 793.858C464.697 800.009 454.039 804.064 444.691 806.032L445.309 808.968C454.96 806.936 466.051 802.741 474.769 796.267C483.493 789.788 490 780.891 490 769.5L487 769.5Z" fill="black"/>
<path d="M221.756 806.681C222.209 807.375 222.013 808.304 221.319 808.756L210.011 816.131C209.317 816.583 208.388 816.388 207.936 815.694C207.483 815 207.679 814.071 208.373 813.618L218.424 807.063L211.869 797.012C211.417 796.318 211.612 795.388 212.306 794.936C213 794.483 213.929 794.679 214.382 795.373L221.756 806.681ZM220.5 743C220.671 744.49 220.671 744.49 220.671 744.49C220.671 744.49 220.671 744.49 220.671 744.49C220.67 744.49 220.668 744.491 220.666 744.491C220.662 744.491 220.655 744.492 220.645 744.493C220.626 744.495 220.597 744.499 220.558 744.504C220.48 744.513 220.362 744.528 220.207 744.549C219.897 744.589 219.439 744.652 218.854 744.74C217.683 744.916 216.007 745.192 213.993 745.589C209.961 746.385 204.603 747.664 199.261 749.598C193.902 751.538 188.655 754.104 184.773 757.428C180.91 760.736 178.5 764.697 178.5 769.5L175.5 769.5C175.5 763.553 178.527 758.827 182.821 755.15C187.095 751.49 192.723 748.774 198.239 746.777C203.772 744.774 209.289 743.459 213.413 742.646C215.477 742.238 217.199 741.955 218.408 741.773C219.012 741.683 219.489 741.617 219.816 741.574C219.98 741.553 220.106 741.537 220.192 741.526C220.235 741.521 220.268 741.517 220.291 741.514C220.303 741.513 220.312 741.512 220.318 741.511C220.321 741.511 220.323 741.51 220.325 741.51C220.326 741.51 220.327 741.51 220.327 741.51C220.328 741.51 220.329 741.51 220.5 743ZM178.5 769.5C178.5 779.609 184.243 787.712 192.52 793.858C200.803 800.009 211.461 804.064 220.809 806.032L220.191 808.968C210.54 806.936 199.449 802.741 190.731 796.267C182.007 789.788 175.5 780.891 175.5 769.5L178.5 769.5Z" fill="black"/>
<path d="M221.756 494.681C222.209 495.375 222.013 496.304 221.319 496.756L210.011 504.131C209.317 504.583 208.388 504.388 207.936 503.694C207.483 503 207.679 502.071 208.373 501.618L218.424 495.063L211.869 485.012C211.417 484.318 211.612 483.388 212.306 482.936C213 482.483 213.929 482.679 214.382 483.373L221.756 494.681ZM220.5 431C220.671 432.49 220.671 432.49 220.671 432.49C220.671 432.49 220.671 432.49 220.671 432.49C220.67 432.49 220.668 432.491 220.666 432.491C220.662 432.491 220.655 432.492 220.645 432.493C220.626 432.495 220.597 432.499 220.558 432.504C220.48 432.513 220.362 432.528 220.207 432.549C219.897 432.589 219.439 432.652 218.854 432.74C217.683 432.916 216.007 433.192 213.993 433.589C209.961 434.385 204.603 435.664 199.261 437.598C193.902 439.538 188.655 442.104 184.773 445.428C180.91 448.736 178.5 452.697 178.5 457.5L175.5 457.5C175.5 451.553 178.527 446.827 182.821 443.15C187.095 439.49 192.723 436.774 198.239 434.777C203.772 432.774 209.289 431.459 213.413 430.646C215.477 430.238 217.199 429.955 218.408 429.773C219.012 429.683 219.489 429.617 219.816 429.574C219.98 429.553 220.106 429.537 220.192 429.526C220.235 429.521 220.268 429.517 220.291 429.514C220.303 429.513 220.312 429.512 220.318 429.511C220.321 429.511 220.323 429.51 220.325 429.51C220.326 429.51 220.327 429.51 220.327 429.51C220.328 429.51 220.329 429.51 220.5 431ZM178.5 457.5C178.5 467.609 184.243 475.712 192.52 481.858C200.803 488.009 211.461 492.064 220.809 494.032L220.191 496.968C210.54 494.936 199.449 490.741 190.731 484.267C182.007 477.788 175.5 468.891 175.5 457.5L178.5 457.5Z" fill="black"/>
<path d="M798.819 366.756C798.125 367.209 797.196 367.013 796.744 366.319L789.369 355.011C788.917 354.317 789.112 353.388 789.806 352.936C790.5 352.483 791.429 352.679 791.882 353.373L798.437 363.424L808.488 356.869C809.182 356.417 810.112 356.612 810.564 357.306C811.017 358 810.821 358.929 810.127 359.382L798.819 366.756ZM862.5 365.5C861.01 365.671 861.01 365.671 861.01 365.671C861.01 365.671 861.01 365.671 861.01 365.671C861.01 365.67 861.009 365.668 861.009 365.666C861.009 365.662 861.008 365.655 861.007 365.645C861.005 365.626 861.001 365.597 860.996 365.558C860.987 365.48 860.972 365.362 860.951 365.207C860.911 364.897 860.848 364.439 860.76 363.854C860.584 362.683 860.308 361.007 859.911 358.993C859.115 354.961 857.836 349.603 855.902 344.261C853.962 338.902 851.396 333.655 848.072 329.773C844.764 325.91 840.803 323.5 836 323.5L836 320.5C841.947 320.5 846.673 323.527 850.35 327.821C854.01 332.095 856.726 337.723 858.723 343.239C860.726 348.772 862.041 354.289 862.854 358.413C863.262 360.477 863.545 362.199 863.727 363.408C863.817 364.012 863.883 364.489 863.926 364.816C863.947 364.98 863.963 365.106 863.974 365.192C863.979 365.235 863.983 365.268 863.986 365.291C863.987 365.303 863.988 365.312 863.989 365.318C863.989 365.321 863.99 365.323 863.99 365.325C863.99 365.326 863.99 365.327 863.99 365.327C863.99 365.328 863.99 365.329 862.5 365.5ZM836 323.5C825.891 323.5 817.788 329.243 811.642 337.52C805.491 345.803 801.436 356.461 799.468 365.809L796.532 365.191C798.564 355.54 802.759 344.449 809.233 335.731C815.712 327.007 824.609 320.5 836 320.5L836 323.5Z" fill="black"/>
<path d="M585.908 225.268H571.868L568.844 232H566.072L577.592 206.8H580.22L591.74 232H588.932L585.908 225.268ZM584.936 223.108L578.888 209.572L572.84 223.108H584.936Z" fill="black"/>
<path d="M306.97 271.22H309.1V287H306.97V271.22ZM308.05 267.77C307.61 267.77 307.24 267.62 306.94 267.32C306.64 267.02 306.49 266.66 306.49 266.24C306.49 265.84 306.64 265.49 306.94 265.19C307.24 264.89 307.61 264.74 308.05 264.74C308.49 264.74 308.86 264.89 309.16 265.19C309.46 265.47 309.61 265.81 309.61 266.21C309.61 266.65 309.46 267.02 309.16 267.32C308.86 267.62 308.49 267.77 308.05 267.77ZM323.067 271.1C325.047 271.1 326.617 271.68 327.777 272.84C328.957 273.98 329.547 275.65 329.547 277.85V287H327.417V278.06C327.417 276.42 327.007 275.17 326.187 274.31C325.367 273.45 324.197 273.02 322.677 273.02C320.977 273.02 319.627 273.53 318.627 274.55C317.647 275.55 317.157 276.94 317.157 278.72V287H315.027V271.22H317.067V274.13C317.647 273.17 318.447 272.43 319.467 271.91C320.507 271.37 321.707 271.1 323.067 271.1ZM349.788 264.74V287H347.748V283.88C347.108 284.94 346.258 285.75 345.198 286.31C344.158 286.87 342.978 287.15 341.658 287.15C340.178 287.15 338.838 286.81 337.638 286.13C336.438 285.45 335.498 284.5 334.818 283.28C334.138 282.06 333.798 280.67 333.798 279.11C333.798 277.55 334.138 276.16 334.818 274.94C335.498 273.72 336.438 272.78 337.638 272.12C338.838 271.44 340.178 271.1 341.658 271.1C342.938 271.1 344.088 271.37 345.108 271.91C346.148 272.43 346.998 273.2 347.658 274.22V264.74H349.788ZM341.838 285.26C342.938 285.26 343.928 285.01 344.808 284.51C345.708 283.99 346.408 283.26 346.908 282.32C347.428 281.38 347.688 280.31 347.688 279.11C347.688 277.91 347.428 276.84 346.908 275.9C346.408 274.96 345.708 274.24 344.808 273.74C343.928 273.22 342.938 272.96 341.838 272.96C340.718 272.96 339.708 273.22 338.808 273.74C337.928 274.24 337.228 274.96 336.708 275.9C336.208 276.84 335.958 277.91 335.958 279.11C335.958 280.31 336.208 281.38 336.708 282.32C337.228 283.26 337.928 283.99 338.808 284.51C339.708 285.01 340.718 285.26 341.838 285.26ZM369.94 271.22V287H367.9V284.12C367.34 285.08 366.57 285.83 365.59 286.37C364.61 286.89 363.49 287.15 362.23 287.15C360.17 287.15 358.54 286.58 357.34 285.44C356.16 284.28 355.57 282.59 355.57 280.37V271.22H357.7V280.16C357.7 281.82 358.11 283.08 358.93 283.94C359.75 284.8 360.92 285.23 362.44 285.23C364.1 285.23 365.41 284.73 366.37 283.73C367.33 282.71 367.81 281.3 367.81 279.5V271.22H369.94ZM382.446 287.15C380.886 287.15 379.486 286.81 378.246 286.13C377.026 285.45 376.066 284.5 375.366 283.28C374.666 282.04 374.316 280.65 374.316 279.11C374.316 277.57 374.666 276.19 375.366 274.97C376.066 273.75 377.026 272.8 378.246 272.12C379.486 271.44 380.886 271.1 382.446 271.1C383.806 271.1 385.016 271.37 386.076 271.91C387.156 272.43 388.006 273.2 388.626 274.22L387.036 275.3C386.516 274.52 385.856 273.94 385.056 273.56C384.256 273.16 383.386 272.96 382.446 272.96C381.306 272.96 380.276 273.22 379.356 273.74C378.456 274.24 377.746 274.96 377.226 275.9C376.726 276.84 376.476 277.91 376.476 279.11C376.476 280.33 376.726 281.41 377.226 282.35C377.746 283.27 378.456 283.99 379.356 284.51C380.276 285.01 381.306 285.26 382.446 285.26C383.386 285.26 384.256 285.07 385.056 284.69C385.856 284.31 386.516 283.73 387.036 282.95L388.626 284.03C388.006 285.05 387.156 285.83 386.076 286.37C384.996 286.89 383.786 287.15 382.446 287.15ZM406.286 279.77H393.086C393.206 281.41 393.836 282.74 394.976 283.76C396.116 284.76 397.556 285.26 399.296 285.26C400.276 285.26 401.176 285.09 401.996 284.75C402.816 284.39 403.526 283.87 404.126 283.19L405.326 284.57C404.626 285.41 403.746 286.05 402.686 286.49C401.646 286.93 400.496 287.15 399.236 287.15C397.616 287.15 396.176 286.81 394.916 286.13C393.676 285.43 392.706 284.47 392.006 283.25C391.306 282.03 390.956 280.65 390.956 279.11C390.956 277.57 391.286 276.19 391.946 274.97C392.626 273.75 393.546 272.8 394.706 272.12C395.886 271.44 397.206 271.1 398.666 271.1C400.126 271.1 401.436 271.44 402.596 272.12C403.756 272.8 404.666 273.75 405.326 274.97C405.986 276.17 406.316 277.55 406.316 279.11L406.286 279.77ZM398.666 272.93C397.146 272.93 395.866 273.42 394.826 274.4C393.806 275.36 393.226 276.62 393.086 278.18H404.276C404.136 276.62 403.546 275.36 402.506 274.4C401.486 273.42 400.206 272.93 398.666 272.93ZM412.692 274.31C413.192 273.25 413.932 272.45 414.912 271.91C415.912 271.37 417.142 271.1 418.602 271.1V273.17L418.092 273.14C416.432 273.14 415.132 273.65 414.192 274.67C413.252 275.69 412.782 277.12 412.782 278.96V287H410.652V271.22H412.692V274.31ZM434.954 266V287H432.794V267.92H427.844V266H434.954Z" fill="black"/>
<path d="M694.9 336.08V338H680.17V336.47L688.9 327.92C690 326.84 690.74 325.91 691.12 325.13C691.52 324.33 691.72 323.53 691.72 322.73C691.72 321.49 691.29 320.53 690.43 319.85C689.59 319.15 688.38 318.8 686.8 318.8C684.34 318.8 682.43 319.58 681.07 321.14L679.54 319.82C680.36 318.86 681.4 318.12 682.66 317.6C683.94 317.08 685.38 316.82 686.98 316.82C689.12 316.82 690.81 317.33 692.05 318.35C693.31 319.35 693.94 320.73 693.94 322.49C693.94 323.57 693.7 324.61 693.22 325.61C692.74 326.61 691.83 327.76 690.49 329.06L683.35 336.08H694.9Z" fill="black"/>
<path d="M303.9 618.08V620H289.17V618.47L297.9 609.92C299 608.84 299.74 607.91 300.12 607.13C300.52 606.33 300.72 605.53 300.72 604.73C300.72 603.49 300.29 602.53 299.43 601.85C298.59 601.15 297.38 600.8 295.8 600.8C293.34 600.8 291.43 601.58 290.07 603.14L288.54 601.82C289.36 600.86 290.4 600.12 291.66 599.6C292.94 599.08 294.38 598.82 295.98 598.82C298.12 598.82 299.81 599.33 301.05 600.35C302.31 601.35 302.94 602.73 302.94 604.49C302.94 605.57 302.7 606.61 302.22 607.61C301.74 608.61 300.83 609.76 299.49 611.06L292.35 618.08H303.9Z" fill="black"/>
<path d="M523.9 737.08V739H509.17V737.47L517.9 728.92C519 727.84 519.74 726.91 520.12 726.13C520.52 725.33 520.72 724.53 520.72 723.73C520.72 722.49 520.29 721.53 519.43 720.85C518.59 720.15 517.38 719.8 515.8 719.8C513.34 719.8 511.43 720.58 510.07 722.14L508.54 720.82C509.36 719.86 510.4 719.12 511.66 718.6C512.94 718.08 514.38 717.82 515.98 717.82C518.12 717.82 519.81 718.33 521.05 719.35C522.31 720.35 522.94 721.73 522.94 723.49C522.94 724.57 522.7 725.61 522.22 726.61C521.74 727.61 520.83 728.76 519.49 730.06L512.35 737.08H523.9Z" fill="black"/>
<path d="M863.9 298.08V300H849.17V298.47L857.9 289.92C859 288.84 859.74 287.91 860.12 287.13C860.52 286.33 860.72 285.53 860.72 284.73C860.72 283.49 860.29 282.53 859.43 281.85C858.59 281.15 857.38 280.8 855.8 280.8C853.34 280.8 851.43 281.58 850.07 283.14L848.54 281.82C849.36 280.86 850.4 280.12 851.66 279.6C852.94 279.08 854.38 278.82 855.98 278.82C858.12 278.82 859.81 279.33 861.05 280.35C862.31 281.35 862.94 282.73 862.94 284.49C862.94 285.57 862.7 286.61 862.22 287.61C861.74 288.61 860.83 289.76 859.49 291.06L852.35 298.08H863.9Z" fill="black"/>
<path d="M990.38 524V545H988.22V525.92H983.27V524H990.38Z" fill="black"/>
<path d="M141.38 725V746H139.22V726.92H134.27V725H141.38Z" fill="black"/>
<path d="M141.38 422V443H139.22V423.92H134.27V422H141.38Z" fill="black"/>
<path d="M954.28 399.04C953.88 399.4 953.38 399.68 952.78 399.88C952.2 400.06 951.59 400.15 950.95 400.15C949.47 400.15 948.33 399.75 947.53 398.95C946.73 398.15 946.33 397.02 946.33 395.56V386.02H943.51V384.22H946.33V380.77H948.46V384.22H953.26V386.02H948.46V395.44C948.46 396.38 948.69 397.1 949.15 397.6C949.63 398.08 950.31 398.32 951.19 398.32C951.63 398.32 952.05 398.25 952.45 398.11C952.87 397.97 953.23 397.77 953.53 397.51L954.28 399.04ZM958.158 384.22H960.288V400H958.158V384.22ZM959.238 380.77C958.798 380.77 958.428 380.62 958.128 380.32C957.828 380.02 957.678 379.66 957.678 379.24C957.678 378.84 957.828 378.49 958.128 378.19C958.428 377.89 958.798 377.74 959.238 377.74C959.678 377.74 960.048 377.89 960.348 378.19C960.648 378.47 960.798 378.81 960.798 379.21C960.798 379.65 960.648 380.02 960.348 380.32C960.048 380.62 959.678 380.77 959.238 380.77ZM985.894 384.1C987.874 384.1 989.424 384.67 990.544 385.81C991.684 386.95 992.254 388.63 992.254 390.85V400H990.124V391.06C990.124 389.42 989.724 388.17 988.924 387.31C988.144 386.45 987.034 386.02 985.594 386.02C983.954 386.02 982.664 386.53 981.724 387.55C980.784 388.55 980.314 389.94 980.314 391.72V400H978.184V391.06C978.184 389.42 977.784 388.17 976.984 387.31C976.204 386.45 975.084 386.02 973.624 386.02C972.004 386.02 970.714 386.53 969.754 387.55C968.814 388.55 968.344 389.94 968.344 391.72V400H966.214V384.22H968.254V387.1C968.814 386.14 969.594 385.4 970.594 384.88C971.594 384.36 972.744 384.1 974.044 384.1C975.364 384.1 976.504 384.38 977.464 384.94C978.444 385.5 979.174 386.33 979.654 387.43C980.234 386.39 981.064 385.58 982.144 385C983.244 384.4 984.494 384.1 985.894 384.1ZM1011.83 392.77H998.629C998.749 394.41 999.379 395.74 1000.52 396.76C1001.66 397.76 1003.1 398.26 1004.84 398.26C1005.82 398.26 1006.72 398.09 1007.54 397.75C1008.36 397.39 1009.07 396.87 1009.67 396.19L1010.87 397.57C1010.17 398.41 1009.29 399.05 1008.23 399.49C1007.19 399.93 1006.04 400.15 1004.78 400.15C1003.16 400.15 1001.72 399.81 1000.46 399.13C999.219 398.43 998.249 397.47 997.549 396.25C996.849 395.03 996.499 393.65 996.499 392.11C996.499 390.57 996.829 389.19 997.489 387.97C998.169 386.75 999.089 385.8 1000.25 385.12C1001.43 384.44 1002.75 384.1 1004.21 384.1C1005.67 384.1 1006.98 384.44 1008.14 385.12C1009.3 385.8 1010.21 386.75 1010.87 387.97C1011.53 389.17 1011.86 390.55 1011.86 392.11L1011.83 392.77ZM1004.21 385.93C1002.69 385.93 1001.41 386.42 1000.37 387.4C999.349 388.36 998.769 389.62 998.629 391.18H1009.82C1009.68 389.62 1009.09 388.36 1008.05 387.4C1007.03 386.42 1005.75 385.93 1004.21 385.93Z" fill="black"/>
<path d="M339.41 462.004C341.066 462.364 342.338 463.084 343.226 464.164C344.138 465.22 344.594 466.588 344.594 468.268C344.594 470.428 343.79 472.096 342.182 473.272C340.598 474.424 338.246 475 335.126 475H323.534V449.8H334.406C337.214 449.8 339.386 450.364 340.922 451.492C342.482 452.62 343.262 454.216 343.262 456.28C343.262 457.672 342.914 458.86 342.218 459.844C341.546 460.804 340.61 461.524 339.41 462.004ZM326.198 451.996V461.14H334.226C336.266 461.14 337.838 460.756 338.942 459.988C340.046 459.196 340.598 458.056 340.598 456.568C340.598 455.08 340.046 453.952 338.942 453.184C337.838 452.392 336.266 451.996 334.226 451.996H326.198ZM335.09 472.804C337.346 472.804 339.05 472.42 340.202 471.652C341.354 470.884 341.93 469.684 341.93 468.052C341.93 464.908 339.65 463.336 335.09 463.336H326.198V472.804H335.09Z" fill="black"/>
<path d="M819.733 449.8H829.993C832.657 449.8 835.009 450.34 837.049 451.42C839.089 452.476 840.673 453.964 841.801 455.884C842.929 457.78 843.493 459.952 843.493 462.4C843.493 464.848 842.929 467.032 841.801 468.952C840.673 470.848 839.089 472.336 837.049 473.416C835.009 474.472 832.657 475 829.993 475H819.733V449.8ZM829.849 472.696C832.057 472.696 833.989 472.264 835.645 471.4C837.301 470.512 838.585 469.3 839.497 467.764C840.409 466.204 840.865 464.416 840.865 462.4C840.865 460.384 840.409 458.608 839.497 457.072C838.585 455.512 837.301 454.3 835.645 453.436C833.989 452.548 832.057 452.104 829.849 452.104H822.397V472.696H829.849Z" fill="black"/>
<path d="M1151.38 472.696V475H1133.56V449.8H1150.84V452.104H1136.23V461.068H1149.26V463.336H1136.23V472.696H1151.38Z" fill="black"/>
<path d="M335.611 783.216C333.115 783.216 330.859 782.664 328.843 781.56C326.851 780.456 325.279 778.932 324.127 776.988C322.999 775.02 322.435 772.824 322.435 770.4C322.435 767.976 322.999 765.792 324.127 763.848C325.279 761.88 326.863 760.344 328.879 759.24C330.895 758.136 333.151 757.584 335.647 757.584C337.519 757.584 339.247 757.896 340.831 758.52C342.415 759.144 343.759 760.056 344.863 761.256L343.171 762.948C341.203 760.956 338.719 759.96 335.719 759.96C333.727 759.96 331.915 760.416 330.283 761.328C328.651 762.24 327.367 763.488 326.431 765.072C325.519 766.656 325.062 768.432 325.062 770.4C325.062 772.368 325.519 774.144 326.431 775.728C327.367 777.312 328.651 778.56 330.283 779.472C331.915 780.384 333.727 780.84 335.719 780.84C338.743 780.84 341.227 779.832 343.171 777.816L344.863 779.508C343.759 780.708 342.403 781.632 340.795 782.28C339.211 782.904 337.483 783.216 335.611 783.216Z" fill="black"/>
<path d="M1541.13 1296.57L1519.45 1317.26H1436.88V1275.88H1519.45L1541.13 1296.57Z" fill="#F0AE3E"/>
<path d="M383.967 1317.06H329.576V1262.87L383.967 1317.06Z" fill="#D0CECE"/>
<path d="M378.738 1260.49V1281.97C378.738 1284.73 376.507 1286.96 373.749 1286.96H353.451C350.694 1286.96 348.463 1284.73 348.463 1281.97V1260.49C348.463 1257.73 350.694 1255.5 353.451 1255.5H373.749C376.353 1255.5 378.738 1257.77 378.738 1260.49Z" stroke="#5ECE9C" stroke-width="5"/>
<path d="M290.412 1286.52V1275.68H263.808C255.531 1275.68 249.028 1282.38 249.028 1290.46V1317.06H229.321V1287.5C229.321 1270.16 243.313 1255.97 260.852 1255.97H290.412V1245.13L310.119 1265.82L290.412 1286.52Z" fill="#474747"/>
<path d="M1281.19 1277.45H1265.62V1270.16H1305.43V1277.45H1289.86V1317.06H1281.19V1277.45Z" fill="#474747"/>
<path d="M585.427 1296.6L563.75 1317.29H481.179V1275.91H563.75L585.427 1296.6Z" fill="#F6788E"/>
<path d="M426 1275.91V1317.29L465.61 1296.6L426 1275.91Z" fill="#F0AE3E"/>
<path d="M754.459 1275.91V1317.29L794.069 1296.6L754.459 1275.91Z" fill="#F0AE3E"/>
<path d="M711.396 1277.68H695.828V1270.39H735.636V1277.68H720.067V1317.29H711.396V1277.68Z" fill="#474747"/>
<path d="M672.885 1317.77H605.883C601.547 1317.77 598 1314.23 598 1309.89V1284.27C598 1279.94 601.547 1276.39 605.883 1276.39H672.885C677.221 1276.39 680.768 1279.94 680.768 1284.27V1309.89C680.768 1314.23 677.221 1317.77 672.885 1317.77Z" fill="#CD3C59"/>
<path d="M819 1275.91V1317.29L858.61 1296.6L819 1275.91Z" fill="#F6788E"/>
<path d="M1247.07 1317.29V1275.91L1207.46 1296.6L1247.07 1317.29Z" fill="#F6788E"/>
<path d="M1568.4 1277.68H1552.83V1270.39H1592.64V1277.68H1577.07V1317.29H1568.4V1277.68Z" fill="#474747"/>
<path d="M1402.41 1286.91V1276.07H1375.81C1367.53 1276.07 1361.03 1282.77 1361.03 1290.85V1317.45H1341.32V1287.89C1341.32 1270.55 1355.31 1256.36 1372.85 1256.36H1402.41V1245.52L1422.12 1266.22L1402.41 1286.91Z" fill="#474747"/>
<path d="M1061.89 1317.77H994.883C990.547 1317.77 987 1314.23 987 1309.89V1284.27C987 1279.94 990.547 1276.39 994.883 1276.39H1061.89C1066.22 1276.39 1069.77 1279.94 1069.77 1284.27V1309.89C1069.77 1314.23 1066.22 1317.77 1061.89 1317.77Z" fill="#ECD24B"/>
<path d="M889.439 1275.71H956.442C960.777 1275.71 964.324 1279.26 964.324 1283.6V1309.21C964.324 1313.55 960.777 1317.1 956.442 1317.1H889.439C885.103 1317.1 881.556 1313.55 881.556 1309.21V1283.6C881.556 1279.26 885.103 1275.71 889.439 1275.71Z" fill="#5ECE9C"/>
<path d="M1167.89 1317.77H1100.88C1096.55 1317.77 1093 1314.23 1093 1309.89V1284.27C1093 1279.94 1096.55 1276.39 1100.88 1276.39H1167.89C1172.22 1276.39 1175.77 1279.94 1175.77 1284.27V1309.89C1175.77 1314.23 1172.22 1317.77 1167.89 1317.77Z" fill="#A6D440"/>
<path d="M262.293 1235.47V1257.94C262.293 1261.29 259.668 1263.91 256.319 1263.91H232.474C229.125 1263.91 226.5 1261.29 226.5 1257.94V1235.47C226.5 1232.12 229.125 1229.5 232.474 1229.5H256.457C259.693 1229.67 262.293 1232.36 262.293 1235.47Z" stroke="#518195" stroke-width="5"/>
<path d="M1374.29 1235.47V1257.94C1374.29 1261.29 1371.67 1263.91 1368.32 1263.91H1344.47C1341.12 1263.91 1338.5 1261.29 1338.5 1257.94V1235.47C1338.5 1232.12 1341.12 1229.5 1344.47 1229.5H1368.46C1371.69 1229.67 1374.29 1232.36 1374.29 1235.47Z" stroke="#D198B8" stroke-width="5"/>
<path d="M323.901 1363.14C322.629 1363.14 321.483 1362.87 320.463 1362.32C319.443 1361.75 318.639 1360.98 318.051 1359.99C317.475 1359.01 317.187 1357.91 317.187 1356.7C317.187 1355.49 317.475 1354.39 318.051 1353.41C318.639 1352.42 319.443 1351.65 320.463 1351.1C321.483 1350.54 322.629 1350.26 323.901 1350.26C325.161 1350.26 326.301 1350.54 327.321 1351.1C328.341 1351.65 329.139 1352.42 329.715 1353.41C330.291 1354.38 330.579 1355.48 330.579 1356.7C330.579 1357.92 330.291 1359.03 329.715 1360.01C329.139 1360.98 328.341 1361.75 327.321 1362.32C326.301 1362.87 325.161 1363.14 323.901 1363.14ZM323.901 1361.54C324.825 1361.54 325.653 1361.33 326.385 1360.91C327.129 1360.49 327.711 1359.92 328.131 1359.18C328.563 1358.44 328.779 1357.61 328.779 1356.7C328.779 1355.79 328.563 1354.97 328.131 1354.23C327.711 1353.49 327.129 1352.91 326.385 1352.49C325.653 1352.07 324.825 1351.86 323.901 1351.86C322.977 1351.86 322.137 1352.07 321.381 1352.49C320.637 1352.91 320.049 1353.49 319.617 1354.23C319.197 1354.97 318.987 1355.79 318.987 1356.7C318.987 1357.61 319.197 1358.44 319.617 1359.18C320.049 1359.92 320.637 1360.49 321.381 1360.91C322.137 1361.33 322.977 1361.54 323.901 1361.54ZM338.136 1353.37C339.06 1353.37 339.888 1353.57 340.62 1353.98C341.352 1354.39 341.922 1354.96 342.33 1355.69C342.75 1356.42 342.96 1357.27 342.96 1358.23C342.96 1359.19 342.75 1360.04 342.33 1360.79C341.922 1361.52 341.352 1362.09 340.62 1362.5C339.888 1362.9 339.06 1363.11 338.136 1363.11C337.452 1363.11 336.822 1362.98 336.246 1362.71C335.682 1362.45 335.202 1362.06 334.806 1361.56V1366.49H333.078V1353.46H334.734V1354.97C335.118 1354.44 335.604 1354.05 336.192 1353.78C336.78 1353.51 337.428 1353.37 338.136 1353.37ZM337.992 1361.6C338.604 1361.6 339.15 1361.46 339.63 1361.18C340.122 1360.89 340.506 1360.5 340.782 1359.99C341.07 1359.48 341.214 1358.89 341.214 1358.23C341.214 1357.57 341.07 1356.99 340.782 1356.48C340.506 1355.97 340.122 1355.57 339.63 1355.3C339.15 1355.02 338.604 1354.88 337.992 1354.88C337.392 1354.88 336.846 1355.03 336.354 1355.31C335.874 1355.59 335.49 1355.98 335.202 1356.48C334.926 1356.99 334.788 1357.57 334.788 1358.23C334.788 1358.89 334.926 1359.48 335.202 1359.99C335.478 1360.5 335.862 1360.89 336.354 1361.18C336.846 1361.46 337.392 1361.6 337.992 1361.6ZM353.97 1358.28C353.97 1358.42 353.958 1358.59 353.934 1358.81H346.194C346.302 1359.65 346.668 1360.32 347.292 1360.84C347.928 1361.34 348.714 1361.6 349.65 1361.6C350.79 1361.6 351.708 1361.21 352.404 1360.44L353.358 1361.56C352.926 1362.06 352.386 1362.45 351.738 1362.71C351.102 1362.98 350.388 1363.11 349.596 1363.11C348.588 1363.11 347.694 1362.9 346.914 1362.5C346.134 1362.08 345.528 1361.49 345.096 1360.75C344.676 1360.01 344.466 1359.17 344.466 1358.23C344.466 1357.31 344.67 1356.47 345.078 1355.73C345.498 1354.98 346.068 1354.41 346.788 1354C347.52 1353.58 348.342 1353.37 349.254 1353.37C350.166 1353.37 350.976 1353.58 351.684 1354C352.404 1354.41 352.962 1354.98 353.358 1355.73C353.766 1356.47 353.97 1357.32 353.97 1358.28ZM349.254 1354.83C348.426 1354.83 347.73 1355.08 347.166 1355.58C346.614 1356.09 346.29 1356.75 346.194 1357.56H352.314C352.218 1356.76 351.888 1356.11 351.324 1355.6C350.772 1355.09 350.082 1354.83 349.254 1354.83ZM358.025 1355.06C358.325 1354.51 358.769 1354.09 359.357 1353.8C359.945 1353.51 360.659 1353.37 361.499 1353.37V1355.04C361.403 1355.03 361.271 1355.03 361.103 1355.03C360.167 1355.03 359.429 1355.31 358.889 1355.87C358.361 1356.42 358.097 1357.22 358.097 1358.25V1363H356.369V1353.46H358.025V1355.06ZM367.086 1353.37C368.406 1353.37 369.414 1353.69 370.11 1354.34C370.818 1354.99 371.172 1355.96 371.172 1357.24V1363H369.534V1361.74C369.246 1362.18 368.832 1362.53 368.292 1362.77C367.764 1362.99 367.134 1363.11 366.402 1363.11C365.334 1363.11 364.476 1362.85 363.828 1362.33C363.192 1361.82 362.874 1361.14 362.874 1360.3C362.874 1359.46 363.18 1358.79 363.792 1358.28C364.404 1357.77 365.376 1357.51 366.708 1357.51H369.444V1357.17C369.444 1356.42 369.228 1355.85 368.796 1355.46C368.364 1355.06 367.728 1354.86 366.888 1354.86C366.324 1354.86 365.772 1354.96 365.232 1355.15C364.692 1355.33 364.236 1355.58 363.864 1355.89L363.144 1354.59C363.636 1354.2 364.224 1353.9 364.908 1353.69C365.592 1353.48 366.318 1353.37 367.086 1353.37ZM366.69 1361.78C367.35 1361.78 367.92 1361.63 368.4 1361.34C368.88 1361.04 369.228 1360.62 369.444 1360.08V1358.75H366.78C365.316 1358.75 364.584 1359.24 364.584 1360.23C364.584 1360.71 364.77 1361.09 365.142 1361.36C365.514 1361.64 366.03 1361.78 366.69 1361.78ZM379.733 1362.44C379.481 1362.66 379.169 1362.83 378.797 1362.95C378.425 1363.05 378.041 1363.11 377.645 1363.11C376.685 1363.11 375.941 1362.85 375.413 1362.33C374.885 1361.82 374.621 1361.08 374.621 1360.12V1354.88H373.001V1353.46H374.621V1351.37H376.349V1353.46H379.085V1354.88H376.349V1360.05C376.349 1360.56 376.475 1360.96 376.727 1361.24C376.991 1361.51 377.363 1361.65 377.843 1361.65C378.371 1361.65 378.821 1361.5 379.193 1361.2L379.733 1362.44ZM385.592 1363.11C384.644 1363.11 383.792 1362.9 383.036 1362.48C382.28 1362.06 381.686 1361.48 381.254 1360.75C380.834 1360.01 380.624 1359.17 380.624 1358.23C380.624 1357.29 380.834 1356.46 381.254 1355.73C381.686 1354.98 382.28 1354.41 383.036 1354C383.792 1353.58 384.644 1353.37 385.592 1353.37C386.54 1353.37 387.386 1353.58 388.13 1354C388.886 1354.41 389.474 1354.98 389.894 1355.73C390.326 1356.46 390.542 1357.29 390.542 1358.23C390.542 1359.17 390.326 1360.01 389.894 1360.75C389.474 1361.48 388.886 1362.06 388.13 1362.48C387.386 1362.9 386.54 1363.11 385.592 1363.11ZM385.592 1361.6C386.204 1361.6 386.75 1361.46 387.23 1361.18C387.722 1360.89 388.106 1360.5 388.382 1359.99C388.658 1359.48 388.796 1358.89 388.796 1358.23C388.796 1357.57 388.658 1356.99 388.382 1356.48C388.106 1355.97 387.722 1355.57 387.23 1355.3C386.75 1355.02 386.204 1354.88 385.592 1354.88C384.98 1354.88 384.428 1355.02 383.936 1355.3C383.456 1355.57 383.072 1355.97 382.784 1356.48C382.508 1356.99 382.37 1357.57 382.37 1358.23C382.37 1358.89 382.508 1359.48 382.784 1359.99C383.072 1360.5 383.456 1360.89 383.936 1361.18C384.428 1361.46 384.98 1361.6 385.592 1361.6ZM394.588 1355.06C394.888 1354.51 395.332 1354.09 395.92 1353.8C396.508 1353.51 397.222 1353.37 398.062 1353.37V1355.04C397.966 1355.03 397.834 1355.03 397.666 1355.03C396.73 1355.03 395.992 1355.31 395.452 1355.87C394.924 1356.42 394.66 1357.22 394.66 1358.25V1363H392.932V1353.46H394.588V1355.06ZM340.024 1385.11C339.244 1385.11 338.494 1385.01 337.774 1384.8C337.054 1384.59 336.49 1384.32 336.082 1383.99L336.802 1382.62C337.222 1382.92 337.732 1383.16 338.332 1383.34C338.932 1383.52 339.538 1383.61 340.15 1383.61C341.662 1383.61 342.418 1383.18 342.418 1382.32C342.418 1382.03 342.316 1381.8 342.112 1381.63C341.908 1381.47 341.65 1381.35 341.338 1381.27C341.038 1381.19 340.606 1381.1 340.042 1381C339.274 1380.88 338.644 1380.75 338.152 1380.59C337.672 1380.43 337.258 1380.17 336.91 1379.8C336.562 1379.43 336.388 1378.9 336.388 1378.23C336.388 1377.37 336.748 1376.68 337.468 1376.16C338.188 1375.63 339.154 1375.37 340.366 1375.37C341.002 1375.37 341.638 1375.45 342.274 1375.6C342.91 1375.76 343.432 1375.97 343.84 1376.23L343.102 1377.6C342.322 1377.1 341.404 1376.85 340.348 1376.85C339.616 1376.85 339.058 1376.97 338.674 1377.21C338.29 1377.45 338.098 1377.76 338.098 1378.16C338.098 1378.47 338.206 1378.72 338.422 1378.9C338.638 1379.08 338.902 1379.21 339.214 1379.29C339.538 1379.38 339.988 1379.47 340.564 1379.58C341.332 1379.71 341.95 1379.86 342.418 1380.01C342.898 1380.16 343.306 1380.41 343.642 1380.77C343.978 1381.13 344.146 1381.63 344.146 1382.28C344.146 1383.15 343.774 1383.84 343.03 1384.35C342.298 1384.86 341.296 1385.11 340.024 1385.11ZM346.306 1375.46H348.034V1385H346.306V1375.46ZM347.17 1373.62C346.834 1373.62 346.552 1373.52 346.324 1373.3C346.108 1373.08 346 1372.82 346 1372.51C346 1372.2 346.108 1371.93 346.324 1371.72C346.552 1371.49 346.834 1371.37 347.17 1371.37C347.506 1371.37 347.782 1371.48 347.998 1371.7C348.226 1371.9 348.34 1372.16 348.34 1372.47C348.34 1372.8 348.226 1373.07 347.998 1373.3C347.782 1373.52 347.506 1373.62 347.17 1373.62ZM356.697 1384.44C356.445 1384.66 356.133 1384.83 355.761 1384.95C355.389 1385.05 355.005 1385.11 354.609 1385.11C353.649 1385.11 352.905 1384.85 352.377 1384.33C351.849 1383.82 351.585 1383.08 351.585 1382.12V1376.88H349.965V1375.46H351.585V1373.37H353.313V1375.46H356.049V1376.88H353.313V1382.05C353.313 1382.56 353.439 1382.96 353.691 1383.24C353.955 1383.51 354.327 1383.65 354.807 1383.65C355.335 1383.65 355.785 1383.5 356.157 1383.2L356.697 1384.44ZM367.092 1380.28C367.092 1380.42 367.08 1380.59 367.056 1380.81H359.316C359.424 1381.65 359.79 1382.32 360.414 1382.84C361.05 1383.34 361.836 1383.6 362.772 1383.6C363.912 1383.6 364.83 1383.21 365.526 1382.44L366.48 1383.56C366.048 1384.06 365.508 1384.45 364.86 1384.71C364.224 1384.98 363.51 1385.11 362.718 1385.11C361.71 1385.11 360.816 1384.9 360.036 1384.5C359.256 1384.08 358.65 1383.49 358.218 1382.75C357.798 1382.01 357.588 1381.17 357.588 1380.23C357.588 1379.31 357.792 1378.47 358.2 1377.73C358.62 1376.98 359.19 1376.41 359.91 1376C360.642 1375.58 361.464 1375.37 362.376 1375.37C363.288 1375.37 364.098 1375.58 364.806 1376C365.526 1376.41 366.084 1376.98 366.48 1377.73C366.888 1378.47 367.092 1379.32 367.092 1380.28ZM362.376 1376.83C361.548 1376.83 360.852 1377.08 360.288 1377.58C359.736 1378.09 359.412 1378.75 359.316 1379.56H365.436C365.34 1378.76 365.01 1378.11 364.446 1377.6C363.894 1377.09 363.204 1376.83 362.376 1376.83ZM377.458 1372.4V1385H375.676V1373.97H372.832V1372.4H377.458Z" fill="black"/>
<path d="M198.909 1350.4C200.541 1350.4 201.825 1350.79 202.761 1351.57C203.697 1352.35 204.165 1353.42 204.165 1354.79C204.165 1356.16 203.697 1357.23 202.761 1358.01C201.825 1358.79 200.541 1359.18 198.909 1359.18H195.795V1363H193.995V1350.4H198.909ZM198.855 1357.62C199.995 1357.62 200.865 1357.38 201.465 1356.9C202.065 1356.41 202.365 1355.7 202.365 1354.79C202.365 1353.88 202.065 1353.18 201.465 1352.7C200.865 1352.21 199.995 1351.97 198.855 1351.97H195.795V1357.62H198.855ZM208.056 1355.06C208.356 1354.51 208.8 1354.09 209.388 1353.8C209.976 1353.51 210.69 1353.37 211.53 1353.37V1355.04C211.434 1355.03 211.302 1355.03 211.134 1355.03C210.198 1355.03 209.46 1355.31 208.92 1355.87C208.392 1356.42 208.128 1357.22 208.128 1358.25V1363H206.4V1353.46H208.056V1355.06ZM217.658 1363.11C216.71 1363.11 215.858 1362.9 215.102 1362.48C214.346 1362.06 213.752 1361.48 213.32 1360.75C212.9 1360.01 212.69 1359.17 212.69 1358.23C212.69 1357.29 212.9 1356.46 213.32 1355.73C213.752 1354.98 214.346 1354.41 215.102 1354C215.858 1353.58 216.71 1353.37 217.658 1353.37C218.606 1353.37 219.452 1353.58 220.196 1354C220.952 1354.41 221.54 1354.98 221.96 1355.73C222.392 1356.46 222.608 1357.29 222.608 1358.23C222.608 1359.17 222.392 1360.01 221.96 1360.75C221.54 1361.48 220.952 1362.06 220.196 1362.48C219.452 1362.9 218.606 1363.11 217.658 1363.11ZM217.658 1361.6C218.27 1361.6 218.816 1361.46 219.296 1361.18C219.788 1360.89 220.172 1360.5 220.448 1359.99C220.724 1359.48 220.862 1358.89 220.862 1358.23C220.862 1357.57 220.724 1356.99 220.448 1356.48C220.172 1355.97 219.788 1355.57 219.296 1355.3C218.816 1355.02 218.27 1354.88 217.658 1354.88C217.046 1354.88 216.494 1355.02 216.002 1355.3C215.522 1355.57 215.138 1355.97 214.85 1356.48C214.574 1356.99 214.436 1357.57 214.436 1358.23C214.436 1358.89 214.574 1359.48 214.85 1359.99C215.138 1360.5 215.522 1360.89 216.002 1361.18C216.494 1361.46 217.046 1361.6 217.658 1361.6ZM236.931 1353.37C238.131 1353.37 239.079 1353.72 239.775 1354.41C240.483 1355.11 240.837 1356.14 240.837 1357.51V1363H239.109V1357.71C239.109 1356.78 238.893 1356.09 238.461 1355.62C238.041 1355.15 237.435 1354.92 236.643 1354.92C235.767 1354.92 235.071 1355.19 234.555 1355.75C234.039 1356.29 233.781 1357.07 233.781 1358.09V1363H232.053V1357.71C232.053 1356.78 231.837 1356.09 231.405 1355.62C230.985 1355.15 230.379 1354.92 229.587 1354.92C228.711 1354.92 228.015 1355.19 227.499 1355.75C226.983 1356.29 226.725 1357.07 226.725 1358.09V1363H224.997V1353.46H226.653V1354.88C227.001 1354.39 227.457 1354.02 228.021 1353.77C228.585 1353.5 229.227 1353.37 229.947 1353.37C230.691 1353.37 231.351 1353.52 231.927 1353.82C232.503 1354.12 232.947 1354.56 233.259 1355.13C233.619 1354.58 234.117 1354.15 234.753 1353.84C235.401 1353.53 236.127 1353.37 236.931 1353.37ZM248.156 1363.11C247.208 1363.11 246.356 1362.9 245.6 1362.48C244.844 1362.06 244.25 1361.48 243.818 1360.75C243.398 1360.01 243.188 1359.17 243.188 1358.23C243.188 1357.29 243.398 1356.46 243.818 1355.73C244.25 1354.98 244.844 1354.41 245.6 1354C246.356 1353.58 247.208 1353.37 248.156 1353.37C249.104 1353.37 249.95 1353.58 250.694 1354C251.45 1354.41 252.038 1354.98 252.458 1355.73C252.89 1356.46 253.106 1357.29 253.106 1358.23C253.106 1359.17 252.89 1360.01 252.458 1360.75C252.038 1361.48 251.45 1362.06 250.694 1362.48C249.95 1362.9 249.104 1363.11 248.156 1363.11ZM248.156 1361.6C248.768 1361.6 249.314 1361.46 249.794 1361.18C250.286 1360.89 250.67 1360.5 250.946 1359.99C251.222 1359.48 251.36 1358.89 251.36 1358.23C251.36 1357.57 251.222 1356.99 250.946 1356.48C250.67 1355.97 250.286 1355.57 249.794 1355.3C249.314 1355.02 248.768 1354.88 248.156 1354.88C247.544 1354.88 246.992 1355.02 246.5 1355.3C246.02 1355.57 245.636 1355.97 245.348 1356.48C245.072 1356.99 244.934 1357.57 244.934 1358.23C244.934 1358.89 245.072 1359.48 245.348 1359.99C245.636 1360.5 246.02 1360.89 246.5 1361.18C246.992 1361.46 247.544 1361.6 248.156 1361.6ZM260.859 1362.44C260.607 1362.66 260.295 1362.83 259.923 1362.95C259.551 1363.05 259.167 1363.11 258.771 1363.11C257.811 1363.11 257.067 1362.85 256.539 1362.33C256.011 1361.82 255.747 1361.08 255.747 1360.12V1354.88H254.127V1353.46H255.747V1351.37H257.475V1353.46H260.211V1354.88H257.475V1360.05C257.475 1360.56 257.601 1360.96 257.853 1361.24C258.117 1361.51 258.489 1361.65 258.969 1361.65C259.497 1361.65 259.947 1361.5 260.319 1361.2L260.859 1362.44ZM271.254 1358.28C271.254 1358.42 271.242 1358.59 271.218 1358.81H263.478C263.586 1359.65 263.952 1360.32 264.576 1360.84C265.212 1361.34 265.998 1361.6 266.934 1361.6C268.074 1361.6 268.992 1361.21 269.688 1360.44L270.642 1361.56C270.21 1362.06 269.67 1362.45 269.022 1362.71C268.386 1362.98 267.672 1363.11 266.88 1363.11C265.872 1363.11 264.978 1362.9 264.198 1362.5C263.418 1362.08 262.812 1361.49 262.38 1360.75C261.96 1360.01 261.75 1359.17 261.75 1358.23C261.75 1357.31 261.954 1356.47 262.362 1355.73C262.782 1354.98 263.352 1354.41 264.072 1354C264.804 1353.58 265.626 1353.37 266.538 1353.37C267.45 1353.37 268.26 1353.58 268.968 1354C269.688 1354.41 270.246 1354.98 270.642 1355.73C271.05 1356.47 271.254 1357.32 271.254 1358.28ZM266.538 1354.83C265.71 1354.83 265.014 1355.08 264.45 1355.58C263.898 1356.09 263.574 1356.75 263.478 1357.56H269.598C269.502 1356.76 269.172 1356.11 268.608 1355.6C268.056 1355.09 267.366 1354.83 266.538 1354.83ZM275.31 1355.06C275.61 1354.51 276.054 1354.09 276.642 1353.8C277.23 1353.51 277.944 1353.37 278.784 1353.37V1355.04C278.688 1355.03 278.556 1355.03 278.388 1355.03C277.452 1355.03 276.714 1355.31 276.174 1355.87C275.646 1356.42 275.382 1357.22 275.382 1358.25V1363H273.654V1353.46H275.31V1355.06ZM289.002 1350.4V1363H287.22V1351.97H284.376V1350.4H289.002Z" fill="black"/>
<path d="M1316.07 1350.4C1317.7 1350.4 1318.99 1350.79 1319.92 1351.57C1320.86 1352.35 1321.33 1353.42 1321.33 1354.79C1321.33 1356.16 1320.86 1357.23 1319.92 1358.01C1318.99 1358.79 1317.7 1359.18 1316.07 1359.18H1312.96V1363H1311.16V1350.4H1316.07ZM1316.02 1357.62C1317.16 1357.62 1318.03 1357.38 1318.63 1356.9C1319.23 1356.41 1319.53 1355.7 1319.53 1354.79C1319.53 1353.88 1319.23 1353.18 1318.63 1352.7C1318.03 1352.21 1317.16 1351.97 1316.02 1351.97H1312.96V1357.62H1316.02ZM1325.22 1355.06C1325.52 1354.51 1325.96 1354.09 1326.55 1353.8C1327.14 1353.51 1327.85 1353.37 1328.69 1353.37V1355.04C1328.6 1355.03 1328.46 1355.03 1328.3 1355.03C1327.36 1355.03 1326.62 1355.31 1326.08 1355.87C1325.55 1356.42 1325.29 1357.22 1325.29 1358.25V1363H1323.56V1353.46H1325.22V1355.06ZM1334.82 1363.11C1333.87 1363.11 1333.02 1362.9 1332.26 1362.48C1331.51 1362.06 1330.91 1361.48 1330.48 1360.75C1330.06 1360.01 1329.85 1359.17 1329.85 1358.23C1329.85 1357.29 1330.06 1356.46 1330.48 1355.73C1330.91 1354.98 1331.51 1354.41 1332.26 1354C1333.02 1353.58 1333.87 1353.37 1334.82 1353.37C1335.77 1353.37 1336.61 1353.58 1337.36 1354C1338.11 1354.41 1338.7 1354.98 1339.12 1355.73C1339.55 1356.46 1339.77 1357.29 1339.77 1358.23C1339.77 1359.17 1339.55 1360.01 1339.12 1360.75C1338.7 1361.48 1338.11 1362.06 1337.36 1362.48C1336.61 1362.9 1335.77 1363.11 1334.82 1363.11ZM1334.82 1361.6C1335.43 1361.6 1335.98 1361.46 1336.46 1361.18C1336.95 1360.89 1337.33 1360.5 1337.61 1359.99C1337.89 1359.48 1338.02 1358.89 1338.02 1358.23C1338.02 1357.57 1337.89 1356.99 1337.61 1356.48C1337.33 1355.97 1336.95 1355.57 1336.46 1355.3C1335.98 1355.02 1335.43 1354.88 1334.82 1354.88C1334.21 1354.88 1333.66 1355.02 1333.16 1355.3C1332.68 1355.57 1332.3 1355.97 1332.01 1356.48C1331.74 1356.99 1331.6 1357.57 1331.6 1358.23C1331.6 1358.89 1331.74 1359.48 1332.01 1359.99C1332.3 1360.5 1332.68 1360.89 1333.16 1361.18C1333.66 1361.46 1334.21 1361.6 1334.82 1361.6ZM1354.09 1353.37C1355.29 1353.37 1356.24 1353.72 1356.94 1354.41C1357.65 1355.11 1358 1356.14 1358 1357.51V1363H1356.27V1357.71C1356.27 1356.78 1356.06 1356.09 1355.62 1355.62C1355.2 1355.15 1354.6 1354.92 1353.81 1354.92C1352.93 1354.92 1352.23 1355.19 1351.72 1355.75C1351.2 1356.29 1350.94 1357.07 1350.94 1358.09V1363H1349.22V1357.71C1349.22 1356.78 1349 1356.09 1348.57 1355.62C1348.15 1355.15 1347.54 1354.92 1346.75 1354.92C1345.87 1354.92 1345.18 1355.19 1344.66 1355.75C1344.15 1356.29 1343.89 1357.07 1343.89 1358.09V1363H1342.16V1353.46H1343.82V1354.88C1344.16 1354.39 1344.62 1354.02 1345.18 1353.77C1345.75 1353.5 1346.39 1353.37 1347.11 1353.37C1347.85 1353.37 1348.51 1353.52 1349.09 1353.82C1349.67 1354.12 1350.11 1354.56 1350.42 1355.13C1350.78 1354.58 1351.28 1354.15 1351.92 1353.84C1352.56 1353.53 1353.29 1353.37 1354.09 1353.37ZM1365.32 1363.11C1364.37 1363.11 1363.52 1362.9 1362.76 1362.48C1362.01 1362.06 1361.41 1361.48 1360.98 1360.75C1360.56 1360.01 1360.35 1359.17 1360.35 1358.23C1360.35 1357.29 1360.56 1356.46 1360.98 1355.73C1361.41 1354.98 1362.01 1354.41 1362.76 1354C1363.52 1353.58 1364.37 1353.37 1365.32 1353.37C1366.27 1353.37 1367.11 1353.58 1367.86 1354C1368.61 1354.41 1369.2 1354.98 1369.62 1355.73C1370.05 1356.46 1370.27 1357.29 1370.27 1358.23C1370.27 1359.17 1370.05 1360.01 1369.62 1360.75C1369.2 1361.48 1368.61 1362.06 1367.86 1362.48C1367.11 1362.9 1366.27 1363.11 1365.32 1363.11ZM1365.32 1361.6C1365.93 1361.6 1366.48 1361.46 1366.96 1361.18C1367.45 1360.89 1367.83 1360.5 1368.11 1359.99C1368.38 1359.48 1368.52 1358.89 1368.52 1358.23C1368.52 1357.57 1368.38 1356.99 1368.11 1356.48C1367.83 1355.97 1367.45 1355.57 1366.96 1355.3C1366.48 1355.02 1365.93 1354.88 1365.32 1354.88C1364.71 1354.88 1364.15 1355.02 1363.66 1355.3C1363.18 1355.57 1362.8 1355.97 1362.51 1356.48C1362.23 1356.99 1362.1 1357.57 1362.1 1358.23C1362.1 1358.89 1362.23 1359.48 1362.51 1359.99C1362.8 1360.5 1363.18 1360.89 1363.66 1361.18C1364.15 1361.46 1364.71 1361.6 1365.32 1361.6ZM1378.02 1362.44C1377.77 1362.66 1377.46 1362.83 1377.09 1362.95C1376.71 1363.05 1376.33 1363.11 1375.93 1363.11C1374.97 1363.11 1374.23 1362.85 1373.7 1362.33C1373.17 1361.82 1372.91 1361.08 1372.91 1360.12V1354.88H1371.29V1353.46H1372.91V1351.37H1374.64V1353.46H1377.37V1354.88H1374.64V1360.05C1374.64 1360.56 1374.76 1360.96 1375.02 1361.24C1375.28 1361.51 1375.65 1361.65 1376.13 1361.65C1376.66 1361.65 1377.11 1361.5 1377.48 1361.2L1378.02 1362.44ZM1388.42 1358.28C1388.42 1358.42 1388.41 1358.59 1388.38 1358.81H1380.64C1380.75 1359.65 1381.12 1360.32 1381.74 1360.84C1382.38 1361.34 1383.16 1361.6 1384.1 1361.6C1385.24 1361.6 1386.16 1361.21 1386.85 1360.44L1387.81 1361.56C1387.37 1362.06 1386.83 1362.45 1386.19 1362.71C1385.55 1362.98 1384.84 1363.11 1384.04 1363.11C1383.04 1363.11 1382.14 1362.9 1381.36 1362.5C1380.58 1362.08 1379.98 1361.49 1379.54 1360.75C1379.12 1360.01 1378.91 1359.17 1378.91 1358.23C1378.91 1357.31 1379.12 1356.47 1379.53 1355.73C1379.95 1354.98 1380.52 1354.41 1381.24 1354C1381.97 1353.58 1382.79 1353.37 1383.7 1353.37C1384.61 1353.37 1385.42 1353.58 1386.13 1354C1386.85 1354.41 1387.41 1354.98 1387.81 1355.73C1388.21 1356.47 1388.42 1357.32 1388.42 1358.28ZM1383.7 1354.83C1382.87 1354.83 1382.18 1355.08 1381.61 1355.58C1381.06 1356.09 1380.74 1356.75 1380.64 1357.56H1386.76C1386.67 1356.76 1386.34 1356.11 1385.77 1355.6C1385.22 1355.09 1384.53 1354.83 1383.7 1354.83ZM1392.47 1355.06C1392.77 1354.51 1393.22 1354.09 1393.8 1353.8C1394.39 1353.51 1395.11 1353.37 1395.95 1353.37V1355.04C1395.85 1355.03 1395.72 1355.03 1395.55 1355.03C1394.61 1355.03 1393.88 1355.31 1393.34 1355.87C1392.81 1356.42 1392.54 1357.22 1392.54 1358.25V1363H1390.82V1353.46H1392.47V1355.06ZM1411.12 1361.43V1363H1402.06V1361.78L1407.19 1356.83C1407.82 1356.23 1408.24 1355.71 1408.45 1355.28C1408.67 1354.83 1408.78 1354.39 1408.78 1353.95C1408.78 1353.29 1408.54 1352.78 1408.07 1352.42C1407.62 1352.04 1406.96 1351.86 1406.09 1351.86C1404.7 1351.86 1403.63 1352.31 1402.87 1353.23L1401.65 1352.16C1402.14 1351.56 1402.78 1351.1 1403.57 1350.76C1404.38 1350.42 1405.27 1350.26 1406.26 1350.26C1407.58 1350.26 1408.63 1350.57 1409.41 1351.21C1410.19 1351.83 1410.58 1352.69 1410.58 1353.77C1410.58 1354.44 1410.43 1355.07 1410.14 1355.67C1409.86 1356.27 1409.31 1356.96 1408.51 1357.73L1404.65 1361.43H1411.12Z" fill="black"/>
<path d="M429.562 1363.14C428.614 1363.14 427.696 1363 426.808 1362.71C425.932 1362.41 425.242 1362.03 424.738 1361.56L425.404 1360.16C425.884 1360.59 426.496 1360.94 427.24 1361.22C427.996 1361.48 428.77 1361.61 429.562 1361.61C430.606 1361.61 431.386 1361.44 431.902 1361.09C432.418 1360.73 432.676 1360.26 432.676 1359.67C432.676 1359.24 432.532 1358.89 432.244 1358.63C431.968 1358.35 431.62 1358.14 431.2 1358C430.792 1357.85 430.21 1357.69 429.454 1357.51C428.506 1357.28 427.738 1357.05 427.15 1356.83C426.574 1356.6 426.076 1356.25 425.656 1355.78C425.248 1355.3 425.044 1354.66 425.044 1353.86C425.044 1353.18 425.218 1352.58 425.566 1352.04C425.926 1351.5 426.466 1351.07 427.186 1350.74C427.906 1350.42 428.8 1350.26 429.868 1350.26C430.612 1350.26 431.344 1350.35 432.064 1350.54C432.784 1350.74 433.402 1351.01 433.918 1351.37L433.324 1352.81C432.796 1352.48 432.232 1352.22 431.632 1352.06C431.032 1351.88 430.444 1351.79 429.868 1351.79C428.848 1351.79 428.08 1351.97 427.564 1352.34C427.06 1352.72 426.808 1353.2 426.808 1353.78C426.808 1354.22 426.952 1354.57 427.24 1354.85C427.528 1355.11 427.882 1355.32 428.302 1355.48C428.734 1355.62 429.316 1355.78 430.048 1355.94C430.996 1356.17 431.758 1356.4 432.334 1356.63C432.91 1356.86 433.402 1357.2 433.81 1357.67C434.23 1358.14 434.44 1358.77 434.44 1359.56C434.44 1360.22 434.26 1360.83 433.9 1361.38C433.54 1361.92 432.994 1362.35 432.262 1362.68C431.53 1362.99 430.63 1363.14 429.562 1363.14ZM436.818 1353.46H438.546V1363H436.818V1353.46ZM437.682 1351.62C437.346 1351.62 437.064 1351.52 436.836 1351.3C436.62 1351.08 436.512 1350.82 436.512 1350.51C436.512 1350.2 436.62 1349.93 436.836 1349.72C437.064 1349.49 437.346 1349.37 437.682 1349.37C438.018 1349.37 438.294 1349.48 438.51 1349.7C438.738 1349.9 438.852 1350.16 438.852 1350.47C438.852 1350.8 438.738 1351.07 438.51 1351.3C438.294 1351.52 438.018 1351.62 437.682 1351.62ZM447.209 1362.44C446.957 1362.66 446.645 1362.83 446.273 1362.95C445.901 1363.05 445.517 1363.11 445.121 1363.11C444.161 1363.11 443.417 1362.85 442.889 1362.33C442.361 1361.82 442.097 1361.08 442.097 1360.12V1354.88H440.477V1353.46H442.097V1351.37H443.825V1353.46H446.561V1354.88H443.825V1360.05C443.825 1360.56 443.951 1360.96 444.203 1361.24C444.467 1361.51 444.839 1361.65 445.319 1361.65C445.847 1361.65 446.297 1361.5 446.669 1361.2L447.209 1362.44ZM457.604 1358.28C457.604 1358.42 457.592 1358.59 457.568 1358.81H449.828C449.936 1359.65 450.302 1360.32 450.926 1360.84C451.562 1361.34 452.348 1361.6 453.284 1361.6C454.424 1361.6 455.342 1361.21 456.038 1360.44L456.992 1361.56C456.56 1362.06 456.02 1362.45 455.372 1362.71C454.736 1362.98 454.022 1363.11 453.23 1363.11C452.222 1363.11 451.328 1362.9 450.548 1362.5C449.768 1362.08 449.162 1361.49 448.73 1360.75C448.31 1360.01 448.1 1359.17 448.1 1358.23C448.1 1357.31 448.304 1356.47 448.712 1355.73C449.132 1354.98 449.702 1354.41 450.422 1354C451.154 1353.58 451.976 1353.37 452.888 1353.37C453.8 1353.37 454.61 1353.58 455.318 1354C456.038 1354.41 456.596 1354.98 456.992 1355.73C457.4 1356.47 457.604 1357.32 457.604 1358.28ZM452.888 1354.83C452.06 1354.83 451.364 1355.08 450.8 1355.58C450.248 1356.09 449.924 1356.75 449.828 1357.56H455.948C455.852 1356.76 455.522 1356.11 454.958 1355.6C454.406 1355.09 453.716 1354.83 452.888 1354.83ZM467.969 1350.4V1363H466.187V1351.97H463.343V1350.4H467.969Z" fill="black"/>
<path d="M520.314 1363L517.596 1359.13C517.26 1359.15 516.996 1359.17 516.804 1359.17H513.69V1363H511.89V1350.4H516.804C518.436 1350.4 519.72 1350.79 520.656 1351.57C521.592 1352.35 522.06 1353.42 522.06 1354.79C522.06 1355.76 521.82 1356.59 521.34 1357.28C520.86 1357.96 520.176 1358.46 519.288 1358.77L522.276 1363H520.314ZM516.75 1357.64C517.89 1357.64 518.76 1357.39 519.36 1356.9C519.96 1356.41 520.26 1355.7 520.26 1354.79C520.26 1353.88 519.96 1353.18 519.36 1352.7C518.76 1352.21 517.89 1351.97 516.75 1351.97H513.69V1357.64H516.75ZM533.338 1358.28C533.338 1358.42 533.326 1358.59 533.302 1358.81H525.562C525.67 1359.65 526.036 1360.32 526.66 1360.84C527.296 1361.34 528.082 1361.6 529.018 1361.6C530.158 1361.6 531.076 1361.21 531.772 1360.44L532.726 1361.56C532.294 1362.06 531.754 1362.45 531.106 1362.71C530.47 1362.98 529.756 1363.11 528.964 1363.11C527.956 1363.11 527.062 1362.9 526.282 1362.5C525.502 1362.08 524.896 1361.49 524.464 1360.75C524.044 1360.01 523.834 1359.17 523.834 1358.23C523.834 1357.31 524.038 1356.47 524.446 1355.73C524.866 1354.98 525.436 1354.41 526.156 1354C526.888 1353.58 527.71 1353.37 528.622 1353.37C529.534 1353.37 530.344 1353.58 531.052 1354C531.772 1354.41 532.33 1354.98 532.726 1355.73C533.134 1356.47 533.338 1357.32 533.338 1358.28ZM528.622 1354.83C527.794 1354.83 527.098 1355.08 526.534 1355.58C525.982 1356.09 525.658 1356.75 525.562 1357.56H531.682C531.586 1356.76 531.256 1356.11 530.692 1355.6C530.14 1355.09 529.45 1354.83 528.622 1354.83ZM539.896 1363.11C538.924 1363.11 538.054 1362.9 537.286 1362.48C536.53 1362.06 535.936 1361.48 535.504 1360.75C535.072 1360.01 534.856 1359.17 534.856 1358.23C534.856 1357.29 535.072 1356.46 535.504 1355.73C535.936 1354.98 536.53 1354.41 537.286 1354C538.054 1353.58 538.924 1353.37 539.896 1353.37C540.76 1353.37 541.528 1353.54 542.2 1353.89C542.884 1354.24 543.412 1354.74 543.784 1355.4L542.47 1356.25C542.17 1355.79 541.798 1355.45 541.354 1355.22C540.91 1355 540.418 1354.88 539.878 1354.88C539.254 1354.88 538.69 1355.02 538.186 1355.3C537.694 1355.57 537.304 1355.97 537.016 1356.48C536.74 1356.99 536.602 1357.57 536.602 1358.23C536.602 1358.9 536.74 1359.5 537.016 1360.01C537.304 1360.52 537.694 1360.91 538.186 1361.18C538.69 1361.46 539.254 1361.6 539.878 1361.6C540.418 1361.6 540.91 1361.48 541.354 1361.25C541.798 1361.03 542.17 1360.68 542.47 1360.23L543.784 1361.06C543.412 1361.72 542.884 1362.23 542.2 1362.59C541.528 1362.93 540.76 1363.11 539.896 1363.11ZM553.987 1350.4V1363H552.205V1351.97H549.361V1350.4H553.987Z" fill="black"/>
<path d="M630.314 1363L627.596 1359.13C627.26 1359.15 626.996 1359.17 626.804 1359.17H623.69V1363H621.89V1350.4H626.804C628.436 1350.4 629.72 1350.79 630.656 1351.57C631.592 1352.35 632.06 1353.42 632.06 1354.79C632.06 1355.76 631.82 1356.59 631.34 1357.28C630.86 1357.96 630.176 1358.46 629.288 1358.77L632.276 1363H630.314ZM626.75 1357.64C627.89 1357.64 628.76 1357.39 629.36 1356.9C629.96 1356.41 630.26 1355.7 630.26 1354.79C630.26 1353.88 629.96 1353.18 629.36 1352.7C628.76 1352.21 627.89 1351.97 626.75 1351.97H623.69V1357.64H626.75ZM636.768 1351.97V1356.36H643.086V1357.91H636.768V1363H634.968V1350.4H643.86V1351.97H636.768ZM651.308 1350.4C652.94 1350.4 654.224 1350.79 655.16 1351.57C656.096 1352.35 656.564 1353.42 656.564 1354.79C656.564 1356.16 656.096 1357.23 655.16 1358.01C654.224 1358.79 652.94 1359.18 651.308 1359.18H648.194V1363H646.394V1350.4H651.308ZM651.254 1357.62C652.394 1357.62 653.264 1357.38 653.864 1356.9C654.464 1356.41 654.764 1355.7 654.764 1354.79C654.764 1353.88 654.464 1353.18 653.864 1352.7C653.264 1352.21 652.394 1351.97 651.254 1351.97H648.194V1357.62H651.254Z" fill="black"/>
<path d="M754.562 1363.14C753.614 1363.14 752.696 1363 751.808 1362.71C750.932 1362.41 750.242 1362.03 749.738 1361.56L750.404 1360.16C750.884 1360.59 751.496 1360.94 752.24 1361.22C752.996 1361.48 753.77 1361.61 754.562 1361.61C755.606 1361.61 756.386 1361.44 756.902 1361.09C757.418 1360.73 757.676 1360.26 757.676 1359.67C757.676 1359.24 757.532 1358.89 757.244 1358.63C756.968 1358.35 756.62 1358.14 756.2 1358C755.792 1357.85 755.21 1357.69 754.454 1357.51C753.506 1357.28 752.738 1357.05 752.15 1356.83C751.574 1356.6 751.076 1356.25 750.656 1355.78C750.248 1355.3 750.044 1354.66 750.044 1353.86C750.044 1353.18 750.218 1352.58 750.566 1352.04C750.926 1351.5 751.466 1351.07 752.186 1350.74C752.906 1350.42 753.8 1350.26 754.868 1350.26C755.612 1350.26 756.344 1350.35 757.064 1350.54C757.784 1350.74 758.402 1351.01 758.918 1351.37L758.324 1352.81C757.796 1352.48 757.232 1352.22 756.632 1352.06C756.032 1351.88 755.444 1351.79 754.868 1351.79C753.848 1351.79 753.08 1351.97 752.564 1352.34C752.06 1352.72 751.808 1353.2 751.808 1353.78C751.808 1354.22 751.952 1354.57 752.24 1354.85C752.528 1355.11 752.882 1355.32 753.302 1355.48C753.734 1355.62 754.316 1355.78 755.048 1355.94C755.996 1356.17 756.758 1356.4 757.334 1356.63C757.91 1356.86 758.402 1357.2 758.81 1357.67C759.23 1358.14 759.44 1358.77 759.44 1359.56C759.44 1360.22 759.26 1360.83 758.9 1361.38C758.54 1361.92 757.994 1362.35 757.262 1362.68C756.53 1362.99 755.63 1363.14 754.562 1363.14ZM761.818 1353.46H763.546V1363H761.818V1353.46ZM762.682 1351.62C762.346 1351.62 762.064 1351.52 761.836 1351.3C761.62 1351.08 761.512 1350.82 761.512 1350.51C761.512 1350.2 761.62 1349.93 761.836 1349.72C762.064 1349.49 762.346 1349.37 762.682 1349.37C763.018 1349.37 763.294 1349.48 763.51 1349.7C763.738 1349.9 763.852 1350.16 763.852 1350.47C763.852 1350.8 763.738 1351.07 763.51 1351.3C763.294 1351.52 763.018 1351.62 762.682 1351.62ZM772.209 1362.44C771.957 1362.66 771.645 1362.83 771.273 1362.95C770.901 1363.05 770.517 1363.11 770.121 1363.11C769.161 1363.11 768.417 1362.85 767.889 1362.33C767.361 1361.82 767.097 1361.08 767.097 1360.12V1354.88H765.477V1353.46H767.097V1351.37H768.825V1353.46H771.561V1354.88H768.825V1360.05C768.825 1360.56 768.951 1360.96 769.203 1361.24C769.467 1361.51 769.839 1361.65 770.319 1361.65C770.847 1361.65 771.297 1361.5 771.669 1361.2L772.209 1362.44ZM782.604 1358.28C782.604 1358.42 782.592 1358.59 782.568 1358.81H774.828C774.936 1359.65 775.302 1360.32 775.926 1360.84C776.562 1361.34 777.348 1361.6 778.284 1361.6C779.424 1361.6 780.342 1361.21 781.038 1360.44L781.992 1361.56C781.56 1362.06 781.02 1362.45 780.372 1362.71C779.736 1362.98 779.022 1363.11 778.23 1363.11C777.222 1363.11 776.328 1362.9 775.548 1362.5C774.768 1362.08 774.162 1361.49 773.73 1360.75C773.31 1360.01 773.1 1359.17 773.1 1358.23C773.1 1357.31 773.304 1356.47 773.712 1355.73C774.132 1354.98 774.702 1354.41 775.422 1354C776.154 1353.58 776.976 1353.37 777.888 1353.37C778.8 1353.37 779.61 1353.58 780.318 1354C781.038 1354.41 781.596 1354.98 781.992 1355.73C782.4 1356.47 782.604 1357.32 782.604 1358.28ZM777.888 1354.83C777.06 1354.83 776.364 1355.08 775.8 1355.58C775.248 1356.09 774.924 1356.75 774.828 1357.56H780.948C780.852 1356.76 780.522 1356.11 779.958 1355.6C779.406 1355.09 778.716 1354.83 777.888 1354.83ZM792.969 1350.4V1363H791.187V1351.97H788.343V1350.4H792.969Z" fill="black"/>
<path d="M822.562 1363.14C821.614 1363.14 820.696 1363 819.808 1362.71C818.932 1362.41 818.242 1362.03 817.738 1361.56L818.404 1360.16C818.884 1360.59 819.496 1360.94 820.24 1361.22C820.996 1361.48 821.77 1361.61 822.562 1361.61C823.606 1361.61 824.386 1361.44 824.902 1361.09C825.418 1360.73 825.676 1360.26 825.676 1359.67C825.676 1359.24 825.532 1358.89 825.244 1358.63C824.968 1358.35 824.62 1358.14 824.2 1358C823.792 1357.85 823.21 1357.69 822.454 1357.51C821.506 1357.28 820.738 1357.05 820.15 1356.83C819.574 1356.6 819.076 1356.25 818.656 1355.78C818.248 1355.3 818.044 1354.66 818.044 1353.86C818.044 1353.18 818.218 1352.58 818.566 1352.04C818.926 1351.5 819.466 1351.07 820.186 1350.74C820.906 1350.42 821.8 1350.26 822.868 1350.26C823.612 1350.26 824.344 1350.35 825.064 1350.54C825.784 1350.74 826.402 1351.01 826.918 1351.37L826.324 1352.81C825.796 1352.48 825.232 1352.22 824.632 1352.06C824.032 1351.88 823.444 1351.79 822.868 1351.79C821.848 1351.79 821.08 1351.97 820.564 1352.34C820.06 1352.72 819.808 1353.2 819.808 1353.78C819.808 1354.22 819.952 1354.57 820.24 1354.85C820.528 1355.11 820.882 1355.32 821.302 1355.48C821.734 1355.62 822.316 1355.78 823.048 1355.94C823.996 1356.17 824.758 1356.4 825.334 1356.63C825.91 1356.86 826.402 1357.2 826.81 1357.67C827.23 1358.14 827.44 1358.77 827.44 1359.56C827.44 1360.22 827.26 1360.83 826.9 1361.38C826.54 1361.92 825.994 1362.35 825.262 1362.68C824.53 1362.99 823.63 1363.14 822.562 1363.14ZM829.818 1353.46H831.546V1363H829.818V1353.46ZM830.682 1351.62C830.346 1351.62 830.064 1351.52 829.836 1351.3C829.62 1351.08 829.512 1350.82 829.512 1350.51C829.512 1350.2 829.62 1349.93 829.836 1349.72C830.064 1349.49 830.346 1349.37 830.682 1349.37C831.018 1349.37 831.294 1349.48 831.51 1349.7C831.738 1349.9 831.852 1350.16 831.852 1350.47C831.852 1350.8 831.738 1351.07 831.51 1351.3C831.294 1351.52 831.018 1351.62 830.682 1351.62ZM840.209 1362.44C839.957 1362.66 839.645 1362.83 839.273 1362.95C838.901 1363.05 838.517 1363.11 838.121 1363.11C837.161 1363.11 836.417 1362.85 835.889 1362.33C835.361 1361.82 835.097 1361.08 835.097 1360.12V1354.88H833.477V1353.46H835.097V1351.37H836.825V1353.46H839.561V1354.88H836.825V1360.05C836.825 1360.56 836.951 1360.96 837.203 1361.24C837.467 1361.51 837.839 1361.65 838.319 1361.65C838.847 1361.65 839.297 1361.5 839.669 1361.2L840.209 1362.44ZM850.604 1358.28C850.604 1358.42 850.592 1358.59 850.568 1358.81H842.828C842.936 1359.65 843.302 1360.32 843.926 1360.84C844.562 1361.34 845.348 1361.6 846.284 1361.6C847.424 1361.6 848.342 1361.21 849.038 1360.44L849.992 1361.56C849.56 1362.06 849.02 1362.45 848.372 1362.71C847.736 1362.98 847.022 1363.11 846.23 1363.11C845.222 1363.11 844.328 1362.9 843.548 1362.5C842.768 1362.08 842.162 1361.49 841.73 1360.75C841.31 1360.01 841.1 1359.17 841.1 1358.23C841.1 1357.31 841.304 1356.47 841.712 1355.73C842.132 1354.98 842.702 1354.41 843.422 1354C844.154 1353.58 844.976 1353.37 845.888 1353.37C846.8 1353.37 847.61 1353.58 848.318 1354C849.038 1354.41 849.596 1354.98 849.992 1355.73C850.4 1356.47 850.604 1357.32 850.604 1358.28ZM845.888 1354.83C845.06 1354.83 844.364 1355.08 843.8 1355.58C843.248 1356.09 842.924 1356.75 842.828 1357.56H848.948C848.852 1356.76 848.522 1356.11 847.958 1355.6C847.406 1355.09 846.716 1354.83 845.888 1354.83ZM865.919 1361.43V1363H856.865V1361.78L861.995 1356.83C862.619 1356.23 863.039 1355.71 863.255 1355.28C863.471 1354.83 863.579 1354.39 863.579 1353.95C863.579 1353.29 863.345 1352.78 862.877 1352.42C862.421 1352.04 861.761 1351.86 860.897 1351.86C859.505 1351.86 858.431 1352.31 857.675 1353.23L856.451 1352.16C856.943 1351.56 857.585 1351.1 858.377 1350.76C859.181 1350.42 860.075 1350.26 861.059 1350.26C862.379 1350.26 863.429 1350.57 864.209 1351.21C864.989 1351.83 865.379 1352.69 865.379 1353.77C865.379 1354.44 865.235 1355.07 864.947 1355.67C864.659 1356.27 864.113 1356.96 863.309 1357.73L859.457 1361.43H865.919Z" fill="black"/>
<path d="M1208.56 1363.14C1207.61 1363.14 1206.7 1363 1205.81 1362.71C1204.93 1362.41 1204.24 1362.03 1203.74 1361.56L1204.4 1360.16C1204.88 1360.59 1205.5 1360.94 1206.24 1361.22C1207 1361.48 1207.77 1361.61 1208.56 1361.61C1209.61 1361.61 1210.39 1361.44 1210.9 1361.09C1211.42 1360.73 1211.68 1360.26 1211.68 1359.67C1211.68 1359.24 1211.53 1358.89 1211.24 1358.63C1210.97 1358.35 1210.62 1358.14 1210.2 1358C1209.79 1357.85 1209.21 1357.69 1208.45 1357.51C1207.51 1357.28 1206.74 1357.05 1206.15 1356.83C1205.57 1356.6 1205.08 1356.25 1204.66 1355.78C1204.25 1355.3 1204.04 1354.66 1204.04 1353.86C1204.04 1353.18 1204.22 1352.58 1204.57 1352.04C1204.93 1351.5 1205.47 1351.07 1206.19 1350.74C1206.91 1350.42 1207.8 1350.26 1208.87 1350.26C1209.61 1350.26 1210.34 1350.35 1211.06 1350.54C1211.78 1350.74 1212.4 1351.01 1212.92 1351.37L1212.32 1352.81C1211.8 1352.48 1211.23 1352.22 1210.63 1352.06C1210.03 1351.88 1209.44 1351.79 1208.87 1351.79C1207.85 1351.79 1207.08 1351.97 1206.56 1352.34C1206.06 1352.72 1205.81 1353.2 1205.81 1353.78C1205.81 1354.22 1205.95 1354.57 1206.24 1354.85C1206.53 1355.11 1206.88 1355.32 1207.3 1355.48C1207.73 1355.62 1208.32 1355.78 1209.05 1355.94C1210 1356.17 1210.76 1356.4 1211.33 1356.63C1211.91 1356.86 1212.4 1357.2 1212.81 1357.67C1213.23 1358.14 1213.44 1358.77 1213.44 1359.56C1213.44 1360.22 1213.26 1360.83 1212.9 1361.38C1212.54 1361.92 1211.99 1362.35 1211.26 1362.68C1210.53 1362.99 1209.63 1363.14 1208.56 1363.14ZM1215.82 1353.46H1217.55V1363H1215.82V1353.46ZM1216.68 1351.62C1216.35 1351.62 1216.06 1351.52 1215.84 1351.3C1215.62 1351.08 1215.51 1350.82 1215.51 1350.51C1215.51 1350.2 1215.62 1349.93 1215.84 1349.72C1216.06 1349.49 1216.35 1349.37 1216.68 1349.37C1217.02 1349.37 1217.29 1349.48 1217.51 1349.7C1217.74 1349.9 1217.85 1350.16 1217.85 1350.47C1217.85 1350.8 1217.74 1351.07 1217.51 1351.3C1217.29 1351.52 1217.02 1351.62 1216.68 1351.62ZM1226.21 1362.44C1225.96 1362.66 1225.65 1362.83 1225.27 1362.95C1224.9 1363.05 1224.52 1363.11 1224.12 1363.11C1223.16 1363.11 1222.42 1362.85 1221.89 1362.33C1221.36 1361.82 1221.1 1361.08 1221.1 1360.12V1354.88H1219.48V1353.46H1221.1V1351.37H1222.83V1353.46H1225.56V1354.88H1222.83V1360.05C1222.83 1360.56 1222.95 1360.96 1223.2 1361.24C1223.47 1361.51 1223.84 1361.65 1224.32 1361.65C1224.85 1361.65 1225.3 1361.5 1225.67 1361.2L1226.21 1362.44ZM1236.6 1358.28C1236.6 1358.42 1236.59 1358.59 1236.57 1358.81H1228.83C1228.94 1359.65 1229.3 1360.32 1229.93 1360.84C1230.56 1361.34 1231.35 1361.6 1232.28 1361.6C1233.42 1361.6 1234.34 1361.21 1235.04 1360.44L1235.99 1361.56C1235.56 1362.06 1235.02 1362.45 1234.37 1362.71C1233.74 1362.98 1233.02 1363.11 1232.23 1363.11C1231.22 1363.11 1230.33 1362.9 1229.55 1362.5C1228.77 1362.08 1228.16 1361.49 1227.73 1360.75C1227.31 1360.01 1227.1 1359.17 1227.1 1358.23C1227.1 1357.31 1227.3 1356.47 1227.71 1355.73C1228.13 1354.98 1228.7 1354.41 1229.42 1354C1230.15 1353.58 1230.98 1353.37 1231.89 1353.37C1232.8 1353.37 1233.61 1353.58 1234.32 1354C1235.04 1354.41 1235.6 1354.98 1235.99 1355.73C1236.4 1356.47 1236.6 1357.32 1236.6 1358.28ZM1231.89 1354.83C1231.06 1354.83 1230.36 1355.08 1229.8 1355.58C1229.25 1356.09 1228.92 1356.75 1228.83 1357.56H1234.95C1234.85 1356.76 1234.52 1356.11 1233.96 1355.6C1233.41 1355.09 1232.72 1354.83 1231.89 1354.83ZM1251.92 1361.43V1363H1242.87V1361.78L1248 1356.83C1248.62 1356.23 1249.04 1355.71 1249.26 1355.28C1249.47 1354.83 1249.58 1354.39 1249.58 1353.95C1249.58 1353.29 1249.35 1352.78 1248.88 1352.42C1248.42 1352.04 1247.76 1351.86 1246.9 1351.86C1245.51 1351.86 1244.43 1352.31 1243.68 1353.23L1242.45 1352.16C1242.94 1351.56 1243.59 1351.1 1244.38 1350.76C1245.18 1350.42 1246.08 1350.26 1247.06 1350.26C1248.38 1350.26 1249.43 1350.57 1250.21 1351.21C1250.99 1351.83 1251.38 1352.69 1251.38 1353.77C1251.38 1354.44 1251.24 1355.07 1250.95 1355.67C1250.66 1356.27 1250.11 1356.96 1249.31 1357.73L1245.46 1361.43H1251.92Z" fill="black"/>
<path d="M1475.31 1363L1472.6 1359.13C1472.26 1359.15 1472 1359.17 1471.8 1359.17H1468.69V1363H1466.89V1350.4H1471.8C1473.44 1350.4 1474.72 1350.79 1475.66 1351.57C1476.59 1352.35 1477.06 1353.42 1477.06 1354.79C1477.06 1355.76 1476.82 1356.59 1476.34 1357.28C1475.86 1357.96 1475.18 1358.46 1474.29 1358.77L1477.28 1363H1475.31ZM1471.75 1357.64C1472.89 1357.64 1473.76 1357.39 1474.36 1356.9C1474.96 1356.41 1475.26 1355.7 1475.26 1354.79C1475.26 1353.88 1474.96 1353.18 1474.36 1352.7C1473.76 1352.21 1472.89 1351.97 1471.75 1351.97H1468.69V1357.64H1471.75ZM1488.34 1358.28C1488.34 1358.42 1488.33 1358.59 1488.3 1358.81H1480.56C1480.67 1359.65 1481.04 1360.32 1481.66 1360.84C1482.3 1361.34 1483.08 1361.6 1484.02 1361.6C1485.16 1361.6 1486.08 1361.21 1486.77 1360.44L1487.73 1361.56C1487.29 1362.06 1486.75 1362.45 1486.11 1362.71C1485.47 1362.98 1484.76 1363.11 1483.96 1363.11C1482.96 1363.11 1482.06 1362.9 1481.28 1362.5C1480.5 1362.08 1479.9 1361.49 1479.46 1360.75C1479.04 1360.01 1478.83 1359.17 1478.83 1358.23C1478.83 1357.31 1479.04 1356.47 1479.45 1355.73C1479.87 1354.98 1480.44 1354.41 1481.16 1354C1481.89 1353.58 1482.71 1353.37 1483.62 1353.37C1484.53 1353.37 1485.34 1353.58 1486.05 1354C1486.77 1354.41 1487.33 1354.98 1487.73 1355.73C1488.13 1356.47 1488.34 1357.32 1488.34 1358.28ZM1483.62 1354.83C1482.79 1354.83 1482.1 1355.08 1481.53 1355.58C1480.98 1356.09 1480.66 1356.75 1480.56 1357.56H1486.68C1486.59 1356.76 1486.26 1356.11 1485.69 1355.6C1485.14 1355.09 1484.45 1354.83 1483.62 1354.83ZM1494.9 1363.11C1493.92 1363.11 1493.05 1362.9 1492.29 1362.48C1491.53 1362.06 1490.94 1361.48 1490.5 1360.75C1490.07 1360.01 1489.86 1359.17 1489.86 1358.23C1489.86 1357.29 1490.07 1356.46 1490.5 1355.73C1490.94 1354.98 1491.53 1354.41 1492.29 1354C1493.05 1353.58 1493.92 1353.37 1494.9 1353.37C1495.76 1353.37 1496.53 1353.54 1497.2 1353.89C1497.88 1354.24 1498.41 1354.74 1498.78 1355.4L1497.47 1356.25C1497.17 1355.79 1496.8 1355.45 1496.35 1355.22C1495.91 1355 1495.42 1354.88 1494.88 1354.88C1494.25 1354.88 1493.69 1355.02 1493.19 1355.3C1492.69 1355.57 1492.3 1355.97 1492.02 1356.48C1491.74 1356.99 1491.6 1357.57 1491.6 1358.23C1491.6 1358.9 1491.74 1359.5 1492.02 1360.01C1492.3 1360.52 1492.69 1360.91 1493.19 1361.18C1493.69 1361.46 1494.25 1361.6 1494.88 1361.6C1495.42 1361.6 1495.91 1361.48 1496.35 1361.25C1496.8 1361.03 1497.17 1360.68 1497.47 1360.23L1498.78 1361.06C1498.41 1361.72 1497.88 1362.23 1497.2 1362.59C1496.53 1362.93 1495.76 1363.11 1494.9 1363.11ZM1513.94 1361.43V1363H1504.88V1361.78L1510.01 1356.83C1510.64 1356.23 1511.06 1355.71 1511.27 1355.28C1511.49 1354.83 1511.6 1354.39 1511.6 1353.95C1511.6 1353.29 1511.36 1352.78 1510.89 1352.42C1510.44 1352.04 1509.78 1351.86 1508.91 1351.86C1507.52 1351.86 1506.45 1352.31 1505.69 1353.23L1504.47 1352.16C1504.96 1351.56 1505.6 1351.1 1506.39 1350.76C1507.2 1350.42 1508.09 1350.26 1509.08 1350.26C1510.4 1350.26 1511.45 1350.57 1512.23 1351.21C1513.01 1351.83 1513.4 1352.69 1513.4 1353.77C1513.4 1354.44 1513.25 1355.07 1512.96 1355.67C1512.68 1356.27 1512.13 1356.96 1511.33 1357.73L1507.47 1361.43H1513.94Z" fill="black"/>
<path d="M1123.62 1356.63H1125.35V1361.54C1124.72 1362.06 1124 1362.45 1123.17 1362.73C1122.34 1363.01 1121.48 1363.14 1120.58 1363.14C1119.31 1363.14 1118.16 1362.87 1117.14 1362.32C1116.12 1361.75 1115.32 1360.98 1114.73 1360.01C1114.15 1359.03 1113.86 1357.92 1113.86 1356.7C1113.86 1355.48 1114.15 1354.37 1114.73 1353.39C1115.32 1352.4 1116.12 1351.64 1117.14 1351.08C1118.17 1350.53 1119.33 1350.26 1120.61 1350.26C1121.62 1350.26 1122.53 1350.42 1123.35 1350.76C1124.18 1351.08 1124.88 1351.56 1125.46 1352.2L1124.34 1353.32C1123.33 1352.34 1122.11 1351.86 1120.69 1351.86C1119.73 1351.86 1118.86 1352.07 1118.09 1352.49C1117.34 1352.9 1116.74 1353.47 1116.31 1354.22C1115.88 1354.95 1115.66 1355.78 1115.66 1356.7C1115.66 1357.61 1115.88 1358.44 1116.31 1359.18C1116.74 1359.92 1117.34 1360.49 1118.09 1360.91C1118.86 1361.33 1119.72 1361.54 1120.67 1361.54C1121.8 1361.54 1122.78 1361.27 1123.62 1360.73V1356.63ZM1130.59 1351.97V1356.36H1136.91V1357.91H1130.59V1363H1128.79V1350.4H1137.69V1351.97H1130.59ZM1145.13 1350.4C1146.77 1350.4 1148.05 1350.79 1148.99 1351.57C1149.92 1352.35 1150.39 1353.42 1150.39 1354.79C1150.39 1356.16 1149.92 1357.23 1148.99 1358.01C1148.05 1358.79 1146.77 1359.18 1145.13 1359.18H1142.02V1363H1140.22V1350.4H1145.13ZM1145.08 1357.62C1146.22 1357.62 1147.09 1357.38 1147.69 1356.9C1148.29 1356.41 1148.59 1355.7 1148.59 1354.79C1148.59 1353.88 1148.29 1353.18 1147.69 1352.7C1147.09 1352.21 1146.22 1351.97 1145.08 1351.97H1142.02V1357.62H1145.08Z" fill="black"/>
<path d="M1039.99 1234.36V1230H1041.77V1234.39L1046.78 1242.6H1044.85L1040.82 1235.96L1036.77 1242.6H1034.99L1039.99 1234.36ZM1031.57 1241.03V1236.64H1025.25V1235.09H1031.57V1230H1033.37V1242.6H1024.48V1241.03H1031.57ZM1017.03 1242.6C1015.4 1242.6 1014.11 1242.21 1013.18 1241.43C1012.24 1240.65 1011.77 1239.58 1011.77 1238.21C1011.77 1236.84 1012.24 1235.77 1013.18 1234.99C1014.11 1234.21 1015.4 1233.82 1017.03 1233.82H1020.14V1230H1021.94V1242.6H1017.03ZM1017.08 1235.38C1015.94 1235.38 1015.07 1235.62 1014.47 1236.1C1013.87 1236.59 1013.57 1237.3 1013.57 1238.21C1013.57 1239.12 1013.87 1239.82 1014.47 1240.3C1015.07 1240.79 1015.94 1241.03 1017.08 1241.03H1020.14V1235.38H1017.08Z" fill="black"/>
<path d="M959.686 1231L962.404 1234.87C962.74 1234.85 963.004 1234.83 963.196 1234.83H966.31V1231H968.11V1243.6H963.196C961.564 1243.6 960.28 1243.21 959.344 1242.43C958.408 1241.65 957.94 1240.58 957.94 1239.21C957.94 1238.24 958.18 1237.41 958.66 1236.72C959.14 1236.04 959.824 1235.54 960.712 1235.23L957.724 1231H959.686ZM963.25 1236.36C962.11 1236.36 961.24 1236.61 960.64 1237.1C960.04 1237.59 959.74 1238.3 959.74 1239.21C959.74 1240.12 960.04 1240.82 960.64 1241.3C961.24 1241.79 962.11 1242.03 963.25 1242.03H966.31V1236.36H963.25ZM946.662 1235.72C946.662 1235.58 946.674 1235.41 946.698 1235.19H954.438C954.33 1234.35 953.964 1233.68 953.34 1233.16C952.704 1232.66 951.918 1232.4 950.982 1232.4C949.842 1232.4 948.924 1232.79 948.228 1233.56L947.274 1232.44C947.706 1231.94 948.246 1231.55 948.894 1231.29C949.53 1231.02 950.244 1230.89 951.036 1230.89C952.044 1230.89 952.938 1231.1 953.718 1231.5C954.498 1231.92 955.104 1232.51 955.536 1233.25C955.956 1233.99 956.166 1234.83 956.166 1235.77C956.166 1236.69 955.962 1237.53 955.554 1238.27C955.134 1239.02 954.564 1239.59 953.844 1240C953.112 1240.42 952.29 1240.63 951.378 1240.63C950.466 1240.63 949.656 1240.42 948.948 1240C948.228 1239.59 947.67 1239.02 947.274 1238.27C946.866 1237.53 946.662 1236.68 946.662 1235.72ZM951.378 1239.17C952.206 1239.17 952.902 1238.92 953.466 1238.42C954.018 1237.91 954.342 1237.25 954.438 1236.44H948.318C948.414 1237.24 948.744 1237.89 949.308 1238.4C949.86 1238.91 950.55 1239.17 951.378 1239.17ZM939.204 1240.63C938.28 1240.63 937.452 1240.43 936.72 1240.02C935.988 1239.61 935.418 1239.04 935.01 1238.31C934.59 1237.58 934.38 1236.73 934.38 1235.77C934.38 1234.81 934.59 1233.96 935.01 1233.21C935.418 1232.48 935.988 1231.91 936.72 1231.5C937.452 1231.1 938.28 1230.89 939.204 1230.89C939.888 1230.89 940.518 1231.02 941.094 1231.29C941.658 1231.55 942.138 1231.94 942.534 1232.44V1227.51H944.262V1240.54H942.606V1239.03C942.222 1239.56 941.736 1239.95 941.148 1240.22C940.56 1240.49 939.912 1240.63 939.204 1240.63ZM939.348 1232.4C938.736 1232.4 938.19 1232.54 937.71 1232.82C937.218 1233.11 936.834 1233.5 936.558 1234.01C936.27 1234.52 936.126 1235.11 936.126 1235.77C936.126 1236.43 936.27 1237.01 936.558 1237.52C936.834 1238.03 937.218 1238.43 937.71 1238.7C938.19 1238.98 938.736 1239.12 939.348 1239.12C939.948 1239.12 940.494 1238.97 940.986 1238.69C941.466 1238.41 941.85 1238.02 942.138 1237.52C942.414 1237.01 942.552 1236.43 942.552 1235.77C942.552 1235.11 942.414 1234.52 942.138 1234.01C941.862 1233.5 941.478 1233.11 940.986 1232.82C940.494 1232.54 939.948 1232.4 939.348 1232.4ZM930.337 1238.94C930.037 1239.49 929.593 1239.91 929.005 1240.2C928.417 1240.49 927.703 1240.63 926.863 1240.63V1238.96C926.959 1238.97 927.091 1238.97 927.259 1238.97C928.195 1238.97 928.933 1238.69 929.473 1238.13C930.001 1237.58 930.265 1236.78 930.265 1235.75V1231H931.993V1240.54H930.337V1238.94ZM916.199 1235.72C916.199 1235.58 916.211 1235.41 916.235 1235.19H923.975C923.867 1234.35 923.501 1233.68 922.877 1233.16C922.241 1232.66 921.455 1232.4 920.519 1232.4C919.379 1232.4 918.461 1232.79 917.765 1233.56L916.811 1232.44C917.243 1231.94 917.783 1231.55 918.431 1231.29C919.067 1231.02 919.781 1230.89 920.573 1230.89C921.581 1230.89 922.475 1231.1 923.255 1231.5C924.035 1231.92 924.641 1232.51 925.073 1233.25C925.493 1233.99 925.703 1234.83 925.703 1235.77C925.703 1236.69 925.499 1237.53 925.091 1238.27C924.671 1239.02 924.101 1239.59 923.381 1240C922.649 1240.42 921.827 1240.63 920.915 1240.63C920.003 1240.63 919.193 1240.42 918.485 1240C917.765 1239.59 917.207 1239.02 916.811 1238.27C916.403 1237.53 916.199 1236.68 916.199 1235.72ZM920.915 1239.17C921.743 1239.17 922.439 1238.92 923.003 1238.42C923.555 1237.91 923.879 1237.25 923.975 1236.44H917.855C917.951 1237.24 918.281 1237.89 918.845 1238.4C919.397 1238.91 920.087 1239.17 920.915 1239.17ZM911.063 1230.89C911.843 1230.89 912.593 1230.99 913.313 1231.2C914.033 1231.41 914.597 1231.68 915.005 1232.01L914.285 1233.38C913.865 1233.08 913.355 1232.84 912.755 1232.66C912.155 1232.48 911.549 1232.39 910.938 1232.39C909.425 1232.39 908.669 1232.82 908.669 1233.68C908.669 1233.97 908.771 1234.2 908.975 1234.37C909.179 1234.53 909.437 1234.65 909.749 1234.73C910.049 1234.81 910.481 1234.9 911.045 1235C911.813 1235.12 912.443 1235.25 912.935 1235.41C913.415 1235.57 913.829 1235.83 914.177 1236.2C914.525 1236.57 914.699 1237.1 914.699 1237.77C914.699 1238.63 914.339 1239.32 913.619 1239.84C912.899 1240.37 911.933 1240.63 910.721 1240.63C910.085 1240.63 909.449 1240.55 908.813 1240.4C908.177 1240.24 907.655 1240.03 907.247 1239.77L907.985 1238.4C908.765 1238.9 909.683 1239.15 910.739 1239.15C911.471 1239.15 912.029 1239.03 912.413 1238.79C912.797 1238.55 912.989 1238.24 912.989 1237.84C912.989 1237.53 912.881 1237.28 912.665 1237.1C912.449 1236.92 912.185 1236.79 911.873 1236.71C911.549 1236.62 911.099 1236.53 910.523 1236.42C909.755 1236.29 909.137 1236.14 908.669 1235.99C908.189 1235.84 907.781 1235.59 907.445 1235.23C907.109 1234.87 906.941 1234.37 906.941 1233.72C906.941 1232.85 907.313 1232.16 908.057 1231.65C908.789 1231.14 909.791 1230.89 911.063 1230.89ZM902.046 1230.89C902.826 1230.89 903.576 1230.99 904.296 1231.2C905.016 1231.41 905.58 1231.68 905.988 1232.01L905.268 1233.38C904.848 1233.08 904.338 1232.84 903.738 1232.66C903.138 1232.48 902.532 1232.39 901.92 1232.39C900.408 1232.39 899.652 1232.82 899.652 1233.68C899.652 1233.97 899.754 1234.2 899.958 1234.37C900.162 1234.53 900.42 1234.65 900.732 1234.73C901.032 1234.81 901.464 1234.9 902.028 1235C902.796 1235.12 903.426 1235.25 903.918 1235.41C904.398 1235.57 904.812 1235.83 905.16 1236.2C905.508 1236.57 905.682 1237.1 905.682 1237.77C905.682 1238.63 905.322 1239.32 904.602 1239.84C903.882 1240.37 902.916 1240.63 901.704 1240.63C901.068 1240.63 900.432 1240.55 899.796 1240.4C899.16 1240.24 898.638 1240.03 898.23 1239.77L898.968 1238.4C899.748 1238.9 900.666 1239.15 901.722 1239.15C902.454 1239.15 903.012 1239.03 903.396 1238.79C903.78 1238.55 903.972 1238.24 903.972 1237.84C903.972 1237.53 903.864 1237.28 903.648 1237.1C903.432 1236.92 903.168 1236.79 902.856 1236.71C902.532 1236.62 902.082 1236.53 901.506 1236.42C900.738 1236.29 900.12 1236.14 899.652 1235.99C899.172 1235.84 898.764 1235.59 898.428 1235.23C898.092 1234.87 897.924 1234.37 897.924 1233.72C897.924 1232.85 898.296 1232.16 899.04 1231.65C899.772 1231.14 900.774 1230.89 902.046 1230.89ZM891.678 1230.89C892.626 1230.89 893.478 1231.1 894.234 1231.52C894.99 1231.94 895.584 1232.52 896.016 1233.25C896.436 1233.99 896.646 1234.83 896.646 1235.77C896.646 1236.71 896.436 1237.54 896.016 1238.27C895.584 1239.02 894.99 1239.59 894.234 1240C893.478 1240.42 892.626 1240.63 891.678 1240.63C890.73 1240.63 889.884 1240.42 889.14 1240C888.384 1239.59 887.796 1239.02 887.376 1238.27C886.944 1237.54 886.728 1236.71 886.728 1235.77C886.728 1234.83 886.944 1233.99 887.376 1233.25C887.796 1232.52 888.384 1231.94 889.14 1231.52C889.884 1231.1 890.73 1230.89 891.678 1230.89ZM891.678 1232.4C891.066 1232.4 890.52 1232.54 890.04 1232.82C889.548 1233.11 889.164 1233.5 888.888 1234.01C888.612 1234.52 888.474 1235.11 888.474 1235.77C888.474 1236.43 888.612 1237.01 888.888 1237.52C889.164 1238.03 889.548 1238.43 890.04 1238.7C890.52 1238.98 891.066 1239.12 891.678 1239.12C892.29 1239.12 892.842 1238.98 893.334 1238.7C893.814 1238.43 894.198 1238.03 894.486 1237.52C894.762 1237.01 894.9 1236.43 894.9 1235.77C894.9 1235.11 894.762 1234.52 894.486 1234.01C894.198 1233.5 893.814 1233.11 893.334 1232.82C892.842 1232.54 892.29 1232.4 891.678 1232.4ZM882.683 1238.94C882.383 1239.49 881.939 1239.91 881.351 1240.2C880.763 1240.49 880.049 1240.63 879.209 1240.63V1238.96C879.305 1238.97 879.437 1238.97 879.605 1238.97C880.541 1238.97 881.279 1238.69 881.819 1238.13C882.347 1237.58 882.611 1236.78 882.611 1235.75V1231H884.339V1240.54H882.683V1238.94Z" fill="black"/>
<line x1="836" y1="1315.03" x2="836" y2="1278" stroke="#444444" stroke-width="6"/>
<line x1="1230" y1="1315.03" x2="1230" y2="1278" stroke="#444444" stroke-width="6"/>
</svg>
