<?xml version="1.0" encoding="UTF-8"?>
<svg width="127px" height="83px" viewBox="0 0 127 83" version="1.1" xmlns="http://www.w3.org/2000/svg" xmlns:xlink="http://www.w3.org/1999/xlink">
    <title>Software</title>
    <g id="Home" stroke="none" stroke-width="1" fill="none" fill-rule="evenodd">
        <g id="Home/Parts" transform="translate(-1079.000000, -349.000000)" fill-rule="nonzero">
            <g id="Software" transform="translate(1079.000000, 349.000000)">
                <path d="M119.639754,74.9030188 L7.51663602,74.9030188 L7.51663602,8.56470376 C7.51663602,5.4502554 10.1787935,2.80295286 13.3107088,2.80295286 L113.84576,2.80295286 C116.977871,2.80295286 119.639754,5.4502554 119.639754,8.56470376 L119.639754,74.9030188 Z" id="Path" fill="#DCDCDC"></path>
                <path d="M116.664385,0 L10.3352619,0 C7.20330733,0 4.54118908,2.64729474 4.54118908,5.76175869 L4.54118908,77.8617934 L122.45838,77.8617934 L122.45838,5.76175869 C122.45838,2.64729474 119.952848,0 116.664385,0 Z M10.3352619,11.5235174 C10.3352619,8.40906901 12.9973801,5.76175869 16.1293346,5.76175869 L110.870391,5.76175869 C114.00211,5.76175869 116.664385,8.25335634 116.664385,11.5235174 L116.664385,71.9442441 L10.3352619,71.9442441 L10.3352619,11.5235174 Z" id="Shape" fill="#E2474B"></path>
                <polygon id="Path" fill="#E2474B" points="127 77.7055352 0 77.7055352 0 83 127 83"></polygon>
                <polygon id="Path" fill="#FFFFFF" points="37.7394134 74.9034085 22.2363443 74.9034085 22.2363443 77.8621831 37.7394134 77.8621831"></polygon>
                <path d="M48.2555955,35.856 L38.8605156,39.2788732 L48.2555955,42.6736901 L48.2555955,46.1807324 L34.8259582,41.1025352 L34.8259582,37.4552113 L48.2555955,32.3770141 L48.2555955,35.856 Z M66.3358675,25.4751549 L70.2575702,25.4751549 L60.9470531,51.9042254 L57.0253504,51.9042254 L66.3358675,25.4751549 Z M92.1741202,37.4552113 L92.1741202,41.1025352 L78.7444045,46.1807324 L78.7444045,42.6736901 L88.1395627,39.2788732 L78.7444045,35.856 L78.7444045,32.3770141 L92.1741202,37.4552113 Z" id="Shape" fill="#FFFFFF"></path>
            </g>
        </g>
    </g>
</svg>