<?xml version="1.0" encoding="UTF-8"?>
<svg width="129px" height="135px" viewBox="0 0 129 135" version="1.1" xmlns="http://www.w3.org/2000/svg" xmlns:xlink="http://www.w3.org/1999/xlink">
    <title>model</title>
    <g id="Home" stroke="none" stroke-width="1" fill="none" fill-rule="evenodd">
        <g id="Home/Parts" transform="translate(-652.000000, -626.000000)">
            <g id="model" transform="translate(652.000000, 626.000000)">
                <path d="M37.6726067,17.160992 L119.867439,17.160992 M37.6726067,17.160992 L37.6726067,99.5340874 M37.6726067,17.160992 L11.9867835,35.4661111 M119.867439,17.160992 L119.867439,99.5340874 M119.867439,17.160992 L93.0399664,35.4661111 M119.867439,99.5340874 L37.6726067,99.5340874 M119.867439,99.5340874 L93.0399664,117.267163 M37.6726067,99.5340874 L11.9867835,117.267163 M11.9867835,35.4661111 L93.0399664,35.4661111 M11.9867835,35.4661111 L11.9867835,117.267163 M93.0399664,35.4661111 L93.0399664,117.267163 M93.0399664,117.267163 L11.9867835,117.267163" id="Shape" stroke="#E2474B" stroke-width="3.17647619"></path>
                <ellipse id="Oval" fill="#E2474B" fill-rule="nonzero" cx="93.6108901" cy="35.4660714" rx="4.56635976" ry="4.57626984"></ellipse>
                <ellipse id="Oval" fill="#ED8A8C" fill-rule="nonzero" cx="87.9028414" cy="26.3136508" rx="4.56635976" ry="4.57626984"></ellipse>
                <ellipse id="Oval" fill="#ED8A8C" fill-rule="nonzero" cx="65.0706464" cy="4.57626984" rx="4.56635976" ry="4.57626984"></ellipse>
                <ellipse id="Oval" fill="#ED8A8C" fill-rule="nonzero" cx="66.2120977" cy="130.42373" rx="4.56635976" ry="4.57626984"></ellipse>
                <ellipse id="Oval" fill="#ED8A8C" fill-rule="nonzero" cx="124.43364" cy="60.6357541" rx="4.56635976" ry="4.57626984"></ellipse>
                <ellipse id="Oval" fill="#ED8A8C" fill-rule="nonzero" cx="4.56635976" cy="60.6357541" rx="4.56635976" ry="4.57626984"></ellipse>
                <ellipse id="Oval" fill="#E2474B" fill-rule="nonzero" cx="93.6108901" cy="116.695" rx="4.56635976" ry="4.57626984"></ellipse>
                <ellipse id="Oval" fill="#E2474B" fill-rule="nonzero" cx="12.5576676" cy="116.695" rx="4.56635976" ry="4.57626984"></ellipse>
                <ellipse id="Oval" fill="#E2474B" fill-rule="nonzero" cx="12.5576676" cy="35.4660714" rx="4.56635976" ry="4.57626984"></ellipse>
                <ellipse id="Oval" fill="#E2474B" fill-rule="nonzero" cx="37.6724482" cy="17.1611112" rx="4.56635976" ry="4.57626984"></ellipse>
                <ellipse id="Oval" fill="#E2474B" fill-rule="nonzero" cx="119.867043" cy="17.1611112" rx="4.56635976" ry="4.57626984"></ellipse>
                <ellipse id="Oval" fill="#E2474B" fill-rule="nonzero" cx="119.867043" cy="99.5340874" rx="4.56635976" ry="4.57626984"></ellipse>
                <ellipse id="Oval" fill="#E2474B" fill-rule="nonzero" cx="37.6724482" cy="99.5340874" rx="4.56635976" ry="4.57626984"></ellipse>
                <ellipse id="Oval" fill="#ED8A8C" fill-rule="nonzero" cx="37.6724482" cy="104.110198" rx="4.56635976" ry="4.57626984"></ellipse>
                <path d="M65.6415701,4.57615072 L65.6415701,130.42373 M4.56635976,61.2075198 L125.004168,61.2075198 M87.3319177,26.8855357 L37.1017226,105.82629" id="Shape" stroke="#ED8A8C" stroke-width="3.17647619"></path>
            </g>
        </g>
    </g>
</svg>