<?xml version="1.0" encoding="UTF-8"?>
<svg width="94px" height="113px" viewBox="0 0 94 113" version="1.1" xmlns="http://www.w3.org/2000/svg" xmlns:xlink="http://www.w3.org/1999/xlink">
    <title>Human Practice</title>
    <defs>
        <path d="M34.8448276,11.5017855 C34.8448276,5.14957134 29.6748681,0 23.2974138,0 C16.9199595,0 11.75,5.14957134 11.75,11.5017855 C11.75,12.8460819 11.981556,14.1367033 12.4070681,15.335714 L4.05172414,15.335714 C1.81401767,15.335714 0,17.1425033 0,19.3714283 L0,58.1142848 C0,60.3432097 1.81401767,62.149999 4.05172414,62.149999 L42.9482759,62.149999 C45.1860431,62.149999 47,60.3432097 47,58.1142848 L47,49.7918349 C45.7962328,50.2159885 44.5004914,50.4464277 43.1508621,50.4464277 C36.7734078,50.4464277 31.6034483,45.2968564 31.6034483,38.9446422 C31.6034483,32.592428 36.7734078,27.4428567 43.1508621,27.4428567 C44.5004914,27.4428567 45.7962328,27.673296 47,28.0974495 L47,19.3714283 C47,17.1425033 45.1860431,15.335714 42.9482759,15.335714 L34.1877595,15.335714 C34.6132716,14.1367033 34.8448276,12.8460819 34.8448276,11.5017855 Z" id="path-1"></path>
    </defs>
    <g id="Home" stroke="none" stroke-width="1" fill="none" fill-rule="evenodd">
        <g id="Home/Parts" transform="translate(-954.000000, -643.000000)">
            <g id="Human-Practice" transform="translate(954.000000, 643.000000)">
                <ellipse id="Oval" fill="#ED8A8C" fill-rule="nonzero" cx="50.8491379" cy="23.2053586" rx="11.5474138" ry="11.5017855"></ellipse>
                <path d="M4.05172414,1.86991201e-06 C1.81397716,1.86991201e-06 0,1.80684763 0,4.03571609 L0,42.7785726 C0,45.0074976 1.81397716,46.8142868 4.05172414,46.8142868 L12.4070276,46.8142868 C11.981475,45.6152761 11.75,44.3246547 11.75,42.9803583 C11.75,36.6281038 16.919919,31.4785728 23.2974138,31.4785728 C29.6749086,31.4785728 34.8448276,36.6281038 34.8448276,42.9803583 C34.8448276,44.3246547 34.6133526,45.6152761 34.1878,46.8142868 L42.9482759,46.8142868 C45.1860431,46.8142868 47,45.0074976 47,42.7785726 L47,4.03571609 C47,1.80684763 45.1860431,1.86991201e-06 42.9482759,1.86991201e-06 L4.05172414,1.86991201e-06 Z" id="Path" fill="#ED8A8C"></path>
                <ellipse id="Oval" fill="#E2474B" fill-rule="nonzero" transform="translate(70.702586, 50.648215) rotate(90.000000) translate(-70.702586, -50.648215) " cx="70.7025862" cy="50.6482153" rx="11.5017855" ry="11.5474138"></ellipse>
                <path d="M94,4.03571609 C94,1.80685166 92.1860431,0 89.9482759,0 L51.0517241,0 C48.8139569,0 47,1.80685166 47,4.03571609 L47,12.3580449 C48.2037672,11.9342142 49.4995086,11.7035731 50.8491379,11.7035731 C57.2265517,11.7035731 62.3965517,16.8531041 62.3965517,23.2053586 C62.3965517,29.5576132 57.2265517,34.7071442 50.8491379,34.7071442 C49.4995086,34.7071442 48.2037672,34.4765031 47,34.0526724 L47,42.7785726 C47,45.0074976 48.8139569,46.8142868 51.0517241,46.8142868 L89.9482759,46.8142868 C92.1860431,46.8142868 94,45.0074976 94,42.7785726 L94,4.03571609 Z" id="Path" fill="#E2474B"></path>
                <g id="Clipped" transform="translate(0.000000, 50.850001)">
                    <mask id="mask-2" fill="white">
                        <use xlink:href="#path-1"></use>
                    </mask>
                    <g id="Path"></g>
                    <path d="M12.4070681,15.335714 L12.4070681,16.1428569 L13.5529767,16.1428569 L13.1711017,15.0669355 L12.4070681,15.335714 Z M47,49.7918349 L47.8103448,49.7918349 L47.8103448,48.6505349 L46.7301552,49.0311028 L47,49.7918349 Z M47,28.0974495 L46.7301552,28.8581817 L47.8103448,29.2387495 L47.8103448,28.0974495 L47,28.0974495 Z M34.1877595,15.335714 L33.4237259,15.0669355 L33.0418509,16.1428569 L34.1877595,16.1428569 L34.1877595,15.335714 Z M23.2974138,0.807142844 C29.2273552,0.807142844 34.0344828,5.59511419 34.0344828,11.5017855 L35.6551724,11.5017855 C35.6551724,4.70362492 30.1224216,-0.807142844 23.2974138,-0.807142844 L23.2974138,0.807142844 Z M12.5603448,11.5017855 C12.5603448,5.59511419 17.3675129,0.807142844 23.2974138,0.807142844 L23.2974138,-0.807142844 C16.472406,-0.807142844 10.9396552,4.70362492 10.9396552,11.5017855 L12.5603448,11.5017855 Z M13.1711017,15.0669355 C12.7758155,13.9526748 12.5603448,12.7532605 12.5603448,11.5017855 L10.9396552,11.5017855 C10.9396552,12.9389034 11.1872966,14.3203283 11.6430345,15.6044926 L13.1711017,15.0669355 Z M12.4070681,14.5285712 L4.05172414,14.5285712 L4.05172414,16.1428569 L12.4070681,16.1428569 L12.4070681,14.5285712 Z M4.05172414,14.5285712 C1.36647638,14.5285712 -0.810344828,16.6969604 -0.810344828,19.3714283 L0.810344828,19.3714283 C0.810344828,17.5884497 2.26155897,16.1428569 4.05172414,16.1428569 L4.05172414,14.5285712 Z M-0.810344828,19.3714283 L-0.810344828,58.1142848 L0.810344828,58.1142848 L0.810344828,19.3714283 L-0.810344828,19.3714283 Z M-0.810344828,58.1142848 C-0.810344828,60.7887526 1.36648043,62.9571418 4.05172414,62.9571418 L4.05172414,61.3428561 C2.26155897,61.3428561 0.810344828,59.8972633 0.810344828,58.1142848 L-0.810344828,58.1142848 Z M4.05172414,62.9571418 L42.9482759,62.9571418 L42.9482759,61.3428561 L4.05172414,61.3428561 L4.05172414,62.9571418 Z M42.9482759,62.9571418 C45.6333534,62.9571418 47.8103448,60.7887526 47.8103448,58.1142848 L46.1896552,58.1142848 C46.1896552,59.8972633 44.7383276,61.3428561 42.9482759,61.3428561 L42.9482759,62.9571418 Z M47.8103448,58.1142848 L47.8103448,49.7918349 L46.1896552,49.7918349 L46.1896552,58.1142848 L47.8103448,58.1142848 Z M46.7301552,49.0311028 C45.6114741,49.4245849 44.4073017,49.6392849 43.1508621,49.6392849 L43.1508621,51.2535706 C44.593681,51.2535706 45.9805862,51.0069884 47.2698448,50.5529706 L46.7301552,49.0311028 Z M43.1508621,49.6392849 C37.2209612,49.6392849 32.4137931,44.8513135 32.4137931,38.9446422 L30.7931034,38.9446422 C30.7931034,45.7428028 36.3258543,51.2535706 43.1508621,51.2535706 L43.1508621,49.6392849 Z M32.4137931,38.9446422 C32.4137931,33.0379709 37.2209612,28.2499995 43.1508621,28.2499995 L43.1508621,26.6357138 C36.3258543,26.6357138 30.7931034,32.1464816 30.7931034,38.9446422 L32.4137931,38.9446422 Z M43.1508621,28.2499995 C44.4073017,28.2499995 45.6114741,28.4646995 46.7301552,28.8581817 L47.2698448,27.3363138 C45.9805862,26.882296 44.593681,26.6357138 43.1508621,26.6357138 L43.1508621,28.2499995 Z M47.8103448,28.0974495 L47.8103448,19.3714283 L46.1896552,19.3714283 L46.1896552,28.0974495 L47.8103448,28.0974495 Z M47.8103448,19.3714283 C47.8103448,16.6969604 45.6333534,14.5285712 42.9482759,14.5285712 L42.9482759,16.1428569 C44.7383276,16.1428569 46.1896552,17.5884497 46.1896552,19.3714283 L47.8103448,19.3714283 Z M42.9482759,14.5285712 L34.1877595,14.5285712 L34.1877595,16.1428569 L42.9482759,16.1428569 L42.9482759,14.5285712 Z M34.0344828,11.5017855 C34.0344828,12.7532605 33.8190121,13.9526748 33.4237259,15.0669355 L34.9517931,15.6044926 C35.407531,14.3203283 35.6551724,12.9389034 35.6551724,11.5017855 L34.0344828,11.5017855 Z" id="Shape" fill="#E2474B" fill-rule="nonzero" mask="url(#mask-2)"></path>
                </g>
            </g>
        </g>
    </g>
</svg>