<svg width="443" height="328" viewBox="0 0 443 328" fill="none" xmlns="http://www.w3.org/2000/svg">
<path d="M109.875 195.03C107.691 195.03 105.508 194.094 103.948 192.535L2.57337 91.4714C-0.857789 88.0403 -0.857789 82.7376 2.57337 79.3064L78.9945 2.57337C82.4257 -0.857789 87.7284 -0.857789 91.1595 2.57337L192.535 103.948C195.966 107.38 195.966 112.682 192.535 116.113L185.36 123.288L193.47 131.398C202.204 127.966 211.562 127.031 220.92 129.214C230.277 127.031 239.635 127.655 248.681 131.398L256.791 123.288L249.616 116.113C246.185 112.682 246.185 107.38 249.616 103.948L350.991 2.57337C354.423 -0.545865 360.037 -0.545865 363.156 2.57337L439.889 78.9945C443.321 82.4257 443.321 87.7284 439.889 91.1595L338.826 193.158C337.267 194.718 335.083 195.654 332.9 195.654C330.716 195.654 328.533 194.718 326.973 193.158L319.799 185.984L311.689 194.094C315.12 202.828 316.056 212.498 313.873 221.855C317.304 236.516 313.249 252.736 301.708 264.277L264.277 301.708C255.543 310.441 244.002 315.12 232.149 315.12C230.589 315.12 228.718 315.12 227.158 314.808L221.543 320.423C216.865 325.102 210.938 327.285 204.7 327.285C198.461 327.285 192.535 325.102 187.856 320.423C183.801 316.368 181.305 311.065 180.993 305.451C175.379 304.827 170.076 302.643 166.021 298.588C161.654 294.221 159.471 288.919 159.159 283.616C153.544 282.992 148.241 280.809 144.186 276.754C139.82 272.387 137.636 267.084 137.324 261.781C131.71 261.158 126.407 258.974 122.352 254.919C117.985 250.552 115.49 244.314 115.49 238.075C115.49 231.837 117.985 225.598 122.352 221.231L127.966 215.617C127.031 208.131 128.278 200.333 131.086 193.47L122.976 185.36L115.801 192.535C114.242 194.094 112.058 195.03 109.875 195.03Z" fill="#D35351"/>
<path d="M358.387 18.3242L423.456 83.3936L333.554 173.296L268.17 108.227L358.387 18.3242ZM132.059 237.423C132.059 235.536 132.687 233.965 133.945 232.707L150.291 216.361C151.548 215.104 153.434 214.475 155.006 214.475C156.892 214.475 158.464 215.104 159.721 216.361C160.978 217.619 161.607 219.505 161.607 221.077C161.607 222.963 160.978 224.534 159.721 225.792L143.375 242.138C140.86 244.652 136.145 244.652 133.63 242.138C132.687 240.88 132.059 239.309 132.059 237.423ZM153.749 259.112C153.749 257.226 154.377 255.654 155.635 254.397L171.981 238.051C174.495 235.536 178.896 235.536 181.725 238.051C182.983 239.309 183.611 241.195 183.611 242.766C183.611 244.652 182.983 246.224 181.725 247.482L165.379 263.827C162.865 266.342 158.464 266.342 155.635 263.827C154.692 262.57 153.749 260.998 153.749 259.112ZM177.639 276.087L193.985 259.741C196.499 257.226 200.9 257.226 203.729 259.741C206.244 262.256 206.244 266.657 203.729 269.486L187.383 285.832C184.869 288.346 180.468 288.346 177.639 285.832C175.124 283.002 175.124 278.916 177.639 276.087ZM209.073 307.521C206.558 310.036 201.843 310.036 199.329 307.521C198.071 306.264 197.442 304.378 197.442 302.806C197.442 300.92 198.071 299.348 199.329 298.091L215.674 281.745C216.932 280.488 218.818 279.859 220.39 279.859C222.276 279.859 223.847 280.488 225.105 281.745C226.362 283.002 226.991 284.888 226.991 286.46C226.991 288.346 226.362 289.918 225.105 291.175L209.073 307.521ZM246.48 147.52C249.938 149.406 254.024 149.092 256.854 146.263L269.427 133.689L308.092 172.353L295.518 184.927C293.632 186.813 292.689 189.328 293.003 191.843L244.594 157.265C243.022 156.007 239.879 153.807 236.421 153.807C234.849 153.807 233.278 154.435 231.706 155.693L209.702 169.838C209.073 170.153 208.759 170.467 208.13 171.096C205.93 173.296 202.472 173.296 200.272 171.096C198.071 168.895 198.071 165.438 200.272 163.237L210.959 152.549C220.704 142.49 235.164 140.919 246.48 147.52ZM173.238 133.689L185.812 146.263C187.069 147.52 188.641 148.463 190.527 148.463L188.641 150.349C184.24 154.75 182.04 160.408 182.04 166.381C182.04 172.353 184.554 178.011 188.641 182.412C193.042 186.813 198.7 189.013 204.672 189.013C210.331 189.013 215.674 186.813 220.075 183.041L237.05 172.039C249.938 181.469 285.459 206.931 290.488 210.389C301.176 221.705 301.176 239.623 290.174 250.625L252.453 288.346C249.938 290.861 246.795 293.061 243.337 294.319C244.28 291.49 244.908 288.661 244.908 285.832C244.908 279.545 242.394 273.258 237.993 268.857C233.906 264.77 228.563 262.57 222.904 261.941C222.59 256.598 220.39 251.254 215.989 246.853C211.902 242.766 206.558 240.566 200.9 239.937C200.586 234.279 198.071 228.935 193.985 224.849C189.898 220.762 184.554 218.562 178.896 217.933C178.582 212.275 176.067 206.931 171.981 202.845C167.58 198.444 161.293 195.929 155.006 195.929C152.177 195.929 149.033 196.558 146.519 197.501C147.147 196.243 147.462 195.3 148.09 194.043C149.976 190.585 149.662 186.499 146.833 183.67L134.259 171.096L173.238 133.689ZM84.2783 18.3242L174.181 108.227L109.112 173.296L19.209 83.3936L84.2783 18.3242Z" fill="#F7B6B8"/>
</svg>
