<?xml version="1.0" encoding="UTF-8"?>
<svg width="85px" height="124px" viewBox="0 0 85 124" version="1.1" xmlns="http://www.w3.org/2000/svg" xmlns:xlink="http://www.w3.org/1999/xlink">
    <title>implemantation</title>
    <g id="Home" stroke="none" stroke-width="1" fill="none" fill-rule="evenodd">
        <g id="Home/Parts" transform="translate(-536.000000, -331.000000)">
            <g id="implemantation" transform="translate(536.000000, 331.000000)">
                <path d="M85,42.7227412 C85,59.5685059 75.3053561,73.9831412 61.2830772,80.9296941 C57.474584,82.8400235 53.1465855,84.2295529 48.818587,84.9239529 C48.2994453,85.0979176 47.77994,85.0979176 47.2607983,85.0979176 C45.7026462,85.2715176 44.144494,85.4451176 42.4132946,85.4451176 C40.855506,85.4451176 39.1243066,85.2715176 37.5661544,85.0979176 C37.0466492,85.0979176 36.5275075,84.9239529 36.0081113,84.9239529 C31.507102,84.2295529 27.3523325,83.0136235 23.5437665,80.9296941 C9.6944985,73.9831412 0,59.3949059 0,42.7227412 C0,19.1035859 19.0427571,0 42.5867054,0 C65.9571702,0 85,19.1035859 85,42.7227412 Z" id="Path" fill="#DCDCDC" fill-rule="nonzero"></path>
                <polygon id="Path" fill="#DCDCDC" fill-rule="nonzero" points="61.2827137 54.0114824 23.7164865 54.0114824 23.7164865 101.596847 61.2827137 101.596847"></polygon>
                <path d="M61.2834408,95.6922588 L61.2834408,109.585729 C61.2834408,109.933294 61.2834408,110.280494 61.2834408,110.628059 C61.1103935,112.017224 60.5908883,113.232788 59.8983358,114.275118 C58.5135944,116.359047 56.0898426,117.574612 53.4930435,117.574612 L31.6804764,117.574612 C29.08375,117.574612 26.6601435,116.185447 25.2752204,114.275118 C24.5827406,113.232788 24.0633808,112.017224 23.8902609,110.628059 C23.8902609,110.280494 23.8902609,109.933294 23.8902609,109.585729 L23.8902609,95.6922588 L61.2834408,95.6922588 Z" id="Path" fill="#ED8A8C" fill-rule="nonzero"></path>
                <path d="M51.9348913,114.448353 C51.9348913,114.969153 51.9348913,115.316353 51.9348913,115.837518 C51.9348913,116.532282 51.7618441,117.053082 51.5887968,117.747847 C50.3767391,121.394906 46.9147039,124 42.9327998,124 L42.7597526,124 C38.7782121,124 35.3158133,121.394906 33.9308902,117.747847 C33.7577702,117.227047 33.5846503,116.532282 33.4115304,115.837518 C33.4115304,115.490318 33.2384104,114.969153 33.2384104,114.621953 L33.2384104,114.448353 L51.9348913,114.448353 Z" id="Path" fill="#E2474B" fill-rule="nonzero"></path>
                <polygon id="Path" fill="#E2474B" fill-rule="nonzero" points="61.2827137 101.422518 23.7164865 101.422518 23.7164865 106.632706 61.2827137 106.632706"></polygon>
                <path d="M61.2834408,110.627329 C61.2834408,112.016859 60.7639355,113.406024 59.8983358,114.274388 C59.0327361,115.142753 57.6479947,115.837518 56.2628898,115.837518 L28.91063,115.837518 C27.5257069,115.837518 26.1407837,115.316353 25.2752204,114.274388 C24.4096207,113.406024 23.8902609,112.016859 23.8902609,110.627329 L61.2834408,110.627329 Z" id="Path" fill="#E2474B" fill-rule="nonzero"></path>
                <path d="M54.6472976,37.6482235 C54.4491658,37.1752 54.2361286,36.7324471 53.9929173,36.2897306 L56.2752503,33.98468 C56.6100749,33.6488588 56.6100749,33.0840388 56.2752503,32.7481812 L52.4405818,28.8860918 C52.0908519,28.5502706 51.5429902,28.5502706 51.2081656,28.8860918 L48.9105638,31.1911424 C48.4692206,30.9468988 48.0126086,30.7179365 47.5563601,30.5347447 C47.0997481,30.3515529 46.6278672,30.1836424 46.141081,30.0462576 L46.141081,26.7795141 C46.141081,26.2910271 45.7455444,25.8941176 45.2583947,25.8941176 L39.8263112,25.8941176 C39.3391615,25.8941176 38.9436249,26.2910271 38.9436249,26.7795141 L38.9436249,30.0309765 C38.4568387,30.1683612 37.9849578,30.3363082 37.5283458,30.5194635 C37.0720973,30.7179365 36.6154853,30.9316541 36.1741785,31.1758976 L33.8764675,28.8860918 C33.5417157,28.5502706 32.9786941,28.5502706 32.6439059,28.8860918 L28.794114,32.7329365 C28.4593621,33.0687576 28.4593621,33.6335776 28.794114,33.9693988 L31.091825,36.2744494 C30.8483591,36.7171294 30.6201258,37.1752 30.4375174,37.6329059 C30.2549089,38.0909765 30.087533,38.5643647 29.9505857,39.0527059 L26.694244,39.0527059 C26.2073124,39.0527059 25.8116668,39.4495059 25.8116668,39.9382118 L25.8116668,45.3876471 C25.8116668,45.8763529 26.2073124,46.2731529 26.694244,46.2731529 L29.9353532,46.2731529 C30.0723005,46.7614941 30.2397128,47.2348824 30.4222849,47.6929529 C30.6201258,48.1506588 30.833163,48.6087294 31.0766288,49.0514824 L28.7789178,51.3564235 C28.4441296,51.6923176 28.4441296,52.2572471 28.7789178,52.5931412 L32.6134772,56.4396941 C32.9634616,56.7755882 33.511287,56.7755882 33.8460389,56.4396941 L36.1437498,54.1347529 C36.5849475,54.3791059 37.0415596,54.6081412 37.4981716,54.7912235 C37.9544201,54.9743059 38.426301,55.1424353 38.9130872,55.2795647 L38.9130872,58.5615529 C38.9130872,59.0502588 39.3086237,59.4470588 39.7957735,59.4470588 L45.2282205,59.4470588 C45.7150067,59.4470588 46.1105432,59.0502588 46.1105432,58.5615529 L46.1105432,55.3102 C46.597693,55.1727059 47.0692103,55.0049412 47.5258224,54.8218588 C47.9824344,54.6230941 48.4386829,54.4093765 48.880026,54.1653882 L51.1776279,56.4703294 C51.5277213,56.8062235 52.0755831,56.8062235 52.4104076,56.4703294 L56.2447126,52.6234118 C56.5795371,52.2875176 56.5795371,51.7229529 56.2447126,51.3870588 L53.9471107,49.0821176 C54.1906856,48.6393647 54.4189916,48.1812941 54.601491,47.7232235 C54.7839904,47.2655176 54.9515844,46.7921294 55.0882772,46.3037882 L58.3750839,46.3037882 C58.8622337,46.3037882 59.2577702,45.9069882 59.2577702,45.4182824 L59.2577702,39.9535294 C59.2577702,39.4648235 58.8622337,39.0680235 58.3750839,39.0680235 L55.1340838,39.0680235 C54.9970275,38.5796824 54.829797,38.1062941 54.6472976,37.6482235 Z M42.5347185,36.3965894 C44.2542845,36.3965894 45.8215253,37.0986118 46.9626918,38.2284706 C48.0889529,39.3579647 48.7887763,40.9302118 48.7887763,42.6705882 C48.7887763,44.3956471 48.0889529,45.9678941 46.9626918,47.1127059 C45.8367941,48.2425647 44.2695534,48.9446235 42.5347185,48.9446235 C40.8151525,48.9446235 39.2479118,48.2425647 38.1067452,47.1127059 C36.9804841,45.9832118 36.2806971,44.4109647 36.2806971,42.6705882 C36.2806971,40.9455294 36.9804841,39.3732824 38.1067452,38.2284706 C39.2479118,37.0986118 40.8151525,36.3965894 42.5347185,36.3965894 Z" id="Shape" fill="#E2474B"></path>
            </g>
        </g>
    </g>
</svg>