<?xml version="1.0" encoding="UTF-8"?>
<svg width="92px" height="105px" viewBox="0 0 92 105" version="1.1" xmlns="http://www.w3.org/2000/svg" xmlns:xlink="http://www.w3.org/1999/xlink">
    <title>Group 214</title>
    <g id="Home" stroke="none" stroke-width="1" fill="none" fill-rule="evenodd" opacity="0.887922741">
        <g id="Desktop-HD-Copy-6" transform="translate(-674.000000, -701.000000)">
            <g id="Group-214" transform="translate(675.000000, 701.000000)">
                <circle id="Oval" stroke="#FFFFFF" stroke-width="3.51782493" cx="45" cy="59" r="44"></circle>
                <path d="M47,16.3113955 L47,36.6887301 C47,37.3949435 46.3079411,38 45.5001797,38 C44.6924183,38 44,37.3949435 44,36.6887301 L44,16.3113955 C44,15.6052764 44.6924183,15 45.5001797,15 C46.3079411,15.1008742 47,15.6052764 47,16.3113955 Z" id="Path" fill="#FFFFFF" fill-rule="nonzero"></path>
                <path d="M47,82.3112699 L47,102.68873 C47,103.394944 46.3079411,104 45.5001797,104 C44.6924183,104 44,103.394944 44,102.68873 L44,82.3112699 C44,81.6053706 44.6924183,81 45.5001797,81 C46.3079411,81.1008427 47,81.6053706 47,82.3112699 Z" id="Path" fill="#FFFFFF" fill-rule="nonzero"></path>
                <path d="M77.6885268,29.8071052 L65.8070483,41.6882917 C65.3917507,42.1039028 64.7270857,42.1039028 64.3114732,41.6882917 C63.8961756,41.2729955 63.8961756,40.6083327 64.3114732,40.1927216 L76.1929517,28.3115666 C76.6082493,27.8961445 77.2729143,27.8961445 77.6885268,28.3115666 C78.1038244,28.7269887 78.1038244,29.3916831 77.6885268,29.8071052 Z" id="Path" fill="#FFFFFF" fill-rule="nonzero"></path>
                <path d="M13.3115684,29.807144 L25.1928846,41.6885252 C25.6083091,42.1038249 26.2730072,42.1038249 26.6884316,41.6885252 C27.1038561,41.2729107 27.1038561,40.6082422 26.6884316,40.1929425 L14.8071154,28.3115928 C14.3916909,27.8961357 13.7269928,27.8961357 13.3115684,28.3115928 C12.8961439,28.7270185 12.8961439,29.3916869 13.3115684,29.807144 Z" id="Path" fill="#FFFFFF" fill-rule="nonzero"></path>
                <path d="M78.6885251,89.1929517 L66.8069798,77.3114732 C66.3916798,76.8961756 65.727011,76.8961756 65.3117111,77.3114732 C64.8960963,77.7270857 64.8960963,78.3917507 65.3117111,78.8070483 L77.1929415,90.6885268 C77.6082415,91.1038244 78.2729103,91.1038244 78.6885251,90.6885268 C79.103825,90.2729143 79.103825,89.6082493 78.6885251,89.1929517 Z" id="Path" fill="#FFFFFF" fill-rule="nonzero"></path>
                <path d="M13.3115684,90.1929517 L25.1928846,78.3114732 C25.6083091,77.8961756 26.2730072,77.8961756 26.6884316,78.3114732 C27.1038561,78.7270857 27.1038561,79.3917507 26.6884316,79.8070483 L14.8071154,91.6885268 C14.3916909,92.1038244 13.7269928,92.1038244 13.3115684,91.6885268 C12.8961439,91.2729143 12.8961439,90.6082493 13.3115684,90.1929517 Z" id="Path" fill="#FFFFFF" fill-rule="nonzero"></path>
                <path d="M68.3112699,58 L88.6887301,58 C89.3949435,58 90,58.6924183 90,59.4998203 C90,60.3075817 89.3949435,61 88.6887301,61 L68.3112699,61 C67.6053706,61 67,60.3075817 67,59.4998203 C67,58.5767158 67.6053706,58 68.3112699,58 Z" id="Path" fill="#FFFFFF" fill-rule="nonzero"></path>
                <path d="M21.6885795,61 L1.31140478,61 C0.605263985,61 0,60.3075817 0,59.4998203 C0,58.6920589 0.605263985,58 1.31140478,58 L21.6885795,58 C22.3947266,58 23,58.6920589 23,59.4998203 C23,60.4229249 22.3947266,61 21.6885795,61 Z" id="Path" fill="#FFFFFF" fill-rule="nonzero"></path>
                <rect id="Rectangle" fill="#FFFFFF" fill-rule="nonzero" x="44" y="42" width="1" height="20" rx="0.488806171"></rect>
                <path d="M51.5,54 C51.6899041,54 51.8438518,54.1539477 51.8438518,54.3438518 L51.8438518,69.6561482 C51.8438518,69.8460523 51.6899041,70 51.5,70 C51.3100959,70 51.1561482,69.8460523 51.1561482,69.6561482 L51.1561482,54.3438518 C51.1561482,54.1539477 51.3100959,54 51.5,54 Z" id="Rectangle" fill="#FFFFFF" fill-rule="nonzero" transform="translate(51.500000, 62.000000) rotate(90.000000) translate(-51.500000, -62.000000) "></path>
                <rect id="Rectangle" fill="#FFFFFF" fill-rule="nonzero" x="31" y="0" width="27" height="12" rx="3.95755304"></rect>
            </g>
        </g>
    </g>
</svg>