<svg id="Layer_1" data-name="Layer 1" xmlns="http://www.w3.org/2000/svg" viewBox="0 0 348.94 253.13"><path d="M210.7,164.46l9.31,1.46c-.74,2.37-1.73,2.9-3.77,2.53s-4.2-.6-6.42-.92c-.2,2.57-.36,4.82-.57,7.07s-.48,4.34-.76,6.94c1.89-.51,3.43-.91,5-1.34.33-.09.66-.42.94-.37a26,26,0,0,1,2.59.68c-.54.69-.93,1.69-1.63,2-2,1-4.19,1.69-6.26,2.57a2.11,2.11,0,0,0-1.1,1.06c-1.37,3.79-2.67,7.6-3.94,11.25,1.88,1.83,3.9,3.92,6.07,5.85.74.65,1.89.8,2.76,1.33.46.27.72.86,1.07,1.31-.54.3-1.07.86-1.62.86-2.31,0-4-1.23-5.41-3-.48-.59-.86-1.26-1.37-1.81-2.35-2.52-3.72-2.55-6.51-.57a22.7,22.7,0,0,1-5,2.8c-1.41.54-1.45,1.29-1.35,2.51.34,4,.58,8,.84,11.95.07,1.16,0,2.36-1.6,2.3-1.45-.05-2-1.05-2-2.38-.15-3.71-.35-7.41-.44-11.12,0-1.48-.46-1.92-2.08-1.91-4.19,0-8.39-.2-12.57-.49-2.35-.17-2.69-.1-2.68,2.33,0,3.79.19,7.58.28,11.37,0,1,.39,2.28-1.17,2.39s-2.22-.93-2.26-2.35c-.11-4.27-.28-8.55-.2-12.82,0-1.42-.35-1.89-1.66-2.24-5.12-1.33-10.28-2.59-14.63-5.93-1.53-1.17-2,.32-2.42,1.39a26.17,26.17,0,0,1-1.76,4.58c-.51.8-1.82,1.17-2.85,1.52-.29.1-1-.47-1.19-.87s.2-1,.42-1.42c.67-1.3,1.41-2.57,2.08-3.87.58-1.14,1.17-2.29,1.65-3.48.21-.55.46-1.44.19-1.76a19.2,19.2,0,0,1-4-9c0-.18-.23-.32-.62-.8-.69.82-1.35,1.52-1.9,2.3s-.9,2.05-1.68,2.54a2.86,2.86,0,0,1-2.63-.18c-1-.66-.47-1.49.48-2.09a6.76,6.76,0,0,0,1.14-1.33,16,16,0,0,1,2.82-3.17c1.3-.85,1.39-1.59,1.15-3-.41-2.41-1.13-4.39-3.32-5.76a2.79,2.79,0,0,0-3-.27c-2.8,1.27-5.69,2.36-8.56,3.48-4.53,1.77-9.67-4.4-8.44-8.13a71.78,71.78,0,0,1,2.66-7.59c1.35-2.9.64-5.42-1-7.75-3.16-4.53-3.73-9.33-1.4-14.25a16,16,0,0,1,4.07-4.74,30.43,30.43,0,0,1,5.49-3.68c3.36-1.83,4.08-4.78,4.29-8.29.37-6.3.56-12.63,2.83-18.7a40.43,40.43,0,0,1,10.58-15.78c6.3-5.78,14.1-7.64,22.47-6.75,5.87.63,11.71,1.66,17.54,2.68,2.45.43,4.85,1.23,5.91,3.93a1.46,1.46,0,0,0,1.05.69c7.59.84,12.9,4.78,16.31,11.58a41.79,41.79,0,0,1,3.95,22.93c-.55,6.23-1.38,12.44-2,18.68-.15,1.49-1.39,3.37.73,4.38,3,1.42,6.66.83,7.88-1.35,1.37-2.45,2.42-5.09,3.58-7.66.31-.69.5-1.43.78-2.13a2.11,2.11,0,0,1,3-1.33c1.39.5,1.38,1.59.89,2.71-1.16,2.73-2.26,5.49-3.6,8.12-2.25,4.44-4.84,5.13-11.1,4.37-2.84-.35-2.71-.54-2.91,2.33-.26,3.84-.72,7.67-1.11,11.51C210.92,163.11,210.8,163.77,210.7,164.46Zm-5.61,6.75-.58-.31c-1.56,1-3,2.36-4.71,2.78-3.43.87-4.67,3.4-6.05,6.18-1.69,3.4-3.83,6.61-7.28,8.52-4.32,2.4-8.8-.34-9.07-5.21-.2-3.7,1.47-6.67,3.12-9.68,1.27-2.3.93-4.1-.69-6.21a11.17,11.17,0,0,1-2.16-5.6c-.52-6.22,2.41-10.73,8.68-13a15.09,15.09,0,0,0,9.75-10.15c1.41-4.31,3.14-8.62,2-13.28-.76-3.12-1.75-6.19-2.71-9.26-2.07-6.58-5.75-12.72-5.11-19.6-4.07,0-7.95,0-11.84,0s-8,0-11.92.15c-5.32.28-9.26,2.94-10.87,8a59,59,0,0,0-3,13.47c-.86,12.43-1.16,24.9-1.74,37.35a40.43,40.43,0,0,1-.72,6.11c-1.42,6.87-2.85,13.68-2.29,20.84s3.32,12.95,10.19,15.91A61.48,61.48,0,0,0,184,202.86c4.07-.08,8-.62,11.57-3.1a19.93,19.93,0,0,0,8.56-14C204.8,181,204.78,176.05,205.09,171.21ZM144,170.93c3-7.06,3.55-14.47,3.26-22a11.08,11.08,0,0,0-.64-2.4c-.88.27-2,.28-2.58.86a16.93,16.93,0,0,0-3.37,4.85c-1.66,4.37-2.86,8.9-4.42,13.31-.26.75-1.35,1.19-2,1.78-.21-.85-.77-1.79-.56-2.52,1.16-4.17,2.27-8.38,3.84-12.41,1.74-4.49,4-8.78,10-9.13.16-3.34.58-6.57.42-9.77a79.07,79.07,0,0,1,4.8-31.23c1.17-3.2,2.83-6,6.34-7,1.58-.48,3.11-1.16,4.71-1.5,6.1-1.3,12.21-.64,18.3.19,4.72.64,4.71.71,6.72-3.54,1.1-2.33.2-3.92-2.32-4.24-4.78-.61-9.53-1.34-14.31-1.87a38.67,38.67,0,0,0-6.8-.23c-8.41.55-14.73,5-19.76,11.36a43.75,43.75,0,0,0-4.59,8.06,15.85,15.85,0,0,0-1.51,5.11c-.58,5.41-.93,10.84-1.37,16.26-.27,3.23-1.36,6-4.15,7.93-2.21,1.52-4.4,3.09-6.69,4.48a8,8,0,0,0-3.81,5.36,10.14,10.14,0,0,0,1.8,8.38c2.16,3.22,3.22,6.65,1.64,10.5-.87,2.1-1.69,4.23-2.37,6.39-1,3.13.63,4.81,3.81,4a40.45,40.45,0,0,0,4.32-1.29C138.66,168.45,138.66,168.44,144,170.93Zm66.53-52.4c0-8.13-1.76-14.69-4.9-19.6A17.82,17.82,0,0,0,201,93.78c-2.8-1.89-5.65-1.25-6.2,2.59a17.15,17.15,0,0,0,.46,6.91,164.88,164.88,0,0,0,5.62,17,21.25,21.25,0,0,1,.6,14.91c-.74,2.43-1.5,4.87-2.47,7.22a17.18,17.18,0,0,1-10.51,9.87c-5.27,1.92-9.73,7-4.42,13.68a8.09,8.09,0,0,1,1,1.82c1.48,3.32-.14,6.14-1.45,9a28.23,28.23,0,0,0-1.83,5.18,3.87,3.87,0,0,0,.59,2.49c1.15,0,2.69-.05,3.37-.77a22.62,22.62,0,0,0,4.46-6.11A15.23,15.23,0,0,1,199,169c5.38-2.1,8.15-6,8.39-12,.29-7.42,1.17-14.82,1.79-22.23C209.69,128.6,210.19,122.42,210.51,118.53Z"/><path d="M193.14,117.34a4.27,4.27,0,0,1-4.57,4.43c-3.24,0-5.8-2.29-5.8-5.17,0-1.92,3-4.39,5.3-4.36A5,5,0,0,1,193.14,117.34Zm-4.75-2.63-.86,0a5.93,5.93,0,0,0-.67,2.15c.06.63.7,1.21,1.08,1.82.5-.56,1.38-1.1,1.41-1.69C189.38,116.26,188.74,115.48,188.39,114.71Z"/><path d="M160.93,124.24c-3.16,0-4.6-1.23-4.6-3.95,0-2.42,2.76-5.19,5.11-5.13a4.3,4.3,0,0,1,4.25,4.6C165.7,122.5,163.87,124.23,160.93,124.24Zm-1.12-3.76,1,.69c.43-.68.88-1.34,1.25-2,0-.06-.53-.43-.82-.65Z"/><path d="M179.16,138.81a10.43,10.43,0,0,1-3-.43,2.63,2.63,0,0,1-1.1-1.91c0-.28,1-1,1.6-1,2.91.14,5.55-.25,7.8-2.42.41-.39,1.78.21,2.71.35-.14.78,0,1.79-.45,2.3A9.17,9.17,0,0,1,179.16,138.81Z"/><path d="M159.4,103c0-4,3-5.74,5.95-4.14,1.39.74,1.54,1.91.37,3a15.86,15.86,0,0,1-2.61,2.2,3.84,3.84,0,0,1-2.61.44C159.93,104.3,159.59,103.28,159.4,103Z"/><path d="M186.53,107.68a28,28,0,0,1-4.4-.52c-.66-.17-1.11-1.14-1.65-1.75.57-.34,1.14-1,1.71-1a39,39,0,0,1,6.11.46c.56.09,1,1,1.49,1.56a13.67,13.67,0,0,1-1.76,1.2A4.39,4.39,0,0,1,186.53,107.68Z"/><path d="M157.31,113l-1.68-1.83c.51-.4,1-1,1.55-1.16a22.68,22.68,0,0,1,4.61-.78c.57,0,1.18.73,1.77,1.13-.48.48-.89,1.19-1.47,1.4C160.68,112.3,159.19,112.56,157.31,113Z"/></svg>