<svg id="Layer_1" data-name="Layer 1" xmlns="http://www.w3.org/2000/svg" viewBox="0 0 348.94 253.13"><path d="M143.86,153.13c-1.56.66-2.59,1.19-3.69,1.54a5.3,5.3,0,0,1-2.39.25,1.83,1.83,0,0,1-1.23-1.17,1.79,1.79,0,0,1,.86-1.43c1.63-.86,3.37-1.53,5-2.36.4-.2.94-.73.91-1.07-.19-2.52-.5-5-.83-7.95-.77.73-1.17,1.41-1.73,1.57a12.88,12.88,0,0,1-2.79.22c-.05-.88-.46-2-.09-2.61,1.79-3,1.86-3-.8-5.22a25.34,25.34,0,0,1-3.12-2.69c-2.42-2.81-1.82-6,1.44-8.5,1.06-.81,2.11-1.63,3.56-2.76-1.76-.41-2.68-.58-3.43.82-.85,1.58-2.4,1.35-3.84.85-.9-.32-1.73-.85-2.64-1.16-2.73-.94-3.4-1.87-3.09-4.75a2.52,2.52,0,0,1,.84-1.55c4.76-3.75,6.94-8.43,5.63-14.55a12.37,12.37,0,0,1,.06-3.69c.25-2.4.9-4.8.83-7.18-.12-3.91,2.18-7,3-10.65.46-2.11,1.69-4.08,2-6.2.61-4.75,5.35-7.27,8.76-7.91,1.37-.26,2.83,0,4.23-.14a3,3,0,0,0,1.57-1c1.75-1.83,3.12-4.71,5.21-5.38,4.26-1.37,8.11-4.7,13.44-2.41,4.65,2,9.12,4,13.16,7.07a91.71,91.71,0,0,0,8.75,5.83,9.58,9.58,0,0,0,4.23,1.29,3,3,0,0,1,2.8,1.64c1.72,3.07,3.84,5.71,7.28,7a2,2,0,0,1,.89,1.42c.37,3.08,2.35,4.88,4.67,6.62a21.94,21.94,0,0,1,4.15,4.24c1.7,2.23,1.18,4.74.13,7.07a7,7,0,0,0-.16,6c.36.88-.16,2.18-.42,3.26a22.49,22.49,0,0,0-1,3.23c-.28,3.68-1.68,5.4-5.35,6.17-.32.07-.66.1-1.41.22,6.13,4.6,3.88,9.12.18,13.4a18.47,18.47,0,0,1,2,2.7,5.28,5.28,0,0,1,.08,2c-.71,0-1.57.22-2.1-.1a18,18,0,0,1-2.68-2.37,11.66,11.66,0,0,0-.18,1.53,18.46,18.46,0,0,1,.2,4.11c-.88,4.52,2,6.55,5.24,8.4a3.43,3.43,0,0,1,1,.64,9.35,9.35,0,0,1,.83,1.49c-.52.25-1.13.82-1.55.71a12,12,0,0,1-3.11-1.41,13.56,13.56,0,0,1-2-1.79c-1.81,3-1.6,8.75.38,10.88a9.19,9.19,0,0,0,2.38,1.51c.35.19.93.08,1.17.33a23.84,23.84,0,0,1,1.67,2.16c-.84.16-1.8.65-2.51.41a45.26,45.26,0,0,1-5-2.29c-.76,2.88-1.59,5.9-2.31,8.95-.08.36.37,1,.75,1.27,1.46,1.06,2.67,2.56,4.89,2.26.51-.07,1.21,1.25,1.82,1.94-.63.4-1.4,1.26-1.87,1.13a17.53,17.53,0,0,1-5-2.14c-1.54-1-2.35-1-3.23.66a44.59,44.59,0,0,1-3,4.72c-.68,1-.75,1.68.18,2.48a26.73,26.73,0,0,1,2.69,2.52c.33.38.59,1.3.38,1.54a1.83,1.83,0,0,1-1.62.48,9.82,9.82,0,0,1-2.23-1.38c-1.32-.94-2.54-1.17-3.83.13-1.5,1.5-3.1,2.9-4.73,4.4.71.87,1.43,1.69,2.08,2.57,3.11,4.19,2.59,8.82,1.49,13.47a2.22,2.22,0,0,1-1.45,1c-.72-.61-1.73-1.41-1.78-2.19a20,20,0,0,1,.65-4.69c.57-3.16-.68-5.67-2.81-7.83a1.77,1.77,0,0,0-1.6-.37c-5,2.65-10.39,2.34-15.75,1.82-1.3-.12-1.9.07-2.06,1.46s-.86,3-.85,4.45a41.34,41.34,0,0,0,.74,6c.1.6.66,1.19.58,1.73a9.18,9.18,0,0,1-.94,2.27c-.68-.46-1.68-.76-2-1.39a16,16,0,0,1-1.33-10.65c.37-1.67,1.27-3.64.72-5-.48-1.18-2.66-1.65-4.07-2.47-2.2-1.28-3.22-1-4.49,1.17a26.14,26.14,0,0,1-1.49,2.7c-.68.91-1.59,1.37-2.63.4a1.69,1.69,0,0,1-.25-2.67,33.07,33.07,0,0,0,2.9-4.49,2.07,2.07,0,0,0-.24-1.74c-1-1.57-2.24-3-3.21-4.56a1.83,1.83,0,0,0-2.74-.83,16.59,16.59,0,0,1-2.94,1.49,2.33,2.33,0,0,1-2.08-.54,2.13,2.13,0,0,1,.28-2.1,49,49,0,0,1,4.88-2.86l-2.81-10c-.72,1.13-1.16,2.36-2,3a7.74,7.74,0,0,1-3.42,1.27c-.38.07-1.15-.75-1.32-1.29-.1-.34.56-1,.92-1.4,1-1.18,2-2.32,2.88-3.52.28-.37.25-1.06.58-1.3C145.74,159.11,143.55,156.19,143.86,153.13Zm.9-35.76-.66,0c.77,7.32,1.5,14.65,2.33,22,1,8.9,1.82,17.83,3.22,26.67,1.12,7,3.76,13.55,10,17.81a24.92,24.92,0,0,0,11.54,4.68c7.78.83,13.67-2.68,18.64-8,7-7.46,10.26-16.43,11.22-26.65a168.07,168.07,0,0,0-.86-36.51c-1.23-10-3.53-19.77-5.63-29.59-.6-2.8-2.11-5.4-5.65-5.66a6.56,6.56,0,0,1-2.12-.78c-7.13-3.3-14.24-6.62-21.38-9.88a3.38,3.38,0,0,0-2.32-.32c-3.75,1.43-7.07,3.38-8.45,7.55A13,13,0,0,1,153,81.5c-1.48,2.3-3.61,4.42-4.35,6.94C145.84,97.85,143.61,107.39,144.76,117.37Zm-4.24,7a47.14,47.14,0,0,0-4,3.2c-.43.42-.74,1.67-.48,1.94,1.63,1.66,3.43,3.15,5.56,5C141.21,130.94,140.9,128,140.52,124.37ZM206,127.82l.61.23c1.22-1.86,3.52-3.42,2.95-5.86-.35-1.47-2.23-2.57-3.42-3.84l-.75.45Z"/><path d="M177.15,134.31c-1.49-.48-3-.86-4.46-1.47-1.72-.74-2-2.32-1.86-4s1-2.15,2.67-2.49a24.87,24.87,0,0,0,5.91-2.32c1.57-.78,3.34-1.57,4.58-.29a5.51,5.51,0,0,1,.9,4.1C184.32,131.93,181.41,134.15,177.15,134.31Zm-1.8-4.46c2.9.73,5.08-.27,5.5-2.4Z"/><path d="M187.87,91.49c-2-.19-4-.35-5.91-.59-2.92-.35-4.55-4.22-2.62-6.44.37-.42,1.54-.25,2.33-.17s1.8.46,2.72.56c2.28.26,4.57.36,6.84.68a2.26,2.26,0,0,1,1.58,1.12,30.25,30.25,0,0,1,1,4c-1.15.24-2.28.55-3.44.69a14.54,14.54,0,0,1-2.46-.09Z"/><path d="M148.42,101.13c0-2.94,2-4.71,5.29-4.71a5.27,5.27,0,1,1,.4,10.53C150.59,107,148.43,104.81,148.42,101.13Zm7.26.33-.08-.7c-.59-.26-1.34-.87-1.73-.7a8,8,0,0,0-1.91,1.73c.54.39,1.17,1.19,1.59,1.08A7.44,7.44,0,0,0,155.68,101.46Z"/><path d="M158.18,86.37c1.77-.4,3.53-.89,5.32-1.13a2.13,2.13,0,0,1,1.74.93c1,2.13-.15,5-2.45,5.21a50.13,50.13,0,0,1-10.95-.22c-2.12-.26-2.48-2.3-.71-3.58A12.48,12.48,0,0,1,155.45,86a9.94,9.94,0,0,1,2.66.07Z"/><path d="M182.34,99.46c0-2.73,1.72-5.09,3.76-5.13,4.28-.09,7,1.94,7,5.24,0,2.53-2.75,5.1-5.47,5.11A5.48,5.48,0,0,1,182.34,99.46Zm7.81-.4c-1-.74-1.72-1.47-1.93-1.35a7.31,7.31,0,0,0-2.05,1.87,3.36,3.36,0,0,0,1,1.32A24.56,24.56,0,0,0,190.15,99.06Z"/><path d="M150.48,128.56a31.86,31.86,0,0,1,2.87-4.3c.39-.44,1.66-.09,2.52-.11,0,.87.32,2.1-.13,2.53-1.46,1.41-1.37,2.85-.74,4.5.2.51.53,1.11.4,1.56-.21.69-.64,1.66-1.19,1.83a2.16,2.16,0,0,1-1.93-.89A46.12,46.12,0,0,1,150.48,128.56Z"/><path d="M193.71,121.55c0,.62.12,1.36-.16,1.82-.4.64-1.13,1.49-1.73,1.49s-1.41-.8-1.78-1.45,0-1.33,0-2a1.89,1.89,0,0,0-1.34-2.19c-.65-.26-1-1.37-1.42-2.1.81-.2,1.71-.73,2.44-.55C192.57,117.27,194,118.51,193.71,121.55Z"/></svg>