<svg id="Layer_1" data-name="Layer 1" xmlns="http://www.w3.org/2000/svg" viewBox="0 0 348.94 253.13"><path d="M227.87,96.51c1.4,1.4.95,3.06-1,3.59a2,2,0,0,0-1.72,2.51,28.66,28.66,0,0,1-.19,4.09,12.09,12.09,0,0,1,1.83-.72,16.71,16.71,0,0,1,3.81-.56c1.35,0,1.59.81.74,1.85a7.69,7.69,0,0,1-5,2.64,1.63,1.63,0,0,0-1.59,1.67c0,2.67,0,5.35,0,8.21,2-.53,3.87-1.07,5.78-1.51,1-.23,2.35-.59,2.89.52s-.7,1.75-1.44,2.39a4.26,4.26,0,0,1-1.43.82c-1.5.49-3.05.85-4.55,1.38a1.39,1.39,0,0,0-.74,1.07c.21,2.24.48,4.48.88,6.69.08.44.78.93,1.29,1.07a14,14,0,0,0,2.53.21,6.8,6.8,0,0,0,7.09-4.32c.67-1.7,1.13-3.47,1.7-5.21.21-.64.45-1.27.68-1.91a1.62,1.62,0,0,1,1.87-1.11c1.88.1,2.83.93,2.37,2.75-.83,3.23-1.68,6.51-3.74,9.26a9.2,9.2,0,0,1-9.12,3.87c-.8-.1-1.61-.17-2.41-.26-1.25-.15-1.45,0-1.23,1.29.55,3.32,1.17,6.62,1.7,9.93q.51,3.15.85,6.32c.08.79.3,1.29,1.15,1.38a1.86,1.86,0,0,1,.73.21,9.86,9.86,0,0,0,6.37,1.24c1-.15,2.45,0,2.65,1.23s-1.26,1.4-2.13,1.73a7.17,7.17,0,0,1-6.46-.71c-.29-.17-.6-.31-.9-.46-.84-.4-1.16-.1-1.16.79a52.39,52.39,0,0,1-1.26,13c-.1.37.29,1,.64,1.33,1.7,1.53,3.51,2.94,5.19,4.49A4.77,4.77,0,0,1,236,181c-2.35.44-3,.05-4.31-1.64a56.64,56.64,0,0,0-4.1-4.17c-.32.8-.49,1.16-.61,1.53a32.09,32.09,0,0,1-13,17.43c-.84.57-1.19,1.13-.73,2.08a1.18,1.18,0,0,1,.12.49c-.05,4.63,0,9.27-.21,13.89a1.94,1.94,0,0,1-2.26,2,2.82,2.82,0,0,1-2-2.87c.13-4.08.16-8.16.22-12.24,0-.1-.1-.21-.22-.44-8.78,3.9-17.6,3.7-26.61-.17-.22,2.52-.47,4.79-.61,7.06-.16,2.67-.23,5.35-.32,8,0,1.43-.67,2.41-1.67,2.48a2.49,2.49,0,0,1-2.34-2.42c.26-5.05.61-10.1,1-15.14,0-.56.56-1.09.88-1.68l-10.52-7.73c-.33.62-.65,1.25-1,1.86a23.63,23.63,0,0,1-1.69,2.84,3.7,3.7,0,0,1-3.53,1.62c-1.78-.22-2.4-1-2.17-3,1.83,0,2.56-1.46,3.3-2.87a11.66,11.66,0,0,1,1.15-2.12c1-1.2.58-2-.36-3a73.72,73.72,0,0,1-9.35-13.48l-.69-1.23a41.71,41.71,0,0,1-4.1,3.13,3.39,3.39,0,0,1-2.49.21,1.63,1.63,0,0,1-.43-2.8c1.65-1.4,3.38-2.71,5-4.14a1.83,1.83,0,0,0,.44-1.49c-.78-4.22-1.79-8.4-2.43-12.64-.59-3.85-.81-7.76-1.18-11.64a3.05,3.05,0,0,0-.38-1.46c-.38.46-.79.9-1.13,1.39-3.65,5.14-4.92,10.93-4.73,17.13,0,1.51-.47,2.11-1.84,2.16a2.22,2.22,0,0,1-2.36-2.12c-.31-6.33.77-12.34,4.53-17.56a54.56,54.56,0,0,1,5.4-5.9c.65-.68,1.62-4.07.95-4.57a4.6,4.6,0,0,0-2.78-.81,5,5,0,0,1-3.57-1c-.64-.49-1.19-1-.59-1.91s2.11-1.35,2.57-.82c.72.81,1.58.66,2.45.77s1.72.37,2.78.6c.36-1.45.78-2.91,1.06-4.39a1.38,1.38,0,0,0-.47-1.17c-1.69-1-2.35-2.49-3.05-4.2-.91-2.25-2-4.41-2.14-6.88a84.9,84.9,0,0,1-.44-9.41A105.62,105.62,0,0,1,147,83.82c.83-4.22,2.37-8.37,5.76-11.43.62-.55,1.42-.89,2.07-1.42.37-.3.86-.79.83-1.16-.11-1.86,1.05-2.77,2.48-3.3,3.14-1.16,6.33-2.2,9.53-3.21a29.33,29.33,0,0,1,5.62-1.43,55.6,55.6,0,0,1,7.85-.2,66.49,66.49,0,0,1,25.59,6.26A77.19,77.19,0,0,1,215,72.68a4.68,4.68,0,0,0,4,.27,2.63,2.63,0,0,1,2.84.81,1.94,1.94,0,0,1,.31,2.54c-.47.91-.3,1.48.69,1.9,1.21.51,2.35,1.17,3.54,1.74,1.37.65,1.74,1.26,1.07,2.59a2.59,2.59,0,0,0,.58,3.31c.66.73,1.64,1.78,1.5,2.51a5.63,5.63,0,0,0,.54,4.47c.2.33-.23,1.19-.55,1.69A17.46,17.46,0,0,1,227.87,96.51Zm-7.68,26.23c-1.58,3.44-4.39,3.8-7.55,3.36-3.33-.45-6.66-.84-10-1.36-2.41-.38-4.73-1-5.61-3.73a21.5,21.5,0,0,1-.95-3.69c-.14-.91-.5-1.22-1.37-1.27q-3.37-.18-6.73-.48c-.73-.07-.86.28-.9.88-.13,1.65-.31,3.3-.44,5a4,4,0,0,1-3.24,3.75,28.78,28.78,0,0,1-12,.38,3.9,3.9,0,0,0-1.63,0c-2.94.9-7.78-1.28-7.82-5.53,0-2.07,0-4.14,0-6.21a11.47,11.47,0,0,0-.24-1.54l-.42,0a2.84,2.84,0,0,0-.31.75c-.25,1.62-.45,3.24-.7,4.86-.32,2.13-1.21,2.94-3.41,2.94-1,0-1.4.36-1.61,1.33A67.88,67.88,0,0,0,154,146.57c.59,4.12,1.38,8.21,2.2,12.29.69,3.44,1.3,6.94,3.05,10.07,3.46,6.2,7.48,12,13,16.55,3.62,3,7.33,6.12,11.51,8.13,6,2.86,12.34,4,19,1.78,7.24-2.42,13-6.6,16.89-13.16a48.57,48.57,0,0,0,4.72-11.93c1.81-6.46,1.23-13,.45-19.51s-2.12-12.64-3.21-19c-.36-2.13-.69-4.27-1-6.41C220.46,124.53,220.33,123.63,220.19,122.74Zm-24.25-8.83c.05-.24.13-.81.26-1.37a19,19,0,0,1,1-3.4,2.59,2.59,0,0,1,1.65-1.37,29.69,29.69,0,0,1,5.33-.21c3.14.13,6.31.61,9.37-.24a4.48,4.48,0,0,1,5.68,4,6.07,6.07,0,0,0,.37,1.42l.4-.06c.17-3.52.31-7,.51-10.54a1.62,1.62,0,0,0-1.65-1.93,32.22,32.22,0,0,1-8-2.06,13.78,13.78,0,0,0-3.23-.61c-3-.44-5.95-.86-8.93-1.28l-1.19-.17c-.33,1.8-.56,2-2.3,1.94-.55,0-1.1,0-1.65,0C190,98,186.39,98,183.19,96A5.6,5.6,0,0,0,180.65,95,77.61,77.61,0,0,1,162,91.68c-2.48-.71-3-.17-2.73,2.48,0,.17.07.33.09.5.57,4.5,1.68,8.94,1.4,13.53,0,.27.36.83.49.81.55-.08,1.38-.18,1.57-.55a4.81,4.81,0,0,1,5-2.81c1.36.07,2.71.18,4.06.34,3.87.47,7.75.91,11.61,1.5,2.44.37,3.38,1.49,3.55,3.9.09,1.18.54,1.75,1.76,1.84C191.11,113.39,193.43,113.66,195.94,113.91Zm-19.47,9.26c1.74-.21,3.44-.36,5.11-.64a1.67,1.67,0,0,0,1.61-1.55q.39-5,.76-9.9c.06-.75-.25-1.09-1-1.08a19.52,19.52,0,0,1-2.42-.13c-3.88-.44-7.75-.92-11.63-1.34-1.69-.18-2.5.28-2.67,1.79q-.57,5.06-.81,10.14a2.23,2.23,0,0,0,2.94,2.22,7.44,7.44,0,0,1,3.75,0C173.54,122.91,175,123,176.47,123.17Zm22.85-6.59.17,0a15.08,15.08,0,0,0,0,1.78c.35,2.87.79,3.49,2.73,3.72q5.63.68,11.26,1.28c2,.21,2.74-.47,3.12-2.44.67-3.51.09-6.93-.66-10.33a1.29,1.29,0,0,0-1-.79c-2.91.05-5.82.23-8.73.31-1.57,0-3.14,0-4.7-.07a1.22,1.22,0,0,0-1.42,1.13C199.84,113,199.58,114.78,199.32,116.58Z"/><path d="M191.34,154.21c-4.63,0-8.35-2.08-12-4.68a9.84,9.84,0,0,1-4.06-6.73c-.39-2.24,1.06-3.93,3.29-3.6a13,13,0,0,1,4,1.11A23.54,23.54,0,0,0,193,143a28.23,28.23,0,0,1,3.67.3c4.52.66,4.78,3.53,3.39,6.75-1.14,2.64-3.41,3.88-6.31,4C192.94,154,192.14,154.13,191.34,154.21Zm-11.25-11.09c.19,1.52.53,2.73,1.72,3.54s2.25,1.51,3.35,2.31a9.09,9.09,0,0,0,6.8,1.36,3.94,3.94,0,0,0,3.56-2.47c.45-1.24.14-1.7-1.15-1.59a22.13,22.13,0,0,1-10-1.4C183,144.34,181.67,143.76,180.09,143.12Z"/><path d="M171.32,102.12c-1.23-.1-2.42-.19-3.47.76a2,2,0,0,1-2.68-.63,2.1,2.1,0,0,1,1.31-2.44,21.09,21.09,0,0,1,4.28-.24,5.92,5.92,0,0,1,2.32.61c.39.19.59.78.87,1.18a3.88,3.88,0,0,1-1.11.73A5.92,5.92,0,0,1,171.32,102.12Z"/><path d="M215,104.94c-2.19-.39-4-.68-5.81-1.09a1.26,1.26,0,0,1-.68-1,1.15,1.15,0,0,1,.71-.86,10.14,10.14,0,0,1,5.84.4,1.36,1.36,0,0,1,.95,1.8C215.87,104.58,215.21,104.79,215,104.94Z"/><path d="M166.75,116c.3-2.6.65-4.84,3.11-5.85A3.74,3.74,0,0,1,172,110a8,8,0,0,1,4.53,2.83c1.58,2,1.13,4,.2,6s-2.95,2.49-5,2.4a4.78,4.78,0,0,1-4.39-3.12A14.33,14.33,0,0,1,166.75,116Zm7.46-.9c-.3-.55-.47-1.35-.93-1.58a1.67,1.67,0,0,0-2.61,1.43,12.09,12.09,0,0,0,0,2.17c0,1,.63,1.3,1.56,1C173.4,117.67,174,116.74,174.21,115.06Z"/><path d="M203.82,116.51c.33-1.2.22-2.86,1.77-3.85a6.17,6.17,0,0,1,7.32.59,5,5,0,0,1,.52,6.79,5.86,5.86,0,0,1-5.81,2A5.77,5.77,0,0,1,203.82,116.51Zm7.09.4a1.62,1.62,0,0,0-1.45-1.84c-.94-.21-1.05.39-1.23,1a3.52,3.52,0,0,0-.32,1.07,13.37,13.37,0,0,0,.44,1.95,9,9,0,0,0,2-.92C210.75,117.89,210.8,117.21,210.91,116.91Z"/></svg>