<svg id="Layer_1" data-name="Layer 1" xmlns="http://www.w3.org/2000/svg" viewBox="0 0 348.94 253.13"><path d="M190.42,192.11c-1.75,1.65-3.49,3.2-5.1,4.86a2.91,2.91,0,0,0-.43,1.74c-.2,3.92-.31,7.85-.59,11.77a7,7,0,0,1-1.12,2.26c-.75-.61-2.05-1.14-2.14-1.83a53.83,53.83,0,0,1-.18-7.19c0-1.48.23-3,.32-4.09l-20.88-2.16c.45,3.89.84,7.28,1.23,10.67.07.55.36,1.16.19,1.62a11,11,0,0,1-1.24,2.07c-.68-.54-1.8-1-2-1.63a53.37,53.37,0,0,1-1-6.33c-.14-1.1-.18-2.2-.27-3.3-.21-2.46-.84-4.28-3.33-5.85s-4.14-4.65-6.22-7c-.66-.75-1.57-1.94-2.26-1.87a3.62,3.62,0,0,0-3.4,3,14.69,14.69,0,0,1-2.51,5.11c-1.45,2-3.52,1.88-5.07,0a2,2,0,0,1-.46-1.6c.26-.5,1.11-1.17,1.52-1.06,2.33.63,2.72-1.13,3.18-2.55,1.38-4.25,1.33-4.26,4.84-6.23-1.05-2-2-4-3.19-5.9-1.1-1.69-4.3-1.94-6.08-.7-2.23,1.54-4,1.61-5.11,0-.36-.51-.25-1.35-.36-2,.66,0,1.31,0,2,0,.49,0,1.06.3,1.46.13a28.63,28.63,0,0,1,3.08-1.55,15.25,15.25,0,0,1,3.56-.05c-1-4-2-7.89-3-11.73-1.9-.55-3.79-1.17-5.71-1.6-.77-.17-1.68.28-2.43.08-.49-.13-.81-.9-1.22-1.39.48-.37.93-1.05,1.42-1.08,2.27-.11,4.55,0,7.39,0-.78-5.3-1.14-11.09-2.56-16.62-1.73-6.77-4.55-13.27-6.52-20-1.54-5.25-.68-10.43,1.2-15.6,1-2.77.79-6,1.39-8.91,1-5,2.49-9.9,5.52-14.12,2.49-3.46,6-5.37,10.07-6.46a4.49,4.49,0,0,1,2.64-.05c2.6,1.1,3.37-.31,3.89-2.44.89-3.73,3.7-6,6.58-8.09,8.31-6.09,19.43-3.58,27.17,2,9.86,7.12,14.66,17.14,18,28.54,3.45,11.75,5.05,24.11,10.56,35.17,3,6.08,7,11.66,10.53,17.49a19.51,19.51,0,0,1,2.09,4.22c.75,2.45-.24,4.1-2.61,5.05-6,2.42-12.11,3.83-18.49,1.36a4.17,4.17,0,0,0-1.11,0c.33.68.56,1.2.83,1.7a26,26,0,0,1,2.95,12.32c0,.76-.74,1.52-1.14,2.28-.84-.62-2-1.07-2.41-1.9s-.37-2.28-.52-3.44c-.42-3.47-1.15-6.84-3.57-9.82q-1.11,5.64-2.23,11.26a56.7,56.7,0,0,1-1.22,5.85c-.53,1.69,0,2.25,1.58,2.78a12.27,12.27,0,0,1,3.79,2.35c.49.42.46,1.44.66,2.18a9,9,0,0,1-2.22-.33c-1.25-.52-2.4-1.3-3.65-1.85-1-.43-1.65-.2-2,1a29.63,29.63,0,0,1-1.55,4.05c-1.34,3-1.37,3,1.08,5.21a6.67,6.67,0,0,1,1.08,1,18.47,18.47,0,0,1,1,1.94c-.86,0-1.9.34-2.54,0A22,22,0,0,1,190.42,192.11ZM140.15,98.83c-1.46,4.47-2.69,8.7-4.21,12.82-2.6,7-3.21,14-1.05,21.25,1.08,3.6,2.68,7.08,2.57,11a3.54,3.54,0,0,0,.41,1.38c2.34,5.29,5.21,10.3,9.94,13.75,3.87,2.82,8.13,5.1,12.25,7.58,1,.6,1.85,1.36,1.14,2.42a2.59,2.59,0,0,1-2.36.73c-7.76-3.24-14.53-7.84-19.45-14.83-.25-.35-.56-.66-1-1.11-.14.42-.29.62-.25.78,1.76,6.86,2.88,14,5.51,20.49,2,5.06,5.89,9.41,9.08,14,2.4,3.43,5.9,4.95,10,5.32,3.69.33,7.35.92,11,1.4a3.33,3.33,0,0,0,1.42.1c3.61-1.34,7.2-2.64,9.84-5.74a32.14,32.14,0,0,0,6.4-13.51c1.35-5.48,2.32-11.06,3.41-16.6,1.3-6.62,2.91-13.27,2.16-20.06-.83-7.52-2.09-15-3.28-22.47C193,112.31,192,107.17,191,102a8.68,8.68,0,0,0-1.18-2c-.37,3.4-.54,6.12-1,8.79-.35,1.94-1.3,3.76-3.41,4.31-7.18,1.87-15-2.3-13.34-10.8.56-2.9.32-3.13-2.46-4.19a8.9,8.9,0,0,0-7.59.57c-.81.47-.58,2.79-.81,4.26,0,.13,0,.28,0,.41-.4,3.29-1.64,6-5.07,7.09s-6.45,1-9.27-1.44c-3-2.62-3.76-5.93-3.14-9.81Zm32.51,0c1.2-3,3.47-3.16,5.93-2.8,1.83.27,3.65.63,5.47,1s3.53.8,5.46,1.25c-4.42-14.57-14.06-20.95-29-20.37-7.37.28-20.79,11.71-20.28,19.91l3.51.51a7.49,7.49,0,0,0,.41-1.55c0-2.08,1.31-3,3.15-3.11a47.15,47.15,0,0,1,7.42-.06c2.33.22,4.63.88,5.72,3.42a1.41,1.41,0,0,0,1.27.53C165.51,96.45,169.17,96.18,172.66,98.86Zm39.23,57.63c2.8-.78,5.72-1.53,8.6-2.41,2.68-.82,3-1.87,1.36-4.12-8.54-11.73-15.23-24.36-18.71-38.55-.22-.9-1-2.25-1.66-2.35-2.31-.33-2.73-2-3.35-3.69a41.37,41.37,0,0,0-2.27-5.25c-.3-.56-1.24-.77-1.88-1.13-.19.77-.69,1.62-.52,2.32.86,3.68,1.95,7.3,2.84,11A173.18,173.18,0,0,1,201,146c.07,1.72.22,3.43.37,5.15a3.65,3.65,0,0,0,2.88,3.58C206.66,155.31,209.14,155.85,211.89,156.49ZM151.19,94l-.07.39c-.69,0-1.37,0-2.06,0-3.38.13-3.74.43-4.32,3.68a32.63,32.63,0,0,0-.4,3.28c-.32,4.3,3.2,8.57,7.27,8.81,3,.18,5.94-.36,7.5-3.26a10.91,10.91,0,0,0,0-10.32,2.91,2.91,0,0,0-1.74-1.31C155.35,94.79,153.26,94.45,151.19,94Zm30.58,18.63c3.81,0,5.41-.74,6-3.58a37.83,37.83,0,0,0,.31-8.52,2.79,2.79,0,0,0-1.72-2A68.48,68.48,0,0,0,177,96.92a3.48,3.48,0,0,0-2.9,1.4c-1.43,3.18-2.26,6.67-.53,9.93A8.37,8.37,0,0,0,181.77,112.67Z"/><path d="M161.24,125.41a13.61,13.61,0,0,1-8.58-3.81c-.45-.42-.38-1.41-.56-2.14a6.77,6.77,0,0,1,2.42-.37c.75.15,1.33,1,2.08,1.28,1.57.56,3.19,1,4.8,1.37.52.14,1.26-.11,1.6.17a4.81,4.81,0,0,1,1.42,2c.07.2-.91.89-1.49,1.17A6.79,6.79,0,0,1,161.24,125.41Z"/><path d="M143.72,122.31c-.33-.27-1.26-.67-1.42-1.28s.44-1.44.94-2a50.73,50.73,0,0,1,4.45-4.1,9,9,0,0,1,2.39-1c.16.82.63,1.73.43,2.45C149.76,119.08,146.1,122.33,143.72,122.31Z"/><path d="M151.68,87.65c.37.36,1.12.78,1.14,1.22a1.87,1.87,0,0,1-1,1.53,53.18,53.18,0,0,1-6,1.1c-.37,0-1.2-.6-1.16-.74.18-.64.48-1.6,1-1.74C147.51,88.44,149.46,88.13,151.68,87.65Z"/><path d="M182.43,92.56c1.62.9,3.12,1.65,4.52,2.56.33.22.35.94.51,1.42-.55.14-1.18.51-1.66.36A49.24,49.24,0,0,1,181,95.1a1.6,1.6,0,0,1-.6-.87C181,93.7,181.57,93.25,182.43,92.56Z"/><path d="M146.29,99.93c-.28-3.19,1.8-3.82,4.7-4.06s5.59,2.43,5.51,4.78a4.67,4.67,0,0,1-4.95,4.88A5.26,5.26,0,0,1,146.29,99.93Zm6.76.64c-.72-.7-1.14-1.45-1.63-1.5s-1.34.84-1.27,1.14a7.72,7.72,0,0,0,1.21,2.07Z"/><path d="M183.46,108.63c-3.85-.14-6.18-1.82-6.09-4.38.13-3.68,1.87-5.74,4.95-5.41,3.4.37,6,2.21,5.78,6.12C188,107.53,186.48,108.73,183.46,108.63Zm.9-4.17-1.53-2.65a6.7,6.7,0,0,0-1.28,2.19c-.07.52.73,1.16,1.14,1.74Z"/></svg>