<svg id="Layer_1" data-name="Layer 1" xmlns="http://www.w3.org/2000/svg" viewBox="0 0 348.94 253.13"><path d="M222.14,123.53c2.05.27,2.56,1.4,2.23,3a31.32,31.32,0,0,1-1.49,6c-1.86,4.29-2.74,4.71-7.39,4.49-.8,2.31-.4,3.9,1.35,5.29.11.09.24.15.34.23,5.24,4,6,7.08,3.72,13.3a16.22,16.22,0,0,0-.7,5.86c.13,4.73-.71,6.23-5,8.19a17.84,17.84,0,0,0-2.32,1.61c-.49.33-1,.87-1.51.89a86.75,86.75,0,0,1-8.83.12c-1.19-.07-2.34-.92-3.87-1.57l-3.54,4.84c1.64.65,3.09,1.12,4.44,1.79a10.15,10.15,0,0,1,1.9,1.59c-.63.51-1.29,1.47-1.91,1.45a9,9,0,0,1-4-1c-1.59-.91-2.74-1.15-3.76.65a5.58,5.58,0,0,1-1.25,1.63c-1.58,1.24-2.1,2.5-2,4.77.12,2.67-1.33,5.4-1.91,8.15a5.27,5.27,0,0,0,.32,3c.61,1.37.56,2.62-.71,3.19s-2-.46-2.63-1.63c-1.75-3.17-.5-6.13.32-9.15.28-1,.45-2.08.71-3.25-11.94,3.39-16.28,2.41-22.9-.54-.07.09-.23.18-.23.28-.06,3.41,0,6.82-.22,10.21a10.42,10.42,0,0,1-1.57,4.17,2.17,2.17,0,0,1-2.07.4,3.65,3.65,0,0,1-1.13-2.53c.22-2.64.74-5.26,1.15-7.88,0-.28.08-.55.11-.83.4-3.6-.07-6.57-3.5-9-2.91-2.05-5.08-5.15-7.65-7.86a13.6,13.6,0,0,1-3.24,1.32c-.74.12-1.61-.6-2.42-.94.46-.67.78-1.6,1.41-2,2.19-1.2,2.67-2.14,2.44-4.59a5.29,5.29,0,0,0-2.84-4.71c-5-2.9-4.83-8.83-2.34-13.5.68-1.26,1.26-2.09.37-3.77-1-1.92-.16-4.24,1.24-6,1.24-1.54,2.8-2.81,4.18-4.24.92-1,1.76-2,2.58-2.91-.32-.44-.4-.64-.48-.64-3.37-.1-5.12-2.14-6.28-5.06-.94-2.37-2-4.67-3.15-7-.63-1.28-.89-2.37.59-3.14a2.51,2.51,0,0,1,3.5,1.55c.77,1.92,1.4,3.88,2.13,5.81a11.21,11.21,0,0,0,1.28,2.81,3.9,3.9,0,0,0,2,1.29c.41.11,1.47-.48,1.45-.72a13.54,13.54,0,0,0-.64-2.91c-.05-.15-.33-.23-.5-.35-4-2.8-4.55-4.41-3-9.08,1-2.88.47-5.73-.35-8.53-1.29-4.42-2.72-8.8-3.93-13.25a11.12,11.12,0,0,1,.63-7.26c1-2.48,1.52-5.13,2.33-7.68a13.64,13.64,0,0,1,5.95-7.66A5.91,5.91,0,0,0,151,69.17c2.95-3.38,6.21-3.93,10.1-1.65.45.27.92.5,1.57.85.73-5,4.47-5.61,8.27-6a60,60,0,0,1,17.7.65c4.47.92,7.53,4,10.52,7.19A61.59,61.59,0,0,0,207.37,78a24.72,24.72,0,0,1,8.71,12.23A77.16,77.16,0,0,1,220,113.5a32.75,32.75,0,0,1-4.47,17.65,1.9,1.9,0,0,0,.23,1.82c1.09.67,2.27.65,2.88-.8,1-2.28,1.9-4.58,2.84-6.87C221.67,124.73,221.89,124.16,222.14,123.53Zm-14.13.2c.07-14.47-2.43-26-10.47-35.88a31.75,31.75,0,0,0-17.82-11.2,57.8,57.8,0,0,0-13.5-1.38c-3.86,0-8.37,4.13-9.67,8-2.59,7.85-2.29,15.9-.76,23.73a76.12,76.12,0,0,1,.12,26.29,21.63,21.63,0,0,1-1.47,5.78,61.06,61.06,0,0,0-5.63,18.25c-.41,3.31-1,6.84-.27,10,1.5,6.71,6.51,11.18,12.07,14.54a22.08,22.08,0,0,0,16,3,18.49,18.49,0,0,0,11.19-6.33A74.81,74.81,0,0,0,200.21,159C205.12,147,208.26,134.66,208,123.73Z"/><path d="M200.73,101.14c0,3.34-2.47,5.57-6.23,5.57s-6.16-2.21-6.19-5.65c0-3.59,2.41-6.72,5.24-6.77A6.84,6.84,0,0,1,200.73,101.14Zm-4.11-.62a1.84,1.84,0,0,0-2.08-2.08c-1.79,0-1.85,1.46-2,2.61s.54,1.76,1.79,1.65S196.65,102.19,196.62,100.52Z"/><path d="M155.88,100.78c.09-3.63,2.17-5.73,5.62-5.65a5.94,5.94,0,0,1,6.1,6.38,5.57,5.57,0,0,1-5.84,5.18A5.91,5.91,0,0,1,155.88,100.78Zm5.3,2.28c1.81-.19,2.37-.8,2.4-2.1s-.42-2.38-1.77-2.07a3.17,3.17,0,0,0-1.93,2C159.74,101.48,160.71,102.34,161.18,103.06Z"/><path d="M178.65,123.56a58.36,58.36,0,0,1-6-3.22c-.51-.35-.59-1.8-.34-2.58.13-.41,1.39-.58,2.15-.61a2.92,2.92,0,0,1,1.45.72,4.12,4.12,0,0,0,5.16.11c.34-.24.75-.61,1.08-.56a4.41,4.41,0,0,1,2.49.77,2.31,2.31,0,0,1-.39,2.25A60.27,60.27,0,0,1,178.65,123.56Z"/><path d="M163.53,90.94c-2,.42-3.93.87-5.9,1.24a1.51,1.51,0,0,1-1.25-.27,1.31,1.31,0,0,1,.08-1.27,9.49,9.49,0,0,1,3.43-1.92,14.32,14.32,0,0,1,4.67.4c.44.07.77.76,1.15,1.16l-1.91,1.25Z"/><path d="M197.58,91.82a11.36,11.36,0,0,1-1.65,0c-2.28-.35-4.55-.71-6.82-1.15a5.36,5.36,0,0,1-1.43-.83c.38-.5.65-1.25,1.15-1.45,2.24-.9,7.39.75,8.79,2.7C197.68,91.17,197.61,91.34,197.58,91.82Z"/></svg>