<svg id="Layer_1" data-name="Layer 1" xmlns="http://www.w3.org/2000/svg" viewBox="0 0 348.94 253.13"><path d="M136.38,98.86c-2.36-.66-4.52-1.22-6.65-1.87-.83-.25-1.47-1.79-.87-2.31a2.69,2.69,0,0,1,2.23-.34c1.64.5,3.19,1.28,4.79,1.94a1.78,1.78,0,0,0,.58,0,15.71,15.71,0,0,0-1.83-9.59c-1.12-2.15-.89-4.12-.28-6.27a30.67,30.67,0,0,0,1.28-5.78,6.71,6.71,0,0,0-1.12-4.83,3.73,3.73,0,0,1-.18-2.79,9.55,9.55,0,0,1,3.34-5,21.25,21.25,0,0,0,5.79-7.35A15.6,15.6,0,0,1,152,46.83a9.19,9.19,0,0,1,3.21-.32c1.91,0,3.82.08,5.73.11a22.45,22.45,0,0,1,9.9,2.54,17.32,17.32,0,0,1,1.86,1.51c.3.22.81.48,1.06.36,2.82-1.32,5.5-.55,8.17.43,5.53,2,11.07,4,16.57,6.17a22.58,22.58,0,0,1,13.37,12.88c.9,2.24.95,4.88,1.13,7.35.28,3.68.38,7.38.48,11.06.12,4.18,0,8.31-2.27,12.06-.68,1.12-1.14,2.37-1.74,3.54a2,2,0,0,1-.77.94c-1.11.46-.86,1.23-.38,1.84,1.71,2.16,3.45,4.3,5.28,6.36,3.41,3.84,7,7.53,10.31,11.44,2.79,3.29,2.51,7.13,1.23,11a3,3,0,0,1-2.83,2.06,1.73,1.73,0,0,0-1.71,1.57c-.28,1.29-.42,2.6-.61,3.9,0,.17,0,.34,0,.51-.66,3.08-1.89,4.08-4.78,3a3.72,3.72,0,0,1-1.26-.57c-2-1.86-4.54-1.94-7-2.3,1.39,1.49,2.8,2.93,4.13,4.44,2.88,3.27,3.06,4.86.29,8.26a58.82,58.82,0,0,1-6.59,6.52c-.64.56-1.84.49-2.83.73-.68,2-1.41,4.23-2.23,6.44a14.21,14.21,0,0,1-1.34,2.6c-.45.72-.26,1.09.37,1.56,1.3.95,2.55,2,3.78,3a3.1,3.1,0,0,1,.54.92c-.35.18-.74.55-1.06.5-1.63-.23-3.27-.54-4.38-1.93-.66-.83-1.3-1-2.11-.21a23.15,23.15,0,0,1-8.33,5.25,1.3,1.3,0,0,0-.57,1q-.51,9-.95,17.95c-.05.82,0,1.65-1.1,1.82a2,2,0,0,1-2.5-1.43,15.22,15.22,0,0,1-.34-3.92c.24-3.9.63-7.79,1-11.68.07-.84.08-1.68.12-2.49-2.66.32-5.16.82-7.68.87a71.46,71.46,0,0,1-7.45-.6c-1.43,4.08-1.13,8.39-1.23,12.66-.07,2.72-.31,5.43-.43,8.15,0,1.07-.25,2-1.57,2a2,2,0,0,1-2.1-2.09c0-1.23,0-2.47.08-3.7.16-3.91.29-7.81.52-11.72a55.2,55.2,0,0,1,.7-5.56c.12-.77,0-1.11-.8-1.4-2.87-1.1-5.91-1.84-8.28-4-.91-.86-2.38-.42-3.19.7a7.92,7.92,0,0,1-6.27,3.61c-.75,0-1.56.13-1.87-.89a1.62,1.62,0,0,1,1-2,12.29,12.29,0,0,0,3.89-3.17c.64-.73,1.82-1,2.71-1.41a72,72,0,0,1-4.21-6.07,58.63,58.63,0,0,1-3.12-7.06c-.47-1.2-1.81-1.78-3.47-1.33a38.65,38.65,0,0,1-3.95.86,2.17,2.17,0,0,1-1.49-.17,3.66,3.66,0,0,1-1.42-1.83c-.15-.76,1.36-1.63,2.25-1.28a3.94,3.94,0,0,0,3-.25,24.73,24.73,0,0,1,3.94-.71c-.44-2.1-1-4.28-1.33-6.48-.47-2.93-.77-5.89-1.19-8.82a2,2,0,0,0-.65-1c-2-2.06-4.59-2.11-7.21-2a1.21,1.21,0,0,1-.63-.09c-.79-.4-1.92-.53-1.77-1.81.11-.93,1.54-1.58,2.66-1.42,2.24.31,4.49.54,6.94.82a40.84,40.84,0,0,1-.81-4.23c-.33-3.68-.57-7.36-.79-11.05-.12-1.91-.08-1.92-1.92-1.8-2.68.18-5.3,0-7.52-1.73a6.5,6.5,0,0,1-2.15-2.29c-1.15-2.76-2.1-5.62-3-8.48-.16-.48.09-1.53.38-1.63.82-.27,1.94-.59,2.48.51.75,1.54,1.4,3.14,2,4.74.42,1.07.67,2.2,1.09,3.26a3.58,3.58,0,0,0,3,2.16,41,41,0,0,0,4.45.29c.72,0,1-.37.9-1-.11-1.27-.1-2.56-.32-3.81a45,45,0,0,1-.54-10.68C136.41,99.93,136.38,99.31,136.38,98.86Zm63.56-13.64c0-2.88.09-5.72,0-8.56-.12-3.06-1.93-4.91-4.68-6q-2.19-.85-4.34-1.84c-4.27-2-8.51-4-12.82-5.94-3.5-1.54-7-.86-9.17,1.33-3.16,3.2-6.42,6.33-10.6,8.22-2.12,1-4.26,1.91-6.43,2.77s-4.35,1.84-5.29,4c-2,4.45-4.09,8.95-5.19,13.66a51.52,51.52,0,0,0-.46,18.25c.19,1.52.33,3,.41,4.57.26,4.46.33,8.93.75,13.37.33,3.58,1.13,7.11,1.59,10.68.25,1.89.05,3.84.36,5.71.76,4.78,1.83,9.5,2.52,14.28a19.53,19.53,0,0,0,3.64,9c2.72,3.73,5.32,7.53,10.06,9,1,.29,1.94.63,2.89,1a28.29,28.29,0,0,0,11.07,2.06,58.45,58.45,0,0,0,7.43-1c6.41-1.06,11.23-4.35,13.75-10.43a51.64,51.64,0,0,0,2.3-8.18,101,101,0,0,0,2.21-11.24c.76-6.79,1.15-13.63,1.7-20.44.35-4.49.54-9,1.11-13.46A116.77,116.77,0,0,0,203.6,99a6.77,6.77,0,0,0-.47-2c-.61-1.71-1.36-3.37-1.87-5.11s-.75-3.43-1-4.74a35.29,35.29,0,0,1-4.15-.36c-2.23-.45-4.42-1.1-6.65-1.6-.71-.16-1.55,0-1.48-1.11a1.39,1.39,0,0,1,1.58-1.33A22.25,22.25,0,0,1,199.94,85.22Zm2.83,73.16.33.17a17.45,17.45,0,0,0,5-5.93,2,2,0,0,0,.05-1.57c-1-1.49-2.07-2.88-3.25-4.48C204.11,150.77,203.44,154.57,202.77,158.38Z"/><path d="M191.57,102.46a10.92,10.92,0,0,1-7.19-4.13c-.82-1-.55-3.43.34-4.41s1.74-2.38,3.52-1.93a.63.63,0,0,0,.48-.1c1.77-1.44,3.45-.54,5.08.25a5,5,0,0,1,3,4.25A5.5,5.5,0,0,1,191.57,102.46Zm.82-5.77c0-1.63-.65-2.72-1.94-3.06a1,1,0,0,0-.86.16,9.79,9.79,0,0,0-1.17,2.09,2.89,2.89,0,0,0,2.05,3.3C191.71,99.36,192.38,98.5,192.39,96.69Z"/><path d="M157.37,89.44c-.21,2.88-1,4.17-3.2,4.91-3.67,1.24-8.21-1.95-8.23-5.8a2.77,2.77,0,0,1,2.05-2.8,5.08,5.08,0,0,0,.95-.33,6,6,0,0,1,7.67,1.68A8.35,8.35,0,0,1,157.37,89.44Zm-7.1-2a17,17,0,0,0,0,2.47,1.56,1.56,0,0,0,1.6,1.52,1.07,1.07,0,0,0,1.18-1.3c-.13-1,.57-2.44-1-2.91A5.22,5.22,0,0,0,150.27,87.46Z"/><path d="M170.22,125.27c-2.7-.4-5.05-.68-7.36-1.14a3,3,0,0,1-1.76-1.27,1.92,1.92,0,0,1,.15-1.77,2.07,2.07,0,0,1,1.7-.37c3.06.64,6.11,1.53,9.26.9,1.71-.35,3.33-1.08,5-1.54a4.76,4.76,0,0,1,2.21-.13,1.12,1.12,0,0,1,.53,2,8.07,8.07,0,0,1-2.89,1.93C174.73,124.51,172.3,124.86,170.22,125.27Z"/><path d="M158.06,80.19c-2.1.12-4.21.17-6.31.38-1,.09-2,.66-3,.68-1.47,0-1.87-.9-1.18-2.23.83-1.62,2.42-1.73,3.84-1.75a62.71,62.71,0,0,1,6.69.49,1.4,1.4,0,0,1,.94.57,2.16,2.16,0,0,1,.38,1.48c-.12.38-.79.57-1.22.85Z"/><path d="M152.53,100.41c-2.19-.37-4-.65-5.83-1a2.56,2.56,0,0,1-1.24-.83c-.25-.27-.52-.85-.4-1a2,2,0,0,1,1.17-.79,3,3,0,0,1,1.22.26c2.42.66,4.83,1.11,7.32.33a4.94,4.94,0,0,1,1.87-.2c.39,0,1,.41,1,.65a1.44,1.44,0,0,1-.61,1.2C155.5,99.55,153.89,100,152.53,100.41Z"/><path d="M192.23,107.55a11.88,11.88,0,0,1-7.26-2.69c-.82-.65-.68-1.39.33-1.68a2.69,2.69,0,0,1,1.89.21c2.44,1.38,4.93,2.18,7.78,1.48.4-.1.94.33,1.42.52-.25.41-.42,1-.78,1.18C194.36,107,193.05,107.32,192.23,107.55Z"/></svg>