<svg id="Layer_1" data-name="Layer 1" xmlns="http://www.w3.org/2000/svg" viewBox="0 0 348.94 253.13"><path d="M203.77,171.25c1.88.49,3.45.78,4.92,1.32.63.23,1.07,1,1.59,1.49-.73.4-1.5,1.19-2.19,1.13a19,19,0,0,1-3.73-1.12,13.88,13.88,0,0,0-1.43-.29c-1.2,2.44-2.43,4.82-3.56,7.25-.66,1.42,0,2.43,1.16,3.36.58.45.79,1.36,1.17,2.06a10.9,10.9,0,0,1-2.15-.14,16.09,16.09,0,0,1-2.36-1.07c-2.2,2.36-4.33,4.52-3.44,8.38.6,2.56.26,5.36.2,8,0,1.32-.31,2.85-2.11,2.71a2.44,2.44,0,0,1-2.44-2.91c.12-2.24,0-4.49,0-6.91-9.5,5.82-18.8,10.79-30.19,4.28,0,2.35,0,4.5,0,6.66,0,1,.24,2.22-.18,3a3.51,3.51,0,0,1-2.34,1.79c-1.24.1-1.78-1-1.74-2.3.12-3.45.24-6.89.21-10.34a2.77,2.77,0,0,0-1.12-1.85c-1.51-1.05-3.3-1.75-4.72-2.91s-2.5-.66-3.36.61a19.23,19.23,0,0,0-1.36,2.77c-.8,1.71-2.27,2.12-4,1.89a1.68,1.68,0,0,1-1.18-.91,1.91,1.91,0,0,1,.44-1.44,38.34,38.34,0,0,1,2.79-3c1-1,2.1-1.92,3.16-2.87-2-2.87-3.86-5.73-5.91-8.48-.3-.41-1.33-.43-2-.38-1.77.11-3.54.52-5.31.49-.63,0-1.24-.95-1.87-1.47.71-.48,1.36-1.22,2.13-1.38,1.78-.37,3.63-.46,5.7-.69-.4-2.78-.37-5.44-1.26-7.73-.66-1.66-2.6-2.7-4.7-2.78-4.49-.17-5-.41-5.44-4.72a36,36,0,0,1,1.31-15.48c.93-2.85,0-6.37-.34-9.55A33.49,33.49,0,0,0,126.5,132a44.38,44.38,0,0,1,1.55-31.92c4.83-11,13.53-18,25.31-21a14.07,14.07,0,0,1,8.89.25,2.55,2.55,0,0,0,1.94,0c6.36-3.64,13.19-3.22,19.94-2a46.22,46.22,0,0,1,17.71,7.11c5,3.41,7.84,8.64,10.31,14a56.06,56.06,0,0,1,4.74,27.79c-.3,4.51.3,9.08.33,13.63,0,4.22.27,8.36,1.92,12.34a12.35,12.35,0,0,1,.68,3.65,5.66,5.66,0,0,1-4.4,6.12c-2.1.56-4.09,1.82-6.19,2C204.33,164.26,205.28,168.4,203.77,171.25Zm-66.13-59.49-.73.64c0,.74-.06,1.48,0,2.22.8,8.29,1.78,16.57,2.41,24.87.7,9.2,1.08,18.42,1.62,27.63a49.62,49.62,0,0,0,.54,6.58c1.62,8.37,6,14.85,13.72,18.75,1.72.86,3.78,1.25,5.19,2.45a12.1,12.1,0,0,0,10.73,2.85c5.66-1.11,11.22-2.52,15.63-6.48,6.59-5.92,10.34-13.66,13.48-21.74a31,31,0,0,0,2.2-12.32c-.26-9.17-.29-18.34-.54-27.51-.18-6.68-.53-13.36-.86-20,0-.6-.29-1.49-.73-1.72a2.66,2.66,0,0,0-3.85,2.19c-.53,4.18-4.31,9.05-7.76,10a15.81,15.81,0,0,1-18.18-8.41,2.75,2.75,0,0,0-3-1.88c-1.56.06-1.86,1.18-2.29,2.45-1.86,5.57-5.54,9.68-11.47,10.27-7.58.77-12.88-1.17-14.17-9C139.5,112.86,138.32,112.35,137.64,111.76Zm-.1,53.41c0-1.11.09-2.41,0-3.7-.9-10.77-1.51-21.59-2.89-32.31a99,99,0,0,1-.58-24.49c.1-.86.22-2,.78-2.48,3.45-2.7,6.75-5.63,11.75-5.08a14.2,14.2,0,0,0,7.29-.79A16,16,0,0,1,164.24,95a18.93,18.93,0,0,0,6.37.15c5-.77,10.17-.15,15-2.59,3.6-1.81,7.21,0,10.56,1.81,1.32.73,2.91,1,4.27,1.68a5.07,5.07,0,0,1,2.46,2c2,5,2.55,10.25,2.66,15.58q.39,18.09.69,36.18c.07,3.69,0,7.38,0,11.26,1.87-.54,3.29-1.09,4.75-1.36,4.3-.79,4.79-1.41,4.07-5.74-.12-.75-.43-1.46-.57-2.2a54.74,54.74,0,0,1-1-6.06c-.25-3.51-.27-7-.4-10.54-.11-3.23-.58-6.5-.31-9.7a53.9,53.9,0,0,0-2.66-22.4c-2-5.89-5-11.44-9.92-15.49A34.23,34.23,0,0,0,185.45,81c-6.61-1.4-13.38-2.18-19.86,1a3.43,3.43,0,0,1-2.35.5c-3.82-1.62-7.36-.62-11,.6a32.76,32.76,0,0,0-21.5,21.3,44.61,44.61,0,0,0,.66,31.37,23.08,23.08,0,0,1,1,13c-1,4.63-2.66,9.08-2.37,13.94.08,1.3.19,1.9,1.6,1.94C133.41,164.73,135.21,165,137.54,165.17Zm62.85-60.3c-.44-1.67-.79-3.27-1.31-4.81-.13-.38-.78-.63-1.23-.85-1.39-.67-2.87-1.17-4.19-1.95-2-1.17-3.91-2.45-6.33-1.93-1,.2-1.81,1.11-2.77,1.22-7.5.88-14.95,2.59-22.6,1.36a6.31,6.31,0,0,0-3.75.51,17.48,17.48,0,0,1-10.83,1.91c-4.24-.61-6.54,2.39-9.65,3.89-.22.1-.35.59-.36.9,0,1.43,0,2.87,0,4.25,1.47.77,2.09.34,2.64-1.12a5.52,5.52,0,0,1,2.34-3c5.58-2.55,11.38-3.5,17.29-1.15,1.76.7,3.37,1.76,5.06,2.62a2.69,2.69,0,0,0,1.15.3c2.75.08,5.48.14,7-2.88.22-.44.82-.72,1.29-1,4.83-3,10.16-3,15.57-2.61,2.26.19,4.6.83,5.76,2.75C196.74,105.44,198.29,105.19,200.39,104.87ZM184.6,117.31a15.18,15.18,0,0,0,3.49-1c2.95-1.73,4.88-6.39,4.11-9.72a4.26,4.26,0,0,0-1.16-1.82,5.13,5.13,0,0,0-5.56-1.49c-2.63.76-5.41,1.08-8,2s-3.8,3.42-2.85,5.16C177,114.61,179.75,117.05,184.6,117.31ZM155,105.74c-2.78.27-4.77.4-6.74.67-2.92.4-4.44,1.58-4.73,3.53-.51,3.31,1.1,7.56,3.35,8.53,7.45,3.21,13.22-1.53,14.52-7.79.14-.69-.09-1.93-.56-2.19C158.77,107.34,156.56,106.45,155,105.74Z"/><path d="M200,148.24c-1.51,3-2.84,5.88-4.29,8.65a23.6,23.6,0,0,1-2,2.64c-.86,1.19-2.14,2-3.32,1-1.37-1.06-.29-2.34.49-3.41a37.37,37.37,0,0,0,2.73-3.85c1-1.8,1.58-3.79,2.54-5.59.37-.71,1.25-1.58,1.9-1.57S199.21,147.29,200,148.24Z"/><path d="M166,138.52a6.77,6.77,0,0,1-5.3-2.29,2.19,2.19,0,0,1,0-3.31,1.86,1.86,0,0,1,3,.31c2.1,2.78,4.36,2.18,6.66.79.46-.29.81-.9,1.28-1a15.47,15.47,0,0,1,2.73-.14c-.13.84,0,2-.44,2.47A10,10,0,0,1,166,138.52Z"/><path d="M145.31,152.65c0-1.52.88-2.06,2-1.33a10.77,10.77,0,0,1,1.77,1.68,62.07,62.07,0,0,0,4.48,4.41c1.15.92,2.14,1.78,1.25,3.2s-2.19.69-3.37,0a12.84,12.84,0,0,1-5.6-6.41C145.63,153.64,145.45,153.05,145.31,152.65Z"/><path d="M161.56,83.33l2,1.41A7,7,0,0,1,162.13,86a27.53,27.53,0,0,1-3.72,1.55,1.73,1.73,0,0,1-1.48-.15A1.45,1.45,0,0,1,157,86C158.39,85,159.94,84.23,161.56,83.33Z"/><path d="M165.77,84.29c.78-.77,1.31-1.73,1.88-1.75a9.84,9.84,0,0,1,3.56.69c.39.15.55,1,.81,1.46-.53.21-1.08.65-1.58.6C169.16,85.14,167.91,84.77,165.77,84.29Z"/><path d="M163.42,87.25l1.83-2.49a13,13,0,0,1,1.65,2.94c.11.38-1,1.08-1.47,1.63C164.84,88.73,164.25,88.12,163.42,87.25Z"/><path d="M182.92,113.68c-3-.11-4.32-1.52-3.78-4.38.25-1.33.83-2.24,2.39-2.33.84,0,1.64-.65,2.48-.7a3.52,3.52,0,0,1,4,3.22,4.32,4.32,0,0,1-3.79,4.18C183.91,113.71,183.56,113.68,182.92,113.68Z"/><path d="M154.78,110.32c-.1,2.66-2.77,5.19-5.26,5a4.24,4.24,0,0,1-3.39-3.87c.05-2.44,2.59-4.41,5.65-4.36C153.89,107.12,154.86,108.17,154.78,110.32Z"/></svg>