<svg id="Layer_1" data-name="Layer 1" xmlns="http://www.w3.org/2000/svg" viewBox="0 0 348.94 253.13"><path d="M149.58,186c-1.94-5.52-3.83-10.86-5.71-16.22l-.48,1.37a9.21,9.21,0,0,1-7.14,6.2c-.65.15-1.49-.53-2.24-.83.38-.66.6-1.69,1.15-1.91a7.82,7.82,0,0,0,5.38-6.7,2.57,2.57,0,0,1,1.12-1.63c1.59-.88,1.52-2.1,1.32-3.68-.6-4.5-1-9-1.43-13.55a4.4,4.4,0,0,0-.61-2.19c-1.2,2.24-2.53,4.41-3.54,6.73a37.41,37.41,0,0,0-1.85,5.9c-.35,1.37-1.13,2.17-2.46,1.91s-1.6-1.39-1.28-2.61c1.66-6.19,4.07-12,8.85-16.49a2,2,0,0,0,.7-1.15c.08-1.84,0-3.68,0-5.85-1,.3-1.64.51-2.32.74a7.33,7.33,0,0,1-2.33.71c-.67,0-1.3-.67-1.94-1.05.37-.56.63-1.41,1.15-1.64,1.73-.75,3.55-1.28,5.91-2.09-.18-3.19-.55-6.79-.53-10.38a56.58,56.58,0,0,1,.74-10.25c.82-4.36,1.42-8.57.54-13.06-.48-2.43.17-5.21.86-7.68a5.77,5.77,0,0,1,3-3.21c3.39-1.45,6.77-3,10.61-3.2a14.67,14.67,0,0,0,4.83-1.52c3.46-1.49,6.87-3.1,10.29-4.68,3.75-1.73,7.51-1.36,11.27-.08a7.81,7.81,0,0,0,7.08-.55c1.26-.75,3.22-.7,4.8-.49,5.06.68,8.91,3.57,12,7.47a5.56,5.56,0,0,1-.84,7.48c-2.78,2.62-1.74,5.65-1.18,9.11a45.25,45.25,0,0,1,4.37-1.78,10.75,10.75,0,0,1,2.84,0c-.42.91-.61,2.13-1.31,2.65a8.62,8.62,0,0,1-3.46,1.13c-1.66.31-2.43.89-2.37,2.85.12,3.85-.16,7.71-.27,11.56,0,.76,0,1.51,0,2.39,2.82.18,5.54.28,8.25.59.72.08,1.38.77,2.07,1.18-.71.42-1.39,1.15-2.13,1.21a52.1,52.1,0,0,1-6-.06c-1.55-.06-2.31.51-2.23,2.16.21,4.13.33,8.26.53,12.4,0,.41.25,1.11.52,1.19,4,1.09,5.42,4.73,7.34,7.73a51,51,0,0,1,3.56,7.67c.56,1.31.3,2.48-1.24,3s-1.79-.62-2.31-1.67c-1.89-3.8-3.88-7.55-5.87-11.31a2.89,2.89,0,0,0-1.6-1.25c0,2.5-.09,5,0,7.51.17,3.79.51,7.57.72,11.35.06,1.09.32,1.68,1.56,2a28.55,28.55,0,0,1,4.81,1.81c.36.16.83.73.78,1s-.59,1.12-.91,1.12a11.74,11.74,0,0,1-3.17-.46,17.56,17.56,0,0,1-2.52-1.24,14.32,14.32,0,0,0-.35,1.86c-.13,3.93-.26,7.86-.3,11.78a3.56,3.56,0,0,0,.69,1.82c1.25,1.94,2.59,3.82,3.86,5.75a17.55,17.55,0,0,1,1.29,2.32,11.07,11.07,0,0,1,.48,1.82c-.77,0-1.87.42-2.25.05a13.83,13.83,0,0,1-2.31-3.31c-.72-1.3-1.27-2.69-2.11-4.51-1.06,2.41-1.76,4.33-2.72,6.12-1.65,3.08-3.51,6.05-5.17,9.13a2.81,2.81,0,0,0-.15,2.31c2.19,3.92,2.09,8.23,2.2,12.48,0,.47-1,1.34-1.52,1.36a2.05,2.05,0,0,1-2.43-2.15c-.08-2.68-.09-5.38-.43-8-.37-2.91-.69-3-3.36-1.73-4.87,2.35-9.93,1.82-15,1-2.24-.36-4.48-.8-6.68-1.36-1.72-.45-2.45.33-2.32,1.82.26,3.15.66,6.29,1.15,9.41.19,1.22.65,2.53-.89,2.91s-2-.88-2.26-2.11c-.73-4.18-1.92-8.34-.68-12.66a1.68,1.68,0,0,0-.63-1.45,48.26,48.26,0,0,1-12.61-10.55c-1.17-1.43-2-.53-2.43.59-.94,2.43-3,3.74-4.92,5.14-.92.65-2,1.2-2.87,0s.29-1.78,1-2.52c1.29-1.39,2.48-2.88,3.73-4.31C148.07,187.57,148.92,186.69,149.58,186Zm50.86-67.74h.22c0-.41.1-.82.1-1.23-.07-6.2-.1-12.39-.3-18.58a2.86,2.86,0,0,0-1.54-2c-2.73-1.25-5.54-2.28-8.33-3.39a22.68,22.68,0,0,0-9.49-1.55,24,24,0,0,1-7-.91,9.22,9.22,0,0,0-8.35,1.24c-2.88,2-5.71,4.2-9.38,4.89a6.62,6.62,0,0,0-5.28,4.4c-1.46,4-2.81,7.87-2,12.25a20.66,20.66,0,0,1,0,6,5.23,5.23,0,0,1-1.48,3.24,4.42,4.42,0,0,0-1.64,3.54c-.84,15.88-.87,31.7,3.28,47.24,1.9,7.12,5,13.45,10.72,18.43,7.08,6.11,15.42,8.33,24.4,8.67a11.94,11.94,0,0,0,9.87-4c4.78-5.77,8.35-12.4,8.34-20,0-12.6-.64-25.21-1.1-37.8C201.2,131.84,200.78,125,200.44,118.22Z"/><path d="M176.43,146.55c-5,0-10.9-4.18-12-8.52-.73-2.77,1.11-4.75,4-4.23a8.93,8.93,0,0,1,2.38.59,17.26,17.26,0,0,0,11,1.55c2.48-.4,4,1.38,3.71,3.94C185.05,143.83,181.36,146.57,176.43,146.55Zm5.08-7.46c-4.85,1.63-9.09-.68-13.63-2.1.74,3.45,4.64,5.76,8.91,5.69C179.77,142.62,181,141.76,181.51,139.09Z"/><path d="M179.85,133c-3-.38-6-.88-9-1.13a13.37,13.37,0,0,0-9.32,2.49,3.43,3.43,0,0,1-1.82.86,3.53,3.53,0,0,1-2.11-.93,1.89,1.89,0,0,1-.31-1.68c.78-2.11,3.39-3.68,5.71-3.79,1.07-.05,2.1-.6,3.17-.67,1.83-.12,3.68-.08,5.52,0,2.93.08,6-.23,8.77.46,3.49.85,7.44,1.05,10,4.26a8.53,8.53,0,0,1,.86,2A8.73,8.73,0,0,1,189,135c-1.9-.34-3.79-.77-5.65-1.29a31.25,31.25,0,0,1-3.35-1.35Z"/><path d="M164.4,108.41a12.74,12.74,0,0,1-2.84-.27c-2.34-.79-4.22,0-6.16,1.25-.76.51-2,.3-3,.42a12.68,12.68,0,0,1,.15-3,5,5,0,0,1,4.12-3.87,98.62,98.62,0,0,1,10.39-1.3c3.06-.15,4.84,2.12,4,4.66a2.34,2.34,0,0,1-1.32,1.33,23.29,23.29,0,0,1-3.64.64A15.83,15.83,0,0,1,164.4,108.41Z"/><path d="M186.38,102.56c3,.37,6,.65,9,1.15s4.17,2.33,3.87,5.13a1.93,1.93,0,0,1-3,1.36c-1.64-1.25-3.36-1.17-5.17-1.23-2.64-.09-5.28-.28-7.93-.38a2.08,2.08,0,0,1-2.24-2.36c0-1.56.12-3.16,2.15-3.4a30.26,30.26,0,0,1,3.3,0Z"/><path d="M160.55,123.91a4.44,4.44,0,0,1-4.65-4.4c0-2.34,2.85-5.5,5-5.47a5.63,5.63,0,0,1,5.5,5.51C166.34,122.35,164.27,123.91,160.55,123.91Zm-.89-4.36.64.57c1,.09,2.14.35,2.14-1.2,0-.49-.85-1-1.31-1.46Z"/><path d="M196,117.13c0,2.57-2.83,5.05-5.78,5-2.07,0-4.52-2.39-4.5-4.35,0-2.17,3.1-4.86,5.61-4.88A4.51,4.51,0,0,1,196,117.13Z"/></svg>