<svg id="Layer_1" data-name="Layer 1" xmlns="http://www.w3.org/2000/svg" viewBox="0 0 348.94 253.13"><path d="M138.88,86.12c1.81-8.64,8.37-9.85,14.75-11.32a6.55,6.55,0,0,0-9.45-2.31c-2.38,1.46-4.76,3.14-7.38,4a12.17,12.17,0,0,1-10.31-1.59c-1.61-1-2-2.43-1.18-3.82,1-1.56,2.32-1.47,3.78-.77,4.6,2.18,7,1.67,10.91-1.54,4.15-3.4,9-4.64,14.21-2.91a79.19,79.19,0,0,1,9.41,3.7c4.89,2.34,9.15,1.79,13.31-1.73a13,13,0,0,1,15.2-.69c1.18.82,1.85,2.43,2.65,3.75a4.65,4.65,0,0,1,.35,1.54c2-1,3.82-2.22,5.81-2.71,4-1,7.85,1.53,9.7,6A16.4,16.4,0,0,1,212,85.3a1.9,1.9,0,0,0,.82,1.57c4.86,2.78,7,7.08,7,12.52,0,2,.57,3.19,2.77,3.88,9.9,3.08,9.28,15.27,3.88,20.21-.4.36-.78.73-1.7,1.58,2.93,1.37,5.44,2.74,8.08,3.71a40,40,0,0,0,6,1.28,2.38,2.38,0,0,1,2.1,2.63,2.45,2.45,0,0,1-2.48,2.55c-3.23.09-6.46,0-10.19,0,1.07,1.56,1.86,2.79,2.72,4,5.09,6.82.14,11.69-5.21,12.76l-5.17,1c.27.81.43,1.39.64,1.94a4,4,0,0,1-1.48,4.78,3.78,3.78,0,0,1-4.8.24,3.32,3.32,0,0,0-3.19-.49,22.59,22.59,0,0,1-3.77.29c1.55,2.22,3,4.15,4.31,6.21a37.06,37.06,0,0,1,3,5.65c.44,1.09,1.11,2.87-.57,3.38s-2.51-.94-2.94-2.46a26.79,26.79,0,0,0-6.34-10.43c-1.06,2.77-2.13,5.48-3.1,8.21-.11.3.2.86.47,1.17,1.21,1.39,2.6,2.65,3.68,4.13.45.63.3,1.7.42,2.57a7.19,7.19,0,0,1-2.12-1c-1.25-1.24-2.34-2.66-3.53-4.05l-5.8,7c1,2.62,2,5.29,3,8.12-2.17.62-3-.71-3.72-2s-1.16-2.73-1.83-4.34c-1.93,1.27-3.7,2.32-5.3,3.58-.43.34-.46,1.33-.48,2-.17,4.52-.29,9.05-.42,13.53-2.78.15-3.55-.53-3.4-2.72.19-2.81.5-5.62.7-8.44a16.33,16.33,0,0,0-.17-2.31c-2.24.48-4.23.92-6.23,1.33-4.89,1-9.61,0-14.27-1.34-1.61-.45-2.25-.19-2.36,1.56-.22,3.78-.56,7.55-1,11.31a6.65,6.65,0,0,1-1,2c-.6-.72-1.73-1.44-1.72-2.15,0-3.37.34-6.73.56-10.1a5.06,5.06,0,0,1,.17-1c.65-2.33.15-4-2.25-5.16-1.69-.83-3.06-2.3-4.66-3.56a21.67,21.67,0,0,1-2,3.11,5,5,0,0,1-2.34,1.49c-.55.14-1.28-.46-1.93-.72.26-.56.48-1.14.78-1.68.85-1.55,1.75-3.06,2.58-4.62a1.17,1.17,0,0,0,0-1c-1.63-2.83-3.3-5.64-5.18-8.83a28.09,28.09,0,0,1-2.64,3.88,8.62,8.62,0,0,1-2.65,1.3c.05-1-.24-2.2.23-2.92a43.69,43.69,0,0,1,3.63-4.34c.24-.29.57-.75.49-1-.94-3.2-1.95-6.37-3-9.88a32.55,32.55,0,0,0-3.87,9.65,18.44,18.44,0,0,1-.55,3,2.5,2.5,0,0,1-1.74,1c-.23,0-.93-.95-.92-1.46.12-4.07.61-8.08,2.73-11.7q2-3.39,3.95-6.79c.82-1.41.35-2.38-1.26-2.13a7.55,7.55,0,0,0-3.38,1.71c-1.77,1.44-3.54,2.62-6,2.32-5-.61-8.74-6.15-7.42-11,.36-1.32.87-2.6,1.43-4.23-.93.23-1.63.37-2.3.59a15.71,15.71,0,0,1-9,.27c-2.1-.56-3.12-1.82-2.74-3.41s1.79-2.28,4-1.78a14,14,0,0,0,14.08-5.73,70.94,70.94,0,0,1-5.37-4.71c-4.72-5-4.37-12.94.86-17.1,3.45-2.76,7.72-3,12-3,1.37,0,2.75.1,4.12,0s1.82-.82,1.44-2.14a7,7,0,0,1-.57-2.61c.57-4-1.58-5.85-4.78-7.54-1.68-.89-3-2.78-4-4.49a2.79,2.79,0,0,1,1.28-4c1.75-.55,2.68.36,3.64,1.84S137.18,84.44,138.88,86.12Zm66,12.45a15,15,0,0,1-1.84.58c-3.23.56-6.81-.7-7.48-4.1a10.74,10.74,0,0,1,.17-3.47c.24-1.72-.38-2.65-2.07-3.22-3.19-1.06-6.22-.41-9.34.32-2.8.65-4-.32-4.26-3.19-.12-1.28,0-2.57,0-4.47-2.28,1.2-4.65,1.94-6.35,3.44a20.76,20.76,0,0,1-13.38,5.47c-.65,0-1.67,0-1.89.42-1.16,2-2.12,4.19-3.15,6.3l.48.7c3.34-3.59,7.48-2.28,11.39-2.37,1.92,0,2.71,1,2.69,2.84,0,2.28-.56,3-2.63,3.06a17.15,17.15,0,0,1-2.24-.22c-1.69-.18-3.44-.7-5-.42-2,.34-3.89,1.22-5.23-1.46a25.1,25.1,0,0,0-1,2.28c-5,15.35-9.62,30.71-9.84,47.13-.12,8.56,1.51,16.36,5.71,23.74,5.27,9.28,13.27,13.73,23.85,13.39,7.35-.23,13.15-4.21,18.55-8.67a17.61,17.61,0,0,0,4.73-5.89,66.46,66.46,0,0,0,4.33-12c1.43-5.74,2.33-11.61,3.43-17.43,1.82-9.62,3.45-19.27,3-29.12A59.77,59.77,0,0,0,204.83,98.57Z"/><path d="M202.75,113.4a5.25,5.25,0,0,1-7.33,4.88,10.65,10.65,0,0,1-3.89-2.83c-1.91-2.36-.75-6.65,1.95-8.06C197.17,105.46,202.85,109.14,202.75,113.4Zm-8.52-.43c1.18,1,1.86,1.91,2.71,2.08,1.36.29,1.84-1,1.58-2a8.87,8.87,0,0,0-1.76-2.54Z"/><path d="M160.76,114a6.22,6.22,0,0,1-5.94-5.74,3.48,3.48,0,0,1,.84-2.22c2-2.17,6.89-2.56,9.14-.77,1.52,1.2,1.78,2.79,1.28,4.65-.64,2.37-2.29,3.48-4.48,4A3.23,3.23,0,0,1,160.76,114Zm-2.27-5.4c1,1,1.55,1.85,2.19,2,1.59.33,1.68-1.16,1.79-2.14.06-.45-.86-1.48-1.13-1.42A13.21,13.21,0,0,0,158.49,108.59Z"/><path d="M203.18,105.82c-.94-.29-1.53-.45-2.11-.65-2.23-.73-4.4-1.28-6.85-.63-2.81.74-4.85-.51-5.36-2.8-.41-1.82.33-3.23,2.16-3.16a33.8,33.8,0,0,1,7,1.28,22,22,0,0,1,5.37,2c.74.41,1.14,1.72,1.3,2.69C204.75,104.92,203.65,105.46,203.18,105.82Z"/><path d="M175.79,136.34a8.81,8.81,0,0,1-7.82-4c-.37-.58-.08-1.6-.1-2.41.87.06,2.14-.22,2.54.24,2.83,3.28,6.18,2.75,9.63,1.55,1.42-.49,3.08-1.67,3.76.5.56,1.78-1.27,2.34-2.63,2.75C179.4,135.53,177.59,135.9,175.79,136.34Z"/></svg>