<svg id="Layer_1" data-name="Layer 1" xmlns="http://www.w3.org/2000/svg" viewBox="0 0 348.94 253.13"><path d="M190.16,192.5c-.47,2-.87,3.8-1.34,5.6-.8,3.12-.42,6.25-.09,9.37a13.22,13.22,0,0,1,.21,1.52c0,.88.73,2.06-.71,2.45-1.1.3-2.54-.86-2.79-2.12a15,15,0,0,1-.38-2.65c0-3,0-6,.1-9,0-1.54.09-3.08.15-4.63a3.21,3.21,0,0,1,.1-.62c.41-1.92.37-1.83-1.42-2.77-2.13-1.13-4.2-2.38-6.26-3.65a2.32,2.32,0,0,0-3.64.94c-.69,1.27-1.36,2.54-2.1,3.78-.84,1.41-2.15,2.07-3.39,1.61a2.52,2.52,0,0,1-1.39-1.29,1.69,1.69,0,0,1,.72-1.46c1.87-.95,2.61-2.72,3.5-4.41.12-.22.21-.46.32-.69.34-.69,1.06-1.48.91-2.05s-1.07-1.13-1.7-1.62a36.74,36.74,0,0,1-8.32-9.72c-.72-1.14-1.1-1.22-2.08-.28-.83.78-1.5,1.72-2.28,2.55-.5.52-.67,1.65-1.8,1.15a1.92,1.92,0,0,1-.83-2.53,17.7,17.7,0,0,1,2.82-3.87c1.39-1.34,1.49-1.28.44-3-2.88-4.67-4.35-9.84-5.39-15.17-.36-1.87-.58-3.77-.87-5.66-.07-.44-.19-.88-.3-1.39A3.26,3.26,0,0,0,150,145a22.29,22.29,0,0,0-2,9.65c0,1.7.08,3.41,0,5.1a2,2,0,0,1-.73,1.43c-.27.15-1.12-.24-1.36-.61a6.89,6.89,0,0,1-1.2-2.76c-.36-4.21-.34-8.42,1.23-12.45,1-2.51,2.42-4.69,5.07-5.75a1.43,1.43,0,0,0,1-1.56c-.08-2-.14-3.91-.23-5.86-.06-1.18-.48-1.48-1.56-1-1.38.62-2.68,1.44-4.07,2.06a2.66,2.66,0,0,1-2.89-.33c-.86-.68-.89-1.66.11-2,2.5-.89,4.53-2.91,7.36-3.05.31,0,.8-.64.84-1,.41-4.31.75-8.63,1.11-13,.06-.79-.29-1.13-1.08-.91a38.49,38.49,0,0,1-4.42,1.19,11.08,11.08,0,0,1-3.58-.17c-.36-.07-.8-.81-.82-1.26a1.42,1.42,0,0,1,.91-1c2.25-.57,4.54-1,6.81-1.51.16,0,.35,0,.51,0,.61-.18,1.5.64,1.83-.47a3.87,3.87,0,0,0-1-3.24,7,7,0,0,1-1.71-2,40.17,40.17,0,0,1-3.3-11.31,22.34,22.34,0,0,1,2.92-16c2.15-3.45,4.52-6.53,8-8.68a13.43,13.43,0,0,1,7.65-1.9,77.45,77.45,0,0,0,8.48.07,22.37,22.37,0,0,0,5.25-1.51c3.93-1.35,7.79-2.91,11.76-4.11,5-1.49,10.08-2.24,15.22-1.13a54.31,54.31,0,0,1,7.32,2.56,51,51,0,0,1,11.16,5.2,22.9,22.9,0,0,1,9.78,15.07,33.57,33.57,0,0,1,0,11.4c-.48,3.66-.61,7.37-.88,11.05-.24,3.14-.47,6.28-.71,9.41-.1,1.29-.26,2.58-.24,3.87,0,.3.55.7.93.86s1,.06,1.38.22a5.35,5.35,0,0,0,5.92-.94c.59-.51,1.81-.27,3.1-.41-.67,1.94-1.09,3.54-2.38,4.67a3.29,3.29,0,0,1-3.6.34,29.3,29.3,0,0,0-3.57-1.29c-1.26-.3-1.62.1-1.58,1.37q.15,4.84.31,9.69c0,.33.07.66.09.86l8,.8a1.82,1.82,0,0,1,.63.07c.48.25.93.56,1.39.84-.52.5-1,1.39-1.56,1.42a29,29,0,0,1-4.54-.32c-1.06-.11-2.1-.31-3.15-.41a.88.88,0,0,0-.7.36,2.46,2.46,0,0,0,1.06,2.91c3.7,2.08,7.48,4.08,10,7.71a34.39,34.39,0,0,1,4.47,10.62,1.83,1.83,0,0,1-.51,1.65c-.37.23-1.16-.08-1.71-.29-2.69-1.06-3-3.7-4-5.94a55.6,55.6,0,0,0-3.23-7.05c-1.22-2-3.43-3-5.68-4.23a25.5,25.5,0,0,0,0,2.65q1.17,9.28,2.37,18.58a16.09,16.09,0,0,0,.34,2.52,1.48,1.48,0,0,0,1.07.9c2.53-.06,4.32,1.15,5.9,3A24.53,24.53,0,0,0,246.1,172a4.73,4.73,0,0,1,1.11,1,1.6,1.6,0,0,1,0,1.27,1.19,1.19,0,0,1-1.06.28c-2.61-.76-5.08-1.8-6.65-4.15-.68-1-1.59-.75-2.35-.54-.33.1-.55,1-.6,1.57a28.44,28.44,0,0,1-1.82,8.69c-1.2,2.93-1,3.42,1.44,5.47,1.75,1.48,3.33,3.14,5,4.74.74.72.3,1.44-.15,2.05s-1,.08-1.35-.26c-1.55-1.38-3.07-2.78-4.6-4.18-.34-.31-.64-.68-1-1-1.51-1.41-2-1.3-3.49,0a49.44,49.44,0,0,1-5.28,4c-.68.46-.76.76-.41,1.39.66,1.15,1.29,2.3,1.92,3.45,2.17,4,2.73,8.37,3.6,12.7.17.81-.26,1.16-1.05,1.23a2.48,2.48,0,0,1-2.78-1.89,42.61,42.61,0,0,1-1.15-6c-.29-3-1.74-5.55-3.1-8.13a1.15,1.15,0,0,0-1-.39c-4.2,1.81-8.65,1.7-13.06,1.51-5.77-.25-11.56-.56-17.17-2.14A6.68,6.68,0,0,0,190.16,192.5Zm-34.11-59.81h.18a21.84,21.84,0,0,0,0,2.29c.61,5.7,1,11.44,1.93,17.09,1.2,7.43,5.07,13.72,9.37,19.73a46.62,46.62,0,0,0,11.08,10.81,43.26,43.26,0,0,0,12,6.39c7.48,2.37,15.27,2.72,23.07,2.4a11.89,11.89,0,0,0,4.36-.73,72.75,72.75,0,0,0,7.75-4.35,9.54,9.54,0,0,0,2.51-2.48,19.86,19.86,0,0,0,3.77-13.08c-.3-6.1-1.14-12.17-1.79-18.24-.67-6.25-1.46-12.48-2-18.73-.26-2.7-.11-5.44-.16-8.16,0-.64,0-1.4-1-1.34-1.73.12-3.46.3-5.19.49a1.56,1.56,0,0,0-1.47,1.47,14.74,14.74,0,0,1-9.62,12c-7.42,3-12.8.61-16.24-6-1-1.9-.86-4.36-1.32-6.55-.1-.48-.48-1.3-.74-1.31-2.06-.06-4.15-.4-6.17.49a2.18,2.18,0,0,0-1.51,1.77,18.88,18.88,0,0,1-2.58,7c-2.83,4.27-7.59,8.09-14.09,5.15a20,20,0,0,1-6-3.52c-2.31-2.26-3-5.22-3.22-8.35,0-.49-.19-1.23-.51-1.38-.87-.41-2.39.71-2.4,1.7C156,129,156.05,130.86,156.05,132.69Zm68.71-11.07c3,.1,3.26-.28,2.36-2.6-.06-.16-.06-.34-.13-.49a14.08,14.08,0,0,0-3.57-5.33c-3.07-2.52-6.06-5.15-9.06-7.77a6,6,0,0,1-1.77-5.59,33.23,33.23,0,0,1,1.54-5.75c1.29-3.78.57-6.3-2.95-8.12a18.16,18.16,0,0,0-5.83-1.65c-9.92-1.35-19.86-2.55-29.79-3.82-.89-.11-1.47.1-1.73,1a30.38,30.38,0,0,1-1.31,4.12,7.48,7.48,0,0,1-2,3,36.7,36.7,0,0,1-7.24,4.43c-1.92.8-3.17,1.79-3.74,3.72a16.53,16.53,0,0,0-.53,2c-.32,2-.21,4.12-1,5.88a12.86,12.86,0,0,0-.71,5.16c-.05,1.27-.11,2.55-.21,3.82-.2,2.67-.45,5.33-.64,8,0,.36.18,1,.35,1a7.42,7.42,0,0,0,2.53,0c.35-.07.56-.76.86-1.16a6.41,6.41,0,0,1,1-1.26c1.31-1,2.5-2.18,4.41-2.21,1.32,0,2.64-.87,3.95-.84,3.16,0,6.34.3,9.49.66a6.18,6.18,0,0,1,5,3.41,1,1,0,0,0,1.4.59,12.21,12.21,0,0,1,7.28,0,1,1,0,0,0,1.42-.64,6.29,6.29,0,0,1,4.88-3.67c5.47-1.12,10.91-.64,16.35.33a5.34,5.34,0,0,1,4.32,3.28,1.42,1.42,0,0,0,1.92.93A27.83,27.83,0,0,1,224.76,121.62Zm-19.18-1.91c-1.2.14-3,.26-4.73.55a3.57,3.57,0,0,0-2.94,2.68,11.51,11.51,0,0,0,4.41,12.72,5.31,5.31,0,0,0,3.23.74,18.82,18.82,0,0,0,3.38-1c4.32-1.12,7.73-6.68,7.37-11.34-.12-1.55-1.62-3.68-2.78-3.78C211.07,120.08,208.62,119.93,205.58,119.71Zm-32.51.87c-2.93-.64-5.57.7-8.28,1.64a1.76,1.76,0,0,0-.79.76,9,9,0,0,0,2.45,11.39,31.65,31.65,0,0,0,4.06,2.08,4,4,0,0,0,3.43,0c4.66-1.88,7-8.14,7.05-11.48a3.43,3.43,0,0,0-1.47-2.81A8.17,8.17,0,0,0,173.07,120.58Z"/><path d="M185.45,154.07c.13-1.87.82-2.66,2.64-2.67,2.25,0,4.5.22,6.74.12,1.93-.08,3.85-.48,5.78-.74.5-.06,1-.13,1.52-.14,1.94-.06,3,1.28,2.43,3.19a8.52,8.52,0,0,1-8.15,6.22,27.25,27.25,0,0,1-5.28-.31,7.8,7.8,0,0,1-5-3.68A8.49,8.49,0,0,1,185.45,154.07Zm2.63.05c.16.35.25,1,.62,1.3a9.54,9.54,0,0,0,3.42,2,22.29,22.29,0,0,0,5.54.08c1.85-.1,4.11-2.38,4.42-4.16Z"/><path d="M197.06,166a23.89,23.89,0,0,1-3.4-.37,1.76,1.76,0,0,1-1.08-1.25c-.05-.78.63-1.13,1.42-1,2.72.27,5.43.42,8.05-.57.52-.19,1-.58,1.54-.54a2.27,2.27,0,0,1,1.6.77c.37.65-.05,1.31-.81,1.57C202,165.4,199.64,166.26,197.06,166Z"/><path d="M169.58,108.59l1.58.58a16.69,16.69,0,0,1-1,1.92c-.18.27-.64.37-1,.51a11.88,11.88,0,0,0-4.64,2.78,3.26,3.26,0,0,1-2,.94,1.58,1.58,0,0,1-1.42-2.73C162.82,110.43,166.77,108.69,169.58,108.59Z"/><path d="M214.77,110.29c2.17-.22,4,1.07,5.8,2.35.86.61.62,1.5.07,2.25a2.49,2.49,0,0,1-3,.52q-2.16-1.27-4.43-2.37c-.78-.37-1.63-.79-1.3-1.7.18-.49,1.11-.75,1.74-1A3.4,3.4,0,0,1,214.77,110.29Z"/><path d="M207.74,122c1.93,0,4.18,1.86,4.39,3.58a4.28,4.28,0,0,1-3.35,5.07c-3.46.81-6.7-1.59-6.5-4.83a2.74,2.74,0,0,1,.27-1.1C202.94,124,206.88,122,207.74,122Zm1.13,4.22a1.63,1.63,0,0,0-1.7-1.63c-.95-.05-1,.67-1,1.27-.1,1,.59,2,1.36,2S208.89,127.34,208.87,126.25Z"/><path d="M170.67,131c-2.9-.32-4.9-1.91-5.44-4.33-.45-2,.86-3,2-3.91,2.27-1.78,6.51-.73,7.93,1.77,1.09,1.92.88,3.54-.91,4.8A22,22,0,0,1,170.67,131Zm.29-6.59-.48.11c-.15.36-.53.85-.41,1a9.81,9.81,0,0,0,1.36,1.53c.33-.34,1-.9.94-1A11.74,11.74,0,0,0,171,124.4Z"/></svg>