<svg id="Layer_1" data-name="Layer 1" xmlns="http://www.w3.org/2000/svg" viewBox="0 0 348.94 253.13"><path d="M213.82,113.45a13.93,13.93,0,0,0,1.38-.4c2.21-.9,4.09-.1,5.82,1.18a1.48,1.48,0,0,1,.43,1.29c-.06.28-.69.44-1.08.63a.5.5,0,0,1-.38,0c-2.05-1-3.85,0-5.66.75a1.65,1.65,0,0,0-1,1.09c-.3,4.28-.52,8.57-.74,12.85a1.58,1.58,0,0,0,1.25,1.79,24.5,24.5,0,0,1,2.69,1.16c5.36,2.4,5.75,9.21,3.07,12.56-1,1.26-2.15,2.39-3.17,3.64a1.71,1.71,0,0,0-.45,1.3,30.06,30.06,0,0,0,1.42,3.37c.18.38.61.68.69,1.06a3.57,3.57,0,0,1,0,2c-.14.28-1.21.37-1.7.17a10.68,10.68,0,0,1-2.41-1.56,11.36,11.36,0,0,1-1.33-1.5c-.24,1.9-.39,3.53-.68,5.13s-.68,3.41-1.12,5.1c-.25,1-.06,1.48,1,1.52,1.56.07,3.13.18,4.69.19,2.75,0,4.68,1.56,6.43,3.42a.81.81,0,0,1-.81,1.37c-.73-.2-1.39-.62-2.12-.83a21.58,21.58,0,0,0-3.37-.75c-1.51-.17-3.05-.06-4.54-.29a7.8,7.8,0,0,1-2.17-1.1c-.6,2-1.08,4-1.83,5.93-1,2.52-2.13,5-3.32,7.42-.42.85-.43,1.33.34,1.93,1.28,1,2.46,2.12,4.21,2.16a.64.64,0,0,1,.37.1c.65.52,1.87,1.12,1.82,1.56-.15,1.24-1.44,1-2.38,1a7.34,7.34,0,0,1-4.87-2.22c-1.43-1.24-1.43-1.17-2.38.39-2.43,4-5.36,7.43-9.95,9.08a1.26,1.26,0,0,0-.61,1c.07,1.14.31,2.27.47,3.41a53.07,53.07,0,0,1-.32,15.36,1.76,1.76,0,0,1-2.05,1.62,2.4,2.4,0,0,1-1.88-2.86,39,39,0,0,0,.66-4.66,44.88,44.88,0,0,0-.49-11c-.26-1.29-.76-1.54-2-1.4a60.53,60.53,0,0,1-7.23.57c-2.33,0-4.65-.41-7-.65-.5,0-1-.14-1.62-.24-.25,3.87-.57,7.63-.71,11.38A11.15,11.15,0,0,0,170,214a1.77,1.77,0,0,1-.37,1.68,2,2,0,0,1-1.72-.24,4.87,4.87,0,0,1-2.05-4.31c0-3.86.25-7.72.39-11.58,0-.25.07-.5.1-.76.24-1.87-.13-3.23-2.16-4.14a44.37,44.37,0,0,1-6-3.8c-1.18-.78-1.56-.7-1.76.66-.51,3.42-2.47,3.77-5.13,4.37-.53.12-1.25-.6-1.89-.94.32-.54.6-1.1,1-1.61A1.16,1.16,0,0,1,151,193c1.51-.4,2-1.45,2.15-2.91.07-.66.71-1.25,1.22-2.08-.79-.73-1.67-1.63-2.63-2.44a50.89,50.89,0,0,1-10.24-12.09c-.92-1.49-1.19-1.54-2.17-.09a7.48,7.48,0,0,1-4.76,3.57,6.74,6.74,0,0,1-1,.17c-.91.08-1.73-.31-1.84-1.18a1.9,1.9,0,0,1,1-1.55c2.07-.7,3.26-2.36,4.67-3.81a13.17,13.17,0,0,1,1.92-1.36c0-.14-.11-.42-.21-.68-1.41-3.36-2.85-6.71-4.21-10.09-.81-2-1.17-2.15-2.66-.48-.48.53-.87,1.15-1.39,1.63a1.79,1.79,0,0,1-2.61-.07,1.73,1.73,0,0,1,0-2.52c.45-.55,1.07-1,1.53-1.51a7.39,7.39,0,0,0,1.39-2,2.17,2.17,0,0,0-1.05-2.79,32.13,32.13,0,0,1-4.48-3.36,28,28,0,0,1-3.68-4.16c-1.64-2.27-1.35-8,.72-10,1.9-1.86,3.66-3.88,5.38-5.92a3.55,3.55,0,0,0,.54-2c0-2.45,0-4.89,0-7.34,0-1-.32-1.24-1.45-1.07a9.64,9.64,0,0,1-3,.26,4.07,4.07,0,0,1-1.94-1.35,1.29,1.29,0,0,1,0-1.25,1.69,1.69,0,0,1,1.2-.39c1.73,0,3.46,0,5.19,0,.27,0,.68-.47.76-.78.4-1.6.74-3.21,1-4.83a2.17,2.17,0,0,0-.29-1.19,11,11,0,0,1-.3-9.45c1.7-4.32,2.77-8.77,2.09-13.55s0-9.4,2.77-13.42a35.29,35.29,0,0,1,5-5.38,28.36,28.36,0,0,1,10.76-6.09c3.47-1.15,7-.58,10.47,0,6.23,1.07,12,3.55,18,5.38,3,.92,6.05,1.57,9.25.57a12.35,12.35,0,0,1,4.3-.19c3.21.19,6.58,0,9.6.87,5.88,1.72,10.75,5.11,13.14,11.09a12,12,0,0,1,.31,7.66,10.45,10.45,0,0,1-3.31,4.74c-1.31,1.22-3.13,2-3.56,4a6.19,6.19,0,0,0,.18,1.89,4.58,4.58,0,0,0,1.5-.22,4.46,4.46,0,0,1,4.93.19c.37.26.54.81.8,1.22a7.56,7.56,0,0,1-1.29.61c-.44.13-.93,0-1.39.15-2.25.46-2.9,1.68-2.35,3.82.84,3.28,1.54,6.6,2.29,9.91C213.49,111.77,213.64,112.55,213.82,113.45Zm-36.16,81.31c3.15-.43,6.33-.71,9.44-1.34,3.26-.66,6.38-2,8.34-4.77,2.58-3.67,4.94-7.51,7.17-11.4,2.13-3.72,2.67-8,4-12.07a39.84,39.84,0,0,0,1.82-12.29c0-3-.32-5.95-.3-8.92,0-3.69.21-7.39.38-11.08.22-4.8.51-9.59.76-14.39a30.51,30.51,0,0,0,.16-5.72c-.53-3.6-1.4-7.16-2.15-10.72a2.44,2.44,0,0,0-1.66-2c-.8-.27-1.33-1.09-.8-1.83s.21-1.4,0-2.12c-.23-.92-.33-1.87-.53-2.8a3.29,3.29,0,0,0-.47-1.28,29.17,29.17,0,0,0-12.37-9.7c-3.56-1.52-7.16-2.55-11-1.25a15.43,15.43,0,0,1-11.2-.58,12.42,12.42,0,0,0-2.63-.85,13.7,13.7,0,0,0-8.26,1.51,2.15,2.15,0,0,0-1.12,1.14,14,14,0,0,1-6.52,9,16.94,16.94,0,0,0-5.61,4.85c-1.27,1.91-2.61,3.77-3.84,5.7a33.93,33.93,0,0,0-2.62,4.61c-1,2.41-1.84,4.93-2.77,7.39a3.11,3.11,0,0,1-2.36,2.26,1,1,0,0,0-.61.67,56.3,56.3,0,0,0-.46,7.21c.23,4.7.56,9.42,1.16,14.09a70.51,70.51,0,0,0,2.19,11.08c1.47,5,3.23,9.85,5.17,14.64a69.85,69.85,0,0,0,4.85,9.52c3.59,6,8.79,10.54,14.21,14.82C165.17,192.17,170.92,194.68,177.66,194.76Zm-48.8-63.07c-2.35.78-4.62,5.09-4.43,8.06s4.68,7.06,6.53,7.31Q129.91,139.43,128.86,131.69Zm83.66,3.8c-.21,4.1-.6,8.18.16,12.39,3.2-2.07,5.21-5.3,4.42-8.25C216.53,137.49,214.54,135.56,212.52,135.49Z"/><path d="M198.58,125.9c-3.17.11-5.53-.79-7.29-3s-.79-5.39,1.48-7c.29-.2.74-.13,1.1-.25a8.63,8.63,0,0,0,1.56-.59c1.62-.84,3.2-.31,4.67.28a5.9,5.9,0,0,1,2.73,8.44C201.78,125.52,200,125.79,198.58,125.9Zm.72-5.33c0-1.84-1-3.18-2.26-3.13-.93,0-2.11,1.71-2.1,3a2,2,0,0,0,2.29,2.21C198.82,122.57,199.31,122.08,199.3,120.57Z"/><path d="M151,110c2.52,0,5.31,2.14,5.8,4.35.74,3.33-2.9,6.79-6.17,5.82a10.4,10.4,0,0,1-2.33-1,5.41,5.41,0,0,1-2.39-6.82,1.16,1.16,0,0,1,.33-.52A7.71,7.71,0,0,1,151,110Zm.38,3.08c-.92.16-1.75.39-1.82,1.47s.82,2.46,1.62,2.43,1.6-1.34,1.64-2.49C152.87,113.49,152.15,113.25,151.4,113.08Z"/><path d="M158.7,140.89a13.63,13.63,0,0,1-11.22-5.54,1.71,1.71,0,0,1-.43-.77c0-.71-.23-1.59.1-2.09a1.65,1.65,0,0,1,2.4-.25,8.73,8.73,0,0,1,2.18,1.92c1.69,2.28,3.94,3,6.66,3a6,6,0,0,1,2.7,1.11,1.4,1.4,0,0,1,.56,1.24,2.35,2.35,0,0,1-1.2,1.12A6.6,6.6,0,0,1,158.7,140.89Z"/><path d="M196.46,104.11c2.75.64,5.52,1.23,8.25,2,.49.13.83.82,1.23,1.26a3.06,3.06,0,0,1-3.65,1c-2.46-.43-4.9-.93-7.36-1.33-.73-.12-1.37-.38-1.2-1.12a2.55,2.55,0,0,1,1.16-1.4c.38-.22,1,0,1.51,0Z"/><path d="M149.81,103.81c-1.42.43-2.86.82-4.27,1.31-.77.27-1.56.34-1.87-.43a2.24,2.24,0,0,1,.27-1.9,2.68,2.68,0,0,1,1.84-.93c2.36,0,4.72.1,7.08.22a1.59,1.59,0,0,1,1,.47c.57.61.55,1.19-.39,1.34-1.17.19-2.35.26-3.53.38Z"/></svg>