<?xml version="1.0" encoding="UTF-8"?>
<svg width="32px" height="32px" viewBox="0 0 32 32" version="1.1" xmlns="http://www.w3.org/2000/svg" xmlns:xlink="http://www.w3.org/1999/xlink">
    <title>Group 313</title>
    <g id="Symbols" stroke="none" stroke-width="1" fill="none" fill-rule="evenodd">
        <g id="Header/Team" transform="translate(-101.000000, -208.000000)" fill="#FFFFFF" fill-rule="nonzero">
            <g id="Group-313" transform="translate(101.000000, 208.000000)">
                <path d="M16,0 C7.164288,0 0,7.164288 0,16 C0,24.83568 7.164288,32 16,32 C24.83568,32 32,24.83568 32,16 C32,7.164288 24.83568,0 16,0 Z M16,29.28568 C8.66432,29.28568 2.714288,23.33568 2.714288,16 C2.714288,8.66432 8.66432,2.714288 16,2.714288 C23.33568,2.714288 29.28568,8.66432 29.28568,16 C29.28568,23.33568 23.33568,29.28568 16,29.28568 Z" id="Shape"></path>
                <path d="M14.4,9.71432 C14.4,10.16896 14.56856,10.60496 14.86864,10.92648 C15.16872,11.24792 15.57568,11.42856 16,11.42856 C16.42432,11.42856 16.83128,11.24792 17.13136,10.92648 C17.43144,10.60496 17.6,10.16896 17.6,9.71432 C17.6,9.2596 17.43144,8.8236 17.13136,8.50208 C16.83128,8.18064 16.42432,8 16,8 C15.57568,8 15.16872,8.18064 14.86864,8.50208 C14.56856,8.8236 14.4,9.2596 14.4,9.71432 Z M16.8,13.71432 L15.2,13.71432 C15.05336,13.71432 14.93336,13.84288 14.93336,14 L14.93336,23.71432 C14.93336,23.87144 15.05336,24 15.2,24 L16.8,24 C16.94664,24 17.06664,23.87144 17.06664,23.71432 L17.06664,14 C17.06664,13.84288 16.94664,13.71432 16.8,13.71432 Z" id="Shape"></path>
            </g>
        </g>
    </g>
</svg>